<svg id="Capa_1" enable-background="new 0 0 512 512" height="512" viewBox="0 0 512 512" width="512" xmlns="http://www.w3.org/2000/svg"><g><path d="m268.25 496.98h15.02v15.02h-15.02z"/><path d="m281.655 404.019c14.015-9.26 23.284-25.147 23.284-43.164 0-28.512-23.196-51.708-51.709-51.708-28.512 0-51.709 23.196-51.709 51.708 0 18.018 9.269 33.905 23.284 43.164-27.264 11.22-46.514 38.06-46.514 69.324v38.657h74.938v-15.02h-59.919v-23.637c0-33.039 26.879-59.919 59.919-59.919s59.919 26.88 59.919 59.919v23.637h-14.86v15.02h29.879v-38.657c.001-31.264-19.249-58.103-46.512-69.324zm-65.114-43.164c0-20.231 16.459-36.689 36.689-36.689 20.231 0 36.689 16.458 36.689 36.689s-16.459 36.689-36.689 36.689c-20.231 0-36.689-16.458-36.689-36.689z"/><path d="m315.305 336.276 5.6 13.936c12.916-5.189 25.256-11.893 36.676-19.924l-8.639-12.286c-10.475 7.367-21.792 13.515-33.637 18.274z"/><path d="m427.534 232.813c4.855-16.556 7.317-33.78 7.317-51.192 0-19.854-3.186-39.377-9.468-58.025l-14.233 4.795c5.761 17.1 8.682 35.01 8.682 53.23 0 11.618-1.193 23.141-3.555 34.401z"/><path d="m253.23 15.02c31.355 0 61.901 8.756 88.334 25.319l7.975-12.728c-28.826-18.063-62.129-27.611-96.309-27.611-37.858 0-74.139 11.535-104.921 33.356l10.584 10.926c27.817-19.152 60.384-29.262 94.337-29.262z"/><path d="m83.887 115.848c-8.147 20.961-12.278 43.091-12.278 65.774 0 10.155.846 20.342 2.514 30.28l14.812-2.486c-1.531-9.119-2.307-18.47-2.307-27.794 0-18.549 3.008-36.69 8.95-54.021z"/><path d="m191.513 336.419c-15.688-6.26-30.309-14.868-43.456-25.583l-9.489 11.642c14.332 11.68 30.272 21.065 47.378 27.891z"/><path d="m223.183 435.953h15.02v15.02h-15.02z"/><path d="m418.005 244.278-20.477-29.88-20.477 29.88-34.745 10.242 22.16 28.8v36.119l33.063-12.111 33.063 12.111v-36.119l22.159-28.8zm-2.435 33.932v19.732l-18.043-6.609-18.043 6.609v-19.732l-11.911-15.48 18.846-5.556 11.108-16.208 11.108 16.208 18.846 5.556z"/><path d="m131.634 225.394h-48.255l-24.128 41.79 24.128 41.791h48.256l24.128-41.791zm-8.671 68.561h-30.913l-15.456-26.771 15.456-26.77h30.913l15.456 26.77z"/><path d="m388.407 120.466c24.804 0 44.984-20.18 44.984-44.985s-20.18-44.985-44.984-44.985-44.984 20.18-44.984 44.985 20.179 44.985 44.984 44.985zm0-74.949c16.523 0 29.965 13.442 29.965 29.965s-13.442 29.965-29.965 29.965-29.965-13.442-29.965-29.965 13.442-29.965 29.965-29.965z"/><path d="m170.154 75.482-53.102-53.103-53.103 53.103 53.103 53.103zm-53.103-31.862 31.862 31.862-31.862 31.862-31.862-31.862z"/><path d="m253.166 158.154c-29.624.778-29.618 44.156.001 44.93 29.623-.778 29.617-44.156-.001-44.93zm0 29.91c-9.785-.176-9.784-14.716 0-14.891 9.785.177 9.784 14.717 0 14.891z"/><path d="m300.498 127.379-17.451 10.075c-2.316-1.609-4.75-3.023-7.288-4.233v-20.125h-45.059v20.065c-2.563 1.214-5.021 2.634-7.358 4.253l-17.381-10.035-22.53 39.022 17.4 10.044c-.23 2.84-.227 5.632.01 8.471l-17.409 10.051 22.529 39.022 17.482-10.093c2.307 1.589 4.73 2.985 7.257 4.182v20.194h45.059v-20.254c2.502-1.194 4.901-2.583 7.188-4.164l17.551 10.134 22.529-39.022-17.531-10.122c.229-2.793.232-5.535.01-8.328l17.521-10.117zm-11.448 65.314 13.46 7.772-7.51 13.007-13.483-7.786c-5.794 5.637-13.024 9.831-20.778 12.029v15.537h-15.02v-15.512c-7.789-2.183-15.049-6.365-20.863-12.005l-13.398 7.736-7.51-13.007 13.352-7.71c-2.009-7.925-2.024-16.233-.033-24.162l-13.319-7.689 7.509-13.007 13.324 7.692c5.83-5.69 13.116-9.902 20.938-12.09v-15.382h15.02v15.408c7.797 2.207 15.049 6.436 20.854 12.113l13.407-7.74 7.51 13.007-13.428 7.753c.001-.001 3.9 13.184-.032 24.036z"/><path d="m373.739 67.972h15.02v15.02h-15.02z"/><path d="m95.524 259.674h15.02v15.02h-15.02z"/></g></svg>