<svg id="loving-adoption-baby-care-ico" enable-background="new 0 0 300 300" height="512" viewBox="0 0 300 300" width="512" xmlns="http://www.w3.org/2000/svg"><g><path d="m148 138.445c18.557 0 33.654-15.289 33.654-34.08s-15.097-34.078-33.654-34.078-33.654 15.287-33.654 34.078 15.097 34.08 33.654 34.08zm0-60.158c14.146 0 25.654 11.699 25.654 26.078 0 14.381-11.508 26.08-25.654 26.08s-25.654-11.699-25.654-26.08c0-14.379 11.508-26.078 25.654-26.078z"/><path d="m54 48c2.209 0 4-1.791 4-4v-8c0-2.209-1.791-4-4-4s-4 1.791-4 4v8c0 2.209 1.791 4 4 4z"/><path d="m54 56c-2.209 0-4 1.791-4 4v8c0 2.209 1.791 4 4 4s4-1.791 4-4v-8c0-2.209-1.791-4-4-4z"/><path d="m38 56h8c2.209 0 4-1.791 4-4s-1.791-4-4-4h-8c-2.209 0-4 1.791-4 4s1.791 4 4 4z"/><path d="m62 56h8c2.209 0 4-1.791 4-4s-1.791-4-4-4h-8c-2.209 0-4 1.791-4 4s1.791 4 4 4z"/><path d="m102.052 54.944c2.362 0 4.276-1.915 4.276-4.276 0-2.362-1.915-4.277-4.276-4.277-2.362 0-4.276 1.915-4.276 4.277s1.914 4.276 4.276 4.276z"/><path d="m258.746 89.008c-4.545-2.953-10.211-3.4-15.162-1.199l-4.627 2.055c-10.363 4.605-17.662 14.033-19.525 25.219l-5.119 30.705-17.157 13.16c-.42-1.626-.913-3.233-1.491-4.804-3.994-10.836-4.178-21.824-.52-30.936 2.766-6.895 3.959-14.191 3.547-21.688-1.406-25.66-22.621-46.686-48.297-47.869-14.031-.654-27.33 4.326-37.455 13.996-10.131 9.673-15.71 22.714-15.71 36.718 0 6.014 1.045 11.898 3.105 17.492 3.994 10.838 4.178 21.822.52 30.934-.47 1.171-.878 2.37-1.26 3.578l-13.933-10.727-5.094-30.561c-1.863-11.186-9.162-20.613-19.525-25.219l-4.629-2.055c-4.957-2.205-10.619-1.752-15.16 1.199s-7.254 7.949-7.254 13.367v57.549c0 23.996 11.705 46.582 31.207 60.34l11.227 8.473c11 8.3 17.566 21.484 17.566 35.265 0 2.209 1.791 4 4 4h39.758c2.209 0 4-1.791 4-4v-41.983c1.279.159 2.565.273 3.85.333.797.037 1.59.055 2.383.055 3.469 0 6.885-.458 10.252-1.149v42.744c0 2.209 1.791 4 4 4h39.757c2.209 0 4-1.791 4-4 0-13.781 6.566-26.965 17.566-35.266l11.123-8.398c19.606-13.834 31.311-36.418 31.311-60.414v-57.549c0-5.416-2.711-10.414-7.254-13.365zm-31.424 27.388c1.127-6.769 4.896-12.659 10.344-16.571l-3.059 36.71c-3.572-1.037-7.549-.486-10.944 1.806zm-47.664 55.971-16.904-9.112 22.333-18.694c.566 4.097 1.554 8.237 3.068 12.347.886 2.405 1.514 4.909 1.952 7.444zm-61.193-98.935c8.531-8.146 19.742-12.334 31.562-11.789 21.623.996 39.49 18.703 40.676 40.316.348 6.32-.656 12.467-2.984 18.268-1.791 4.463-2.786 9.279-3.068 14.268l-29.478 24.674-43.854-23.64c-.331-5.414-1.455-10.952-3.475-16.437-1.734-4.705-2.613-9.66-2.613-14.727-.001-11.797 4.699-22.783 13.234-30.933zm-10.184 82.339c1.431-3.564 2.328-7.363 2.796-11.284l42.846 23.096c.034.016.063.038.098.053l18.678 10.069-2.062 1.582c-7.76 5.645-12.395 14.744-12.395 24.342v9.511c-3.988.98-8.102 1.406-12.268 1.217-1.411-.064-2.819-.229-4.217-.438v-10.291c0-9.598-4.635-18.697-12.309-24.277l-23.007-17.712c.482-1.995 1.077-3.97 1.84-5.868zm-35.603-39.373 3.654 21.93-.016-.014c-3.301-2.301-7.305-2.851-10.925-1.783l-3.059-36.705c5.449 3.911 9.218 9.801 10.346 16.572zm61.08 143.602h-31.914c-1.156-14.799-8.668-28.654-20.59-37.652l-11.33-8.547c-17.485-12.338-27.924-32.479-27.924-53.879v-57.549c0-2.738 1.316-5.166 3.613-6.658 2.297-1.49 5.051-1.711 7.551-.596l.777.345 3.919 47.028c-2.742 4.663-2.579 10.747.751 15.224l33.348 44.84c1.316 1.773 3.82 2.139 5.596.822 1.773-1.318 2.141-3.824.822-5.596l-33.346-44.84c-1.656-2.229-1.473-5.408.43-7.396 1.707-1.781 4.287-2.057 6.092-.809l53.104 41.018c5.699 4.145 9.102 10.826 9.102 17.873v56.372zm124.242-100.078c0 21.398-10.439 41.541-28.027 53.953l-11.227 8.473c-11.922 8.998-19.434 22.854-20.59 37.652h-31.914v-56.371c0-7.047 3.402-13.729 9.182-17.934l45.082-34.576 7.756-6.242c1.994-1.389 4.574-1.111 6.279.67 1.9 1.988 2.084 5.168.43 7.396l-33.348 44.84c-1.318 1.771-.951 4.277.822 5.596 1.775 1.322 4.279.953 5.596-.822l33.35-44.84c3.328-4.478 3.491-10.562.749-15.226l3.918-47.028.776-.345c2.506-1.109 5.256-.893 7.553.6s3.613 3.917 3.613 6.655z"/></g></svg>