<svg id="Layer_1" enable-background="new 0 0 512 512" height="512" viewBox="0 0 512 512" width="512" xmlns="http://www.w3.org/2000/svg"><path d="m406.203 412.738c-41.866 41.866-97.53 64.923-156.737 64.923h-241.466c-4.418 0-8-3.582-8-8s3.582-8 8-8h241.466c113.402 0 205.661-92.259 205.661-205.661 0-104.075-79.174-191.514-180.419-204.099l23.655 18.473c3.482 2.719 4.101 7.747 1.381 11.229-1.578 2.02-3.932 3.077-6.311 3.077-1.722 0-3.456-.553-4.918-1.695l-43.973-34.339c-1.941-1.516-3.076-3.842-3.076-6.305s1.135-4.789 3.076-6.305l43.973-34.339c3.481-2.719 8.51-2.101 11.229 1.381s2.101 8.51-1.381 11.229l-27.029 21.108c51.654 5.039 99.525 27.844 136.294 65.286 40.948 41.697 63.499 96.851 63.499 155.301-.001 59.206-23.057 114.87-64.924 156.736zm-297.975 14.106c1.492 1.235 3.299 1.837 5.096 1.837 2.301 0 4.585-.988 6.167-2.899 2.817-3.404 2.341-8.447-1.063-11.264-47.424-39.249-74.623-97.026-74.623-158.518 0-93.274 62.898-175.043 152.958-198.848 4.271-1.129 6.819-5.507 5.69-9.779-1.13-4.272-5.509-6.819-9.779-5.69-97.072 25.659-164.869 113.789-164.869 214.317 0 66.275 29.313 128.545 80.423 170.844zm400.696 36.511-43.973-34.339c-3.482-2.719-8.508-2.101-11.229 1.381-2.719 3.482-2.101 8.51 1.381 11.229l25.655 20.034h-87.876c-4.418 0-8 3.582-8 8s3.582 8 8 8h87.876l-25.655 20.034c-3.482 2.719-4.101 7.747-1.381 11.229 1.578 2.02 3.932 3.077 6.311 3.077 1.722 0 3.457-.554 4.918-1.695l43.973-34.339c1.941-1.516 3.076-3.842 3.076-6.305s-1.135-4.789-3.076-6.306zm-338.43-207.334c0-43.545 35.427-78.972 78.972-78.972s78.972 35.427 78.972 78.972-35.427 78.972-78.972 78.972c-43.545-.001-78.972-35.428-78.972-78.972zm16 0c0 34.723 28.249 62.972 62.972 62.972s62.972-28.249 62.972-62.972-28.249-62.972-62.972-62.972c-34.723-.001-62.972 28.248-62.972 62.972zm-6.218-111.274c12.221-7.623 25.451-13.107 39.438-16.35l7.795-20.25c1.189-3.088 4.156-5.126 7.466-5.126h28.98c3.31 0 6.277 2.038 7.466 5.126l7.795 20.25c13.987 3.243 27.217 8.728 39.438 16.35l19.848-8.814c3.025-1.342 6.563-.686 8.904 1.655l20.493 20.492c2.34 2.34 2.998 5.879 1.654 8.904l-8.811 19.84c7.622 12.216 13.107 25.451 16.353 39.449l20.244 7.792c3.089 1.188 5.126 4.156 5.126 7.466v28.981c0 3.31-2.038 6.277-5.126 7.466l-20.25 7.795c-3.244 13.987-8.728 27.217-16.351 39.438l8.815 19.848c1.343 3.024.686 6.564-1.655 8.904l-20.492 20.493c-2.34 2.34-5.879 2.998-8.904 1.655l-19.84-8.812c-12.217 7.622-25.451 13.108-39.448 16.353l-7.792 20.244c-1.188 3.089-4.156 5.126-7.466 5.126h-28.981c-3.309 0-6.277-2.038-7.466-5.126l-7.795-20.25c-13.987-3.243-27.217-8.728-39.438-16.35l-19.848 8.815c-3.024 1.344-6.563.687-8.904-1.655l-20.493-20.492c-2.34-2.34-2.998-5.879-1.654-8.904l8.812-19.84c-7.622-12.216-13.107-25.45-16.353-39.448l-20.245-7.792c-3.089-1.188-5.126-4.156-5.126-7.466v-28.984c0-3.31 2.038-6.277 5.126-7.466l20.249-7.794c3.243-13.992 8.728-27.222 16.351-39.441l-8.814-19.846c-1.343-3.024-.686-6.564 1.655-8.904l20.493-20.492c2.339-2.341 5.88-2.997 8.904-1.655zm-2.537 16.38-18.785-8.343-12.725 12.725 8.342 18.783c1.116 2.513.863 5.424-.67 7.707-8.537 12.714-14.356 26.751-17.296 41.723-.53 2.699-2.409 4.937-4.977 5.924l-19.164 7.376v17.996l19.16 7.375c2.567.988 4.446 3.225 4.977 5.924 2.942 14.981 8.762 29.021 17.298 41.73 1.534 2.283 1.787 5.194.67 7.707l-8.34 18.778 12.725 12.725 18.785-8.343c2.513-1.116 5.422-.864 7.706.669 12.717 8.537 26.754 14.356 41.721 17.296 2.699.53 4.936 2.409 5.924 4.976l7.378 19.166h17.995l7.375-19.159c.988-2.567 3.225-4.446 5.924-4.977 14.98-2.942 29.02-8.762 41.73-17.298 2.283-1.534 5.194-1.786 7.707-.67l18.778 8.34 12.725-12.725-8.343-18.785c-1.116-2.513-.863-5.423.669-7.706 8.537-12.717 14.356-26.754 17.296-41.721.53-2.699 2.41-4.936 4.976-5.924l19.166-7.377v-17.995l-19.159-7.375c-2.567-.988-4.446-3.225-4.977-5.924-2.943-14.98-8.763-29.021-17.298-41.731-1.534-2.283-1.787-5.194-.67-7.707l8.339-18.777-12.725-12.725-18.785 8.343c-2.514 1.115-5.423.863-7.706-.669-12.717-8.537-26.754-14.356-41.721-17.296-2.699-.53-4.936-2.41-5.924-4.976l-7.377-19.166h-17.995l-7.377 19.166c-.988 2.566-3.225 4.446-5.924 4.976-14.966 2.939-29.003 8.758-41.721 17.296-2.285 1.532-5.195 1.783-7.707.668z"/></svg>