<svg id="Layer_1" enable-background="new 0 0 491.5 491.5" height="512" viewBox="0 0 491.5 491.5" width="512" xmlns="http://www.w3.org/2000/svg"><g id="Layer_x0020_1"><g id="_264520888" clip-rule="evenodd" fill-rule="evenodd"><path id="_264522568" d="m45.7 63.5c-4.1 0-7.4 3.3-7.4 7.4v252.6c0 4.1 3.3 7.4 7.4 7.4h400.2c4.1 0 7.4-3.3 7.4-7.4v-252.6c0-4.1-3.3-7.4-7.4-7.4zm400.2 276.9h-400.2c-9.3 0-16.9-7.6-16.9-16.9v-252.6c0-9.3 7.6-16.9 16.9-16.9h400.2c9.3 0 16.9 7.6 16.9 16.9v252.6c-.1 9.4-7.6 16.9-16.9 16.9z"/><path id="_264522760" d="m165.5 388.9c-2.6 0-4.7-2.1-4.7-4.7v-48.5c0-2.6 2.1-4.7 4.7-4.7s4.7 2.1 4.7 4.7v48.5c.1 2.6-2 4.7-4.7 4.7zm160.5 0c-2.6 0-4.7-2.1-4.7-4.7v-48.5c0-2.6 2.1-4.7 4.7-4.7s4.7 2.1 4.7 4.7v48.5c0 2.6-2.1 4.7-4.7 4.7z"/><path id="_264522304" d="m154.8 388.9c-6.3 0-11.4 5.1-11.4 11.4v16.2c0 6.3 5.1 11.4 11.4 11.4h181.9c6.3 0 11.4-5.1 11.4-11.4v-16.2c0-6.3-5.1-11.4-11.4-11.4zm181.9 48.6h-181.9c-11.5 0-20.9-9.4-20.9-20.9v-16.2c0-11.5 9.4-20.9 20.9-20.9h181.9c11.5 0 20.9 9.4 20.9 20.9v16.2c0 11.5-9.4 20.9-20.9 20.9z"/><path id="_264522808" d="m458 277h-424.5c-2.6 0-4.7-2.1-4.7-4.7s2.1-4.7 4.7-4.7h424.4c2.6 0 4.7 2.1 4.7 4.7.1 2.5-2 4.7-4.6 4.7z"/><path id="_264522928" d="m263.9 308.7h-36.4c-2.6 0-4.7-2.1-4.7-4.7s2.1-4.7 4.7-4.7h36.4c2.6 0 4.7 2.1 4.7 4.7.1 2.6-2 4.7-4.7 4.7z"/><path id="_264522976" d="m256 238.7h13.3v-28.7h-13.3zm18 9.5h-22.7c-2.6 0-4.7-2.1-4.7-4.7v-38.2c0-2.6 2.1-4.7 4.7-4.7h22.7c2.6 0 4.7 2.1 4.7 4.7v38.2c.1 2.6-2 4.7-4.7 4.7z"/><path id="_264522952" d="m307.1 238.7h13.3v-48h-13.3zm18 9.5h-22.7c-2.6 0-4.7-2.1-4.7-4.7v-57.5c0-2.6 2.1-4.7 4.7-4.7h22.7c2.6 0 4.7 2.1 4.7 4.7v57.5c0 2.6-2.1 4.7-4.7 4.7z"/><path id="_264522448" d="m358.1 238.7h13.3v-28.7h-13.3zm18 9.5h-22.8c-2.6 0-4.7-2.1-4.7-4.7v-38.2c0-2.6 2.1-4.7 4.7-4.7h22.8c2.6 0 4.7 2.1 4.7 4.7v38.2c.1 2.6-2.1 4.7-4.7 4.7z"/><path id="_264521920" d="m409.1 238.7h13.3v-77.2h-13.3zm18 9.5h-22.7c-2.6 0-4.7-2.1-4.7-4.7v-86.7c0-2.6 2.1-4.7 4.7-4.7h22.7c2.6 0 4.7 2.1 4.7 4.7v86.7c.1 2.6-2 4.7-4.7 4.7z"/><path id="_264521560" d="m373.9 164.4c-1.3 0-2.5-.5-3.4-1.5-1.8-1.9-1.7-4.9.2-6.7l32.8-31.1c1.9-1.8 4.9-1.7 6.7.2s1.7 4.9-.2 6.7l-32.8 31.1c-1 .9-2.2 1.3-3.3 1.3zm-21 4.3c-.6 0-1.1-.1-1.7-.3l-27.5-10.4c-2.4-.9-3.7-3.7-2.7-6.1.9-2.4 3.7-3.7 6.1-2.7l27.4 10.4c2.4.9 3.7 3.7 2.8 6.1-.6 1.8-2.4 3-4.4 3zm-80.3.1c-1.9 0-3.7-1.2-4.5-3.1-.9-2.5.4-5.2 2.8-6.1l29.2-10.7c2.5-.9 5.2.4 6.1 2.8.9 2.5-.4 5.2-2.8 6.1l-29.2 10.7c-.5.2-1 .3-1.6.3z"/><path id="_264521848" d="m415.8 112c-4.3 0-7.9 3.5-7.9 7.9 0 4.3 3.5 7.9 7.9 7.9 4.3 0 7.9-3.5 7.9-7.9-.1-4.4-3.6-7.9-7.9-7.9zm0 25.2c-9.6 0-17.3-7.8-17.3-17.3 0-9.6 7.8-17.3 17.3-17.3 9.6 0 17.3 7.8 17.3 17.3s-7.8 17.3-17.3 17.3z"/><path id="_264521536" d="m364.7 160.5c-4.3 0-7.9 3.5-7.9 7.9 0 4.3 3.5 7.9 7.9 7.9 4.3 0 7.9-3.5 7.9-7.9 0-4.3-3.5-7.9-7.9-7.9zm0 25.2c-9.6 0-17.4-7.8-17.4-17.3 0-9.6 7.8-17.3 17.3-17.3 9.6 0 17.3 7.8 17.3 17.3.2 9.6-7.6 17.3-17.2 17.3z"/><path id="_264521944" d="m313.7 141.2c-4.3 0-7.9 3.5-7.9 7.9 0 4.3 3.5 7.9 7.9 7.9 4.3 0 7.9-3.5 7.9-7.9s-3.6-7.9-7.9-7.9zm0 25.2c-9.6 0-17.4-7.8-17.4-17.3 0-9.6 7.8-17.3 17.3-17.3 9.6 0 17.3 7.8 17.3 17.3.1 9.5-7.6 17.3-17.2 17.3z"/><path id="_264522184" d="m260.8 160.5c-4.3 0-7.9 3.5-7.9 7.9 0 4.3 3.5 7.9 7.9 7.9 4.3 0 7.9-3.5 7.9-7.9-.1-4.3-3.6-7.9-7.9-7.9zm0 25.2c-9.6 0-17.4-7.8-17.4-17.3 0-9.6 7.8-17.3 17.3-17.3 9.6 0 17.3 7.8 17.3 17.3.1 9.6-7.7 17.3-17.2 17.3z"/><path id="_264521728" d="m186.1 221.4h-123c-2.6 0-4.7-2.1-4.7-4.7s2.1-4.7 4.7-4.7h123c2.6 0 4.7 2.1 4.7 4.7.1 2.6-2.1 4.7-4.7 4.7z"/><path id="_264521680" d="m186.1 248.2h-123c-2.6 0-4.7-2.1-4.7-4.7s2.1-4.7 4.7-4.7h123c2.6 0 4.7 2.1 4.7 4.7.1 2.6-2.1 4.7-4.7 4.7z"/><path id="_264522064" d="m124.6 118.7c-10 0-20.1 6.1-20.1 19.8 0 11.1 9 20.1 20.1 20.1s20.1-9 20.1-20.1c.1-13.7-10.1-19.8-20.1-19.8zm0 49.3c-16.3 0-29.6-13.3-29.6-29.6 0-19.2 14.9-29.3 29.6-29.3s29.6 10 29.6 29.3c0 16.4-13.3 29.6-29.6 29.6z"/><path id="_264521824" d="m124.6 92.3c-25.4 0-46.1 20.7-46.1 46.1s20.7 46.1 46.1 46.1 46.1-20.7 46.1-46.1-20.6-46.1-46.1-46.1zm0 101.7c-30.6 0-55.6-24.9-55.6-55.6s24.9-55.6 55.6-55.6 55.6 24.9 55.6 55.6-24.9 55.6-55.6 55.6z"/><path id="_264520816" d="m124.6 118.7c-2.6 0-4.7-2.1-4.7-4.7v-26.3c0-2.6 2.1-4.7 4.7-4.7s4.7 2.1 4.7 4.7v26.3c.1 2.5-2.1 4.7-4.7 4.7z"/><path id="_264520720" d="m168.8 168.8c-.8 0-1.6-.2-2.4-.6l-22.8-13.2c-2.3-1.3-3-4.2-1.7-6.5s4.2-3 6.5-1.7l22.8 13.2c2.3 1.3 3 4.2 1.7 6.5-.9 1.5-2.5 2.3-4.1 2.3z"/><path id="_264521128" d="m80.5 168.8c-1.6 0-3.2-.8-4.1-2.4-1.3-2.3-.5-5.2 1.7-6.5l22.8-13.2c2.3-1.3 5.2-.5 6.5 1.7 1.3 2.3.5 5.2-1.7 6.5l-22.8 13.2c-.8.5-1.6.7-2.4.7z"/><path id="_264521056" d="m221.4 92.3c-4.5 0-8.2 3.7-8.2 8.2v11.1c0 4.5 3.7 8.2 8.2 8.2h31.4c4.5 0 8.2-3.7 8.2-8.2v-11.1c0-4.5-3.7-8.2-8.2-8.2zm31.4 36.9h-31.4c-9.7 0-17.6-7.9-17.6-17.6v-11.1c0-9.7 7.9-17.6 17.6-17.6h31.4c9.7 0 17.6 7.9 17.6 17.6v11.1c0 9.7-7.9 17.6-17.6 17.6z"/><path id="_264520936" d="m159.9 125.5c-1.5 0-3-.7-3.9-2-1.5-2.1-1-5.1 1.1-6.6l21-14.8c.8-.6 1.7-.9 2.7-.9h27.6c2.6 0 4.7 2.1 4.7 4.7s-2.1 4.7-4.7 4.7h-26.1l-19.8 13.9c-.7.7-1.6 1-2.6 1z"/><path id="_264521440" d="m248.9 110.8h-23.6c-2.6 0-4.7-2.1-4.7-4.7s2.1-4.7 4.7-4.7h23.6c2.6 0 4.7 2.1 4.7 4.7 0 2.5-2.1 4.7-4.7 4.7z"/></g></g></svg>