<svg height="496pt" viewBox="-96 0 496 496" width="496pt" xmlns="http://www.w3.org/2000/svg"><path d="m256 456c0 13.230469-10.769531 24-24 24h-8v-8c0-13.230469-10.769531-24-24-24h-128c-13.230469 0-24 10.769531-24 24v8h-8c-13.230469 0-24-10.769531-24-24v-416c0-9.902344 6.03125-18.414062 14.609375-22.078125l43.734375 43.734375c1.496094 1.503906 3.527344 2.34375 5.65625 2.34375h112c2.128906 0 4.160156-.839844 5.65625-2.34375l43.734375-43.734375c8.578125 3.664063 14.609375 12.175781 14.609375 22.078125v96h16v-96c0-22.054688-17.945312-40-40-40h-192c-22.054688 0-40 17.945312-40 40v416c0 22.054688 17.945312 40 40 40h192c22.054688 0 40-17.945312 40-40v-112h-16zm-67.3125-408h-105.375l-32-32h169.375zm-124.6875 424c0-4.414062 3.585938-8 8-8h128c4.414062 0 8 3.585938 8 8v8h-144zm0 0"/><path d="m296 160c-33.976562 0-65.921875-13.230469-89.945312-37.257812l-8.398438-8.398438c-3.128906-3.128906-8.183594-3.128906-11.3125 0l-8.398438 8.398438c-24.023437 24.027343-55.96875 37.257812-89.945312 37.257812-4.425781 0-8 3.574219-8 8v9.503906c0 81.832032 40.167969 158.496094 107.449219 205.070313 1.367187.945312 2.957031 1.425781 4.550781 1.425781s3.183594-.480469 4.550781-1.425781c67.28125-46.574219 107.449219-123.238281 107.449219-205.070313v-9.503906c0-4.425781-3.574219-8-8-8zm-8 17.503906c0 74.710938-35.785156 144.832032-96 188.679688-60.214844-43.847656-96-113.96875-96-188.679688v-1.726562c35.238281-1.929688 68.105469-16.570313 93.257812-41.730469l2.742188-2.734375 2.742188 2.742188c25.160156 25.160156 58.019531 39.800781 93.257812 41.730468zm0 0"/><path d="m160 200v16h-8c-4.425781 0-8 3.574219-8 8v64c0 4.425781 3.574219 8 8 8h80c4.425781 0 8-3.574219 8-8v-64c0-4.425781-3.574219-8-8-8h-8v-16c0-17.648438-14.351562-32-32-32s-32 14.351562-32 32zm64 80h-64v-48h64zm-16-80v16h-32v-16c0-8.824219 7.175781-16 16-16s16 7.175781 16 16zm0 0"/><path d="m184 248h16v16h-16zm0 0"/></svg>