<svg height="512pt" viewBox="-1 0 512 512" width="512pt" xmlns="http://www.w3.org/2000/svg"><path d="m470.398438 78.414062h-51.792969v-60.953124c.003906-9.628907-7.832031-17.460938-17.457031-17.460938h-292.492188c-9.625 0-17.457031 7.832031-17.457031 17.460938v60.953124h-51.792969c-21.726562 0-39.40625 17.679688-39.40625 39.40625v280.34375c0 21.730469 17.679688 39.40625 39.40625 39.40625h.347656c4.132813 0 7.480469-3.347656 7.480469-7.480468 0-4.132813-3.347656-7.480469-7.480469-7.480469h-.347656c-13.476562 0-24.441406-10.964844-24.441406-24.445313v-280.34375c0-13.476562 10.964844-24.441406 24.441406-24.441406h51.792969v22.945313h-35.828125c-9.628906 0-17.460938 7.832031-17.460938 17.460937v233.449219c0 9.628906 7.832032 17.460937 17.460938 17.460937h399.0625c9.628906 0 17.460937-7.832031 17.460937-17.460937v-233.449219c0-9.628906-7.832031-17.460937-17.460937-17.460937h-35.828125v-22.945313h51.792969c13.476562 0 24.441406 10.964844 24.441406 24.441406v280.34375c0 13.476563-10.964844 24.441407-24.441406 24.441407h-393.003907c-4.132812 0-7.480469 3.351562-7.480469 7.484375 0 4.132812 3.347657 7.480468 7.480469 7.480468h128.625v28.039063h-39.160156c-12.789063 0-23.195313 10.40625-23.195313 23.195313 0 12.792968 10.40625 23.195312 23.195313 23.195312h176.085937c12.792969 0 23.199219-10.40625 23.199219-23.195312 0-12.792969-10.40625-23.195313-23.199219-23.195313h-39.15625v-28.039063h166.609376c21.730468 0 39.40625-17.679687 39.40625-39.410156v-280.339844c0-21.726562-17.675782-39.40625-39.40625-39.40625zm-417.519532 288.820313v-233.449219c0-1.375 1.117188-2.496094 2.492188-2.496094h35.828125v238.441407h-35.828125c-1.375 0-2.492188-1.121094-2.492188-2.496094zm401.554688-235.945313c1.378906 0 2.496094 1.121094 2.496094 2.496094v233.449219c0 1.375-1.117188 2.496094-2.496094 2.496094h-348.269532v-312.757813h230.546876c4.132812 0 7.480468-3.351562 7.480468-7.480468 0-4.132813-3.347656-7.484376-7.480468-7.484376h-230.546876v-24.546874c0-1.375 1.117188-2.496094 2.492188-2.496094h292.492188c1.375 0 2.492187 1.121094 2.492187 2.496094v24.546874h-31.707031c-4.132813 0-7.484375 3.351563-7.484375 7.480469 0 4.132813 3.351562 7.484375 7.484375 7.484375h31.707031v286.460938c0 4.132812 3.351563 7.480468 7.484375 7.480468s7.480469-3.347656 7.480469-7.480468v-212.144532zm-103.257813 357.515626c0 4.539062-3.691406 8.230468-8.230469 8.230468h-176.085937c-4.539063 0-8.230469-3.691406-8.230469-8.230468 0-4.539063 3.691406-8.230469 8.230469-8.230469h176.085937c4.539063 0 8.230469 3.691406 8.230469 8.230469zm-62.351562-23.195313h-67.839844v-28.039063h67.839844zm0 0"/><path d="m134.929688 28.691406c0 5.03125-4.078126 9.113282-9.109376 9.113282s-9.109374-4.082032-9.109374-9.113282 4.078124-9.109375 9.109374-9.109375 9.109376 4.078125 9.109376 9.109375zm0 0"/><path d="m160.847656 28.691406c0 5.03125-4.078125 9.113282-9.109375 9.113282s-9.109375-4.082032-9.109375-9.113282 4.078125-9.109375 9.109375-9.109375 9.109375 4.078125 9.109375 9.109375zm0 0"/><path d="m187.621094 28.691406c0 5.03125-4.078125 9.113282-9.109375 9.113282s-9.109375-4.082032-9.109375-9.113282 4.078125-9.109375 9.109375-9.109375 9.109375 4.078125 9.109375 9.109375zm0 0"/><path d="m189.484375 159.429688h-59.003906c-6.324219 0-11.472657 5.148437-11.472657 11.472656v145.59375c0 6.328125 5.148438 11.472656 11.472657 11.472656h59.003906c6.328125 0 11.472656-5.144531 11.472656-11.472656v-145.59375c0-6.324219-5.144531-11.472656-11.472656-11.472656zm-3.492187 153.578124h-52.019532v-138.613281h52.019532zm0 0"/><path d="m284.40625 159.429688h-59.003906c-6.328125 0-11.472656 5.148437-11.472656 11.472656v145.59375c0 6.328125 5.144531 11.472656 11.472656 11.472656h59.003906c6.324219 0 11.472656-5.144531 11.472656-11.472656v-145.59375c0-6.324219-5.148437-11.472656-11.472656-11.472656zm-3.492188 153.578124h-52.019531v-138.613281h52.019531zm0 0"/><path d="m379.324219 159.429688h-59.003907c-6.324218 0-11.472656 5.148437-11.472656 11.472656v145.59375c0 6.328125 5.148438 11.472656 11.472656 11.472656h59.003907c6.328125 0 11.472656-5.144531 11.472656-11.472656v-145.59375c0-6.324219-5.144531-11.472656-11.472656-11.472656zm-3.492188 153.578124h-52.019531v-138.613281h52.023438v138.613281zm0 0"/><path d="m132.15625 102.5h81.214844c4.132812 0 7.480468-3.351562 7.480468-7.480469 0-4.132812-3.347656-7.484375-7.480468-7.484375h-81.214844c-4.132812 0-7.484375 3.351563-7.484375 7.484375 0 4.128907 3.351563 7.480469 7.484375 7.480469zm0 0"/><path d="m132.15625 133.425781h134.71875c4.132812 0 7.480469-3.347656 7.480469-7.480469 0-4.132812-3.347657-7.480468-7.480469-7.480468h-134.71875c-4.132812 0-7.484375 3.347656-7.484375 7.480468 0 4.132813 3.351563 7.480469 7.484375 7.480469zm0 0"/><path d="m173.148438 193.199219c0 7.117187-5.773438 12.890625-12.890626 12.890625-7.121093 0-12.894531-5.773438-12.894531-12.890625 0-7.121094 5.773438-12.894531 12.894531-12.894531 7.117188 0 12.890626 5.773437 12.890626 12.894531zm0 0"/><path d="m267.796875 193.199219c0 7.117187-5.773437 12.890625-12.894531 12.890625s-12.890625-5.773438-12.890625-12.890625c0-7.121094 5.769531-12.894531 12.890625-12.894531s12.894531 5.773437 12.894531 12.894531zm0 0"/><path d="m362.714844 193.199219c0 7.117187-5.773438 12.890625-12.890625 12.890625-7.121094 0-12.894531-5.773438-12.894531-12.890625 0-7.121094 5.773437-12.894531 12.894531-12.894531 7.117187 0 12.890625 5.773437 12.890625 12.894531zm0 0"/></svg>