<svg id="Layer_1" enable-background="new 0 0 2048 2048" height="512" viewBox="0 0 2048 2048" width="512" xmlns="http://www.w3.org/2000/svg"><g><path d="m1024 1105.974c-85.453 0-165.79-33.277-226.214-93.701s-93.701-140.762-93.701-226.214 33.277-165.79 93.701-226.214c60.424-60.425 140.762-93.702 226.214-93.702s165.79 33.277 226.214 93.701 93.701 140.762 93.701 226.214c0 85.453-33.277 165.791-93.701 226.214s-140.762 93.702-226.214 93.702zm0-591.831c-149.935 0-271.915 121.98-271.915 271.915s121.98 271.916 271.915 271.916 271.915-121.981 271.915-271.916-121.98-271.915-271.915-271.915z" fill="rgb(0,0,0)"/><path d="m878.933 1316.165c-8.637 0-17.264-1.199-25.866-3.992-36.99-12.012-58.191-48.228-76.897-80.18-11.995-20.49-24.398-41.678-38.438-51.895-14.345-10.44-38.573-15.793-62.004-20.97-35.897-7.932-76.584-16.921-99.163-47.945-22.351-30.712-18.585-70.188-14.944-108.364 2.297-24.081 4.672-48.981-.926-66.222-5.201-16.016-20.563-33.265-36.826-51.527-24.806-27.853-52.921-59.423-52.921-99.013 0-39.589 28.115-71.159 52.921-99.012 16.264-18.261 31.625-35.51 36.826-51.527 5.598-17.241 3.222-42.141.925-66.222-3.642-38.176-7.407-77.652 14.945-108.365 22.578-31.024 63.265-40.014 99.163-47.945 23.43-5.177 47.659-10.53 62.004-20.97 14.038-10.217 26.441-31.404 38.437-51.894 18.706-31.953 39.907-68.169 76.896-80.179 35.519-11.533 71.538 4.098 106.373 19.214 22.529 9.776 45.825 19.885 64.561 19.885s42.032-10.109 64.561-19.885c34.834-15.116 70.852-30.748 106.372-19.214 36.99 12.01 58.192 48.227 76.897 80.18 11.995 20.489 24.398 41.676 38.437 51.893 14.346 10.44 38.574 15.793 62.005 20.97 35.897 7.932 76.585 16.921 99.163 47.945 22.352 30.712 18.586 70.188 14.944 108.365-2.297 24.081-4.672 48.981.926 66.222 5.2 16.016 20.562 33.265 36.825 51.527 24.806 27.854 52.921 59.423 52.921 99.012s-28.115 71.159-52.921 99.012c-16.264 18.262-31.625 35.51-36.825 51.527-5.598 17.241-3.223 42.141-.926 66.222 3.642 38.176 7.407 77.653-14.944 108.365-22.578 31.024-63.266 40.014-99.163 47.945-23.431 5.177-47.659 10.529-62.005 20.97-14.038 10.217-26.441 31.404-38.437 51.894-18.705 31.953-39.906 68.169-76.896 80.18-35.517 11.532-71.538-4.099-106.373-19.215-22.528-9.775-45.824-19.885-64.561-19.885s-42.032 10.109-64.561 19.886c-26.397 11.455-53.48 23.205-80.505 23.207zm.04-1012.179c-3.95 0-7.659.5-11.083 1.613-19.618 6.37-35.214 33.011-50.296 58.775-14.486 24.746-29.466 50.334-51.616 66.454-22.449 16.337-51.652 22.79-79.894 29.029-28.922 6.39-58.83 12.998-70.708 29.32-11.652 16.01-8.893 44.937-5.972 75.562 2.762 28.953 5.618 58.892-3.055 85.603-8.311 25.596-27.793 47.472-46.635 68.627-20.042 22.504-40.766 45.774-40.766 67.088s20.725 44.585 40.767 67.089c18.841 21.156 38.323 43.031 46.634 68.627 8.673 26.711 5.817 56.65 3.056 85.604-2.921 30.625-5.681 59.551 5.971 75.562 11.878 16.321 41.786 22.93 70.708 29.319 28.242 6.24 57.445 12.692 79.894 29.029 22.15 16.12 37.13 41.709 51.616 66.455 15.083 25.764 30.68 52.405 50.297 58.775 18.242 5.93 44.57-5.499 72.44-17.594 27.023-11.727 54.967-23.853 83.669-23.853s56.645 12.126 83.668 23.853c27.871 12.094 54.197 23.519 72.441 17.593 19.618-6.369 35.215-33.011 50.297-58.775 14.486-24.746 29.467-50.334 51.616-66.454 22.448-16.337 51.651-22.789 79.894-29.029 28.923-6.39 58.829-12.998 70.708-29.319 11.652-16.011 8.893-44.938 5.972-75.563-2.762-28.953-5.618-58.893 3.055-85.603 8.312-25.596 27.793-47.472 46.634-68.627 20.042-22.504 40.767-45.775 40.767-67.089s-20.725-44.584-40.767-67.089c-18.841-21.155-38.322-43.031-46.634-68.626-8.673-26.711-5.816-56.65-3.055-85.603 2.921-30.625 5.681-59.552-5.972-75.562-11.879-16.322-41.785-22.93-70.708-29.32-28.242-6.24-57.445-12.692-79.894-29.029-22.149-16.12-37.13-41.708-51.616-66.454-15.083-25.765-30.679-52.406-50.298-58.776-18.246-5.927-44.57 5.5-72.44 17.594-27.022 11.726-54.966 23.852-83.668 23.852s-56.645-12.125-83.668-23.852c-22.641-9.824-44.261-19.206-61.359-19.206z" fill="rgb(0,0,0)"/><g><g><path d="m857.488 1792c-10.037 0-19.051-6.261-22.526-15.734l-80.797-220.253-188.017 140.327c-8.289 6.187-19.608 6.367-28.09.447-8.481-5.919-12.217-16.606-9.27-26.521l158.2-532.094c3.777-12.704 17.138-19.943 29.845-16.165 12.705 3.777 19.942 17.14 16.165 29.845l-137.583 462.749 155.839-116.312c6.073-4.533 13.931-5.933 21.195-3.771 7.264 2.16 13.082 7.624 15.691 14.739l66.967 182.553 133.393-448.638c3.778-12.705 17.141-19.942 29.845-16.165 12.706 3.777 19.943 17.14 16.165 29.845l-154.01 517.988c-2.948 9.914-11.916 16.824-22.254 17.148-.254.008-.506.012-.758.012z" fill="rgb(0,0,0)"/></g><g><path d="m1190.511 1792c-.251 0-.503-.004-.756-.012-10.339-.324-19.307-7.234-22.254-17.148l-154-517.988c-3.777-12.706 3.46-26.067 16.165-29.845 12.711-3.772 26.067 3.46 29.845 16.165l133.381 448.637 66.967-182.551c2.61-7.115 8.428-12.579 15.692-14.739s15.121-.762 21.195 3.771l155.838 116.311-137.583-462.748c-3.777-12.705 3.46-26.067 16.165-29.845 12.705-3.772 26.067 3.46 29.845 16.165l158.2 532.094c2.947 9.914-.788 20.602-9.27 26.521-8.482 5.92-19.801 5.739-28.091-.447l-188.016-140.327-80.797 220.253c-3.474 9.471-12.489 15.733-22.526 15.733z" fill="rgb(0,0,0)"/></g></g><path d="m919.896 959.943c-4.968 0-9.92-1.54-14.109-4.583-7.701-5.595-11.367-15.212-9.346-24.514l22.625-104.098-79.491-70.917c-7.103-6.336-9.79-16.272-6.848-25.325s10.955-15.512 20.426-16.463l105.994-10.65 42.882-97.515c3.832-8.713 12.451-14.339 21.97-14.339s18.138 5.625 21.97 14.339l42.883 97.515 105.994 10.65c9.471.952 17.484 7.411 20.426 16.463 2.941 9.053.255 18.989-6.848 25.326l-79.492 70.917 22.626 104.098c2.022 9.302-1.645 18.919-9.346 24.514-7.699 5.595-17.979 6.11-26.201 1.313l-92.011-53.688-92.011 53.687c-3.749 2.187-7.927 3.27-12.093 3.27zm-7.641-203.598 49.215 43.907c6.457 5.76 9.313 14.55 7.476 23.006l-14.008 64.451 56.967-33.239c7.473-4.36 16.716-4.361 24.19 0l56.968 33.239-14.009-64.45c-1.838-8.456 1.018-17.246 7.475-23.006l49.217-43.907-65.625-6.594c-8.609-.865-16.087-6.298-19.57-14.219l-26.551-60.375-26.55 60.375c-3.483 7.921-10.961 13.354-19.57 14.219z" fill="rgb(0,0,0)"/></g></svg>