<svg xmlns="http://www.w3.org/2000/svg" width="33.192" height="23.709" viewBox="0 0 33.192 23.709">
  <g id="transition_conversion_convert_transfer_motion_split_slide" data-name="transition, conversion, convert, transfer, motion, split, slide" transform="translate(-2 -6)">
    <path id="Path_17265" data-name="Path 17265" d="M16.225,21.411A1.185,1.185,0,0,0,15.04,22.6v4.742H4.371V8.371H15.04v4.742a1.185,1.185,0,1,0,2.371,0V7.185A1.185,1.185,0,0,0,16.225,6H3.185A1.185,1.185,0,0,0,2,7.185V28.523a1.185,1.185,0,0,0,1.185,1.185h13.04a1.185,1.185,0,0,0,1.185-1.185V22.6A1.185,1.185,0,0,0,16.225,21.411Z" transform="translate(0 0)" fill="#3cb3e7"/>
    <path id="Path_17266" data-name="Path 17266" d="M31.225,6H18.185A1.185,1.185,0,0,0,17,7.185v5.927a1.185,1.185,0,1,0,2.371,0V8.371H30.04V27.338H19.371V22.6A1.185,1.185,0,0,0,17,22.6v5.927a1.185,1.185,0,0,0,1.185,1.185h13.04a1.185,1.185,0,0,0,1.185-1.185V7.185A1.185,1.185,0,0,0,31.225,6Z" transform="translate(2.782 0)" fill="#3cb3e7"/>
    <path id="Path_17267" data-name="Path 17267" d="M7,16.557a1.185,1.185,0,0,0,1.185,1.185h17.3l-.356.344a1.19,1.19,0,1,0,1.683,1.683L29.18,17.4a1.185,1.185,0,0,0,0-1.683l-2.371-2.371a1.19,1.19,0,1,0-1.683,1.683l.356.344H8.185A1.185,1.185,0,0,0,7,16.557Z" transform="translate(0.927 1.297)" fill="#3cb3e7"/>
  </g>
</svg>
