<svg id="Capa_1" enable-background="new 0 0 512 512" height="512" viewBox="0 0 512 512" width="512" xmlns="http://www.w3.org/2000/svg"><g id="Audit_3_"><path d="m377 107.195v-69.695c0-20.678-16.822-37.5-37.5-37.5h-302c-20.678 0-37.5 16.822-37.5 37.5v75.5c0 4.142 3.357 7.5 7.5 7.5s7.5-3.358 7.5-7.5v-75.5c0-12.407 10.094-22.5 22.5-22.5h302c12.406 0 22.5 10.093 22.5 22.5v69.695c-15.813.824-30.952 4.238-45 9.825v-37.02c0-11.028-8.972-20-20-20h-217c-11.028 0-20 8.972-20 20v92c0 11.028 8.972 20 20 20h159.12c-5.139 11.607-8.771 24.023-10.649 37h-64.721c-4.143 0-7.5 3.358-7.5 7.5s3.357 7.5 7.5 7.5h63.355c-.07 1.825-.105 3.658-.105 5.5 0 10.821 1.212 21.364 3.508 31.5h-66.758c-4.143 0-7.5 3.358-7.5 7.5s3.357 7.5 7.5 7.5h71.04c4.617 13.337 11.162 25.782 19.301 37h-90.34c-4.143 0-7.5 3.358-7.5 7.5s3.357 7.5 7.5 7.5h102.867c21.039 21.966 49.022 37.23 80.383 42.226v18.06c-8.73 3.096-15 11.436-15 21.215v60c0 2.629.453 5.153 1.285 7.5h-295.786c-12.406-.001-22.5-10.094-22.5-22.501v-326.5c0-4.142-3.357-7.5-7.5-7.5s-7.5 3.358-7.5 7.5v326.5c0 20.678 16.822 37.5 37.5 37.5h317 30c12.406 0 22.5-10.093 22.5-22.5v-60c0-9.778-6.27-18.119-15-21.215v-18.04c23.328-3.683 45.242-13.116 64.318-27.815 3.281-2.528 3.892-7.237 1.364-10.519-2.528-3.281-7.239-3.893-10.519-1.363-22.458 17.306-49.314 26.452-77.663 26.452-70.304 0-127.5-57.196-127.5-127.5s57.196-127.5 127.5-127.5 127.5 57.196 127.5 127.5c0 28.348-9.146 55.204-26.451 77.665-2.527 3.281-1.917 7.99 1.364 10.519 3.28 2.528 7.99 1.916 10.519-1.364 19.343-25.108 29.568-55.13 29.568-86.82 0-76.059-59.897-138.391-135-142.305zm-15 284.61c2.484.129 4.984.195 7.5.195 2.511 0 5.011-.064 7.5-.192v15.192h-15zm-7.5 30.195h30c4.136 0 7.5 3.364 7.5 7.5v60c0 4.136-3.364 7.5-7.5 7.5h-30c-4.136 0-7.5-3.364-7.5-7.5v-60c0-4.136 3.364-7.5 7.5-7.5zm-107.643-245h-166.857c-2.757 0-5-2.243-5-5v-92c0-2.757 2.243-5 5-5h217c2.757 0 5 2.243 5 5v44.026c-22.828 12.33-41.93 30.708-55.143 52.974z"/><g><path d="m163.75 452h123.25c4.143 0 7.5-3.358 7.5-7.5s-3.357-7.5-7.5-7.5h-123.25c-4.143 0-7.5 3.358-7.5 7.5s3.357 7.5 7.5 7.5z"/><path d="m163.75 400h123.25c4.143 0 7.5-3.358 7.5-7.5s-3.357-7.5-7.5-7.5h-123.25c-4.143 0-7.5 3.358-7.5 7.5s3.357 7.5 7.5 7.5z"/></g><g><path d="m62.327 431.413 19.444 18.519c1.451 1.382 3.312 2.069 5.172 2.069 1.958 0 3.913-.762 5.383-2.276l30.556-31.481c2.885-2.972 2.814-7.721-.158-10.605s-7.721-2.814-10.605.158l-25.381 26.15-14.065-13.397c-2.999-2.856-7.747-2.74-10.604.259-2.857 3-2.741 7.747.258 10.604z"/><path d="m62.327 372.573 19.445 18.518c1.45 1.382 3.312 2.069 5.171 2.069 1.958 0 3.913-.762 5.383-2.276l30.556-31.481c2.885-2.972 2.814-7.721-.158-10.605-2.973-2.884-7.721-2.813-10.605.158l-25.381 26.15-14.064-13.395c-2.999-2.856-7.747-2.74-10.604.259-2.858 2.999-2.742 7.747.257 10.603z"/><path d="m62.327 313.733 19.444 18.519c1.451 1.382 3.312 2.069 5.172 2.069 1.958 0 3.913-.762 5.383-2.276l30.556-31.481c2.885-2.972 2.814-7.721-.158-10.605s-7.721-2.814-10.605.158l-25.381 26.15-14.064-13.395c-2.999-2.856-7.747-2.74-10.604.259-2.858 2.998-2.742 7.745.257 10.602z"/><path d="m62.327 254.894 19.444 18.519c1.451 1.382 3.312 2.069 5.172 2.069 1.958 0 3.913-.762 5.383-2.276l30.556-31.481c2.885-2.972 2.814-7.721-.158-10.605-2.973-2.884-7.721-2.814-10.605.158l-25.381 26.15-14.064-13.395c-2.999-2.856-7.747-2.74-10.604.259-2.858 2.998-2.742 7.745.257 10.602z"/></g><g><path d="m369.5 352c-56.519 0-102.5-45.981-102.5-102.5s45.981-102.5 102.5-102.5 102.5 45.981 102.5 102.5-45.981 102.5-102.5 102.5zm0-190c-48.248 0-87.5 39.252-87.5 87.5s39.252 87.5 87.5 87.5 87.5-39.252 87.5-87.5-39.252-87.5-87.5-87.5z"/><path d="m369.5 242c-9.649 0-17.5-7.851-17.5-17.5s7.851-17.5 17.5-17.5 17.5 7.851 17.5 17.5c0 4.142 3.357 7.5 7.5 7.5s7.5-3.358 7.5-7.5c0-15.34-10.683-28.231-25-31.626v-8.374c0-4.142-3.357-7.5-7.5-7.5s-7.5 3.358-7.5 7.5v8.374c-14.317 3.395-25 16.286-25 31.626 0 17.92 14.579 32.5 32.5 32.5 9.649 0 17.5 7.851 17.5 17.5s-7.851 17.5-17.5 17.5-17.5-7.851-17.5-17.5c0-4.142-3.357-7.5-7.5-7.5s-7.5 3.358-7.5 7.5c0 15.34 10.683 28.231 25 31.626v8.374c0 4.142 3.357 7.5 7.5 7.5s7.5-3.358 7.5-7.5v-8.374c14.317-3.395 25-16.286 25-31.626 0-17.92-14.579-32.5-32.5-32.5z"/></g><g><path d="m125.194 136.763c-.002 0-.004 0-.006 0-4.142-.003-7.498-3.364-7.494-7.506l.009-11.876c.003-4.14 3.36-7.494 7.5-7.494h.006c4.142.003 7.498 3.364 7.494 7.506l-.009 11.876c-.003 4.14-3.36 7.494-7.5 7.494z"/><path d="m251.796 136.887c-.002 0-.004 0-.006 0-4.142-.003-7.498-3.364-7.494-7.506l.009-11.876c.003-4.14 3.36-7.494 7.5-7.494h.006c4.142.003 7.498 3.364 7.494 7.506l-.009 11.876c-.003 4.14-3.36 7.494-7.5 7.494z"/><path d="m205.179 142.113c-.002 0-.004 0-.006 0l-33.378-.029c-4.142-.003-7.497-3.364-7.494-7.506.003-4.14 3.361-7.494 7.5-7.494h.006l33.378.029c4.142.003 7.497 3.364 7.494 7.506-.003 4.14-3.361 7.494-7.5 7.494z"/></g></g></svg>