<svg height="512pt" viewBox="0 0 512 512" width="512pt" xmlns="http://www.w3.org/2000/svg"><path d="m85.332031 512c-1.375 0-2.761719-.257812-4.085937-.8125-3.976563-1.640625-6.578125-5.542969-6.578125-9.855469v-64c0-5.898437 4.777343-10.664062 10.664062-10.664062 5.890625 0 10.667969 4.765625 10.667969 10.664062v38.253907l45.792969-45.792969c1.992187-2.007813 4.714843-3.125 7.539062-3.125h320c11.765625 0 21.335938-9.570313 21.335938-21.335938v-298.664062c0-11.765625-9.570313-21.335938-21.335938-21.335938h-53.332031c-5.898438 0-10.667969-4.777343-10.667969-10.664062 0-5.890625 4.769531-10.667969 10.667969-10.667969h53.332031c23.53125 0 42.667969 19.136719 42.667969 42.667969v298.664062c0 23.53125-19.136719 42.667969-42.667969 42.667969h-315.582031l-60.875 60.875c-2.039062 2.035156-4.769531 3.125-7.542969 3.125zm0 0"/><path d="m42.667969 448c-23.53125 0-42.667969-19.136719-42.667969-42.667969v-298.664062c0-23.53125 19.136719-42.667969 42.667969-42.667969h53.332031c5.886719 0 10.667969 4.777344 10.667969 10.667969 0 5.886719-4.78125 10.664062-10.667969 10.664062h-53.332031c-11.765625 0-21.335938 9.570313-21.335938 21.335938v298.664062c0 11.765625 9.570313 21.335938 21.335938 21.335938 5.886719 0 10.664062 4.765625 10.664062 10.664062 0 5.898438-4.777343 10.667969-10.664062 10.667969zm0 0"/><path d="m405.332031 266.667969h-10.664062c-5.898438 0-10.667969-4.78125-10.667969-10.667969s4.769531-10.667969 10.667969-10.667969h10.664062c11.765625 0 21.335938-9.566406 21.335938-21.332031v-21.332031c0-11.765625-9.570313-21.335938-21.335938-21.335938h-10.664062c-5.898438 0-10.667969-4.777343-10.667969-10.664062v-21.335938c0-70.578125-57.417969-128-128-128s-128 57.421875-128 128v21.335938c0 5.886719-4.777344 10.664062-10.667969 10.664062-5.886719 0-10.664062-4.777343-10.664062-10.664062v-21.335938c0-82.34375 66.984375-149.332031 149.332031-149.332031s149.332031 66.988281 149.332031 149.332031v10.667969c23.53125 0 42.667969 19.136719 42.667969 42.667969v21.332031c0 23.53125-19.136719 42.667969-42.667969 42.667969zm0 0"/><path d="m117.332031 266.667969h-10.664062c-23.53125 0-42.667969-19.136719-42.667969-42.667969v-21.332031c0-23.53125 19.136719-42.667969 42.667969-42.667969h10.664062c5.890625 0 10.667969 4.777344 10.667969 10.667969v85.332031c0 5.886719-4.777344 10.667969-10.667969 10.667969zm-10.664062-85.335938c-11.765625 0-21.335938 9.570313-21.335938 21.335938v21.332031c0 11.765625 9.570313 21.332031 21.335938 21.332031zm0 0"/><path d="m256 405.332031c-17.644531 0-32-14.355469-32-32 0-17.640625 14.355469-32 32-32 13.910156 0 25.769531 8.917969 30.175781 21.335938h1.824219c52.9375 0 96-43.0625 96-96v-53.335938c0-5.886719 4.769531-10.664062 10.667969-10.664062 5.898437 0 10.664062 4.777343 10.664062 10.664062v53.335938c0 64.691406-52.640625 117.332031-117.332031 117.332031h-10.667969c-5.898437 0-10.664062-4.769531-10.664062-10.667969 0-5.886719-4.789063-10.664062-10.667969-10.664062s-10.667969 4.777343-10.667969 10.664062c0 5.890625 4.789063 10.667969 10.667969 10.667969 5.886719 0 10.667969 4.769531 10.667969 10.667969 0 5.898437-4.78125 10.664062-10.667969 10.664062zm0 0"/><path d="m352 160c-5.898438 0-10.667969-4.777344-10.667969-10.667969 0-47.050781-38.28125-85.332031-85.332031-85.332031s-85.332031 38.28125-85.332031 85.332031c0 5.890625-4.78125 10.667969-10.667969 10.667969s-10.667969-4.777344-10.667969-10.667969c0-58.816406 47.851563-106.664062 106.667969-106.664062s106.667969 47.847656 106.667969 106.664062c0 5.890625-4.769531 10.667969-10.667969 10.667969zm0 0"/><path d="m202.667969 277.332031h21.332031v21.335938h-21.332031zm0 0"/><path d="m245.332031 277.332031h21.335938v21.335938h-21.335938zm0 0"/><path d="m288 277.332031h21.332031v21.335938h-21.332031zm0 0"/></svg>