<svg id="Capa_1" enable-background="new 0 0 512 512" height="512" viewBox="0 0 512 512" width="512" xmlns="http://www.w3.org/2000/svg"><g><g><path d="m479.79 16.058h-185.53c-5.522 0-10 4.478-10 10s4.478 10 10 10h185.53c6.732 0 12.21 5.473 12.21 12.2v265.03h-472v-265.03c0-6.728 5.478-12.2 12.21-12.2h174.13c5.522 0 10-4.478 10-10s-4.478-10-10-10h-174.13c-17.761 0-32.21 14.445-32.21 32.2v320.55c0 17.761 14.449 32.21 32.21 32.21h163.613l-6.166 52.913c-1.429 12.533-12.013 21.977-24.625 21.977-.01 0-.019 0-.028 0-.085.017-.271.003-.407.008-.106.004-.211.02-.317.027h-13.595c-5.522 0-10 4.478-10 10s4.478 10 10 10h210.631c5.522 0 10-4.478 10-10s-4.478-10-10-10h-13.595c-.106-.008-.212-.023-.317-.027-.132-.005-.265-.008-.396-.008-.018 0-.026 0-.039 0-12.611-.001-23.196-9.443-24.625-21.977-.001-.008-.002-.017-.003-.024l-6.163-52.889h163.612c17.761 0 32.21-14.449 32.21-32.21v-320.55c0-17.755-14.449-32.2-32.21-32.2zm-177.316 440.154c.832 7.281 3.376 13.986 7.2 19.73h-107.344c3.824-5.743 6.366-12.445 7.195-19.722l6.433-55.203h80.084zm189.526-87.404c0 6.732-5.478 12.21-12.21 12.21h-447.58c-6.732 0-12.21-5.478-12.21-12.21v-35.52h472z"/><path d="m434.653 247.415c18.071-18.071 28.023-42.093 28.023-67.64 0-52.749-42.914-95.663-95.663-95.663-52.742 0-95.651 42.914-95.651 95.663 0 52.742 42.909 95.651 95.651 95.651 25.554.001 49.576-9.947 67.64-28.011zm7.939-64.144c-.688 15.359-6.131 30.262-15.484 42.457l-50.094-50.095v-70.839c37.062 4.929 65.663 37.587 65.663 74.982 0 1.169-.033 2.334-.085 3.495zm-151.23-3.496c0-38.328 28.65-70.07 65.651-74.982v74.982c0 2.652 1.054 5.195 2.929 7.071l53.022 53.022c-13.13 10.081-29.115 15.558-45.951 15.558-41.713.001-75.651-33.937-75.651-75.651z"/><path d="m162.741 179.77v75.19h-28.069v-150.631c0-5.522-4.478-10-10-10h-49.42c-5.522 0-10 4.478-10 10v150.631h-7.357c-5.522 0-10 4.478-10 10s4.478 10 10 10h180.927c5.522 0 10-4.478 10-10s-4.478-10-10-10h-6.66v-75.19c0-5.522-4.478-10-10-10h-49.42c-5.523 0-10.001 4.477-10.001 10zm-77.489 75.19v-140.631h29.42v140.631zm97.489-65.19h29.42v65.19h-29.42z"/><path d="m241.6 29.879c2.096 5.028 8.018 7.503 13.061 5.41 5.028-2.087 7.497-8.027 5.409-13.061-2.086-5.028-8.029-7.499-13.06-5.41-5.023 2.086-7.508 8.031-5.41 13.061z"/></g></g></svg>