<svg height="512pt" viewBox="0 0 512 512" width="512pt" xmlns="http://www.w3.org/2000/svg"><path d="m375.464844 156.78125v-131.179688c0-14.140624-11.460938-25.601562-25.597656-25.601562h-187.734376c-14.136718 0-25.597656 11.460938-25.597656 25.601562v131.179688c-136.433594 7.621094-136.535156 22.742188-136.535156 30.953125v68.265625c0 8.535156 4.914062 16.8125 57.472656 23.894531l145.457032 109.292969c6.554687 4.808594 10.417968 12.457031 10.402343 20.582031v85.164063c0 9.425781 7.640625 17.066406 17.066407 17.066406 3.195312-.003906 6.324218-.890625 9.046874-2.558594l47.273438-29.59375c7.441406-4.703125 11.953125-12.890625 11.949219-21.691406v-48.386719c-.003907-8.164062 3.894531-15.839843 10.496093-20.648437l145.363282-109.226563c52.558594-7.082031 57.472656-15.359375 57.472656-23.894531v-68.265625c0-8.210937-.101562-23.332031-136.535156-30.953125zm119.46875 96.660156c-13.796875 8.53125-101.25 19.625-238.933594 19.625s-225.136719-11.160156-238.933594-19.625v-49.90625c20.613282 5.671875 41.738282 9.285156 63.0625 10.796875 47.019532 4.863281 109.449219 7.535157 175.871094 7.535157s128.851562-2.671876 175.871094-7.535157c21.324218-1.511719 42.449218-5.125 63.0625-10.796875zm-136.535156-116.90625h-204.796876v-51.203125h204.796876zm-204.796876 17.066406h204.796876v48.921876c-29.957032 1.421874-64.238282 2.277343-102.398438 2.277343s-72.441406-.855469-102.398438-2.277343zm335.042969 34.183594c-16.144531 5.042969-55.339843 10.496094-113.179687 13.832032v-27.726563c65.886718 3.746094 99.363281 9.574219 113.179687 13.894531zm-335.042969-162.183594c0-4.714843 3.820313-8.535156 8.53125-8.535156h187.734376c4.710937 0 8.53125 3.820313 8.53125 8.535156v42.664063h-204.796876zm-17.066406 148.289063v27.726563c-57.839844-3.335938-97.035156-8.765626-113.179687-13.832032 13.816406-4.320312 47.292969-10.148437 113.179687-13.894531zm162.480469 201.5c-10.945313 8.035156-17.410156 20.800781-17.414063 34.378906v48.386719c-.035156 2.941406-1.546874 5.671875-4.019531 7.269531l-47.183593 29.507813v-85.164063c.015624-13.535156-6.414063-26.273437-17.3125-34.304687l-122.292969-91.867188c45.628906 4.207032 103.640625 6.535156 165.207031 6.535156s119.578125-2.328124 165.207031-6.535156zm0 0"/><path d="m187.734375 34.132812h-8.535156c-4.710938 0-8.53125 3.820313-8.53125 8.535157 0 4.710937 3.820312 8.53125 8.53125 8.53125h8.535156c4.710937 0 8.53125-3.820313 8.53125-8.53125 0-4.714844-3.820313-8.535157-8.53125-8.535157zm0 0"/><path d="m230.398438 34.132812h-8.53125c-4.714844 0-8.535157 3.820313-8.535157 8.535157 0 4.710937 3.820313 8.53125 8.535157 8.53125h8.53125c4.714843 0 8.535156-3.820313 8.535156-8.53125 0-4.714844-3.820313-8.535157-8.535156-8.535157zm0 0"/><path d="m179.199219 119.464844h8.535156c4.710937 0 8.53125-3.820313 8.53125-8.53125 0-4.714844-3.820313-8.535156-8.53125-8.535156h-8.535156c-4.710938 0-8.53125 3.820312-8.53125 8.535156 0 4.710937 3.820312 8.53125 8.53125 8.53125zm0 0"/><path d="m221.867188 119.464844h8.53125c4.714843 0 8.535156-3.820313 8.535156-8.53125 0-4.714844-3.820313-8.535156-8.535156-8.535156h-8.53125c-4.714844 0-8.535157 3.820312-8.535157 8.535156 0 4.710937 3.820313 8.53125 8.535157 8.53125zm0 0"/><path d="m332.800781 34.132812h-25.601562c-4.710938 0-8.53125 3.820313-8.53125 8.535157 0 4.710937 3.820312 8.53125 8.53125 8.53125h25.601562c4.710938 0 8.53125-3.820313 8.53125-8.53125 0-4.714844-3.820312-8.535157-8.53125-8.535157zm0 0"/><path d="m307.199219 119.464844h25.601562c4.710938 0 8.53125-3.820313 8.53125-8.53125 0-4.714844-3.820312-8.535156-8.53125-8.535156h-25.601562c-4.710938 0-8.53125 3.820312-8.53125 8.535156 0 4.710937 3.820312 8.53125 8.53125 8.53125zm0 0"/><path d="m187.734375 170.667969h-8.535156c-4.710938 0-8.53125 3.820312-8.53125 8.53125 0 4.714843 3.820312 8.535156 8.53125 8.535156h8.535156c4.710937 0 8.53125-3.820313 8.53125-8.535156 0-4.710938-3.820313-8.53125-8.53125-8.53125zm0 0"/><path d="m230.398438 170.667969h-8.53125c-4.714844 0-8.535157 3.820312-8.535157 8.53125 0 4.714843 3.820313 8.535156 8.535157 8.535156h8.53125c4.714843 0 8.535156-3.820313 8.535156-8.535156 0-4.710938-3.820313-8.53125-8.535156-8.53125zm0 0"/><path d="m307.199219 187.734375h25.601562c4.710938 0 8.53125-3.820313 8.53125-8.535156 0-4.710938-3.820312-8.53125-8.53125-8.53125h-25.601562c-4.710938 0-8.53125 3.820312-8.53125 8.53125 0 4.714843 3.820312 8.535156 8.53125 8.535156zm0 0"/><path d="m76.800781 0c-4.714843 0-8.535156 3.820312-8.535156 8.535156v90.332032l-11.03125-11.035157c-3.347656-3.230469-8.671875-3.1875-11.964844.105469-3.289062 3.292969-3.335937 8.613281-.101562 11.960938l25.597656 25.601562c1.601563 1.605469 3.777344 2.507812 6.042969 2.507812s4.441406-.902343 6.042968-2.507812l25.597657-25.601562c3.234375-3.347657 3.1875-8.667969-.101563-11.960938-3.292968-3.292969-8.617187-3.335938-11.964844-.105469l-11.050781 11.035157v-90.332032c0-4.714844-3.820312-8.535156-8.53125-8.535156zm0 0"/><path d="m435.199219 0c-4.710938 0-8.53125 3.820312-8.53125 8.535156v90.332032l-11.035157-11.035157c-3.347656-3.230469-8.671874-3.1875-11.960937.105469-3.292969 3.292969-3.339844 8.613281-.105469 11.960938l25.601563 25.601562c1.601562 1.605469 3.773437 2.507812 6.039062 2.507812 2.269531 0 4.441407-.902343 6.042969-2.507812l25.601562-25.601562c3.234376-3.347657 3.1875-8.667969-.105468-11.960938-3.292969-3.292969-8.613282-3.335938-11.960938-.105469l-11.050781 11.035157v-90.332032c0-4.714844-3.820313-8.535156-8.535156-8.535156zm0 0"/></svg>