<svg id="Layer_1" enable-background="new 0 0 512 512" height="512" viewBox="0 0 512 512" width="512" xmlns="http://www.w3.org/2000/svg"><path d="m152.875 138.5h-47c-4.418 0-8 3.582-8 8v47c0 4.418 3.582 8 8 8h47c4.418 0 8-3.582 8-8v-47c0-4.418-3.582-8-8-8zm-8 47h-31v-31h31zm52-38.999c0-4.418 3.582-8 8-8h119.5c4.418 0 8 3.582 8 8s-3.582 8-8 8h-119.5c-4.418 0-8-3.582-8-8zm0 46.999c0-4.418 3.582-8 8-8h119.5c4.418 0 8 3.582 8 8s-3.582 8-8 8h-119.5c-4.418 0-8-3.582-8-8zm-44 52h-47c-4.418 0-8 3.582-8 8v47c0 4.418 3.582 8 8 8h47c4.418 0 8-3.582 8-8v-47c0-4.418-3.582-8-8-8zm-8 47h-31v-31h31zm52-39c0-4.418 3.582-8 8-8h119.5c4.418 0 8 3.582 8 8s-3.582 8-8 8h-119.5c-4.418 0-8-3.581-8-8zm0 47c0-4.418 3.582-8 8-8h119.5c4.418 0 8 3.582 8 8s-3.582 8-8 8h-119.5c-4.418 0-8-3.582-8-8zm-44 52h-47c-4.418 0-8 3.582-8 8v47c0 4.418 3.582 8 8 8h47c4.418 0 8-3.582 8-8v-47c0-4.418-3.582-8-8-8zm-8 47h-31v-31h31zm137.548-39c0 4.418-3.582 8-8 8h-69.548c-4.418 0-8-3.582-8-8s3.582-8 8-8h69.548c4.419 0 8 3.582 8 8zm0 46.999c0 4.418-3.582 8-8 8h-69.548c-4.418 0-8-3.582-8-8s3.582-8 8-8h69.548c4.419 0 8 3.582 8 8zm154.726-18.45c3.14 3.108 3.165 8.174.057 11.313l-54.489 55.033c-1.498 1.513-3.537 2.366-5.665 2.371-.007 0-.014 0-.02 0-2.122 0-4.156-.843-5.657-2.343l-30.302-30.303c-3.125-3.125-3.124-8.189 0-11.314 3.125-3.123 8.19-3.122 11.313 0l24.617 24.618 48.833-49.32c3.108-3.139 8.174-3.166 11.313-.055zm-40.024-56.188v-252.861c0-15.439-12.561-28-28-28h-69v-18c0-4.418-3.582-8-8-8h-38.149c-6.375-15.581-21.553-26-38.851-26s-32.476 10.418-38.851 26h-38.149c-4.418 0-8 3.582-8 8v18h-69c-15.439 0-28 12.561-28 28v368c0 15.439 12.561 28 28 28h256.168c16.386 21.843 42.486 36 71.832 36 49.488 0 89.75-40.262 89.75-89.75 0-46.792-35.996-85.328-81.75-89.389zm-251-290.861h35.949c3.696 0 6.911-2.532 7.777-6.125 2.822-11.702 13.215-19.875 25.274-19.875s22.452 8.173 25.274 19.875c.866 3.593 4.081 6.125 7.777 6.125h35.949v36h-138zm-85 418c-6.617 0-12-5.383-12-12v-368c0-6.617 5.383-12 12-12h69v18c0 4.418 3.582 8 8 8h154c4.418 0 8-3.582 8-8v-18h69c6.617 0 12 5.383 12 12v252.861c-45.755 4.061-81.75 42.597-81.75 89.389 0 13.478 2.992 26.268 8.337 37.75zm328 36c-40.666 0-73.75-33.084-73.75-73.75s33.084-73.75 73.75-73.75 73.75 33.084 73.75 73.75-33.084 73.75-73.75 73.75z"/></svg>