<svg id="Capa_1" enable-background="new 0 0 504.042 504.042" height="512" viewBox="0 0 504.042 504.042" width="512" xmlns="http://www.w3.org/2000/svg"><g><g id="Page-1_18_"><g id="_x30_19---Review-Code" transform="translate(-1)"><path id="Shape_311_" d="m174.825 170.22c-3.278-3.277-8.591-3.277-11.868 0l-41.967 41.967c-3.277 3.278-3.277 8.591 0 11.868l41.967 41.967c3.293 3.181 8.528 3.135 11.766-.102s3.283-8.473.102-11.766l-36.033-36.033 36.033-36.033c3.277-3.277 3.277-8.59 0-11.868z"/><path id="Shape_310_" d="m263.678 266.023c3.278 3.277 8.591 3.277 11.868 0l41.967-41.967c3.277-3.278 3.277-8.591 0-11.868l-41.967-41.967c-3.293-3.181-8.528-3.135-11.766.102s-3.283 8.473-.102 11.766l36.033 36.033-36.033 36.033c-3.276 3.277-3.276 8.591 0 11.868z"/><path id="Shape_309_" d="m199.351 267.887c2.067.827 4.378.799 6.424-.078s3.661-2.531 4.487-4.598l33.574-83.934c1.116-2.786.66-5.955-1.195-8.314s-4.827-3.549-7.798-3.122c-2.97.427-5.487 2.406-6.603 5.192l-33.574 83.934c-.829 2.069-.802 4.383.077 6.431.88 2.048 2.538 3.663 4.608 4.489z"/><path id="Shape_308_" d="m219.252 436.351c49.19.036 96.934-16.634 135.411-47.28l24.274 24.282c.466 8.12 3.891 15.788 9.627 21.554l58.754 58.754c8.43 8.728 20.912 12.228 32.651 9.155s20.906-12.24 23.978-23.978-.428-24.221-9.155-32.651l-58.754-58.754c-5.72-5.555-13.257-8.852-21.219-9.283l-24.618-24.618c63.073-79.76 62.661-192.523-.994-271.819s-173.661-104.082-265.173-59.748-140.245 146.023-117.473 245.126 111.006 169.319 212.691 169.26zm263.672 21.706c6.553 6.555 6.553 17.181 0 23.737-6.641 6.344-17.096 6.344-23.737 0l-58.754-58.754c-4.364-4.215-6.114-10.456-4.578-16.325s6.12-10.453 11.989-11.989 12.111.214 16.325 4.578zm-87.561-75.625c-2.483 1.364-4.77 3.059-6.799 5.036-1.958 2.014-3.651 4.271-5.036 6.715l-16.04-16.048c4.079-3.777 8.013-7.711 11.801-11.801zm-176.111-365.753c111.254 0 201.443 90.189 201.443 201.443s-90.189 201.443-201.443 201.443-201.443-90.19-201.443-201.443c.13-111.2 90.243-201.313 201.443-201.443z"/><path id="Shape_307_" d="m219.252 402.778c101.983 0 184.656-82.673 184.656-184.656s-82.674-184.656-184.656-184.656-184.656 82.673-184.656 184.656c.116 101.934 82.721 184.54 184.656 184.656zm0-352.525c92.711 0 167.869 75.157 167.869 167.869s-75.157 167.869-167.869 167.869-167.869-75.158-167.869-167.869c.107-92.667 75.202-167.763 167.869-167.869z"/><path id="Shape_306_" d="m101.744 150.974h67.148c4.636 0 8.393-3.758 8.393-8.393 0-4.636-3.758-8.393-8.393-8.393h-67.148c-4.636 0-8.393 3.758-8.393 8.393-.001 4.635 3.757 8.393 8.393 8.393z"/><path id="Shape_305_" d="m126.924 117.401h184.656c4.636 0 8.393-3.758 8.393-8.393 0-4.636-3.758-8.393-8.393-8.393h-184.656c-4.636 0-8.393 3.758-8.393 8.393s3.758 8.393 8.393 8.393z"/><path id="Shape_304_" d="m286.4 134.187h-83.934c-4.636 0-8.393 3.758-8.393 8.393 0 4.636 3.758 8.393 8.393 8.393h83.934c4.636 0 8.393-3.758 8.393-8.393s-3.758-8.393-8.393-8.393z"/><path id="Shape_303_" d="m185.678 83.827h67.148c4.636 0 8.393-3.758 8.393-8.393s-3.758-8.393-8.393-8.393h-67.148c-4.636 0-8.393 3.758-8.393 8.393s3.758 8.393 8.393 8.393z"/><path id="Shape_302_" d="m311.58 142.581c0 4.636 3.758 8.393 8.393 8.393h16.787c4.636 0 8.393-3.758 8.393-8.393 0-4.636-3.758-8.393-8.393-8.393h-16.787c-4.635-.001-8.393 3.757-8.393 8.393z"/><path id="Shape_301_" d="m202.465 302.056c4.636 0 8.393-3.758 8.393-8.393s-3.758-8.393-8.393-8.393h-100.721c-4.636 0-8.393 3.758-8.393 8.393s3.758 8.393 8.393 8.393z"/><path id="Shape_300_" d="m311.58 318.843h-125.902c-4.636 0-8.393 3.758-8.393 8.393 0 4.636 3.758 8.393 8.393 8.393h125.902c4.636 0 8.393-3.758 8.393-8.393s-3.758-8.393-8.393-8.393z"/><path id="Shape_299_" d="m152.104 318.843h-25.18c-4.636 0-8.393 3.758-8.393 8.393 0 4.636 3.758 8.393 8.393 8.393h25.18c4.636 0 8.393-3.758 8.393-8.393.001-4.635-3.757-8.393-8.393-8.393z"/><path id="Shape_298_" d="m236.039 302.056h50.361c4.636 0 8.393-3.758 8.393-8.393s-3.758-8.393-8.393-8.393h-50.361c-4.636 0-8.393 3.758-8.393 8.393s3.757 8.393 8.393 8.393z"/><path id="Shape_297_" d="m252.826 352.417h-67.148c-4.636 0-8.393 3.758-8.393 8.393s3.758 8.393 8.393 8.393h67.148c4.636 0 8.393-3.758 8.393-8.393s-3.758-8.393-8.393-8.393z"/><path id="Shape_296_" d="m336.76 285.269h-16.787c-4.636 0-8.393 3.758-8.393 8.393s3.758 8.393 8.393 8.393h16.787c4.636 0 8.393-3.758 8.393-8.393s-3.757-8.393-8.393-8.393z"/></g></g></g></svg>