<svg id="Layer_1" enable-background="new 0 0 68 68" height="512" viewBox="0 0 68 68" width="512" xmlns="http://www.w3.org/2000/svg"><g><g><path d="m66 15.66211v-8.66211c0-2.75684-2.24316-5-5-5h-54c-2.75684 0-5 2.24316-5 5v54c0 2.75684 2.24316 5 5 5h54c2.75684 0 5-2.24316 5-5v-39.81396c0-.55225-.44775-1-1-1s-1 .44775-1 1v39.81396c0 1.6543-1.3457 3-3 3h-54c-1.6543 0-3-1.3457-3-3v-54c0-1.6543 1.3457-3 3-3h54c1.6543 0 3 1.3457 3 3v7.66211h-57.60254c-.55225 0-1 .44775-1 1s.44775 1 1 1h58.60254c.55225 0 1-.44775 1-1z"/><path d="m60.0166 10.33105c.55225 0 1-.44775 1-1s-.44775-1-1-1h-29.08301c-.55225 0-1 .44775-1 1s.44775 1 1 1z"/><path d="m10.0957 10.33105c.55225 0 1-.44775 1-1s-.44775-1-1-1h-2.28857c-.55225 0-1 .44775-1 1s.44775 1 1 1z"/><path d="m15.99365 10.33105c.55225 0 1-.44775 1-1s-.44775-1-1-1h-2.28857c-.55225 0-1 .44775-1 1s.44775 1 1 1z"/><path d="m21.8916 10.33105c.55225 0 1-.44775 1-1s-.44775-1-1-1h-2.28857c-.55225 0-1 .44775-1 1s.44775 1 1 1z"/><path d="m44.70508 45.30322c-.55225 0-1 .44775-1 1v8.229c0 .55225.44775 1 1 1h9.87451c.55225 0 1-.44775 1-1v-8.229c0-.55225-.44775-1-1-1h-3.9375v-5.60254c0-.55225-.44775-1-1-1h-14.64209v-3.34424h4.51807c.55225 0 1-.44775 1-1v-8.22852c0-.55225-.44775-1-1-1h-11.03614c-.55225 0-1 .44775-1 1v8.22852c0 .55225.44775 1 1 1h4.51807v3.34424h-14.64258c-.55225 0-1 .44775-1 1v5.60254h-3.93701c-.55225 0-1 .44775-1 1v8.229c0 .55225.44775 1 1 1h9.87451c.55225 0 1-.44775 1-1v-8.229c0-.55225-.44775-1-1-1h-3.9375v-4.60254h13.64258v4.60254h-3.93701c-.55225 0-1 .44775-1 1v8.229c0 .55225.44775 1 1 1h9.87402c.55225 0 1-.44775 1-1v-8.229c0-.55225-.44775-1-1-1h-3.93701v-4.60254h13.64209v4.60254zm-15.22315-18.17529h9.03613v6.22852h-9.03613zm-7.18701 26.4043h-7.87451v-6.229h7.87451zm15.64209 0h-7.87402v-6.229h7.87402zm15.64258 0h-7.87451v-6.229h7.87451z"/></g></g></svg>