<svg id="Capa_1" enable-background="new 0 0 512 512" height="512" viewBox="0 0 512 512" width="512" xmlns="http://www.w3.org/2000/svg"><g><g><path d="m355.148 350.101c-5.522 0-10 4.478-10 10s4.478 10 10 10h108.012c4.804 0 8.929-3.415 9.824-8.135l34.346-180.876c.556-2.926-.222-5.948-2.122-8.243-1.899-2.294-4.724-3.622-7.702-3.622h-54.631v-117.188c0-3.155-1.489-6.126-4.019-8.014-2.528-1.887-5.797-2.473-8.826-1.573-20.192 5.992-44.411 5.915-64.785-.206-12.514-3.76-34.484-13.322-41.031-35.12-1.27-4.228-5.162-7.124-9.577-7.124s-8.308 2.896-9.577 7.124c-6.547 21.798-28.518 31.36-41.031 35.12-20.371 6.12-44.591 6.199-64.786.206-3.026-.898-6.298-.315-8.826 1.573-2.529 1.888-4.019 4.858-4.019 8.014v117.188h-55.351l-1.954-10.291c-.018-.093-.037-.187-.057-.279-6.077-27.665-19.039-38.949-44.739-38.949h-69.803c-5.522 0-10 4.478-10 10s4.478 10 10 10h69.802c13.633 0 20.573 2.283 25.175 23.104l3.469 18.265c.016.086.031.173.049.258l34.279 180.495c.026.151.052.301.085.45l4.931 25.966c2.581 13.598 7.385 38.909 43.248 38.947l13.851.02c-7.157 8.936-11.451 20.252-11.451 32.556 0 28.803 23.476 52.235 52.33 52.235s52.329-23.433 52.329-52.235c0-12.251-4.258-23.522-11.36-32.44l103.911.146c-7.032 8.895-11.245 20.109-11.245 32.293 0 28.803 23.476 52.235 52.33 52.235s52.329-23.433 52.329-52.235c0-28.794-23.46-52.22-52.302-52.235-.004 0-.009-.001-.013-.001l-240.685-.34c-18.426-.02-20.877-8.207-23.624-22.679l-2.737-14.41h95.923c5.522 0 10-4.478 10-10s-4.478-10-10-10h-99.722l-30.553-160.876h52.135c6.397 65.917 65.418 103.854 123.234 132.365 1.395.688 2.908 1.031 4.423 1.031s3.028-.344 4.423-1.031c57.815-28.511 116.836-66.448 123.233-132.365h43.136l-30.55 160.876zm-104.886 141.899c-17.827 0-32.33-14.461-32.33-32.235s14.503-32.235 32.33-32.235c17.826 0 32.329 14.461 32.329 32.235s-14.503 32.235-32.329 32.235zm218.295-32.235c0 17.774-14.503 32.235-32.329 32.235-17.827 0-32.33-14.461-32.33-32.235s14.503-32.235 32.33-32.235c17.826-.001 32.329 14.46 32.329 32.235zm-153.92-158.317c-25.501-12.84-46.087-25.582-62.188-38.693v-21.566c0-22.459 12.335-43.125 31.839-54.083 8.805 5.519 19.206 8.724 30.348 8.724s21.542-3.205 30.347-8.724c19.505 10.958 31.84 31.624 31.84 54.083v21.566c-16.1 13.111-36.685 25.853-62.186 38.693zm0-125.618c-20.537 0-37.245-16.661-37.245-37.14 0-20.463 16.708-37.111 37.245-37.111 20.536 0 37.244 16.648 37.244 37.111 0 20.479-16.708 37.14-37.244 37.14zm82.187 67.886v-2.527c0-27.526-13.978-53.001-36.506-68.111 7.252-9.575 11.562-21.487 11.562-34.388 0-31.491-25.68-57.111-57.244-57.111-31.565 0-57.245 25.62-57.245 57.111 0 12.901 4.31 24.813 11.563 34.388-22.528 15.11-36.505 40.585-36.505 68.111v2.527c-17.323-19.725-25.575-40.701-26.03-64.363.001-.043.007-.085.007-.129 0-.066-.009-.13-.01-.196-.009-.585-.018-1.17-.018-1.759v-112.601c20.753 3.765 43.617 2.669 63.386-3.271 19.682-5.913 35.035-16.071 44.854-29.398 9.818 13.327 25.171 23.485 44.854 29.398 19.77 5.94 42.633 7.037 63.385 3.271v112.602c0 .588-.009 1.174-.018 1.759-.001.066-.01.13-.01.196 0 .043.006.085.007.129-.458 23.661-8.709 44.637-26.032 64.362z"/><path d="m310.119 350.101h-.028c-5.522 0-9.986 4.478-9.986 10s4.492 10 10.015 10 10-4.478 10-10-4.478-10-10.001-10z"/></g></g></svg>