<svg id="Capa_1" enable-background="new 0 0 512 512" height="512" viewBox="0 0 512 512" width="512" xmlns="http://www.w3.org/2000/svg"><g><g><path d="m91.536 222.083h46.52v31.015c0 3.533 2.109 6.688 5.373 8.04 3.307 1.369 7.022.576 9.482-1.887l37.168-37.168h35.203l24.57 24.57c3.392 3.384 8.909 3.383 12.301-.005l24.565-24.565h35.203l37.166 37.166c2.499 2.499 6.22 3.239 9.484 1.889 3.264-1.352 5.373-4.507 5.373-8.04v-31.015h46.52c4.798 0 8.702-3.903 8.702-8.702v-204.679c0-4.799-3.904-8.702-8.702-8.702h-328.928c-4.798 0-8.702 3.903-8.702 8.702v122.199c0 4.143 3.358 7.5 7.5 7.5s7.5-3.357 7.5-7.5v-115.901h316.333v192.083h-46.52c-4.798 0-8.702 3.903-8.702 8.702v22.108l-28.261-28.262c-1.644-1.644-3.829-2.549-6.153-2.549h-40.42c-2.294 0-4.539.932-6.153 2.549l-21.958 21.957-21.956-21.956c-1.644-1.644-3.829-2.549-6.153-2.549h-40.421c-2.324 0-4.509.905-6.153 2.549l-28.261 28.261v-22.107c0-4.799-3.904-8.702-8.702-8.702h-46.52v-41.181c0-4.143-3.358-7.5-7.5-7.5s-7.5 3.357-7.5 7.5v47.479c-.001 4.798 3.903 8.701 8.702 8.701z"/><path d="m241.628 169.199c1.406 1.406 3.314 2.196 5.303 2.196s3.897-.79 5.303-2.196l78.096-78.097c1.407-1.407 2.197-3.314 2.197-5.304s-.79-3.896-2.197-5.304l-23.077-23.076c-2.929-2.928-7.678-2.928-10.606 0l-47.55 47.551-30.192-30.192c-2.929-2.928-7.678-2.928-10.606 0l-25.242 25.242c-2.929 2.93-2.929 7.678 0 10.607zm-28.026-78.511 30.192 30.192c2.929 2.928 7.678 2.928 10.606 0l47.55-47.551 12.471 12.47-67.49 67.49-47.965-47.966z"/><path d="m483.412 401.133-15.146-3.786c-.53-2.105-1.753-4.028-3.562-5.41-3.276-2.502-7.761-2.689-11.229-.486-1.098-1.518-1.718-3.367-1.718-5.313v-5.379c.422-.346.839-.7 1.25-1.062 3.11-2.735 3.414-7.475.679-10.585s-7.474-3.415-10.585-.679c-5.926 5.212-13.539 8.082-21.435 8.082-17.079 0-31.31-13.352-32.397-30.396l-1.292-20.242c6.972-3.773 13.34-8.519 18.957-14.136l3.055-3.055h23.353l3.055 3.055c5.617 5.617 11.985 10.364 18.957 14.137l-1.056 16.553c-.264 4.134 2.874 7.698 7.007 7.962 4.137.285 7.699-2.873 7.962-7.007.633-9.914 2.605-40.825 3.303-51.756.586-9.191-2.691-18.314-8.993-25.03-6.301-6.717-15.197-10.568-24.407-10.568h-35.01c-9.209 0-18.105 3.852-24.407 10.568-6.301 6.716-9.579 15.839-8.993 25.029.701 10.982 2.824 44.266 3.538 55.446.866 13.576 7.436 25.55 17.276 33.638v5.425c0 1.946-.619 3.795-1.718 5.313-3.467-2.203-7.952-2.016-11.228.485-1.809 1.382-3.033 3.305-3.562 5.411l-15.147 3.786c-8.688 2.172-16.023 7.235-21.087 14.011-5.065-6.776-12.4-11.838-21.088-14.011l-15.146-3.786c-.53-2.106-1.754-4.029-3.562-5.411-3.276-2.502-7.761-2.687-11.228-.485-1.099-1.518-1.718-3.367-1.718-5.313v-5.425c9.84-8.088 16.41-20.061 17.276-33.638.785-12.296 1.472-23.074 2.423-37.977.874-13.701-4.012-27.301-13.406-37.313s-22.655-15.754-36.384-15.754c-13.931 0-26.853 5.595-36.384 15.755-9.532 10.159-14.292 23.41-13.405 37.312.866 13.576 1.36 21.309 2.423 37.977.866 13.577 7.436 25.55 17.276 33.638v5.425c0 1.946-.62 3.795-1.718 5.313-3.467-2.203-7.952-2.016-11.228.487-1.809 1.381-3.033 3.304-3.562 5.41l-15.147 3.786c-8.688 2.172-16.023 7.235-21.087 14.011-5.065-6.776-12.4-11.839-21.088-14.011l-15.146-3.786c-.53-2.106-1.753-4.029-3.562-5.41-3.276-2.503-7.761-2.688-11.228-.486-1.099-1.518-1.718-3.367-1.718-5.313v-5.425c9.84-8.088 16.41-20.061 17.276-33.638.722-11.314 1.324-20.758 2.423-37.977.887-13.902-3.874-27.153-13.405-37.312-9.532-10.16-22.454-15.755-36.384-15.755s-26.852 5.595-36.384 15.754c-9.532 10.16-14.292 23.411-13.406 37.313 2.879 45.147 2.358 36.95 2.423 37.977.866 13.577 7.436 25.55 17.276 33.638v5.425c0 1.947-.62 3.795-1.718 5.313-3.467-2.203-7.952-2.016-11.228.486-1.809 1.382-3.033 3.305-3.562 5.411l-15.147 3.786c-16.834 4.207-28.589 19.263-28.589 36.613v65.671c0 4.731 3.849 8.581 8.581 8.581h494.839c4.731 0 8.581-3.85 8.581-8.581v-65.671c-.001-17.35-11.756-32.406-28.589-36.615zm-92.718-124.271c3.528-3.761 8.311-5.832 13.468-5.832h35.01c5.157 0 9.939 2.071 13.467 5.831 3.528 3.761 5.291 8.666 4.962 13.812l-1.168 18.303c-3.368-2.315-6.522-4.937-9.43-7.844l-5.252-5.251c-1.406-1.406-3.314-2.196-5.303-2.196h-29.565c-1.989 0-3.896.79-5.303 2.196l-5.252 5.251c-2.907 2.907-6.061 5.529-9.429 7.844l-1.168-18.304c-.328-5.145 1.435-10.05 4.963-13.81zm16.059 143.876c-.1.05-8.765 4.383-8.317 4.159l-4.159-12.477zm8.608 36.04h12.611v40.222h-12.611zm12.611-15h-12.611v-8.573l6.306-3.153 6.305 3.153zm8.608-21.04 12.476-8.317-4.159 12.477c-.175-.088-8.798-4.4-8.317-4.16zm.347-31.741c.465 3.914 1.876 7.602 4.06 10.776l-19.32 12.88-19.32-12.88c2.185-3.177 3.596-6.868 4.06-10.785 9.869 3.368 20.627 3.367 30.52.009zm-105.594 48.751v59.252h-12.611v-30.73c0-4.143-3.358-7.5-7.5-7.5s-7.5 3.357-7.5 7.5v30.73h-26.417v-56.295l2.952 1.476c1.054.527 2.203.792 3.354.792 3.249 0 6.102-2.088 7.115-5.128l8.617-25.85 14.764 3.691c10.143 2.536 17.226 11.608 17.226 22.062zm-90.247-17.01c-.101.05-8.507 4.254-8.317 4.159l-4.158-12.476zm14.914 9.314 6.306 3.153v8.573h-12.611v-8.573zm14.914-9.314 12.476-8.317-4.159 12.477c-.175-.088-8.799-4.4-8.317-4.16zm-21.22 36.04h12.611v40.222h-12.611zm6.306-185.748c10.72 0 21.267 5.025 27.975 14.044-3.841-1.471-8.008-2.271-12.351-2.271-5.508 0-10.824 1.289-15.622 3.761-4.798-2.472-10.114-3.761-15.622-3.761-4.351 0-8.526.802-12.372 2.278 6.561-8.76 16.668-14.051 27.992-14.051zm-34.499 42.144c1.826-8.952 9.644-15.37 18.879-15.37 4.075 0 7.956 1.251 11.224 3.616 2.624 1.9 6.173 1.9 8.797 0 3.268-2.365 7.148-3.616 11.223-3.616 9.226 0 17.042 6.411 18.876 15.355l-2.103 32.961c-1.087 17.044-15.318 30.396-32.397 30.396s-31.31-13.352-32.397-30.396zm49.758 75.814c.464 3.917 1.876 7.608 4.061 10.785l-19.32 12.88-19.32-12.88c2.185-3.177 3.596-6.868 4.06-10.785 9.636 3.289 20.413 3.449 30.519 0zm-73.367 26.698 14.765-3.691 8.617 25.85c1.015 3.046 3.873 5.128 7.115 5.128 1.151 0 2.301-.265 3.354-.792l2.951-1.476v56.295h-26.417v-30.73c0-4.143-3.358-7.5-7.5-7.5s-7.5 3.357-7.5 7.5v30.73h-12.611c0-7.504 0-52.95 0-59.252.001-10.454 7.084-19.527 17.226-22.062zm-101.253 26.092h-12.611v-8.573l6.306-3.153 6.306 3.153v8.573zm-21.219-21.04c-.101.05-8.765 4.383-8.317 4.159l-4.159-12.477zm29.827 0 12.475-8.316-4.158 12.476c-.111-.056-8.825-4.414-8.317-4.16zm-14.914-149.708c9.743 0 18.779 3.913 25.445 11.018 5.025 5.356 8.154 11.941 9.124 19.023-4.239-4.641-10.3-7.386-16.721-7.386h-37.085c-5.689 0-10.998 2.084-15.061 5.716 1.206-6.446 4.226-12.421 8.854-17.354 6.666-7.104 15.702-11.017 25.444-11.017zm-33.559 56.869 7.498-14.996c1.301-2.602 3.916-4.218 6.824-4.218h37.085c2.733 0 5.271 1.474 6.626 3.847l9.054 15.862-1.131 17.725c-1.087 17.044-15.318 30.396-32.397 30.396s-31.31-13.352-32.397-30.396zm48.819 61.089c.464 3.917 1.876 7.608 4.061 10.785l-19.32 12.88-19.32-12.88c2.185-3.177 3.597-6.868 4.061-10.785 9.635 3.289 20.412 3.449 30.518 0zm-90.593 48.76c0-10.454 7.083-19.526 17.226-22.062l14.765-3.691 8.617 25.85c.688 2.062 2.236 3.725 4.245 4.557 1.964.815 4.24.773 6.224-.221l2.952-1.476v56.295h-26.418v-30.73c0-4.143-3.358-7.5-7.5-7.5s-7.5 3.357-7.5 7.5v30.73h-12.611zm150.667 59.252h-12.611v-30.73c0-4.143-3.358-7.5-7.5-7.5s-7.5 3.357-7.5 7.5v30.73h-26.417v-4.17c0-4.143-3.358-7.5-7.5-7.5s-7.5 3.357-7.5 7.5v4.17h-12.611v-40.222h12.611v1.051c0 4.143 3.358 7.5 7.5 7.5s7.5-3.357 7.5-7.5v-17.124l2.951 1.476c1.912.957 4.186 1.066 6.224.221 2.009-.832 3.558-2.494 4.245-4.557l8.617-25.85 14.764 3.691c10.143 2.535 17.226 11.608 17.226 22.062v59.252zm180.666-59.252c0-10.454 7.083-19.526 17.226-22.062l14.765-3.691 8.617 25.85c.688 2.062 2.236 3.725 4.245 4.557 1.964.815 4.24.773 6.224-.221l2.952-1.476v56.295h-26.417v-30.73c0-4.143-3.358-7.5-7.5-7.5s-7.5 3.357-7.5 7.5v30.73h-12.611v-59.252zm150.667 59.252h-12.611v-30.73c0-4.143-3.358-7.5-7.5-7.5s-7.5 3.357-7.5 7.5v30.73h-26.417v-56.295l2.952 1.476c1.912.957 4.186 1.066 6.224.221 2.009-.832 3.558-2.494 4.245-4.557l8.617-25.85 14.764 3.691c10.143 2.536 17.226 11.608 17.226 22.062z"/><path d="m417.932 331.491v7.561c-4.236 0-7.53 3.408-7.53 7.5 0 4.143 3.358 7.5 7.5 7.5h1.014c7.729 0 14.016-6.288 14.016-14.017v-8.544c0-4.143-3.358-7.5-7.5-7.5s-7.5 3.358-7.5 7.5z"/><path d="m86.568 354.052h1.014c7.729 0 14.017-6.288 14.017-14.017v-8.544c0-4.143-3.358-7.5-7.5-7.5s-7.5 3.357-7.5 7.5v7.561c-4.236 0-7.53 3.408-7.53 7.5-.001 4.142 3.357 7.5 7.499 7.5z"/><path d="m252.235 354.052h1.014c7.729 0 14.017-6.288 14.017-14.017v-8.544c0-4.143-3.358-7.5-7.5-7.5s-7.5 3.357-7.5 7.5v7.561c-4.236 0-7.53 3.408-7.53 7.5-.001 4.142 3.357 7.5 7.499 7.5z"/></g></g></svg>