<svg id="Layer_5" enable-background="new 0 0 64 64" height="512" viewBox="0 0 64 64" width="512" xmlns="http://www.w3.org/2000/svg"><g><path d="m53 45h-2v2c-1.654 0-3 1.346-3 3s1.346 3 3 3h2c.551 0 1 .448 1 1s-.449 1-1 1h-3v-1h-2v3h3v2h2v-2c1.654 0 3-1.346 3-3s-1.346-3-3-3h-2c-.551 0-1-.448-1-1s.449-1 1-1h3v1h2v-3h-3z"/><path d="m52 41c-1.801 0-3.498.444-5 1.214v-3.214h5.804l-6.25-10h-5.554v-16h-6v16h-2v-10h-6v10h-1.618-.382v-8h-6v8h-2v-6h-6v6h-3.554l-6.25 10h5.804v20h36.521c2.019 2.441 5.07 4 8.479 4 6.065 0 11-4.935 11-11s-4.935-11-11-11zm-2.804-4h-17.578l-3-6h16.828zm-12.196-22h2v14h-2zm-6 6v8h-2v-8zm-10 2h2v6h-2zm-8 2h2v4h-2zm-4.446 6h16.828l-3 6h-17.578zm.446 8h14.618l2.382-4.764v22.764h-17zm19 18v-22.764l2.382 4.764h14.618v4.521c-2.441 2.019-4 5.07-4 8.479 0 1.801.444 3.498 1.214 5zm24 4c-4.962 0-9-4.037-9-9s4.038-9 9-9 9 4.037 9 9-4.038 9-9 9z"/><path d="m11 53h2v2h-2z"/><path d="m19 53h2v2h-2z"/><path d="m15 53h2v2h-2z"/><path d="m11 49h10v2h-10z"/><path d="m18 14.414 6 6 16-16v6.586h2v-10h-10v2h6.586l-14.586 14.586-6-6-12.707 12.707 1.414 1.414z"/><path d="m49 21h2v2h-2z"/><path d="m57 21h2v2h-2z"/><path d="m53 21h2v2h-2z"/><path d="m60 13h-12c-1.654 0-3 1.346-3 3v8c0 1.654 1.346 3 3 3h6v1.764c0 1.233 1.003 2.236 2.236 2.236.852 0 1.619-.474 2-1.236l1.382-2.764h.382c1.654 0 3-1.346 3-3v-8c0-1.654-1.346-3-3-3zm1 11c0 .551-.449 1-1 1h-1.618l-1.934 3.869c-.098.196-.448.114-.448-.105v-3.764h-8c-.551 0-1-.449-1-1v-8c0-.551.449-1 1-1h12c.551 0 1 .449 1 1z"/><path d="m49 17h10v2h-10z"/></g></svg>