<svg id="Layer_1_1_" enable-background="new 0 0 64 64" height="512" viewBox="0 0 64 64" width="512" xmlns="http://www.w3.org/2000/svg"><path d="m14 44c-.552 0-1 .448-1 1v14c0 .552.448 1 1 1h7v1c0 .552.448 1 1 1h20c.552 0 1-.448 1-1v-1h7c.552 0 1-.448 1-1v-14c0-.552-.448-1-1-1h-7v-13c0-.552-.448-1-1-1h-2v-3c0-1.103-.897-2-2-2h-5v-3h-2v3h-5c-1.103 0-2 .897-2 2v3h-2c-.552 0-1 .448-1 1v13zm35 2v12h-6v-12zm-15 14h-4v-3h4zm-8-33h12v3h-12zm-3 5h18v28h-5v-4c0-.552-.448-1-1-1h-6c-.552 0-1 .448-1 1v4h-5zm-8 26v-12h6v12z"/><path d="m26 40h12v2h-12z"/><path d="m26 35h12v2h-12z"/><path d="m26 45h12v2h-12z"/><path d="m26 50h12v2h-12z"/><path d="m45 48h2v2h-2z"/><path d="m45 52h2v2h-2z"/><path d="m17 48h2v2h-2z"/><path d="m17 52h2v2h-2z"/><path d="m32 20c4.962 0 9-4.038 9-9s-4.038-9-9-9-9 4.038-9 9 4.038 9 9 9zm-3.975-3.245c.127-1.538 1.405-2.755 2.975-2.755h2c1.57 0 2.848 1.217 2.975 2.755-1.13.783-2.499 1.245-3.975 1.245s-2.845-.462-3.975-1.245zm3.975-4.755c-1.103 0-2-.897-2-2s.897-2 2-2 2 .897 2 2-.897 2-2 2zm0-8c3.86 0 7 3.14 7 7 0 1.549-.512 2.978-1.368 4.139-.474-1.174-1.381-2.119-2.522-2.655.548-.685.89-1.541.89-2.484 0-2.206-1.794-4-4-4s-4 1.794-4 4c0 .943.342 1.799.89 2.484-1.141.536-2.048 1.481-2.522 2.655-.856-1.161-1.368-2.59-1.368-4.139 0-3.86 3.14-7 7-7z"/><path d="m53 10c-4.962 0-9 4.038-9 9s4.038 9 9 9 9-4.038 9-9-4.038-9-9-9zm-3.975 14.755c.127-1.538 1.405-2.755 2.975-2.755h2c1.57 0 2.848 1.217 2.975 2.755-1.13.783-2.499 1.245-3.975 1.245s-2.845-.462-3.975-1.245zm3.975-4.755c-1.103 0-2-.897-2-2s.897-2 2-2 2 .897 2 2-.897 2-2 2zm5.632 3.139c-.474-1.174-1.381-2.119-2.522-2.655.548-.685.89-1.541.89-2.484 0-2.206-1.794-4-4-4s-4 1.794-4 4c0 .943.342 1.799.89 2.484-1.141.536-2.048 1.481-2.522 2.655-.856-1.161-1.368-2.59-1.368-4.139 0-3.86 3.14-7 7-7s7 3.14 7 7c0 1.549-.512 2.978-1.368 4.139z"/><path d="m11 28c4.962 0 9-4.038 9-9s-4.038-9-9-9-9 4.038-9 9 4.038 9 9 9zm-3.975-3.245c.127-1.538 1.405-2.755 2.975-2.755h2c1.57 0 2.848 1.217 2.975 2.755-1.13.783-2.499 1.245-3.975 1.245s-2.845-.462-3.975-1.245zm3.975-4.755c-1.103 0-2-.897-2-2s.897-2 2-2 2 .897 2 2-.897 2-2 2zm0-8c3.86 0 7 3.14 7 7 0 1.549-.512 2.978-1.368 4.139-.474-1.174-1.381-2.119-2.522-2.655.548-.685.89-1.541.89-2.484 0-2.206-1.794-4-4-4s-4 1.794-4 4c0 .943.342 1.799.89 2.484-1.141.536-2.048 1.481-2.522 2.655-.856-1.161-1.368-2.59-1.368-4.139 0-3.86 3.14-7 7-7z"/><path d="m5 58.957v3.043h2v-3.043c1.343-.147 3-.823 3-3.957 0-2.792-1.374-8-4-8s-4 5.208-4 8c0 3.134 1.657 3.81 3 3.957zm.998-9.957c.629.082 2.002 3.141 2.002 6 0 1.923-.577 2-2 2s-2-.077-2-2c0-2.859 1.373-5.918 1.998-6z"/><path d="m58 47c-2.626 0-4 5.208-4 8 0 3.134 1.657 3.81 3 3.957v3.043h2v-3.043c1.343-.147 3-.823 3-3.957 0-2.792-1.374-8-4-8zm0 10c-1.423 0-2-.077-2-2 0-2.859 1.373-5.918 1.998-6 .629.082 2.002 3.141 2.002 6 0 1.923-.577 2-2 2z"/></svg>