<svg id="svg31332" height="512" viewBox="0 0 16.933333 16.933334" width="512" xmlns="http://www.w3.org/2000/svg" xmlns:svg="http://www.w3.org/2000/svg"><g id="layer1" transform="translate(0 -280.067)"><path id="path7325" d="m3.9687629 280.59581c-.7018798 0-1.3868999.21484-1.9631899.61546-.30005.19928.0102.64614.30179.4346.4876799-.33902 1.06746-.5209 1.6613999-.5209 1.6105103 0 2.9104103 1.29991 2.9104103 2.91042s-1.2999 2.91042-2.9104103 2.91042c-1.6105199 0-2.9104199-1.29991-2.9104199-2.91042 0-.59411.1817-1.17415.5209-1.66191.21146-.29154-.23531-.60178-.4346-.3018-.40084005.5764-.61547005 1.26164-.61547005 1.96371 0 1.8965 1.54309005 3.43958 3.43958995 3.43958 1.8964903 0 3.4395803-1.54308 3.4395803-3.43958s-1.54309-3.43958-3.4395803-3.43958zm0 1.05523c-.1323298 0-.26459.0881-.26459.26458v.30438c-.45408.11874-.7927099.53121-.7927099 1.02112 0 .58137.47489 1.05834 1.0562601 1.05834.2953898 0 .5291698.23377.5291698.52916 0 .2954-.23378.52969-.5291698.52969-.2953901 0-.5271-.23429-.5271-.52969.008-.36078-.5372601-.36078-.5291601 0 0 .48992.3386299.90238.7927099 1.02113v.30127c0 .35287.5291701.35287.5291701 0v-.30179c.4535498-.11942.7932302-.53139.7932302-1.02061 0-.58136-.4774801-1.05833-1.0588501-1.05833-.2953901 0-.5271-.23377-.5271-.52917 0-.29539.2317099-.52968.5271-.52968.2953898 0 .5291698.23429.5291698.52968 0 .35313.5296803.35313.5296803 0 0-.48921-.3396804-.90119-.7932302-1.02061v-.30489c0-.17643-.1322601-.26458-.2645801-.26458zm8.9953101.53123h1.51361c-.63859.80858-5.8612198 7.14479-12.89069 7.14479-.3607-.008-.3607.53717 0 .52916 7.0352802 0 12.22809-6.00212 13.230719-7.24762v1.42731c.008.34494.52142.34494.529161 0v-2.11719c-.00053-.14612-.119501-.2641-.26561-.26355h-2.12985c-.337241.0404-.314291.51806.0127.5271zm-12.17031005 14.28905h15.34582905c.36066.008.36066-.53714 0-.52916h-.792719v-6.6151c.002-.14925-.120521-.27047-.269751-.26769-.14541.003-.26107.12226-.25941.26769v6.6151h-1.588019v-8.46667h1.588019v.79272c0 .35286.529161.35286.529161 0v-1.05834c-.00053-.14617-.119441-.26411-.26561-.26355h-2.11719c-.14541.00053-.263551.11814-.26406.26355v8.73229h-1.05834v-6.6151c-.00053-.14532-.118231-.26297-.263551-.26355h-2.1308788c-.14903.0136-.25205.12752-.25192.26355v6.6151h-1.05885v-4.49792c.000529-.14612-.11743-.26503-.26355-.26562h-2.11718c-.14612.00053-.26411.1195-.26355.26562v4.49792h-1.0588502v-2.38073c.0005292-.14693-.1186899-.26618-.2656199-.26562h-2.1151201c-.14692-.00053-.26617.11869-.26561.26562v2.38073h-.80667005c-.357406.0258-.331376.53837.0134.52916zm8.73073025-6.87865h1.5880198v6.34949h-1.5880198zm-3.70313 2.11512h1.58801v4.23437h-1.58801zm-3.7052002 2.11718h1.5880099v2.11719h-1.5880099z" font-variant-ligatures="normal" font-variant-position="normal" font-variant-caps="normal" font-variant-numeric="normal" font-variant-alternates="normal" font-feature-settings="normal" text-indent="0" text-align="start" text-decoration-line="none" text-decoration-style="solid" text-decoration-color="rgb(0,0,0)" text-transform="none" text-orientation="mixed" white-space="normal" shape-padding="0" isolation="auto" mix-blend-mode="normal" solid-color="rgb(0,0,0)" solid-opacity="1" vector-effect="none"/></g></svg>