<svg xmlns="http://www.w3.org/2000/svg" width="33.925" height="35.134" viewBox="0 0 33.925 35.134"><path d="M18.962,24.02a4.846,4.846,0,1,0-4.846-4.846A4.851,4.851,0,0,0,18.962,24.02Zm0-7.27a2.423,2.423,0,1,1-2.423,2.423A2.426,2.426,0,0,1,18.962,16.75Zm0,8.481a7.277,7.277,0,0,0-7.27,7.27v2.423A1.211,1.211,0,0,0,12.9,36.136H25.02a1.211,1.211,0,0,0,1.212-1.212V32.5A7.277,7.277,0,0,0,18.962,25.232Zm4.846,8.481H14.116V32.5a4.846,4.846,0,1,1,9.693,0ZM14.471,6.7a1.21,1.21,0,0,1,0-1.713L18.1,1.356a1.216,1.216,0,0,1,1.716,0l3.634,3.634A1.211,1.211,0,1,1,21.741,6.7L20.174,5.136v5.556a1.212,1.212,0,1,1-2.423,0V5.136L16.184,6.7a1.21,1.21,0,0,1-1.713,0Zm-4.345,6.768a1.211,1.211,0,1,1-1.713,1.713l-3.99-3.99v1.922a1.212,1.212,0,1,1-2.423,0V8.269A1.217,1.217,0,0,1,3.212,7.058H8.058a1.212,1.212,0,0,1,0,2.423H6.136Zm25.8-5.2v4.846a1.212,1.212,0,1,1-2.423,0V11.194l-3.99,3.99A1.211,1.211,0,0,1,27.8,13.471l3.99-3.99H29.867a1.212,1.212,0,0,1,0-2.423h4.846A1.217,1.217,0,0,1,35.925,8.269Z" transform="translate(-2 -1.002)" fill="#3cb3e7"/></svg>