<svg id="Layer_1" enable-background="new 0 0 50 50" height="512" viewBox="0 0 50 50" width="512" xmlns="http://www.w3.org/2000/svg"><g><path d="m40 7-1.4-5.5c-.1-.5-.7-.9-1.2-.7-.5.1-.9.7-.7 1.2l.8 3.1c-7.6-4.7-17.4-4.8-25.1.1-.5.3-.6.9-.3 1.4s.9.6 1.4.3c7-4.5 16-4.5 23 0h.1l-3.2.8c-.6.3-.9.8-.8 1.3s.7.9 1.2.7l5.5-1.4c1.041-.206.7-1.3.7-1.3z"/><path d="m8 11.3-5.6-.6c-.6-.1-1 .3-1.1.9-.1.5.3 1 .9 1.1l2.7.3c-2.2 3.7-3.4 7.9-3.4 12.2 0 4.5 1.3 8.8 3.6 12.6.3.5.9.6 1.4.3s.6-.9.3-1.4c-2.2-3.4-3.3-7.4-3.3-11.5s1.1-8.1 3.3-11.5v-.1l-.4 4c-.1.5.3 1 .8 1.1h.1c.5 0 .9-.4 1-.9l.6-5.4c.083-1.091-.9-1.1-.9-1.1z"/><path d="m42.7 31.7c-.5 0-1 .3-1.1.9l-.6 5.7c-.1.5.3 1 .9 1.1l5.6.6c.6 0 1-.4 1.1-.9s-.3-1-.9-1.1l-2.9-.3c2.3-3.7 3.6-8 3.6-12.4 0-4.5-1.3-8.8-3.6-12.6-.3-.5-.9-.6-1.4-.3s-.6.9-.3 1.4c2.2 3.4 3.3 7.4 3.3 11.5 0 4-1.1 7.9-3.2 11.3l.4-3.7c.1-.7-.3-1.2-.9-1.2z"/><path d="m10.7 42.5.4 5.7c0 .5.5.9 1 .9h.1c.6 0 1-.5.9-1.1l-.2-2.7c7.6 4.6 17.2 4.5 24.7-.3.5-.3.6-.9.3-1.4s-.9-.6-1.4-.3c-7 4.5-16 4.5-23 0h-.1l4-.3c.6 0 1-.5.9-1.1s-.5-1-1.1-.9l-5.7.4s-.856.124-.8 1.1z"/></g></svg>