<?xml version="1.0"?>
<svg xmlns="http://www.w3.org/2000/svg" viewBox="0 0 64 64" width="512" height="512"><g id="outline"><path d="M36,18V12h5v7.51H39.7l2.3,4,2.3-4H43V11a1,1,0,0,0-1-1H36V4a1,1,0,0,0-1-1H4A1,1,0,0,0,3,4V18a1,1,0,0,0,1,1H35A1,1,0,0,0,36,18Zm-2-1H5V5H34Z"/><path d="M51,39V33h5v7.51H54.7l2.3,4,2.3-4H58V32a1,1,0,0,0-1-1H51V25a1,1,0,0,0-1-1H19a1,1,0,0,0-1,1V39a1,1,0,0,0,1,1H50A1,1,0,0,0,51,39Zm-2-1H20V26H49Z"/><path d="M60,45H29a1,1,0,0,0-1,1V60a1,1,0,0,0,1,1H60a1,1,0,0,0,1-1V46A1,1,0,0,0,60,45ZM30,59V47H59V59Z"/></g></svg>
