<svg id="Layer_1" height="512" viewBox="0 0 66 66" width="512" xmlns="http://www.w3.org/2000/svg"><g><g><path d="m49.3 14c3.5.5 6.5-2 7-5.3.5-3.4-1.9-6.5-5.3-7s-6.5 2-7 5.3c-.5 3.4 1.9 6.5 5.3 7zm-3.3-6.7c.3-2.3 2.4-3.9 4.8-3.6 2.2.3 3.9 2.5 3.5 4.7-.3 2.3-2.4 3.9-4.8 3.6-2.2-.3-3.8-2.4-3.5-4.7z"/></g><g><path d="m6.9 44.2v17.2c0 2 1.6 3.6 3.6 3.6s3.6-1.6 3.6-3.6v-16.4c1.6-.9 2.8-2.4 3.1-4.3l1.6-8.8.8 1.2c.7 1 1.8 1.6 3 1.6h21c1.2 0 2.4-.6 3-1.6l.8-1.2 1.6 8.8c.3 1.9 1.5 3.5 3.1 4.4v16.4c0 2 1.6 3.6 3.6 3.6s3.6-1.6 3.6-3.6v-17.3c1.7-1.5 2.4-3.6 2-5.7l-3.1-16.7c-.8-4.7-6.4-6.8-10.1-3.6-.7.4-.8.7-2.2 2.9-.8 1.3-2.1 3.3-4.2 6.5-.2 0-11.5 0-17.1 0l-5.6-8.5c-2.8-4.2-10.1-3-11.1 2.6l-3 16.8c-.4 2.2.4 4.3 2 5.7zm5.1 17.2c0 .9-.7 1.6-1.6 1.6s-1.6-.7-1.6-1.6v-16c1.1.4 2.1.5 3.1.3v15.7zm45.1 0c0 .9-.7 1.6-1.6 1.6s-1.6-.7-1.6-1.6v-15.7c1 .2 2 .1 3.1-.3v16zm-15-31.9c.3 0 .6-.2.8-.4 2.3-3.5 3.7-5.6 4.5-7 1.2-1.8 2.1-3.4 4.5-3.4 1.8 0 3.7 1.2 4.2 3.5l3.1 16.7c1 5.5-7.3 7-8.3 1.5l-2.1-11.3c-.2-.9-1.3-1.1-1.8-.4l-2.2 3.3c-.3.5-.8.7-1.3.7h-10.1c-2.1 0-2.1-3.2 0-3.2zm-35.3 9.4 3.1-16.8c.7-3.8 5.7-4.5 7.5-1.9l5.7 8.8c.2.3.5.5.8.5h6.2c-.5 1-.5 2.2 0 3.2-1.5 0-3.9 0-7.7 0-.5 0-1-.3-1.3-.7l-2.1-3.3c-.5-.8-1.7-.5-1.8.4l-2.1 11.3c-.9 5.4-9.2 4-8.3-1.5z"/></g><g><path d="m27.3 6.9c-.6 0-1 .4-1 1s.4 1 1 1h3.3c.6 0 1-.4 1-1s-.4-1-1-1z"/></g><g><path d="m30 12.8-3-1.3c-.5-.2-1.1 0-1.3.5s0 1.1.5 1.3l3 1.3c.5.2 1.1 0 1.3-.5s0-1.1-.5-1.3z"/></g><g><path d="m19 13.2c2.5-1.5 3.6-4.1 2.9-6.8-1.1-3.9-5.2-6.2-9.2-3.9-3 1.8-4 5.6-2.2 8.5 1.7 2.9 5.5 4 8.5 2.2zm-5.3-9c2.8-1.7 5.5.1 6.2 2.7.2.9.5 3.1-2 4.6-2 1.2-4.6.5-5.8-1.5-1.1-2-.4-4.6 1.6-5.8z"/></g><g><path d="m26.9 4.2 3-1.3c.5-.2.8-.8.5-1.3-.2-.5-.8-.8-1.3-.5l-3 1.3c-.5.2-.8.8-.5 1.3.2.4.8.7 1.3.5z"/></g><g><path d="m44 65c.6 0 1-.4 1-1v-12.2h1.8c.6 0 1-.4 1-1v-4.8c0-.6-.4-1-1-1h-27.5c-.6 0-1 .4-1 1v4.8c0 .6.4 1 1 1h1.7v12.2c0 .6.4 1 1 1s1-.4 1-1v-12.2h20v12.2c0 .6.4 1 1 1zm-23.7-18.1h25.4v2.8h-25.4z"/></g></g></svg>