<svg xmlns="http://www.w3.org/2000/svg" width="40.357" height="46.393" viewBox="0 0 40.357 46.393"><g transform="translate(0 0.001)"><path d="M39,5.486c-5.1,0-14.374-1.038-17.28-4.864a1.315,1.315,0,0,0-2.164-.1C16.133,4.342,6.836,5.486,1.359,5.486A1.361,1.361,0,0,0,0,6.85V28.679C0,38.51,11.317,44.516,19.891,46.384,21,46.624,40.357,41.72,40.357,28.679V6.85A1.362,1.362,0,0,0,39,5.486ZM37.639,28.679c0,10.246-15.164,14.4-17.46,14.97-2.3-.57-17.46-4.724-17.46-14.97V8.2c10.5-.242,15.73-3.266,17.811-4.9C24.722,7,32.055,8.072,37.639,8.2Zm0,0" transform="translate(0 0)" fill="#fff"/><path d="M120.414,127.554v4.138H119.05a1.362,1.362,0,0,0-1.359,1.364v10.914a1.362,1.362,0,0,0,1.359,1.364h16.31a1.362,1.362,0,0,0,1.359-1.364V133.056a1.362,1.362,0,0,0-1.359-1.364H123.133v-4.138a4.073,4.073,0,0,1,8.146,0,1.359,1.359,0,1,0,2.718,0,6.791,6.791,0,0,0-13.583,0ZM134,142.607H120.41v-8.186H134Zm0,0" transform="translate(-107.027 -109.835)" fill="#fff"/><path d="M210.409,302.821a1.359,1.359,0,1,0-1.359,1.364A1.361,1.361,0,0,0,210.409,302.821Zm0,0" transform="translate(-188.872 -274.143)" fill="#fff"/></g></svg>