<svg id="Capa_1" enable-background="new 0 0 512 512" height="512" viewBox="0 0 512 512" width="512" xmlns="http://www.w3.org/2000/svg"><g><g><path d="m464.841 242.762c-7.8 3.809-16.207 5.739-24.989 5.739-17.607 0-33.964-7.943-44.884-21.799-5.286-6.692-13.204-10.531-21.726-10.531h-10.16c-15.279 0-27.71 12.431-27.71 27.71v7.284c-1.671-.226-3.415.101-4.933 1.035l-32.739 20.148c-2.312-1.065-4.66-2.041-7.029-2.921l-8.901-37.387c-.805-3.378-3.823-5.763-7.296-5.763h-36.944c-3.473 0-6.491 2.385-7.296 5.763l-8.901 37.387c-2.369.88-4.718 1.855-7.029 2.921l-32.741-20.148c-2.957-1.82-6.778-1.37-9.233 1.084l-26.123 26.122c-2.456 2.456-2.905 6.276-1.085 9.234l20.149 32.739c-1.065 2.312-2.041 4.66-2.921 7.029l-37.387 8.901c-3.378.805-5.763 3.823-5.763 7.296v10.975h-17.1c-4.143 0-7.5 3.357-7.5 7.5s3.357 7.5 7.5 7.5h17.1v10.969c0 3.473 2.385 6.491 5.763 7.296l37.387 8.901c.88 2.369 1.855 4.718 2.921 7.029l-20.149 32.739c-1.82 2.958-1.371 6.778 1.084 9.234l26.123 26.123c2.456 2.454 6.276 2.903 9.234 1.084l32.739-20.149c2.312 1.065 4.66 2.041 7.029 2.921l8.901 37.387c.805 3.378 3.823 5.763 7.296 5.763h36.944c3.473 0 6.491-2.385 7.296-5.763l8.901-37.387c2.369-.88 4.718-1.855 7.029-2.921l32.739 20.149c2.958 1.822 6.779 1.371 9.234-1.084l26.123-26.123c2.455-2.456 2.904-6.276 1.084-9.234l-20.148-32.74c1.064-2.312 2.04-4.659 2.92-7.028l37.387-8.901c3.378-.805 5.763-3.823 5.763-7.296v-36.944c0-3.473-2.385-6.491-5.763-7.296l-37.387-8.901c-.88-2.369-1.855-4.717-2.92-7.028l20.148-32.74c1.82-2.958 1.371-6.778-1.085-9.234l-15.424-15.423v-20.102c0-7.008 5.701-12.71 12.71-12.71h10.16c3.902 0 7.531 1.76 9.949 4.822 13.777 17.482 34.43 27.508 56.66 27.508 11.082 0 21.704-2.442 31.571-7.261 3.722-1.817 5.266-6.308 3.448-10.03-1.812-3.722-6.3-5.268-10.026-3.448zm-133.042 74.265c-1.374 2.233-1.482 5.023-.284 7.356 2.105 4.099 3.874 8.36 5.262 12.669.803 2.495 2.852 4.39 5.401 4.997l35.624 8.482v25.096l-35.624 8.481c-2.55.607-4.599 2.502-5.401 4.997-1.388 4.309-3.157 8.57-5.262 12.669-1.198 2.333-1.09 5.123.284 7.356l19.201 31.202-17.745 17.745-31.202-19.202c-2.234-1.374-5.024-1.481-7.357-.284-4.097 2.105-8.358 3.875-12.668 5.263-2.495.803-4.39 2.852-4.997 5.401l-8.481 35.624h-25.096l-8.481-35.624c-.607-2.55-2.502-4.599-4.997-5.401-4.31-1.388-8.571-3.158-12.668-5.263-2.335-1.197-5.123-1.09-7.357.284l-31.202 19.202-17.745-17.745 19.202-31.202c1.375-2.234 1.482-5.023.284-7.357-2.105-4.097-3.875-8.358-5.263-12.668-.803-2.495-2.852-4.39-5.401-4.997l-35.624-8.481v-25.096l35.624-8.482c2.55-.607 4.599-2.502 5.401-4.997 1.388-4.31 3.158-8.571 5.263-12.668 1.198-2.334 1.091-5.123-.284-7.357l-19.202-31.202 17.745-17.744 31.202 19.201c2.234 1.373 5.022 1.479 7.357.284 4.097-2.105 8.358-3.875 12.668-5.263 2.495-.803 4.39-2.852 4.997-5.401l8.481-35.624h25.096l8.481 35.624c.607 2.55 2.502 4.599 4.997 5.401 4.31 1.388 8.571 3.158 12.668 5.263 2.333 1.195 5.123 1.089 7.357-.284l31.202-19.201 17.745 17.744z"/><path d="m490.989 140.599c-13.277-13.38-30.868-20.972-49.53-21.377-22.795-.531-43.974 9.451-58.126 27.309-2.522 3.171-6.204 4.989-10.101 4.989h-10.15c-7.008 0-12.71-5.697-12.71-12.699v-78.791c0-26.418-21.488-47.91-47.901-47.91h-74.75c-15.279 0-27.71 12.431-27.71 27.71v10.15c0 8.499 3.888 16.46 10.67 21.847 14.148 11.218 22.035 28.003 21.643 46.05-.659 30.364-25.911 55.425-56.29 55.865-15.427.192-29.983-5.616-40.962-16.439-10.982-10.826-17.03-25.281-17.03-40.703 0-17.611 7.939-33.969 21.787-44.883 6.694-5.286 10.533-13.205 10.533-21.727v-10.16c0-15.279-12.426-27.71-27.7-27.71h-74.752c-26.418 0-47.91 21.492-47.91 47.91v18.84c0 4.143 3.357 7.5 7.5 7.5s7.5-3.357 7.5-7.5v-18.84c0-18.147 14.764-32.91 32.91-32.91h74.75c7.003 0 12.7 5.702 12.7 12.71v10.16c0 3.902-1.76 7.53-4.823 9.949-17.475 13.774-27.497 34.425-27.497 56.66 0 19.47 7.636 37.719 21.5 51.385 13.862 13.665 32.243 21.021 51.708 20.755 18.664-.27 36.312-7.729 49.69-21.003 13.383-13.277 20.976-30.869 21.381-49.533.496-22.781-9.461-43.969-27.315-58.126-3.174-2.521-4.994-6.2-4.994-10.097v-10.15c0-7.008 5.702-12.71 12.71-12.71h74.75c18.142 0 32.901 14.764 32.901 32.91v78.79c0 15.273 12.431 27.699 27.71 27.699h10.15c8.493 0 16.453-3.882 21.848-10.661 11.217-14.155 28.038-22.033 46.049-21.641 30.364.659 55.425 25.911 55.865 56.295.171 11.376-3.001 22.415-9.172 31.924-2.255 3.475-1.267 8.119 2.208 10.374 1.262.818 2.677 1.21 4.076 1.21 2.455 0 4.861-1.205 6.298-3.418 7.797-12.014 11.804-25.954 11.588-40.311-.269-18.666-7.728-36.315-21.002-49.692z"/><path d="m67.1 355.582h-19.19c-18.147 0-32.91-14.764-32.91-32.91v-208.802c0-4.143-3.357-7.5-7.5-7.5s-7.5 3.357-7.5 7.5v208.801c0 26.418 21.492 47.91 47.91 47.91h19.19c4.143 0 7.5-3.357 7.5-7.5 0-4.142-3.357-7.499-7.5-7.499z"/><path d="m256.001 318.635c-24.506 0-44.444 19.938-44.444 44.444s19.938 44.444 44.444 44.444 44.444-19.938 44.444-44.444-19.938-44.444-44.444-44.444zm0 15c13.644 0 25.147 9.33 28.472 21.943h-56.945c3.326-12.613 14.829-21.943 28.473-21.943zm0 58.887c-13.644 0-25.147-9.33-28.472-21.943h56.945c-3.326 12.614-14.829 21.943-28.473 21.943z"/></g></g></svg>