<?xml version="1.0" encoding="UTF-8"?>
<svg xmlns="http://www.w3.org/2000/svg" viewBox="0 0 512 512" width="512" height="512"><g id="_04-data_driven" data-name="04-data driven"><g id="linear_color" data-name="linear color"><path d="M496,484H476V176a12,12,0,0,0-12-12H416a12,12,0,0,0-12,12V484H356V272a12,12,0,0,0-12-12H296a12,12,0,0,0-12,12V484H236V336a12,12,0,0,0-12-12H176a12,12,0,0,0-12,12V484H116V368a12,12,0,0,0-12-12H56a12,12,0,0,0-12,12V484H16a12,12,0,0,0,0,24H496a12,12,0,0,0,0-24ZM68,484V380H92V484Zm120,0V348h24V484Zm120,0V284h24V484Zm120,0V188h24V484Z"/><path d="M44,320a12,12,0,0,0,12,12c62.785,0,157.463-40.738,247.086-106.315C377.371,171.329,433.564,110.849,460.863,57.2l7.423,33.4A12,12,0,1,0,491.714,85.4l-16-72a12.1,12.1,0,0,0-15.928-8.633l-64,24a12,12,0,0,0,8.428,22.472l40.1-15.037c-9.961,22.756-26.458,47.73-48.65,73.465-28.347,32.873-65.26,66.294-106.748,96.651C203.2,269.037,113.947,308,56,308A12,12,0,0,0,44,320Z"/><path d="M121.356,170.827a48.886,48.886,0,0,0,34.6-14.245,48.678,48.678,0,0,0,0-69.042,49.136,49.136,0,0,0-69.2,0,48.678,48.678,0,0,0,0,69.042A48.885,48.885,0,0,0,121.356,170.827Zm-17.664-66.279a25.086,25.086,0,0,1,35.329,0,24.679,24.679,0,0,1,0,35.026,25.089,25.089,0,0,1-35.329,0,24.679,24.679,0,0,1,0-35.026Z"/><path d="M17.4,154.269l12.772,1.573,2.73,6.564-7.878,10.06a12,12,0,0,0,.98,15.9l28.832,28.706a12,12,0,0,0,15.826.975l10.156-7.886,6.672,2.752,1.575,12.67a12,12,0,0,0,11.908,10.52h40.774a12,12,0,0,0,11.908-10.519l1.576-12.671,6.671-2.752,10.157,7.886a12,12,0,0,0,15.826-.975l28.832-28.706a12,12,0,0,0,.98-15.9l-7.879-10.06,2.731-6.564,12.771-1.573a12,12,0,0,0,10.534-11.91v-40.6a12,12,0,0,0-10.534-11.91l-12.771-1.574-2.731-6.563,7.879-10.06a12,12,0,0,0-.98-15.9L187.881,27.047a12,12,0,0,0-15.826-.975L161.9,33.958l-6.671-2.751-1.576-12.672a12,12,0,0,0-11.908-10.52H100.969A12,12,0,0,0,89.061,18.536L87.486,31.207l-6.672,2.751L70.658,26.072a12,12,0,0,0-15.826.975L26,55.753a12,12,0,0,0-.98,15.9L32.9,81.716l-2.73,6.563L17.4,89.853a12,12,0,0,0-10.533,11.91v40.6A12,12,0,0,0,17.4,154.269Zm13.467-41.894,9.17-1.129a12,12,0,0,0,9.612-7.3l8.109-19.492a12,12,0,0,0-1.632-12.009l-5.64-7.2,13.8-13.738L71.6,57.184A12,12,0,0,0,83.529,58.8l19.577-8.073a12,12,0,0,0,7.333-9.615l1.131-9.1h19.573l1.13,9.1a12,12,0,0,0,7.333,9.614L159.184,58.8a12,12,0,0,0,11.934-1.615l7.314-5.678,13.8,13.738-5.639,7.2a12,12,0,0,0-1.632,12.009l8.109,19.492a12,12,0,0,0,9.612,7.3l9.17,1.129v19.372l-9.17,1.129a12,12,0,0,0-9.612,7.3l-8.109,19.491a12,12,0,0,0,1.632,12.009l5.639,7.2-13.8,13.739-7.314-5.678a12.006,12.006,0,0,0-11.934-1.615L139.606,193.4a12,12,0,0,0-7.333,9.614l-1.13,9.1H111.57l-1.131-9.1a12,12,0,0,0-7.333-9.614l-19.577-8.073A12,12,0,0,0,71.6,186.938l-7.314,5.678-13.8-13.739,5.64-7.2a12,12,0,0,0,1.632-12.009l-8.109-19.491a12,12,0,0,0-9.612-7.3l-9.17-1.129Z"/></g></g></svg>
