<svg clip-rule="evenodd" fill-rule="evenodd" height="512" image-rendering="optimizeQuality" shape-rendering="geometricPrecision" text-rendering="geometricPrecision" viewBox="0 0 1707 1707" width="512" xmlns="http://www.w3.org/2000/svg"><g id="Layer_x0020_1"><g id="_533523856"><g><g><path d="m350 1613c-13 0-23-10-23-23v-1163c0-13 10-24 23-24s23 11 23 24v1163c0 13-10 23-23 23z"/></g><g><path d="m680 1613c-13 0-23-10-23-23v-1030c0-13 10-23 23-23s23 10 23 23v1030c0 13-10 23-23 23z"/></g><g><path d="m1013 1613c-13 0-23-10-23-23v-737c0-13 10-23 23-23s24 10 24 23v737c0 13-11 23-24 23z"/></g><g><path d="m1343 1613c-13 0-23-10-23-23v-583c0-13 10-24 23-24s24 11 24 24v583c0 13-11 23-24 23z"/></g><g><path d="m1380 837c-5 0-10-2-14-5l-867-657c-10-7-12-22-4-32 7-11 22-13 32-5l867 657c10 7 12 22 5 32-5 6-12 10-19 10z"/></g><g><path d="m1250 853c-12 0-22-8-23-20-2-13 7-24 20-26l106-14-16-106c-2-13 7-25 20-27 12-2 24 7 26 20l20 130c1 6 0 13-4 18s-9 8-16 9l-130 16c-1 0-2 0-3 0z"/></g><g><path d="m117 1613c-13 0-24-10-24-23v-1567c0-13 11-23 24-23s23 10 23 23v1567c0 13-10 23-23 23z"/></g><g><path d="m1683 1613h-1566c-13 0-24-10-24-23s11-23 24-23h1566c13 0 24 10 24 23s-11 23-24 23z"/></g><g><path d="m23 163c-5 0-10-1-14-5-10-8-12-22-4-32l93-117c8-10 23-12 33-4s12 23 4 33l-94 117c-4 5-11 8-18 8z"/></g><g><path d="m210 163c-7 0-14-3-18-8l-94-117c-8-10-6-25 4-33s25-6 33 4l93 117c8 10 6 24-4 32-4 4-9 5-14 5z"/></g><g><path d="m1683 1613c-5 0-10-1-14-5l-117-93c-10-8-12-23-4-33s23-11 33-3l117 93c10 8 11 23 3 33-4 5-11 8-18 8z"/></g><g><path d="m1567 1707c-7 0-14-3-19-9-8-10-6-25 4-33l117-93c10-8 24-6 32 4s7 24-3 32l-117 94c-4 3-9 5-14 5z"/></g></g></g></g></svg>