<svg id="Capa_1" enable-background="new 0 0 512 512" height="512" viewBox="0 0 512 512" width="512" xmlns="http://www.w3.org/2000/svg"><g><g><path d="m266.272 241.278c8.684-8.676 14.063-20.659 14.063-33.876 0-26.417-21.492-47.909-47.909-47.909s-47.909 21.491-47.909 47.909c0 13.216 5.38 25.199 14.063 33.876-21.832 4.459-38.308 23.812-38.308 46.942v28.286c0 4.143 3.358 7.5 7.5 7.5h129.308c4.142 0 7.5-3.358 7.5-7.5v-28.286c0-23.13-16.476-42.484-38.308-46.942zm-33.846-66.784c18.146 0 32.908 14.763 32.908 32.908s-14.763 32.908-32.908 32.908c-18.146 0-32.909-14.763-32.909-32.908s14.763-32.908 32.909-32.908zm57.154 134.511h-17.326v-10.683c0-4.143-3.358-7.5-7.5-7.5s-7.5 3.358-7.5 7.5v10.683h-49.653v-10.683c0-4.143-3.358-7.5-7.5-7.5s-7.5 3.358-7.5 7.5v10.683h-17.326v-20.785c0-18.146 14.763-32.909 32.908-32.909h48.49c18.146 0 32.909 14.763 32.909 32.909v20.785z"/><path d="m464.053 403.938c.063 4.103 3.409 7.384 7.497 7.384.04 0 .08 0 .119-.001 4.142-.064 7.448-3.474 7.383-7.616-.398-25.693-10.706-49.784-29.023-67.836-6.734-6.636-14.271-12.173-22.385-16.528 2.777-14.348 4.186-28.998 4.186-43.634l.03-125.178c.001-4.143-3.356-7.501-7.498-7.502-.001 0-.001 0-.002 0-4.141 0-7.499 3.357-7.5 7.498l-.03 125.18c0 12.554-1.125 25.112-3.312 37.456-5.459-1.884-11.097-3.28-16.861-4.167 1.876-10.953 2.841-22.113 2.841-33.287l.04-175.31c.001-3.493-2.41-6.525-5.814-7.31-27.125-6.259-48.694-27.825-54.951-54.942-.785-3.403-3.816-5.814-7.309-5.814h-198.081c-3.493 0-6.523 2.411-7.309 5.814-6.257 27.117-27.826 48.682-54.951 54.942-3.403.785-5.813 3.815-5.814 7.306l-.03 137.998c-.001 4.143 3.357 7.501 7.499 7.502h.001c4.141 0 7.499-3.358 7.5-7.498l.028-132.247c28.004-8.545 50.281-30.82 58.826-58.816h186.577c8.545 27.994 30.823 50.268 58.824 58.815l-.039 169.558c0 10.8-.972 21.582-2.866 32.142-12.119.004-23.725 2.239-34.437 6.305 8.921-17.503 13.958-37.304 13.958-58.26 0-70.98-57.746-128.727-128.726-128.727s-128.727 57.746-128.727 128.727c0 70.979 57.747 128.726 128.727 128.726 20.916 0 40.681-5.018 58.16-13.908-4.088 10.741-6.334 22.383-6.334 34.542 0 10.723 1.746 21.044 4.961 30.701-1.625.883-3.252 1.739-4.874 2.556l-50.81 25.676c-.726.372-1.565.371-2.318-.015l-50.784-25.662c-30.141-15.224-55.425-38.472-73.117-67.227-17.689-28.769-27.04-61.82-27.04-95.577v-2.311c0-4.143-3.358-7.5-7.5-7.5s-7.5 3.358-7.5 7.5v2.311c0 36.533 10.119 72.3 29.264 103.435 19.148 31.123 46.511 56.282 79.13 72.758l50.765 25.652c2.497 1.271 5.235 1.905 7.968 1.904 2.729 0 5.453-.632 7.927-1.895l50.776-25.659c1.321-.666 2.646-1.36 3.97-2.068 2.675 5.176 5.804 10.08 9.328 14.666-1.82.986-3.647 1.95-5.477 2.871l-51.688 26.12c-9.294 4.688-20.397 4.688-29.692.002l-51.693-26.122c-35.478-17.926-65.238-45.297-86.065-79.157-20.826-33.857-31.834-72.763-31.834-112.507l.04-195.473c0-1.434 1.166-2.601 2.6-2.601h4.04c30.875 0 55.993-25.119 55.993-55.993v-4.04c0-1.434 1.167-2.6 2.6-2.6h238.413c1.434 0 2.6 1.166 2.6 2.6v4.04c0 30.875 25.118 55.993 55.993 55.993h4.04c1.434 0 2.6 1.167 2.6 2.599l-.01 35.291c-.001 4.142 3.356 7.501 7.498 7.502h.002c4.141 0 7.499-3.357 7.5-7.498l.01-35.293c0-9.706-7.896-17.602-17.601-17.602h-4.04c-22.603 0-40.992-18.389-40.992-40.993v-4.04c.003-9.7-7.893-17.596-17.598-17.596h-238.413c-9.705 0-17.601 7.896-17.601 17.601v4.04c0 22.604-18.389 40.993-40.993 40.993h-4.04c-9.705 0-17.601 7.896-17.601 17.6l-.04 195.473c0 42.523 11.777 84.145 34.057 120.368 22.282 36.225 54.122 65.509 92.077 84.687l51.701 26.125c6.765 3.409 14.184 5.115 21.604 5.115 7.421 0 14.842-1.706 21.606-5.117l51.687-26.119c3.021-1.523 6.04-3.142 9.029-4.823 17.469 16.556 41.048 26.726 66.958 26.726 19.957 0 39.143-5.996 55.484-17.34 15.959-11.079 28.136-26.457 35.212-44.471 1.514-3.856-.383-8.209-4.239-9.723-3.856-1.519-8.209.383-9.724 4.239-5.986 15.24-16.292 28.254-29.803 37.633-13.817 9.592-30.045 14.662-46.93 14.662-45.443 0-82.414-36.971-82.414-82.414 0-45.438 36.971-82.405 82.414-82.405 21.782 0 42.321 8.419 57.833 23.706 15.496 15.271 24.216 35.65 24.554 57.382zm-345.353-148.045c0-62.709 51.017-113.726 113.726-113.726s113.726 51.017 113.726 113.726-51.017 113.725-113.726 113.725-113.726-51.016-113.726-113.725z"/><path d="m373.837 399.951c-2.93-2.928-7.679-2.929-10.608.001-2.929 2.929-2.928 7.678 0 10.607l8.755 8.754c1.465 1.464 3.384 2.196 5.304 2.196s3.839-.732 5.303-2.196l17.51-17.51c2.929-2.93 2.929-7.678 0-10.608-2.928-2.928-7.678-2.928-10.607 0l-12.207 12.207z"/><path d="m325.675 405.255c0 30.873 25.118 55.99 55.991 55.99s55.991-25.118 55.991-55.99c0-30.874-25.118-55.991-55.991-55.991s-55.991 25.117-55.991 55.991zm96.981 0c0 22.602-18.388 40.99-40.99 40.99s-40.99-18.388-40.99-40.99 18.388-40.991 40.99-40.991 40.99 18.389 40.99 40.991z"/></g></g></svg>