<svg clip-rule="evenodd" fill-rule="evenodd" height="512" image-rendering="optimizeQuality" shape-rendering="geometricPrecision" text-rendering="geometricPrecision" viewBox="0 0 1706.66 1706.66" width="512" xmlns="http://www.w3.org/2000/svg" xmlns:xodm="http://www.corel.com/coreldraw/odm/2003"><g id="Layer_x0020_1"><path d="m910.67 770.78h-852.46c-32.08 0-58.17-26.08-58.17-58.17l.01-642.83c0-32.08 26.1-58.17 58.16-58.17h269.28c26.13 0 36.3 22.96 40.13 31.61l40.24 91h502.83c32.07 0 58.17 26.08 58.17 58.17v520.24c-.03 32.07-26.11 58.15-58.18 58.15zm-852.46-705.83c-2.58 0-4.84 2.26-4.84 4.83v642.83c0 2.58 2.26 4.83 4.84 4.83h852.46c2.61 0 4.83-2.22 4.83-4.83v-520.24c0-2.57-2.25-4.83-4.83-4.83h-520.2c-10.56 0-20.13-6.22-24.39-15.89l-47.18-106.72h-260.7v.02z"/><path d="m942.15 343.63h-915.46c-35.11 0-35.11-53.33 0-53.33h915.47c35.11 0 35.11 53.33-.01 53.33z"/><path d="m761.59 187.55c-7.08 0-14.17-2.8-19.4-8.37l-107.78-114.23h-306.94c-35.11 0-35.11-53.33 0-53.33h318.44c7.35 0 14.36 3.03 19.39 8.37l115.66 122.6c16.08 17.04 3.78 44.96-19.38 44.96z"/><path d="m691.76 624.88h-414.66c-14.74 0-26.67-11.93-26.67-26.67v-135.35c0-14.73 11.93-26.67 26.67-26.67h414.66c14.74 0 26.67 11.93 26.67 26.67v135.35c0 14.74-11.93 26.67-26.67 26.67zm-388-53.33h361.35v-82.02h-361.35z"/><path d="m1410.52 814.2c-14.73 0-26.67-11.93-26.67-26.67v-379.69h-269.43c-35.11 0-35.11-53.33 0-53.33h296.09c14.74 0 26.67 11.93 26.67 26.67v406.35c0 14.72-11.93 26.67-26.67 26.67z"/><path d="m1411.46 813.24c-7.08 0-13.86-2.8-18.84-7.82l-109.51-109.51c-24.82-24.82 12.89-62.52 37.7-37.7l90.65 90.65 90.66-90.67c24.83-24.81 62.53 12.89 37.7 37.7l-109.52 109.51c-4.97 5.04-11.78 7.83-18.84 7.83z"/><path d="m592.82 1355.59h-296.09c-14.74 0-26.67-11.93-26.67-26.67v-406.36c0-35.11 53.33-35.11 53.33 0v379.69h269.43c35.12 0 35.1 53.33 0 53.33z"/><path d="m405.28 1059.7c-6.82 0-13.65-2.61-18.84-7.82l-90.67-90.65-90.66 90.65c-24.82 24.83-62.53-12.9-37.7-37.7l109.52-109.51c10.4-10.41 27.31-10.41 37.7 0l109.5 109.51c16.83 16.82 4.69 45.53-18.86 45.53z"/><path d="m1648.45 1695.05h-852.46c-32.08 0-58.17-26.1-58.17-58.17v-642.82c0-32.07 26.08-58.17 58.17-58.17h269.28c26.17 0 36.32 22.98 40.13 31.63l40.22 90.96h502.83c32.08 0 58.16 26.1 58.16 58.17v520.24c0 32.08-26.08 58.16-58.16 58.16zm-852.46-705.82c-2.58 0-4.83 2.25-4.83 4.83v642.83c0 2.61 2.22 4.84 4.83 4.84h852.46c2.61 0 4.84-2.22 4.84-4.84v-520.24c0-2.61-2.22-4.83-4.84-4.83h-520.18c-10.56 0-20.11-6.22-24.39-15.89l-47.19-106.72h-260.7z"/><path d="m1679.96 1267.92h-915.47c-35.11 0-35.11-53.33 0-53.33h915.47c35.12 0 35.1 53.33 0 53.33z"/><path d="m1499.39 1111.81c-7.08 0-14.15-2.8-19.39-8.37l-107.78-114.23h-306.96c-35.11 0-35.11-53.33 0-53.33h318.46c7.33 0 14.36 3.03 19.39 8.37l115.67 122.59c16.1 17.06 3.75 44.97-19.39 44.97z"/><path d="m1429.55 1549.15h-414.66c-14.74 0-26.67-11.93-26.67-26.67v-135.34c0-14.73 11.93-26.67 26.67-26.67h414.66c14.74 0 26.67 11.93 26.67 26.67v135.34c0 14.72-11.93 26.67-26.67 26.67zm-388-53.33h361.34v-82.01h-361.34z"/></g></svg>