<svg xmlns="http://www.w3.org/2000/svg" xmlns:xlink="http://www.w3.org/1999/xlink" width="157.884" height="33.361" viewBox="0 0 157.884 33.361">
  <defs>
    <clipPath id="clip-path">
      <rect id="Rectangle_4027" data-name="Rectangle 4027" width="157.884" height="33.361" fill="none"/>
    </clipPath>
  </defs>
  <g id="Group_13995" data-name="Group 13995" transform="translate(0 0)">
    <g id="Group_13995-2" data-name="Group 13995" transform="translate(0 0)" clip-path="url(#clip-path)">
      <path id="Path_17319" data-name="Path 17319" d="M0,21.624c2.421.859,4.954.557,7.419.223,5.148-.714,9.921-3.108,15.25-2.7a11.287,11.287,0,0,1,7.358,3.038,16.329,16.329,0,0,0-7.346-.931c-5.09.4-9.885,2.774-15.111,2.679-2.612-.055-5.613-.405-7.57-2.309" transform="translate(0 9.246)" fill="#009ddd"/>
      <path id="Path_17320" data-name="Path 17320" d="M12.132,16.316a10.255,10.255,0,0,1-4.227.76C3.4,17.076,0,14.227,0,8.98A7.964,7.964,0,0,1,8.357.576a8.579,8.579,0,0,1,3.8.712l-.5,1.686a7.525,7.525,0,0,0-3.229-.665c-3.75,0-6.244,2.4-6.244,6.6,0,3.918,2.256,6.433,6.149,6.433a8.269,8.269,0,0,0,3.372-.665Z" transform="translate(0 0.279)" fill="#012c51"/>
      <path id="Path_17321" data-name="Path 17321" d="M11.126,3.791l2.517,6.79c.261.76.546,1.662.736,2.351h.047c.214-.689.451-1.567.736-2.4L17.44,3.791h2.208l-3.134,8.191C15.02,15.923,14,17.94,12.574,19.175a5.662,5.662,0,0,1-2.564,1.353l-.522-1.757a5.527,5.527,0,0,0,1.828-1.021,6.329,6.329,0,0,0,1.757-2.326,1.5,1.5,0,0,0,.166-.5,1.822,1.822,0,0,0-.142-.546L8.846,3.791Z" transform="translate(4.282 1.835)" fill="#012c51"/>
      <path id="Path_17322" data-name="Path 17322" d="M27.736,3.877c-.046.83-.095,1.756-.095,3.157V13.7c0,2.636-.522,4.25-1.638,5.248a6.09,6.09,0,0,1-4.179,1.377A7.424,7.424,0,0,1,18,19.38l.522-1.591a6.483,6.483,0,0,0,3.37.9c2.137,0,3.7-1.116,3.7-4.013V13.4h-.047A4.1,4.1,0,0,1,21.9,15.319c-2.846,0-4.89-2.421-4.89-5.6,0-3.894,2.541-6.1,5.176-6.1a3.817,3.817,0,0,1,3.584,1.993h.049l.093-1.732ZM25.577,8.411a2.975,2.975,0,0,0-.12-.95,3.008,3.008,0,0,0-2.919-2.208c-1.995,0-3.418,1.686-3.418,4.345,0,2.256,1.14,4.13,3.393,4.13a3.054,3.054,0,0,0,2.9-2.136,3.637,3.637,0,0,0,.168-1.116Z" transform="translate(8.232 1.75)" fill="#012c51"/>
      <path id="Path_17323" data-name="Path 17323" d="M26.763,6.987c0-1.187-.024-2.161-.095-3.111H28.52l.119,1.9h.047a4.226,4.226,0,0,1,3.8-2.161c1.591,0,4.06.95,4.06,4.892v6.861h-2.09V8.744c0-1.852-.689-3.4-2.659-3.4A2.968,2.968,0,0,0,29,7.485a3,3,0,0,0-.142.974v6.908h-2.09Z" transform="translate(12.909 1.75)" fill="#012c51"/>
      <path id="Path_17324" data-name="Path 17324" d="M37.35,10a3.68,3.68,0,0,0,3.94,3.988,7.556,7.556,0,0,0,3.182-.594l.356,1.5A9.309,9.309,0,0,1,41,15.6c-3.537,0-5.65-2.327-5.65-5.792s2.042-6.2,5.389-6.2c3.752,0,4.749,3.3,4.749,5.412a7.881,7.881,0,0,1-.071.974Zm6.125-1.5c.024-1.33-.546-3.4-2.9-3.4-2.112,0-3.038,1.947-3.2,3.4Z" transform="translate(17.115 1.75)" fill="#012c51"/>
      <path id="Path_17325" data-name="Path 17325" d="M47.192,1.568v3.3h2.992V6.458H47.192v6.2c0,1.425.4,2.231,1.567,2.231a4.648,4.648,0,0,0,1.211-.142l.095,1.567a5.115,5.115,0,0,1-1.852.285,2.9,2.9,0,0,1-2.256-.879,4.254,4.254,0,0,1-.807-2.99V6.458H43.369V4.869H45.15V2.114Z" transform="translate(20.994 0.759)" fill="#012c51"/>
      <rect id="Rectangle_4021" data-name="Rectangle 4021" width="1.116" height="16.001" transform="translate(79.75 1.116)" fill="#012c51"/>
      <path id="Path_17326" data-name="Path 17326" d="M57.672,6.671c0-1.045-.047-1.828-.095-2.731h1.045l.095,2.066h.047a4.276,4.276,0,0,1,3.916-2.327c1.092,0,3.965.546,3.965,4.82v6.837H65.53V8.594c0-2.066-.807-3.942-3.157-3.942a3.641,3.641,0,0,0-3.419,2.612,3.406,3.406,0,0,0-.166,1.021v7.051H57.672Z" transform="translate(27.872 1.781)" fill="#012c51"/>
      <path id="Path_17327" data-name="Path 17327" d="M67.1,17.117V6.623H65.464v-.9H67.1V5.105A5.62,5.62,0,0,1,68.361,1a3.572,3.572,0,0,1,2.517-1,3.711,3.711,0,0,1,1.708.38l-.356.9A2.943,2.943,0,0,0,70.783.95C68.67.95,68.218,2.9,68.218,5.08v.641h3.063v.9H68.218V17.117Z" transform="translate(31.69 0)" fill="#012c51"/>
      <path id="Path_17328" data-name="Path 17328" d="M80.835,9.52c0,4.273-2.921,6.077-5.46,6.077-2.944,0-5.224-2.3-5.224-5.864,0-3.918,2.564-6.054,5.39-6.054,3.157,0,5.294,2.351,5.294,5.84m-9.544.142c0,2.849,1.828,4.985,4.154,4.985,2.375,0,4.25-2.136,4.25-5.056,0-2.09-1.187-4.985-4.178-4.985-2.9,0-4.227,2.61-4.227,5.056" transform="translate(33.959 1.781)" fill="#012c51"/>
      <path id="Path_17329" data-name="Path 17329" d="M81.677,1.632v3.3H84.93v.9H81.677v7.407c0,1.447.451,2.373,1.662,2.373a4.106,4.106,0,0,0,1.306-.19l.142.879a4.5,4.5,0,0,1-1.591.261,2.364,2.364,0,0,1-1.947-.807,4.087,4.087,0,0,1-.712-2.705V5.835H78.614v-.9h1.923V1.988Z" transform="translate(38.055 0.79)" fill="#012c51"/>
      <path id="Path_17330" data-name="Path 17330" d="M85.265,9.52c0,3.655,1.995,5.08,4.344,5.08a6.623,6.623,0,0,0,3.158-.641l.285.9a7.622,7.622,0,0,1-3.586.712c-3.275,0-5.317-2.375-5.317-5.721,0-3.8,2.185-6.172,5.127-6.172,3.729,0,4.44,3.513,4.44,5.151a2.825,2.825,0,0,1-.047.689Zm7.266-.9c.024-1.591-.643-4.013-3.4-4.013-2.516,0-3.608,2.256-3.8,4.013Z" transform="translate(40.735 1.781)" fill="#012c51"/>
      <path id="Path_17331" data-name="Path 17331" d="M101.036,14.838a7.394,7.394,0,0,1-3.324.736c-3.3,0-5.484-2.375-5.484-5.816a5.737,5.737,0,0,1,5.887-6.079,5.9,5.9,0,0,1,2.992.712l-.4.926A5.53,5.53,0,0,0,98,4.653c-3.062,0-4.629,2.351-4.629,5.034,0,2.967,1.876,4.914,4.51,4.914a6.714,6.714,0,0,0,2.849-.641Z" transform="translate(44.646 1.781)" fill="#012c51"/>
      <path id="Path_17332" data-name="Path 17332" d="M100.307.176h1.116v7.5h.047a4.2,4.2,0,0,1,1.567-1.662,4.283,4.283,0,0,1,2.3-.64c1.069,0,3.942.545,3.942,4.771v6.885h-1.116V10.29c0-2.066-.807-3.942-3.133-3.942a3.733,3.733,0,0,0-3.443,2.588,3.157,3.157,0,0,0-.166,1.116v6.98h-1.116Z" transform="translate(48.557 0.085)" fill="#012c51"/>
      <path id="Path_17333" data-name="Path 17333" d="M22.75,18.585a11.67,11.67,0,0,1,1.782-.122,3.749,3.749,0,0,1,2.388.623,2.579,2.579,0,0,1,.985,2.2,2.954,2.954,0,0,1-.968,2.361,4.179,4.179,0,0,1-2.691.754,11.169,11.169,0,0,1-1.5-.088Zm1.324,4.758a2.359,2.359,0,0,0,.459.027A1.81,1.81,0,0,0,26.5,21.327a1.671,1.671,0,0,0-1.834-1.851,2.72,2.72,0,0,0-.6.05Z" transform="translate(11.013 8.938)" fill="#002c50"/>
      <rect id="Rectangle_4022" data-name="Rectangle 4022" width="1.324" height="5.831" transform="translate(39.785 27.442)" fill="#002c50"/>
      <path id="Path_17334" data-name="Path 17334" d="M33.428,24.074a6.52,6.52,0,0,1-1.947.329,3.245,3.245,0,0,1-2.369-.788A2.817,2.817,0,0,1,28.29,21.5a3.009,3.009,0,0,1,3.33-3.045,4.05,4.05,0,0,1,1.618.285l-.276,1.055A3.239,3.239,0,0,0,31.6,19.54a1.765,1.765,0,0,0-1.929,1.888,1.752,1.752,0,0,0,1.833,1.911,1.773,1.773,0,0,0,.65-.088v-1.22h-.9V21h2.171Z" transform="translate(13.695 8.932)" fill="#002c50"/>
      <rect id="Rectangle_4023" data-name="Rectangle 4023" width="1.324" height="5.831" transform="translate(48.155 27.442)" fill="#002c50"/>
      <path id="Path_17335" data-name="Path 17335" d="M35.379,19.6H33.813V18.492h4.48V19.6H36.7v4.724H35.379Z" transform="translate(16.368 8.951)" fill="#002c50"/>
      <path id="Path_17336" data-name="Path 17336" d="M38.382,22.826l-.414,1.5H36.6l1.782-5.831h1.73l1.808,5.831H40.5l-.45-1.5Zm1.48-.985L39.5,20.6c-.1-.344-.208-.778-.294-1.123h-.018c-.088.346-.172.787-.269,1.123l-.346,1.238Z" transform="translate(17.717 8.952)" fill="#002c50"/>
      <path id="Path_17337" data-name="Path 17337" d="M40.711,18.492h1.324v4.724h2.318v1.107H40.711Z" transform="translate(19.707 8.951)" fill="#002c50"/>
      <path id="Path_17338" data-name="Path 17338" d="M48.336,21.857H46.192v1.385h2.4v1.08H44.868V18.491h3.6v1.082H46.192v1.211h2.145Z" transform="translate(21.72 8.951)" fill="#002c50"/>
      <path id="Path_17339" data-name="Path 17339" d="M47.983,24.322V18.491h1.539l1.213,2.137a17.217,17.217,0,0,1,.951,2h.025A21.707,21.707,0,0,1,51.6,20.2V18.491h1.211v5.831H51.425l-1.245-2.25a21.682,21.682,0,0,1-1.011-2.057l-.027.009c.036.769.052,1.591.052,2.541v1.757Z" transform="translate(23.228 8.951)" fill="#002c50"/>
      <path id="Path_17340" data-name="Path 17340" d="M56.963,24.074a6.52,6.52,0,0,1-1.947.329,3.245,3.245,0,0,1-2.369-.788,2.817,2.817,0,0,1-.822-2.119,3.009,3.009,0,0,1,3.33-3.045,4.05,4.05,0,0,1,1.618.285L56.5,19.791a3.239,3.239,0,0,0-1.358-.251,1.765,1.765,0,0,0-1.929,1.888,1.752,1.752,0,0,0,1.833,1.911,1.773,1.773,0,0,0,.65-.088v-1.22h-.9V21h2.171Z" transform="translate(25.087 8.932)" fill="#002c50"/>
      <rect id="Rectangle_4024" data-name="Rectangle 4024" width="1.324" height="5.831" transform="translate(83.083 27.442)" fill="#002c50"/>
      <path id="Path_17341" data-name="Path 17341" d="M57.646,24.322V18.491h1.539L60.4,20.628a16.976,16.976,0,0,1,.951,2h.025a21.706,21.706,0,0,1-.111-2.429V18.491h1.21v5.831H61.089l-1.247-2.25a21.683,21.683,0,0,1-1.011-2.057l-.027.009c.036.769.052,1.591.052,2.541v1.757Z" transform="translate(27.905 8.951)" fill="#002c50"/>
      <path id="Path_17342" data-name="Path 17342" d="M65.137,21.857H62.993v1.385h2.4v1.08H61.669V18.491h3.6v1.082H62.993v1.211h2.145Z" transform="translate(29.853 8.951)" fill="#002c50"/>
      <path id="Path_17343" data-name="Path 17343" d="M68.252,21.857H66.107v1.385h2.4v1.08H64.783V18.491h3.6v1.082H66.107v1.211h2.145Z" transform="translate(31.36 8.951)" fill="#002c50"/>
      <path id="Path_17344" data-name="Path 17344" d="M67.9,18.585a11.5,11.5,0,0,1,1.757-.122,2.97,2.97,0,0,1,1.885.459,1.476,1.476,0,0,1,.537,1.218,1.548,1.548,0,0,1-1.03,1.437V21.6a1.472,1.472,0,0,1,.779,1.089c.181.657.362,1.419.475,1.644H70.951a7.356,7.356,0,0,1-.408-1.358c-.154-.727-.405-.928-.941-.935h-.4v2.293H67.9ZM69.2,21.093h.519c.657,0,1.048-.329,1.048-.839,0-.537-.364-.8-.971-.813a3.254,3.254,0,0,0-.6.043Z" transform="translate(32.868 8.938)" fill="#002c50"/>
      <rect id="Rectangle_4025" data-name="Rectangle 4025" width="1.324" height="5.831" transform="translate(105.896 27.442)" fill="#002c50"/>
      <path id="Path_17345" data-name="Path 17345" d="M73.018,24.322V18.491h1.539l1.212,2.137a17.215,17.215,0,0,1,.951,2h.025a21.707,21.707,0,0,1-.111-2.429V18.491h1.211v5.831H76.46l-1.245-2.25A21.683,21.683,0,0,1,74.2,20.015l-.027.009c.036.769.052,1.591.052,2.541v1.757Z" transform="translate(35.347 8.951)" fill="#002c50"/>
      <path id="Path_17346" data-name="Path 17346" d="M82,24.074a6.52,6.52,0,0,1-1.947.329,3.245,3.245,0,0,1-2.369-.788A2.817,2.817,0,0,1,76.86,21.5a3.009,3.009,0,0,1,3.33-3.045,4.05,4.05,0,0,1,1.618.285l-.276,1.055a3.239,3.239,0,0,0-1.358-.251,1.765,1.765,0,0,0-1.929,1.888,1.752,1.752,0,0,0,1.833,1.911,1.773,1.773,0,0,0,.65-.088v-1.22h-.9V21H82Z" transform="translate(37.206 8.932)" fill="#002c50"/>
      <path id="Path_17347" data-name="Path 17347" d="M82.314,22.995a3.364,3.364,0,0,0,1.46.364c.607,0,.926-.252.926-.632,0-.364-.276-.57-.977-.821-.969-.338-1.6-.874-1.6-1.723,0-.993.831-1.756,2.205-1.756a3.592,3.592,0,0,1,1.489.294l-.294,1.064a2.779,2.779,0,0,0-1.218-.276c-.571,0-.847.26-.847.561,0,.373.326.539,1.08.822,1.028.381,1.514.917,1.514,1.739,0,.978-.752,1.809-2.352,1.809a3.824,3.824,0,0,1-1.653-.356Z" transform="translate(39.716 8.92)" fill="#002c50"/>
      <path id="Path_17348" data-name="Path 17348" d="M88.814,21.857H86.67v1.385h2.4v1.08H85.346V18.491h3.6v1.082H86.67v1.211h2.145Z" transform="translate(41.314 8.951)" fill="#002c50"/>
      <path id="Path_17349" data-name="Path 17349" d="M88.46,18.585a11.5,11.5,0,0,1,1.757-.122,2.97,2.97,0,0,1,1.885.459,1.476,1.476,0,0,1,.537,1.218,1.548,1.548,0,0,1-1.03,1.437V21.6a1.472,1.472,0,0,1,.779,1.089c.181.657.362,1.419.475,1.644H91.514a7.356,7.356,0,0,1-.408-1.358c-.154-.727-.405-.928-.941-.935h-.4v2.293H88.46Zm1.306,2.508h.519c.657,0,1.048-.329,1.048-.839,0-.537-.364-.8-.971-.813a3.254,3.254,0,0,0-.6.043Z" transform="translate(42.822 8.938)" fill="#002c50"/>
      <path id="Path_17350" data-name="Path 17350" d="M93.419,24.322l-1.868-5.831H93l.708,2.465c.2.693.381,1.358.519,2.087h.027c.145-.7.328-1.394.527-2.06l.744-2.492h1.4l-1.963,5.831Z" transform="translate(44.318 8.951)" fill="#002c50"/>
      <rect id="Rectangle_4026" data-name="Rectangle 4026" width="1.324" height="5.831" transform="translate(141.866 27.442)" fill="#002c50"/>
      <path id="Path_17351" data-name="Path 17351" d="M101.623,24.19a3.77,3.77,0,0,1-1.5.251,2.773,2.773,0,0,1-3.053-2.916,2.972,2.972,0,0,1,3.182-3.1,3.45,3.45,0,0,1,1.437.26l-.269,1.048a2.834,2.834,0,0,0-1.107-.217,1.753,1.753,0,0,0-1.86,1.928,1.743,1.743,0,0,0,1.868,1.906,3.282,3.282,0,0,0,1.1-.191Z" transform="translate(46.992 8.92)" fill="#002c50"/>
      <path id="Path_17352" data-name="Path 17352" d="M104.192,21.857h-2.145v1.385h2.4v1.08h-3.719V18.491h3.6v1.082h-2.275v1.211h2.145Z" transform="translate(48.758 8.951)" fill="#002c50"/>
      <path id="Path_17353" data-name="Path 17353" d="M103.955,22.995a3.371,3.371,0,0,0,1.462.364c.605,0,.925-.252.925-.632,0-.364-.276-.57-.977-.821-.969-.338-1.6-.874-1.6-1.723,0-.993.831-1.756,2.207-1.756a3.589,3.589,0,0,1,1.487.294l-.294,1.064a2.779,2.779,0,0,0-1.218-.276c-.571,0-.847.26-.847.561,0,.373.327.539,1.08.822,1.028.381,1.514.917,1.514,1.739,0,.978-.752,1.809-2.352,1.809a3.824,3.824,0,0,1-1.653-.356Z" transform="translate(50.192 8.92)" fill="#002c50"/>
    </g>
  </g>
</svg>
