<svg id="Layer_1" height="512" viewBox="0 0 64 64" width="512" xmlns="http://www.w3.org/2000/svg" data-name="Layer 1"><path d="m44.55 29.17-6-4a1 1 0 0 0 -1-.05 1 1 0 0 0 -.55.88v8a1 1 0 0 0 .53.88 1 1 0 0 0 1-.05l6-4a1 1 0 0 0 0-1.66zm-5.55 3v-4.3l3.2 2.13z"/><path d="m56 44h2v2h-2z"/><path d="m52 44h2v2h-2z"/><path d="m48 44h2v2h-2z"/><path d="m6 44h4v2h-4z"/><path d="m48 24.47v-2.94a2.39 2.39 0 0 0 -2.39-2.39.4.4 0 0 1 -.39-.28 14.31 14.31 0 0 0 -.95-2.28.38.38 0 0 1 .08-.46l.1-.12a2.41 2.41 0 0 0 -.09-3.28l-2.09-2.08a2.39 2.39 0 0 0 -3.26-.1l-.13.11a.39.39 0 0 1 -.45.09 13.59 13.59 0 0 0 -2.31-1 .39.39 0 0 1 -.26-.38 2.39 2.39 0 0 0 -2.39-2.36h-2.94a2.4 2.4 0 0 0 -2.39 2.42.36.36 0 0 1 -.24.35 14 14 0 0 0 -2.32 1 .38.38 0 0 1 -.46-.08l-.13-.1a2.4 2.4 0 0 0 -3.27.09l-2.08 2.09a2.39 2.39 0 0 0 -.1 3.26l.11.13a.39.39 0 0 1 .09.45 14.31 14.31 0 0 0 -1 2.31.39.39 0 0 1 -.38.26 2.39 2.39 0 0 0 -2.36 2.35v2.94a2.39 2.39 0 0 0 2.39 2.39.4.4 0 0 1 .39.28 14.31 14.31 0 0 0 .95 2.28.38.38 0 0 1 -.08.46l-.1.12a2.41 2.41 0 0 0 .09 3.28l2.09 2.08a2.39 2.39 0 0 0 3.26.1l.13-.11a.38.38 0 0 1 .46-.08 14.63 14.63 0 0 0 2.33 1 .35.35 0 0 1 .23.37 2.39 2.39 0 0 0 2.39 2.36h2.94a2.38 2.38 0 0 0 2.05-1.2 9 9 0 0 0 12.25-12.32 2.3 2.3 0 0 0 .23-1.01zm-14.14 12.14a.38.38 0 0 1 -.39.39h-2.94a.39.39 0 0 1 -.39-.42 2.34 2.34 0 0 0 -1.64-2.25 12.09 12.09 0 0 1 -2-.84 2.44 2.44 0 0 0 -2.71.36l-.11.09a.38.38 0 0 1 -.54 0l-2.08-2.07a.39.39 0 0 1 0-.55l.08-.1a2.41 2.41 0 0 0 .36-2.73 11.88 11.88 0 0 1 -.81-1.95 2.38 2.38 0 0 0 -2.3-1.68.38.38 0 0 1 -.39-.39v-2.94a.38.38 0 0 1 .39-.39 2.36 2.36 0 0 0 2.29-1.66 11.89 11.89 0 0 1 .83-2 2.42 2.42 0 0 0 -.36-2.71l-.09-.11a.38.38 0 0 1 0-.54l2.07-2.08a.39.39 0 0 1 .55 0l.11.09a2.42 2.42 0 0 0 2.71.36 11.47 11.47 0 0 1 2-.83 2.37 2.37 0 0 0 1.65-2.29.38.38 0 0 1 .38-.37h2.94a.38.38 0 0 1 .39.39 2.36 2.36 0 0 0 1.66 2.29 12.8 12.8 0 0 1 2 .83 2.42 2.42 0 0 0 2.71-.36l.11-.09a.38.38 0 0 1 .54 0l2.08 2.07a.39.39 0 0 1 0 .55l-.08.1a2.41 2.41 0 0 0 -.36 2.73 11.88 11.88 0 0 1 .81 1.95 2.38 2.38 0 0 0 2.3 1.68.38.38 0 0 1 .39.39v1.78a9 9 0 0 0 -4.17-2.12 10 10 0 1 0 -10.33 11.81 9 9 0 0 0 2.34 3.59zm-2.81-5.67a8 8 0 1 1 8.69-9.94 9 9 0 0 0 -8.74 9c0 .32 0 .63.05.94zm8.95 6.06a7 7 0 1 1 7-7 7 7 0 0 1 -7 7z"/><path d="m59 2h-54a3 3 0 0 0 -3 3v41a3 3 0 0 0 3 3h23v5a1 1 0 0 1 -1 1h-14a3 3 0 0 0 -3 3v1a3 3 0 0 0 3 3h38a3 3 0 0 0 3-3v-1a3 3 0 0 0 -3-3h-14a1 1 0 0 1 -1-1v-5h23a3 3 0 0 0 3-3v-41a3 3 0 0 0 -3-3zm-22 55h14a1 1 0 0 1 1 1v1a1 1 0 0 1 -1 1h-38a1 1 0 0 1 -1-1v-1a1 1 0 0 1 1-1h14a3 3 0 0 0 3-3v-5h4v5a3 3 0 0 0 3 3zm23-11a1 1 0 0 1 -1 1h-54a1 1 0 0 1 -1-1v-3h56zm0-5h-56v-36a1 1 0 0 1 1-1h54a1 1 0 0 1 1 1z"/></svg>