<svg xmlns="http://www.w3.org/2000/svg" width="42.552" height="24.666" viewBox="0 0 42.552 24.666">
  <g id="Discovery_and_documentation" data-name="Discovery and documentation" transform="translate(0 -107.606)">
    <path id="Path_17276" data-name="Path 17276" d="M31.291,108.678a11.265,11.265,0,0,0-4.907,1.126l.111-.774a1.247,1.247,0,0,0-2.468-.353l-.5,3.493a1.256,1.256,0,0,0,.948,1.39l3.405.8a1.247,1.247,0,0,0,.573-2.427l-.478-.113a8.767,8.767,0,1,1-5.451,8.115,11.262,11.262,0,1,0-6.355,10.136l-.111.774a1.247,1.247,0,1,0,2.468.353l.5-3.493a1.256,1.256,0,0,0-.948-1.39l-3.405-.8a1.247,1.247,0,0,0-.573,2.427l.478.113a8.767,8.767,0,1,1,5.451-8.115,11.261,11.261,0,1,0,11.261-11.261Z" fill="#3cb3e7"/>
    <path id="Path_17277" data-name="Path 17277" d="M77.528,186.867a1.247,1.247,0,1,0,0-2.493h-.52a4.053,4.053,0,0,0-.258-.62l.369-.369a1.247,1.247,0,1,0-1.763-1.763l-.369.369a4.067,4.067,0,0,0-.62-.258v-.52a1.247,1.247,0,1,0-2.493,0v.52a4.058,4.058,0,0,0-.62.258l-.369-.369a1.247,1.247,0,1,0-1.763,1.763l.369.369a4.059,4.059,0,0,0-.258.62h-.52a1.247,1.247,0,1,0,0,2.493h.52a4.056,4.056,0,0,0,.258.62l-.369.369a1.247,1.247,0,1,0,1.763,1.763l.369-.369a4.062,4.062,0,0,0,.62.258v.52a1.247,1.247,0,0,0,2.493,0v-.52a4.056,4.056,0,0,0,.62-.258l.369.369a1.247,1.247,0,0,0,1.763-1.763l-.369-.369a4.058,4.058,0,0,0,.258-.62Zm-6-1.247a1.59,1.59,0,1,1,1.59,1.59A1.591,1.591,0,0,1,71.531,185.62Z" transform="translate(-61.859 -66.346)" fill="#3cb3e7"/>
    <path id="Path_17278" data-name="Path 17278" d="M309.713,199.356a1.247,1.247,0,0,0,0,2.493h.52a4.056,4.056,0,0,0,.258.62l-.369.369a1.247,1.247,0,1,0,1.763,1.763l.369-.369a4.043,4.043,0,0,0,.62.258v.52a1.247,1.247,0,1,0,2.493,0v-.52a4.06,4.06,0,0,0,.62-.258l.369.369a1.247,1.247,0,0,0,1.763-1.763l-.369-.369a4.066,4.066,0,0,0,.258-.62h.52a1.247,1.247,0,0,0,0-2.493h-.52a4.052,4.052,0,0,0-.258-.62l.369-.369a1.247,1.247,0,1,0-1.763-1.763l-.369.369a4.049,4.049,0,0,0-.62-.258v-.52a1.247,1.247,0,1,0-2.493,0v.52a4.062,4.062,0,0,0-.62.258l-.369-.369a1.247,1.247,0,0,0-1.763,1.763l.369.369a4.053,4.053,0,0,0-.258.62Zm6,1.247a1.59,1.59,0,1,1-1.59-1.59A1.591,1.591,0,0,1,315.71,200.6Z" transform="translate(-282.83 -80.083)" fill="#3cb3e7"/>
  </g>
</svg>
