<svg viewBox="0 0 64 64" xmlns="http://www.w3.org/2000/svg"><g id="consumer_discuss" data-name="consumer discuss"><path d="m59 58h-3.18c-.76-3.68-1.21-8-6.2-10.23 2.64-2.01 2.38-4.56 2.38-6.77a6 6 0 0 0 -12 0c0 2.38-.24 4.77 2.37 6.77-1.89.83-.32.9-2.74-1.07a12.26 12.26 0 0 0 -3.58-2c3.18-2.27 3-5.31 3-7.7a7 7 0 0 0 -14 0c0 2.22-.34 5.36 3 7.71a12.09 12.09 0 0 0 -5.24 3.64 8.16 8.16 0 0 0 -1.09-.58c2.55-2.02 2.28-4.57 2.28-6.77a6 6 0 0 0 -12 0c0 2.38-.24 4.78 2.38 6.78-5.01 2.22-5.47 6.68-6.2 10.22h-3.18a1 1 0 0 0 0 2h54a1 1 0 0 0 0-2zm-17-15v-2a4 4 0 0 1 8 0v2a4 4 0 0 1 -8 0zm-15-4v-2a5 5 0 0 1 10 0v2a5 5 0 0 1 -10 0zm-13 4v-2a4 4 0 0 1 8 0v2a4 4 0 0 1 -8 0zm-3.18 12.11a7.28 7.28 0 0 1 10.73-5.11c-1.37 2.3-1.6 4.47-2.36 8h-4.91l.72-2.76a1 1 0 0 0 -2-.48l-.78 3.24h-2zm29.08 2.89-1-4.22a1 1 0 0 0 -1.94.49l.88 3.73h-11.62l.78-3.8a1 1 0 0 0 -2-.4l-.82 4.2h-2.94a51.64 51.64 0 0 1 1.15-5.09 10.15 10.15 0 0 1 17.88-2.64c1.55 2.16 1.7 4 2.49 7.73zm11.88 0-.78-3.24a1 1 0 0 0 -1.94.48l.66 2.76h-4.91c-.85-4-1.09-5.9-2.36-8a7.26 7.26 0 0 1 10.73 5.14l.59 2.86z"/><path d="m53 4h-42a7 7 0 0 0 -7 7v6a7 7 0 0 0 7 7h3.38l2.73 5.45a1 1 0 0 0 1.78 0l2.73-5.45h7.76l1.73 3.45a1 1 0 0 0 1.78 0l1.73-3.45h7.76l2.73 5.45a1 1 0 0 0 1.78 0l2.73-5.45h3.38a7 7 0 0 0 7-7v-6a7 7 0 0 0 -7-7zm5 13a5 5 0 0 1 -5 5h-4c-.82 0-.78.32-3 4.76-2.27-4.53-2.19-4.76-3-4.76-10 0-9.52-.19-9.89.55l-1.11 2.21-1.11-2.21c-.37-.75-.06-.55-9.89-.55-.82 0-.78.32-3 4.76-2.27-4.53-2.19-4.76-3-4.76h-4a5 5 0 0 1 -5-5v-6a5 5 0 0 1 5-5h42a5 5 0 0 1 5 5z"/><path d="m22.12 11.66-2.22-.43-1.1-2a1 1 0 0 0 -1.75 0l-1.1 2c-2.36.46-2.74.4-3 1.1s.24 1 1.76 2.65c-.3 2.39-.48 2.74.13 3.17s1 .08 3.06-.85c2.24 1 2.17 1 2.47 1a1 1 0 0 0 1-1.12l-.25-2.18 1.54-1.66a1 1 0 0 0 -.54-1.68zm-2.93 4c-1.42-.66-1.14-.65-2.52 0 .18-1.52.28-1.25-.78-2.4 1.53-.3 1.3-.15 2-1.49.74 1.34.5 1.19 2 1.49-.96 1.13-.89.86-.7 2.42z"/><path d="m34.13 10a3 3 0 0 0 -2.13.88 3 3 0 1 0 -4.25 4.23l3.57 3.57a1 1 0 0 0 1.41 0l3.54-3.53a3 3 0 0 0 -2.14-5.15zm.72 3.73-2.85 2.83-2.84-2.86a1 1 0 0 1 .69-1.7c.49 0 .62.2 1.44 1a1 1 0 0 0 1.41 0l.71-.71a1 1 0 0 1 1.44 1.44z"/><path d="m50.12 12.66-2.22-.43-1.1-2a1 1 0 0 0 -1.75 0l-1.1 2c-2.36.46-2.74.4-3 1.1s.24 1 1.76 2.65c-.3 2.39-.48 2.74.13 3.17s1.05.08 3.06-.85c2.24 1 2.17 1 2.47 1a1 1 0 0 0 1-1.12l-.25-2.18 1.54-1.66a1 1 0 0 0 -.54-1.68zm-2.93 4c-1.42-.66-1.14-.65-2.52 0 .18-1.52.28-1.25-.78-2.4 1.53-.3 1.3-.15 2-1.49.74 1.34.5 1.19 2 1.49-.96 1.13-.89.86-.7 2.42z"/></g></svg>