<svg id="Layer_5" enable-background="new 0 0 64 64" height="512" viewBox="0 0 64 64" width="512" xmlns="http://www.w3.org/2000/svg"><g><circle cx="43" cy="42" r="1"/><path d="m14.458 54.107c.697.45 1.461.78 2.27.982l.484-1.94c-.596-.149-1.158-.392-1.67-.723z"/><path d="m13 46.562c0-.447.053-.893.158-1.325l-1.943-.473c-.143.587-.215 1.192-.215 1.798v1.192c0 1.792.637 3.53 1.793 4.893l1.525-1.294c-.85-1.002-1.318-2.28-1.318-3.599z"/><path d="m24 35c-.551 0-1-.449-1-1h-2c0 1.654 1.346 3 3 3v2h2v-2h3v-3c0-1.654-1.346-3-3-3h-2c-.551 0-1-.449-1-1v-1h3c.551 0 1 .449 1 1h2c0-1.654-1.346-3-3-3v-2h-2v2h-3v3c0 1.654 1.346 3 3 3h2c.551 0 1 .449 1 1v1z"/><path d="m47.919 6.333 3.667 3.667-6.586 6.586-4-4-10.128 10.128c-1.435-.911-3.091-1.502-4.872-1.664v-2.05h3c3.86 0 7-3.14 7-7v-1h-5c-1.958 0-3.728.81-5 2.11v-2.11-1c0-4.962-4.038-9-9-9h-7v1c0 4.962 4.038 9 9 9h5v6.11c-1.272-1.3-3.042-2.11-5-2.11h-5v1c0 3.201 2.162 5.901 5.101 6.731-3.062 1.955-5.101 5.375-5.101 9.269 0 1.294.236 2.53.648 3.684-4.553 1.631-7.648 5.952-7.648 10.878v.438.754 8.246c0 1.103-.897 2-2 2s-2-.897-2-2 .897-2 2-2v-2c-2.206 0-4 1.794-4 4s1.794 4 4 4 4-1.794 4-4v-1.754c1.414 2.083 3.495 3.699 6 4.507v1.247c0 1.654 1.346 3 3 3h2c1.654 0 3-1.346 3-3v-1h10v1c0 1.654 1.346 3 3 3h2c1.654 0 3-1.346 3-3v-1.057c3.559-.404 6.61-2.938 7.61-6.438l.144-.505h1.246c1.654 0 3-1.346 3-3v-4c0-1.654-1.346-3-3-3h-1.174c-.842-3.518-3.653-6.243-7.162-6.907-1.135-2.239-3.269-3.718-5.712-4.027-.064-.755-.203-1.488-.412-2.193l5.46-5.459 4 4 12-12 3.667 3.667 2.55-15.297zm-16.919 6.667h2.899c-.464 2.279-2.485 4-4.899 4h-2.899c.464-2.279 2.484-4 4.899-4zm-12-4c-3.521 0-6.442-2.612-6.929-6h4.929c3.521 0 6.442 2.612 6.929 6zm-2.899 8h2.899c2.415 0 4.435 1.721 4.899 4h-2.899c-2.415 0-4.435-1.721-4.899-4zm8.899 6c4.962 0 9 4.038 9 9s-4.038 9-9 9-9-4.038-9-9 4.038-9 9-9zm14.895 13.024.45.901.53.067c3.152.398 5.675 2.927 6.136 6.149l.122.859h2.867c.551 0 1 .449 1 1v4c0 .551-.449 1-1 1h-2.754l-.559 1.956c-.849 2.97-3.598 5.044-6.687 5.044h-1v3c0 .551-.449 1-1 1h-2c-.551 0-1-.449-1-1v-3h-14v3c0 .551-.449 1-1 1h-2c-.551 0-1-.449-1-1v-2.781l-.757-.189c-4.265-1.066-7.243-4.881-7.243-9.276v-.754-.438c0-4.135 2.634-7.755 6.491-9.057.805 1.384 1.898 2.578 3.204 3.495h-4.695v2h22v-2h-4.695c2.554-1.795 4.317-4.642 4.64-7.91 1.694.293 3.16 1.357 3.95 2.934zm19.438-21.105-2.333-2.333-12 12-4-4-6.279 6.279c-.582-1.098-1.349-2.08-2.253-2.919l8.532-8.532 4 4 9.414-9.414-2.333-2.333 8.702-1.45z"/></g></svg>