<svg id="Capa_1" enable-background="new 0 0 512 512" height="512" viewBox="0 0 512 512" width="512" xmlns="http://www.w3.org/2000/svg"><g><path d="m458.188 324.826c-1.594-2.627-3.852-4.773-6.522-6.204l-55.808-29.98c-4.916-2.646-10.793-2.667-15.73-.059-.007.004-.015.008-.022.012-.028.015-.056.029-.083.044l-55.804 29.979c-4.737 2.545-8.932 8.188-9.073 15.323v67.382c0 6.603 3.597 12.537 9.385 15.484l55.812 28.453c3.756 1.789 9.18 2.831 15.189.002l55.808-28.453c5.792-2.947 9.39-8.881 9.39-15.487v-67.382c-.02-2.144-.61-5.633-2.542-9.114zm-71.105-22.953c.593-.314.002-.028 1.671-.021l48.302 25.948-35.87 18.287-13.248 6.754-49.12-25.042zm-55.743 101.568c-.726-.37-1.195-1.202-1.195-2.12v-61.106l50.294 25.64v62.617zm113.191.002-49.092 25.029v-62.616l50.291-25.64v61.106c-.001.918-.469 1.749-1.199 2.121z"/><path d="m387.938 242.803c-12.014 0-23.631 1.723-34.626 4.923-.403-9.808-8.485-17.668-18.39-17.668h-166.506c-10.162 0-18.429 8.267-18.429 18.429v16.153c0 10.162 8.267 18.429 18.429 18.429h128.121c-10.604 11.557-19.047 25.124-24.692 40.055h-103.43c-10.162 0-18.429 8.267-18.429 18.429v16.153c0 10.162 8.267 18.429 18.429 18.429h95.805c.979 13.19 4.034 25.809 8.831 37.54h-250.28c-4.285 0-7.771-3.486-7.771-7.772v-311.512h365.438v122.089c0 4.142 3.358 7.5 7.5 7.5s7.5-3.358 7.5-7.5v-172.637c0-12.557-10.215-22.772-22.772-22.772h-349.895c-12.556 0-22.771 10.216-22.771 22.772v362.058c0 12.557 10.215 22.772 22.771 22.772h257.625c21.451 37.178 61.622 62.255 107.541 62.255 20.512 0 40.839-5.113 58.785-14.786 3.646-1.965 5.009-6.515 3.043-10.161-1.965-3.646-6.514-5.009-10.161-3.043-15.766 8.498-33.633 12.99-51.668 12.99-60.138 0-109.063-48.925-109.063-109.063 0-60.137 48.925-109.062 109.063-109.062 60.137 0 109.062 48.925 109.062 109.062 0 28.37-10.837 55.241-30.515 75.664-2.874 2.982-2.786 7.73.197 10.604 2.984 2.875 7.731 2.785 10.605-.197 22.385-23.232 34.713-53.8 34.713-86.071.002-68.407-55.652-124.062-124.06-124.062zm-372.938-198.96c0-4.286 3.486-7.772 7.771-7.772h349.894c4.286 0 7.772 3.486 7.772 7.772v35.548h-365.437zm149.987 220.797v-16.153c0-1.891 1.538-3.429 3.429-3.429h166.506c1.891 0 3.429 1.538 3.429 3.429v4.67c-9.067 3.969-17.572 8.991-25.358 14.912h-144.577c-1.891-.001-3.429-1.539-3.429-3.429zm0 93.065v-16.153c0-1.891 1.538-3.429 3.429-3.429h98.827c-1.771 7.436-2.87 15.128-3.231 23.01h-95.596c-1.891.001-3.429-1.537-3.429-3.428z"/><path d="m134.615 113.972c-3.038-2.817-7.782-2.637-10.599.4l-12.574 13.56c-3.174-2.168-7.006-3.44-11.131-3.44h-38.434c-10.471.524-19.571 7.955-19.79 19.79v38.433c0 10.912 8.878 19.79 19.79 19.79h38.433c10.912 0 19.79-8.878 19.79-19.79v-38.433c0-1.128-.117-2.228-.299-3.305l15.213-16.406c2.817-3.037 2.638-7.783-.399-10.599zm-34.305 25.519c.129 0 .25.028.376.038l-19.779 21.33-20.864-21c1.345-.969 38.347-.073 40.267-.368zm4.79 43.223c0 2.641-2.149 4.79-4.79 4.79h-38.433c-2.641 0-4.79-2.149-4.79-4.79v-24.548l18.686 18.808c1.409 1.418 3.324 2.214 5.32 2.214.043 0 .086 0 .13-.001 2.042-.035 3.981-.902 5.37-2.399l18.507-19.958z"/><path d="m168.416 151.992c4.142 0 7.5-3.358 7.5-7.5s-3.358-7.5-7.5-7.5c-10.162 0-18.429 8.267-18.429 18.429v16.153c0 10.162 8.267 18.429 18.429 18.429h166.506c10.162 0 18.429-8.267 18.429-18.429v-16.153c0-10.162-8.267-18.429-18.429-18.429h-130.046c-4.142 0-7.5 3.358-7.5 7.5s3.358 7.5 7.5 7.5h130.045c1.891 0 3.429 1.538 3.429 3.429v16.153c0 1.891-1.538 3.429-3.429 3.429h-166.505c-1.891 0-3.429-1.538-3.429-3.429v-16.153c0-1.891 1.538-3.429 3.429-3.429z"/><path d="m134.615 207.037c-3.038-2.817-7.782-2.637-10.599.4l-12.574 13.56c-3.174-2.168-7.006-3.44-11.131-3.44h-38.434c-10.47.523-19.571 7.956-19.79 19.791v38.432c0 10.912 8.878 19.79 19.79 19.79h38.433c10.912 0 19.79-8.878 19.79-19.79v-38.432c0-1.128-.117-2.228-.299-3.305l15.214-16.406c2.816-3.038 2.637-7.783-.4-10.6zm-34.305 25.52c.129 0 .25.028.376.038l-19.779 21.33-20.864-21c1.345-.97 38.347-.074 40.267-.368zm4.79 43.222c0 2.641-2.149 4.79-4.79 4.79h-38.433c-2.641 0-4.79-2.149-4.79-4.79v-24.548l18.686 18.808c1.409 1.418 3.324 2.214 5.32 2.214.043 0 .086 0 .13-.001 2.042-.035 3.981-.902 5.37-2.399l18.507-19.958z"/><path d="m134.615 300.103c-3.038-2.817-7.782-2.638-10.599.4l-12.574 13.56c-3.174-2.168-7.006-3.44-11.131-3.44h-38.434c-10.47.523-19.572 7.957-19.79 19.79v38.432c0 10.913 8.878 19.791 19.79 19.791h38.433c10.912 0 19.79-8.878 19.79-19.791v-38.432c0-1.128-.117-2.228-.299-3.305l15.214-16.406c2.816-3.037 2.637-7.783-.4-10.599zm-34.305 25.52c.129 0 .25.028.376.038l-19.779 21.329-20.863-21c1.344-.968 38.346-.073 40.266-.367zm4.79 43.222c0 2.642-2.149 4.791-4.79 4.791h-38.433c-2.641 0-4.79-2.149-4.79-4.791v-24.548l18.686 18.808c1.409 1.418 3.324 2.214 5.32 2.214.043 0 .086 0 .13-.001 2.042-.035 3.981-.902 5.37-2.399l18.507-19.958z"/><path d="m351.85 50.231h-130.925c-4.142 0-7.5 3.358-7.5 7.5s3.358 7.5 7.5 7.5h130.925c4.142 0 7.5-3.358 7.5-7.5s-3.358-7.5-7.5-7.5z"/><g><circle cx="72.26" cy="57.734" r="7.5"/><circle cx="42.7" cy="57.734" r="7.5"/></g></g></svg>