<svg id="Layer_1" height="512" viewBox="0 0 64 64" width="512" xmlns="http://www.w3.org/2000/svg"><g><g><g><path d="m35.2 58.6h-19.1c-.6 0-1-.5-1-1s.5-1 1-1h19.1c.6 0 1 .5 1 1s-.4 1-1 1z"/></g><g><path d="m25.4 36.5h-9.3c-.6 0-1-.5-1-1s.5-1 1-1h9.3c.6 0 1 .5 1 1s-.4 1-1 1z"/></g><g><path d="m28.1 27.7h-12c-.6 0-1-.5-1-1s.5-1 1-1h12c.6 0 1 .5 1 1s-.4 1-1 1z"/></g><g><path d="m35.2 6.8h-19.1c-.6 0-1-.5-1-1s.5-1 1-1h19.1c.6 0 1 .5 1 1s-.4 1-1 1z"/></g><g><path d="m31.3 47.8c-.3 0-.7-.2-.9-.5-.3-.5-.2-1.1.3-1.4l.4-.3c.5-.3 1.1-.2 1.4.3s.2 1.1-.3 1.4l-.4.3c-.1.1-.3.2-.5.2z"/></g><g><path d="m12.3 64c-.9 0-1.8-.4-2.4-1-.7-.7-1.1-1.8-.9-2.8.7-5.5 4.5-10.5 10.7-14.3.5-.3 1.1-.1 1.4.4s.1 1.1-.4 1.4c-5.7 3.4-9.1 7.9-9.7 12.8-.1.4.1.8.4 1.1s.6.4 1 .4h.3c.6 0 1.1-.5 1.2-1.2.6-4.7 4.6-9 11.1-12 .5-.2 1.1 0 1.4.5s0 1.1-.5 1.4c-5.8 2.7-9.4 6.5-9.9 10.4-.2 1.6-1.5 2.9-3 3h-.3c-.2-.1-.3-.1-.4-.1z"/></g><g><path d="m25.6 45.1c-.4 0-.8-.2-.9-.6-.2-.5 0-1.1.5-1.4.9-.4 1.8-.9 2.6-1.3.5-.3 1.1-.1 1.4.4s.1 1.1-.4 1.4c-.9.5-1.9 1-2.8 1.4-.1.1-.2.1-.4.1z"/></g><g><path d="m29.9 22.5c-.2 0-.4-.1-.6-.2-1.4-1-3.1-1.9-5-2.7-8.6-3.6-14-9.1-15.2-15.6-.2-1 .1-2.1.8-2.9s1.6-1.2 2.6-1.2h.3c1.5 0 2.8 1.1 3.2 2.7.8 4 4.8 7.8 11 10.5 3.5 1.5 6.5 3.3 8.9 5.4.4.4.5 1 .1 1.5-.4.4-1 .5-1.5.1-2.2-2-5-3.7-8.4-5.1-6.7-2.8-11.2-7.2-12.1-11.9-.1-.6-.6-1.1-1.2-1.1h-.4c-.4 0-.7.2-1 .4-.3.3-.4.7-.3 1.2 1.1 5.7 6 10.8 13.9 14.1 2 .9 3.8 1.8 5.4 2.9.5.3.6 1 .3 1.4-.2.4-.5.5-.8.5z"/></g><g><path d="m29.9 22.5c-.2 0-.4-.1-.6-.2-1.2-.8-2.5-1.6-4.1-2.3h-.2c-.2-.1-.5-.2-.7-.3-1.7-.7-3.2-1.5-4.7-2.4-5.9-3.5-9.5-8.1-10.5-13.3-.2-1 .1-2.1.8-2.9s1.6-1.2 2.6-1.2h.4c1.5 0 2.8 1.1 3.2 2.7.8 3.8 4.4 7.4 10.1 10l.2.1c.2.1.5.2.7.3 1.7.7 3.3 1.5 4.7 2.4 1.5.9 3 2 4.2 3.1.4.4.5 1 .1 1.5-.4.4-1 .5-1.5.1-1.2-1-2.5-2-3.9-2.9-1.3-.8-2.8-1.5-4.4-2.2-.3-.1-.5-.2-.8-.3l-.2-.1c-6.3-2.9-10.3-7-11.2-11.5-.1-.6-.6-1.1-1.2-1.1h-.4c-.4 0-.7.2-1 .4-.3.3-.4.7-.3 1.1.9 4.6 4.1 8.7 9.5 11.9 1.4.8 2.9 1.6 4.4 2.2.3.1.5.2.8.3l.2.1c1.7.8 3.1 1.6 4.4 2.5.5.3.6 1 .3 1.4-.3.5-.6.6-.9.6z"/></g><g><path d="m31.1 17.4c-.2 0-.4 0-.5-.1-1.3-.8-2.7-1.5-4.4-2.2-.2-.1-.5-.2-.8-.3l-.2-.1c-.4-.2-.6-.5-.6-.9s.2-.8.6-.9c5.6-2.6 9.3-6.3 10.1-10 .3-1.8 1.6-2.9 3.1-2.9h.4c1.1 0 2 .4 2.6 1.2.7.7 1 1.8.8 2.8-1 5.2-4.6 9.8-10.5 13.3-.2.1-.4.1-.6.1zm-3-3.8c1.1.5 2.1 1 3.1 1.6 5.1-3.2 8.2-7.2 9-11.6.1-.4 0-.8-.3-1.1-.2-.3-.6-.5-1-.5h-.4c-.6 0-1.1.5-1.2 1.1-.8 4-4 7.7-9.2 10.5z"/></g><g><path d="m39 64c-.1 0-.2 0-.3 0h-.3c-1.6-.1-2.8-1.4-3.1-3-.5-4.1-4.4-8-10.6-10.7l-2-.9c-8.8-4.2-13.9-10.7-13.9-17.8 0-6.2 3.8-11.9 10.8-16.1.3-.2.7-.2 1.1 0 1.4.8 2.9 1.6 4.4 2.2.3.1.5.2.8.3l.2.1c.4.2.6.5.6.9s-.2.8-.6.9c-6.5 3-10.2 7.2-10.2 11.5 0 4.6 4.1 8.9 11.2 12l1.5.7c8.1 3.9 13 9.5 13.8 16 .1 1-.2 1.9-.8 2.7-.7.8-1.7 1.2-2.6 1.2zm-18.8-46.4c-6 3.7-9.2 8.7-9.2 14 0 6.3 4.6 12.1 12.7 15.9l1.9.9c6.9 3 11.2 7.5 11.8 12.4.1.7.6 1.2 1.2 1.2h.3.1c.4 0 .7-.2 1-.4.3-.3.4-.7.3-1.1-.7-5.6-5.3-10.9-12.6-14.3l-1.5-.7c-7.9-3.4-12.4-8.4-12.4-13.9 0-4.7 3.4-9.1 9.4-12.4-1-.5-2.1-1-3-1.6z"/></g><g><path d="m42.4 46.9h-1.3c-1.1 0-2.1-.8-2.3-2l-.3-2c0-.1-.1-.2-.2-.2-.3-.1-.6-.2-.9-.4 0 0-.1 0-.2 0l-1.6 1.2c-.9.7-2.2.6-3-.2l-.9-1c-.8-.8-.9-2-.2-3l1.2-1.6c.1-.1.1-.2 0-.3-.1-.3-.3-.6-.4-.9 0-.1-.1-.1-.2-.2l-1.9-.3c-1.1-.2-1.9-1.1-1.9-2.3v-1.4c0-1.1.8-2.1 1.9-2.3l1.9-.3c.1 0 .1-.1.2-.1.1-.3.2-.6.4-.9 0-.1 0-.2 0-.2l-1.2-1.5c-.7-.9-.6-2.2.2-3l.9-1c.8-.8 2.1-.9 3-.2l1.6 1.2c.1 0 .2.1.2 0 .3-.1.6-.3.9-.4.1 0 .1-.1.1-.2l.3-2c.2-1.1 1.1-2 2.3-2h1.3c1.1 0 2.1.8 2.3 2l.3 2c0 .1.1.2.2.2.3.1.6.2.9.4.1 0 .2.1.3 0l1.6-1.2c.9-.7 2.2-.6 3 .2l.9 1c.8.8.9 2 .2 3l-1.2 1.6c0 .1-.1.2 0 .3.1.3.3.6.4.9 0 .1.1.1.2.2l1.9.3c1.1.2 1.9 1.1 1.9 2.3v1.4c0 1.1-.8 2.1-1.9 2.3l-1.9.3c-.1 0-.1.1-.2.2-.1.3-.2.6-.4.9v.2l1.2 1.6c.7.9.6 2.2-.2 3l-.9 1c-.8.8-2.1.9-3 .2l-1.6-1.2c-.1 0-.1-.1-.2 0-.3.1-.6.3-.9.4-.1 0-.1.1-.2.2l-.3 2c-.2.9-1.2 1.8-2.3 1.8zm-5-6.6c.3 0 .7.1 1 .2.2.1.5.2.7.3.8.3 1.4 1 1.5 1.8l.3 2c0 .1.1.2.2.2h1.3c.1 0 .2-.1.2-.2l.3-2c.1-.8.7-1.5 1.5-1.8.2-.1.5-.2.7-.3.7-.4 1.7-.3 2.3.2l1.6 1.2c.1.1.2.1.3 0l.9-1c.1-.1.1-.2 0-.3l-1.1-1.6c-.5-.7-.6-1.6-.2-2.3.1-.2.2-.5.3-.7.3-.8 1-1.4 1.8-1.5l2-.3c.1 0 .2-.1.2-.2v-1.4c0-.1-.1-.2-.2-.2l-2-.4c-.8-.1-1.5-.7-1.8-1.5-.1-.2-.2-.5-.3-.7-.4-.8-.3-1.7.2-2.3l1.2-1.6c.1-.1.1-.2 0-.3l-.9-1c-.1-.1-.2-.1-.3 0l-1.6 1.2c-.7.5-1.6.6-2.4.2-.2-.1-.5-.2-.7-.3-.8-.3-1.4-1-1.5-1.8l-.3-2c0-.1-.1-.2-.2-.2h-1.3c-.1 0-.2.1-.2.2l-.3 2c-.1.8-.7 1.5-1.5 1.8-.3.1-.5.2-.7.3-.8.4-1.7.3-2.3-.2l-1.6-1.2c-.1-.1-.2-.1-.3 0l-.9 1c-.1.1-.1.2 0 .3l1.2 1.6c.5.7.6 1.6.2 2.3-.1.2-.2.5-.3.7-.3.8-1 1.4-1.8 1.5l-1.9.3c-.1 0-.2.1-.2.2v1.4c0 .1.1.2.2.2l1.9.3c.8.1 1.5.7 1.8 1.5.1.2.2.5.3.7.4.8.3 1.7-.2 2.3l-1.2 1.6c-.1.1-.1.2 0 .3l.9 1c.1.1.2.1.3 0l1.6-1.2c.3-.2.8-.3 1.3-.3z"/></g><g><path d="m41.7 38.9c-3.1 0-5.6-2.5-5.6-5.7 0-3.1 2.5-5.7 5.6-5.7s5.6 2.5 5.6 5.7c.1 3.1-2.5 5.7-5.6 5.7zm0-9.3c-2 0-3.6 1.6-3.6 3.6s1.6 3.6 3.6 3.6 3.6-1.6 3.6-3.6-1.6-3.6-3.6-3.6z"/></g></g></g></svg>