<?xml version="1.0" encoding="UTF-8"?>
<svg xmlns="http://www.w3.org/2000/svg" id="Layer_1" data-name="Layer 1" viewBox="0 0 512 512" width="512" height="512"><path d="M92.459,348.459C92.459,438.636,165.824,512,256,512s163.542-73.364,163.542-163.541S346.177,184.918,256,184.918,92.459,258.282,92.459,348.459ZM159.521,460A103.431,103.431,0,0,1,256,394.79a104.6,104.6,0,0,1,96.47,65.215A147.272,147.272,0,0,1,159.521,460Zm49.1-132.748A47.383,47.383,0,1,1,256,374.631,47.436,47.436,0,0,1,208.618,327.249ZM256,200.918c81.355,0,147.542,66.186,147.542,147.541a146.974,146.974,0,0,1-38.8,99.611,120.076,120.076,0,0,0-78.147-65.334,63.382,63.382,0,1,0-61.187,0,120.021,120.021,0,0,0-78.137,65.343,146.971,146.971,0,0,1-38.81-99.619C108.459,267.1,174.646,200.918,256,200.918ZM333.711,56.46a8,8,0,0,0-7.608-5.527h-.016l-47.793.091L263.613,5.542a8,8,0,0,0-15.226,0L233.706,51.024l-47.793-.091H185.9a8,8,0,0,0-4.689,14.481l38.719,28.017-14.856,45.425a8,8,0,0,0,12.318,8.95L256,119.64l38.611,28.166a8,8,0,0,0,12.318-8.95L292.073,93.431l38.719-28.017A8,8,0,0,0,333.711,56.46ZM277.965,83.89a8,8,0,0,0-2.913,8.968l8.966,27.416-23.3-17a8,8,0,0,0-9.43,0l-23.3,17,8.966-27.416a8,8,0,0,0-2.913-8.968L210.666,66.98l28.845.056h.015a8,8,0,0,0,7.613-5.543L256,34.042l8.861,27.451a8,8,0,0,0,7.613,5.543h.015l28.845-.056Zm-225.5,72.33-1.472,47.77a8,8,0,0,0,14.339,5.122l29.124-37.893,44.976,16.162a8,8,0,0,0,9.3-12.054l-27.038-39.409,29.27-37.781a8,8,0,0,0-8.59-12.572L96.537,99.1,69.649,59.59a8,8,0,0,0-14.61,4.285L53.75,111.65,7.862,125.011a8,8,0,0,0-.44,15.22Zm11.364-30.84a8,8,0,0,0,5.761-7.465l.778-28.834,16.228,23.847a8,8,0,0,0,8.88,3.172l27.664-8.17-17.666,22.8a8,8,0,0,0-.273,9.426l16.32,23.785-27.146-9.755a8,8,0,0,0-9.049,2.654l-17.577,22.87.888-28.832a8,8,0,0,0-5.32-7.785L36.13,133.444Zm440.313-.369L458.25,111.65l-1.289-47.775a8,8,0,0,0-14.61-4.285L415.463,99.1,369.628,85.565a8,8,0,0,0-8.59,12.572l29.27,37.781L363.27,175.327a8,8,0,0,0,9.3,12.054l44.976-16.162,29.124,37.893a8,8,0,0,0,14.339-5.122l-1.472-47.77,45.039-15.989a8,8,0,0,0-.44-15.22ZM448.687,143.1a8,8,0,0,0-5.32,7.785l.888,28.832-17.577-22.87a8,8,0,0,0-9.049-2.654l-27.146,9.755,16.32-23.785a8,8,0,0,0-.273-9.426l-17.666-22.8,27.664,8.17a8,8,0,0,0,8.88-3.172l16.228-23.847.778,28.834a8,8,0,0,0,5.761,7.465l27.695,8.064Z"/></svg>
