<svg id="Capa_1" enable-background="new 0 0 512 512" height="512" viewBox="0 0 512 512" width="512" xmlns="http://www.w3.org/2000/svg"><g><g id="Page-1_5_"><g id="_x30_06---Divider"><path id="Shape_20_" d="m477.867 0h-443.734c-18.851 0-34.133 15.282-34.133 34.133v85.333c0 18.852 15.282 34.134 34.133 34.134h443.733c18.851 0 34.133-15.282 34.133-34.133v-85.334c.001-18.851-15.281-34.133-34.132-34.133zm17.066 119.467c0 9.426-7.641 17.067-17.067 17.067h-443.733c-9.426 0-17.067-7.641-17.067-17.067v-85.334c0-9.426 7.641-17.067 17.067-17.067h443.733c9.426 0 17.067 7.641 17.067 17.067z"/><path id="Shape_19_" d="m477.867 358.4h-443.734c-18.851 0-34.133 15.282-34.133 34.133v85.333c0 18.852 15.282 34.134 34.133 34.134h443.733c18.852 0 34.134-15.282 34.134-34.133v-85.333c0-18.852-15.282-34.134-34.133-34.134zm17.066 119.467c0 9.426-7.641 17.067-17.067 17.067h-443.733c-9.426 0-17.067-7.641-17.067-17.067v-85.333c0-9.426 7.641-17.067 17.067-17.067h443.733c9.426 0 17.067 7.641 17.067 17.067z"/><g clip-rule="evenodd" fill-rule="evenodd"><path id="Path_43_" d="m244.966 309.7c-3.348-3.234-8.671-3.188-11.962.104s-3.338 8.614-.104 11.962l17.067 17.067c3.332 3.331 8.734 3.331 12.066 0l17.067-17.067c3.234-3.348 3.188-8.671-.104-11.962-3.292-3.292-8.614-3.338-11.962-.104l-2.5 2.5v-47.667h8.533c4.713 0 8.533-3.821 8.533-8.533 0-4.713-3.82-8.533-8.533-8.533h-8.533v-47.667l2.5 2.5c3.348 3.234 8.671 3.188 11.962-.104 3.292-3.292 3.338-8.614.104-11.962l-17.067-17.067c-3.332-3.331-8.734-3.331-12.066 0l-17.067 17.067c-3.234 3.348-3.188 8.671.104 11.962 3.292 3.292 8.614 3.338 11.962.104l2.5-2.5v47.667h-8.533c-4.713 0-8.533 3.821-8.533 8.533 0 4.713 3.821 8.533 8.533 8.533h8.533v47.667z"/><path id="Path_42_" d="m204.8 264.533c4.713 0 8.533-3.821 8.533-8.533 0-4.713-3.821-8.533-8.533-8.533h-34.133c-4.713 0-8.533 3.821-8.533 8.533 0 4.713 3.821 8.533 8.533 8.533z"/><path id="Path_41_" d="m136.533 264.533c4.713 0 8.533-3.821 8.533-8.533 0-4.713-3.821-8.533-8.533-8.533h-34.133c-4.713 0-8.533 3.821-8.533 8.533 0 4.713 3.821 8.533 8.533 8.533z"/><path id="Path_40_" d="m68.267 264.533c4.713 0 8.533-3.821 8.533-8.533 0-4.713-3.82-8.533-8.533-8.533h-34.134c-4.713 0-8.533 3.821-8.533 8.533 0 4.713 3.821 8.533 8.533 8.533z"/><path id="Path_39_" d="m477.867 264.533c4.713 0 8.533-3.821 8.533-8.533 0-4.713-3.82-8.533-8.533-8.533h-34.133c-4.713 0-8.533 3.821-8.533 8.533 0 4.713 3.821 8.533 8.533 8.533z"/><path id="Path_38_" d="m409.6 264.533c4.713 0 8.533-3.821 8.533-8.533 0-4.713-3.821-8.533-8.533-8.533h-34.133c-4.713 0-8.533 3.821-8.533 8.533 0 4.713 3.821 8.533 8.533 8.533z"/><path id="Path_37_" d="m341.333 264.533c4.713 0 8.533-3.821 8.533-8.533 0-4.713-3.821-8.533-8.533-8.533h-34.133c-4.713 0-8.533 3.821-8.533 8.533 0 4.713 3.82 8.533 8.533 8.533z"/></g></g></g></g></svg>