<svg height="480pt" viewBox="0 0 480.00548 480" width="480pt" xmlns="http://www.w3.org/2000/svg"><path d="m200 480.003906h80c4.417969 0 8-3.578125 8-8v-75.058594l11.578125-5.789062c2.710937-1.351562 4.421875-4.121094 4.421875-7.152344v-48c0-16.136718-12-29.511718-27.550781-31.695312 2.320312-5.089844 3.550781-10.632813 3.550781-16.304688 0-22.058594-17.941406-40-40-40-22.054688 0-40 17.941406-40 40 0 5.671875 1.234375 11.214844 3.554688 16.304688-15.554688 2.183594-27.554688 15.558594-27.554688 31.695312v48c0 3.03125 1.714844 5.800782 4.425781 7.160156l11.574219 5.78125v75.058594c0 4.421875 3.585938 8 8 8zm-8-144c0-8.824218 7.175781-16 16-16h11.03125c3.335938 0 6.320312-2.074218 7.488281-5.183594 1.167969-3.113281.289063-6.640624-2.222656-8.832031-5.34375-4.691406-8.296875-11.074219-8.296875-17.984375 0-13.234375 10.769531-24 24-24 13.234375 0 24 10.765625 24 24 0 6.910156-2.949219 13.292969-8.304688 17.976563-2.511718 2.191406-3.390624 5.71875-2.222656 8.832031 1.167969 3.109375 4.160156 5.191406 7.496094 5.191406h11.03125c8.824219 0 16 7.175782 16 16v43.054688l-11.574219 5.792968c-2.710937 1.351563-4.425781 4.121094-4.425781 7.152344v72h-64v-72c0-3.03125-1.710938-5.800781-4.421875-7.160156l-11.578125-5.785156zm0 0"/><path d="m232 376.003906h16v-27.058594l11.578125-5.78125-7.152344-14.320312-12.425781 6.214844-12.421875-6.214844-7.152344 14.320312 11.574219 5.78125zm0 0"/><path d="m48 480.003906h80c4.417969 0 8-3.578125 8-8v-176h32c3.105469 0 5.929688-1.800781 7.25-4.609375 1.320312-2.808593.886719-6.128906-1.105469-8.511719l-80-96c-3.039062-3.640624-9.246093-3.640624-12.289062 0l-80 96c-1.992188 2.390626-2.414063 5.710938-1.101563 8.511719 1.320313 2.808594 4.144532 4.609375 7.246094 4.609375h32v176c0 4.421875 3.585938 8 8 8zm-22.917969-200 62.917969-75.503906 62.921875 75.503906h-22.921875c-4.414062 0-8 3.574219-8 8v176h-64v-176c0-4.425781-3.582031-8-8-8zm0 0"/><path d="m327.25 203.394531c1.320312-2.808593.886719-6.128906-1.105469-8.511719l-80-96c-3.039062-3.640624-9.246093-3.640624-12.289062 0l-80 96c-1.992188 2.390626-2.414063 5.710938-1.101563 8.511719 1.320313 2.808594 4.144532 4.609375 7.246094 4.609375h32v40h16v-48c0-4.425781-3.582031-8-8-8h-22.917969l62.917969-75.503906 62.921875 75.503906h-22.921875c-4.414062 0-8 3.574219-8 8v48h16v-40h32c3.105469 0 5.929688-1.800781 7.25-4.609375zm0 0"/><path d="m352 480.003906h80c4.417969 0 8-3.578125 8-8v-360h32c3.105469 0 5.929688-1.800781 7.25-4.609375 1.320312-2.808593.886719-6.128906-1.105469-8.511719l-80-96c-3.039062-3.640624-9.246093-3.640624-12.289062 0l-80 96c-1.992188 2.390626-2.414063 5.710938-1.101563 8.511719 1.320313 2.808594 4.144532 4.609375 7.246094 4.609375h32v360c0 4.421875 3.585938 8 8 8zm-22.917969-384 62.917969-75.503906 62.921875 75.503906h-22.921875c-4.414062 0-8 3.574219-8 8v360h-64v-360c0-4.425781-3.582031-8-8-8zm0 0"/><path d="m24 64.003906h16v-24h24v-16h-24v-23.99999975h-16v23.99999975h-24v16h24zm0 0"/><path d="m120 80.003906h24v24h16v-24h24v-16h-24v-24h-16v24h-24zm0 0"/><path d="m8 160.003906h16v16h-16zm0 0"/><path d="m272 8.003906h16v16h-16zm0 0"/><path d="m464 456.003906h16v16h-16zm0 0"/></svg>