<?xml version="1.0" encoding="UTF-8"?>
<svg xmlns="http://www.w3.org/2000/svg" id="Layer_1" data-name="Layer 1" viewBox="0 0 64 64" width="512" height="512"><path d="M18.038,47.814l3.235,2.35A1.671,1.671,0,0,0,23.6,49.8l.8-1.108a18.23,18.23,0,0,0,3.925,1.277v1.368A1.669,1.669,0,0,0,30,53h4a1.669,1.669,0,0,0,1.667-1.667V49.965a18.248,18.248,0,0,0,3.925-1.277l.8,1.109a1.673,1.673,0,0,0,2.329.368l3.237-2.352a1.671,1.671,0,0,0,.367-2.328l-.807-1.109a18.351,18.351,0,0,0,2.425-3.338l1.307.424a1.67,1.67,0,0,0,2.1-1.07l1.237-3.806a1.668,1.668,0,0,0-1.07-2.1l-1.3-.424a18.246,18.246,0,0,0,0-4.126l1.3-.424a1.668,1.668,0,0,0,1.072-2.1l-1.237-3.8a1.669,1.669,0,0,0-2.1-1.07l-1.307.424a18.33,18.33,0,0,0-2.425-3.338l.808-1.11a1.671,1.671,0,0,0-.369-2.328l-3.235-2.35A1.673,1.673,0,0,0,40.4,14.2l-.8,1.108a18.23,18.23,0,0,0-3.925-1.277V12.667A1.669,1.669,0,0,0,34,11H30a1.669,1.669,0,0,0-1.667,1.667v1.368a18.248,18.248,0,0,0-3.925,1.277L23.6,14.2a1.671,1.671,0,0,0-2.329-.368l-3.237,2.352a1.671,1.671,0,0,0-.367,2.328l.807,1.109a18.4,18.4,0,0,0-2.425,3.338l-1.307-.424a1.669,1.669,0,0,0-2.1,1.07l-1.237,3.806a1.668,1.668,0,0,0,1.07,2.1l1.305.424a18.246,18.246,0,0,0,0,4.126l-1.3.424a1.668,1.668,0,0,0-1.072,2.1l1.237,3.8a1.67,1.67,0,0,0,2.1,1.07l1.307-.424a18.33,18.33,0,0,0,2.425,3.338l-.808,1.11A1.671,1.671,0,0,0,18.038,47.814Zm-.365-7.975A1.673,1.673,0,0,0,15.7,39.05l-1.253.407-1.031-3.171,1.249-.406a1.672,1.672,0,0,0,1.137-1.8,16.276,16.276,0,0,1,0-4.153,1.673,1.673,0,0,0-1.135-1.8l-1.251-.406,1.031-3.171,1.25.406a1.672,1.672,0,0,0,1.979-.79A16.447,16.447,0,0,1,20.117,20.8a1.672,1.672,0,0,0,.14-2.123l-.774-1.065,2.7-1.959.773,1.065a1.669,1.669,0,0,0,2.067.519,16.271,16.271,0,0,1,3.946-1.285,1.668,1.668,0,0,0,1.366-1.635V13h3.334v1.313a1.668,1.668,0,0,0,1.366,1.635,16.271,16.271,0,0,1,3.946,1.285,1.67,1.67,0,0,0,2.068-.519l.772-1.065,2.7,1.959-.775,1.067a1.671,1.671,0,0,0,.143,2.123,16.446,16.446,0,0,1,2.441,3.361,1.673,1.673,0,0,0,1.976.791l1.253-.407,1.031,3.171-1.249.406a1.672,1.672,0,0,0-1.137,1.8,16.276,16.276,0,0,1,0,4.153,1.673,1.673,0,0,0,1.135,1.8l1.251.406-1.031,3.171-1.25-.406a1.667,1.667,0,0,0-1.979.79A16.447,16.447,0,0,1,43.883,43.2a1.672,1.672,0,0,0-.14,2.123l.774,1.065-2.7,1.959-.773-1.065a1.668,1.668,0,0,0-2.067-.519,16.271,16.271,0,0,1-3.946,1.285,1.668,1.668,0,0,0-1.366,1.635V51H30.333V49.687a1.668,1.668,0,0,0-1.366-1.635,16.271,16.271,0,0,1-3.946-1.285,1.67,1.67,0,0,0-2.068.519l-.772,1.065-2.7-1.959.775-1.067a1.671,1.671,0,0,0-.143-2.123A16.446,16.446,0,0,1,17.673,39.839Z"/><path d="M32,45A13,13,0,1,0,19,32,13.015,13.015,0,0,0,32,45Zm0-24A11,11,0,1,1,21,32,11.013,11.013,0,0,1,32,21Z"/><path d="M27.993,37.862a1,1,0,0,0,.992.012l9-5a1,1,0,0,0,0-1.748l-9-5A1,1,0,0,0,27.5,27V37A1,1,0,0,0,27.993,37.862ZM29.5,28.7,35.44,32,29.5,35.3Z"/><path d="M32,3A29.017,29.017,0,0,1,45.532,6.351l.936-1.768A31.005,31.005,0,0,0,4.578,46.468l1.768-.936A29.007,29.007,0,0,1,32,3Z"/><path d="M57.654,18.468A29,29,0,0,1,18.468,57.649l-.936,1.768a31.005,31.005,0,0,0,41.89-41.885Z"/><path d="M50.5,15h6a1,1,0,0,0,1-1V8a1,1,0,0,0-1-1h-6a1,1,0,0,0-1,1v6A1,1,0,0,0,50.5,15Zm1-6h4v4h-4Z"/><path d="M13.5,49h-6a1,1,0,0,0-1,1v6a1,1,0,0,0,1,1h6a1,1,0,0,0,1-1V50A1,1,0,0,0,13.5,49Zm-1,6h-4V51h4Z"/></svg>
