<svg id="Layer_1" enable-background="new 0 0 468 468" height="512" viewBox="0 0 468 468" width="512" xmlns="http://www.w3.org/2000/svg"><g><g><g><g><path d="m229.667 468c-2.761 0-5-2.238-5-5v-46c0-2.762 2.239-5 5-5s5 2.238 5 5v46c0 2.762-2.239 5-5 5z"/></g></g><g><g><path d="m276.333 468c-2.761 0-5-2.238-5-5v-125h-36.667v19.679c0 2.762-2.239 5-5 5s-5-2.238-5-5v-24.679c0-2.762 2.239-5 5-5h46.667c2.761 0 5 2.238 5 5v130c0 2.762-2.238 5-5 5z"/></g></g><g><g><path d="m183 468c-2.761 0-5-2.238-5-5v-85h-36.667v85c0 2.762-2.239 5-5 5s-5-2.238-5-5v-90c0-2.762 2.239-5 5-5h46.667c2.761 0 5 2.238 5 5v90c0 2.762-2.239 5-5 5z"/></g></g><g><g><path d="m89.667 468c-2.761 0-5-2.238-5-5v-55h-36.667v55c0 2.762-2.239 5-5 5s-5-2.238-5-5v-60c0-2.762 2.239-5 5-5h46.667c2.761 0 5 2.238 5 5v60c0 2.762-2.239 5-5 5z"/></g></g><g><g><path d="m369.667 468c-2.761 0-5-2.238-5-5v-205h-36.667v205c0 2.762-2.239 5-5 5s-5-2.238-5-5v-210c0-2.762 2.239-5 5-5h46.667c2.761 0 5 2.238 5 5v210c0 2.762-2.239 5-5 5z"/></g></g><g><g><path d="m416.333 468c-2.761 0-5-2.238-5-5v-161c0-2.762 2.239-5 5-5s5 2.238 5 5v161c0 2.762-2.238 5-5 5z"/></g></g><g><g><path d="m463 468c-2.761 0-5-2.238-5-5v-275h-36.667v46.458c0 2.762-2.239 5-5 5s-5-2.238-5-5v-51.458c0-2.762 2.239-5 5-5h46.667c2.761 0 5 2.238 5 5v280c0 2.762-2.239 5-5 5z"/></g></g></g><g><g><path d="m178.478 330h-29.028c-8.053 0-16.058-6.965-16.058-15.345v-19.446c-14.156-3.407-27.829-9.188-39.965-16.897l-13.707 13.675c-5.877 5.862-16.724 4.843-22.269-.689l-20.103-20.751c-.172-.177-.331-.367-.474-.568-5.016-7.006-4.512-15.897 1.225-21.621l13.755-13.726c-7.983-13.042-13.607-26.895-16.444-40.494h-19.351c-8.213 0-14.951-6.192-16.02-14.723-.026-.207-.039-.414-.039-.622v-28.965c0-8.06 6.994-16.035 15.367-16.035h19.5c3.414-14.12 9.204-27.757 16.925-39.865l-13.693-13.664c-5.884-5.869-4.857-16.716.691-22.251l20.795-20.06c5.945-5.749 16.64-4.808 22.208.749l13.767 13.737c13.075-7.971 26.963-13.586 40.595-16.418v-19.987c0-8.203 6.203-14.93 14.749-15.996.205-.025.411-.038.618-.038h29.028c8.474 0 15.367 7.193 15.367 16.034v19.446c14.155 3.407 27.826 9.188 39.965 16.898l13.706-13.677c5.878-5.863 16.724-4.845 22.269.689l20.103 20.751c.172.177.331.367.474.567 5.016 7.007 4.513 15.898-1.225 21.622l-13.755 13.726c7.983 13.043 13.607 26.895 16.444 40.494h19.352c8.753 0 15.625 6.055 16.711 14.724.025.206.039.413.039.621v28.966c0 8.203-6.203 14.93-14.749 15.996-.205.025-.412.038-.619.038h-19.5c-3.414 14.12-9.204 27.757-16.925 39.865l13.694 13.664c5.884 5.869 4.857 16.716-.691 22.251l-20.795 20.06c-5.945 5.749-16.639 4.808-22.208-.749l-13.767-13.736c-13.074 7.971-26.962 13.586-40.595 16.418v19.298c0 8.203-6.203 14.93-14.749 15.996-.205.025-.411.038-.618.038zm-35.087-15.694c.459 2.878 2.476 5.694 6.058 5.694h28.681c2.888-.457 5.714-2.467 5.714-6.034v-23.448c0-2.445 1.768-4.531 4.18-4.933 14.81-2.463 30.166-8.646 44.406-17.884 1.978-1.279 4.583-1.01 6.252.656l16.587 16.552c2.66 2.652 6.172 1.876 8.499.344l20.438-19.714c2.58-2.575 1.821-6.046.305-8.36l-16.262-16.226c-1.706-1.702-1.955-4.379-.592-6.366 8.894-12.971 15.319-28.086 18.581-43.712.484-2.318 2.527-3.979 4.895-3.979h23.152c2.888-.458 5.714-2.467 5.714-6.034v-28.616c-.449-2.803-2.435-5.694-6.75-5.694h-23.499c-2.443 0-4.529-1.767-4.932-4.177-2.467-14.774-8.664-30.094-17.918-44.301-1.291-1.982-1.017-4.598.658-6.269l16.587-16.552c2.65-2.645 1.875-6.137.344-8.45l-19.756-20.395c-2.589-2.581-6.081-1.822-8.407-.304l-16.262 16.227c-1.7 1.698-4.367 1.944-6.351.591-13.002-8.877-28.153-15.289-43.814-18.545-2.32-.482-3.982-2.526-3.982-4.896v-23.447c0-3.609-2.775-6.034-5.367-6.034h-28.68c-2.888.457-5.714 2.467-5.714 6.034v24.138c0 2.445-1.768 4.531-4.18 4.933-14.808 2.463-30.164 8.646-44.406 17.884-1.977 1.281-4.583 1.012-6.252-.656l-16.589-16.553c-2.661-2.653-6.173-1.875-8.499-.344l-20.437 19.714c-2.58 2.575-1.821 6.046-.305 8.359l16.262 16.227c1.706 1.702 1.955 4.379.592 6.366-8.894 12.971-15.319 28.086-18.581 43.712-.484 2.318-2.527 3.979-4.895 3.979h-23.152c-2.887.457-5.714 2.467-5.714 6.035v28.615c.459 2.878 2.476 5.694 6.059 5.694h23.499c2.443 0 4.529 1.767 4.932 4.176 2.468 14.775 8.664 30.095 17.919 44.302 1.291 1.982 1.017 4.598-.658 6.269l-16.587 16.552c-2.65 2.645-1.875 6.137-.345 8.45l19.756 20.395c2.59 2.583 6.082 1.822 8.407.304l16.262-16.227c1.7-1.698 4.367-1.945 6.351-.59 13 8.875 28.15 15.288 43.814 18.544 2.32.482 3.982 2.526 3.982 4.896z"/></g></g><g><g><path d="m170 147.721v-37.896c0-2.762-2.239-5-5-5s-5 2.238-5 5v37.896c-5.908 1.713-10.566 6.371-12.279 12.279h-22.29c-2.761 0-5 2.238-5 5s2.239 5 5 5h22.29c2.174 7.498 9.09 13 17.279 13 9.925 0 18-8.075 18-18 0-8.189-5.502-15.105-13-17.279zm-5 25.279c-4.411 0-8-3.589-8-8s3.589-8 8-8 8 3.589 8 8-3.589 8-8 8z"/></g></g><g><g><g><path d="m408 130c-33.084 0-60-26.916-60-60s26.916-60 60-60 60 26.916 60 60-26.916 60-60 60zm0-110c-27.57 0-50 22.43-50 50s22.43 50 50 50 50-22.43 50-50-22.43-50-50-50z"/></g></g><g><g><path d="m411.885 64.766v-16.234c3.318.664 6.477 2.109 9.191 4.212 2.775 1.931 6.895-.724 6.93-3.942.005-1.13-.424-2.196-1.237-3.03-4.173-3.625-9.458-5.838-14.932-6.26v-5.302c0-1.924-1.544-3.49-3.37-3.49-2.022 0-3.699 1.351-3.73 3.49v5.112c-10.767.96-18.244 7.945-18.244 17.117 0 10.971 8.584 14.362 18.244 17.035v18.606c-4.414-.709-8.535-2.612-11.961-5.535-2.857-2.304-7.196.314-7.152 3.821-.006 1.129.423 2.196 1.227 3.022 4.946 4.518 11.297 7.172 17.932 7.506v4.897c.221 1.956 1.501 3.609 3.646 3.496 1.904 0 3.453-1.569 3.453-3.496v-5.011c13.618-1.106 18.486-10.038 18.486-18.099.001-11.693-9.469-15.415-18.483-17.915zm8.633 18.993c0 3.46-2.283 7.432-8.634 8.423v-16.555c5.241 1.581 8.677 3.633 8.634 8.132zm-15.733-35.622v14.765c-4.774-1.456-8.345-3.002-8.345-7.051 0-4.15 3.256-7.135 8.345-7.714z"/></g></g></g><g><g><circle cx="416.333" cy="269.391" r="6.5"/></g></g><g><g><circle cx="229.667" cy="388" r="6.5"/></g></g><g><path d="m165 65c-55.14 0-100 44.859-100 100s44.86 100 100 100 100-44.859 100-100-44.86-100-100-100zm-67.044 40.027 7.278 7.278c2.357 1.953 4.714 1.953 7.071 0 1.953-1.952 1.953-5.118 0-7.07l-7.278-7.278c14.77-13.227 33.917-21.657 54.973-22.816v10.337c0 2.762 2.239 5 5 5s5-2.238 5-5v-10.337c21.056 1.159 40.203 9.589 54.973 22.815l-7.278 7.278c-1.953 1.952-1.953 5.118 0 7.07 2.357 1.953 4.714 1.953 7.071 0l7.278-7.278c13.226 14.77 21.656 33.917 22.815 54.973h-10.337c-2.761 0-5 2.238-5 5s2.239 5 5 5h10.337c-1.159 21.055-9.589 40.203-22.815 54.973l-7.278-7.278c-1.953-1.953-5.118-1.953-7.071 0-1.953 1.952-1.953 5.118 0 7.07l7.278 7.278c-14.77 13.228-33.917 21.658-54.973 22.817v-10.337c0-2.762-2.239-5-5-5s-5 2.238-5 5v10.337c-21.056-1.159-40.203-9.589-54.973-22.815l7.278-7.278c1.953-1.952 1.953-5.118 0-7.07-1.952-1.952-5.117-1.953-7.071 0l-7.278 7.278c-13.226-14.771-21.656-33.919-22.815-54.974h10.337c2.761 0 5-2.238 5-5s-2.239-5-5-5h-10.337c1.159-21.055 9.589-40.203 22.815-54.973z"/></g></g></svg>