<svg id="Слой_1" height="512" viewBox="0 0 128 128" width="512" xmlns="http://www.w3.org/2000/svg" data-name="Слой 1"><path d="m117.91 50a25.31 25.31 0 0 0 -29.6-23.86 32.23 32.23 0 0 0 -61.7 4 24.84 24.84 0 0 0 -25.75 24.86c0 14.5 9.14 25 21.72 25h9.42v14.2a10 10 0 1 0 4 0v-14.2h26v22.2a10 10 0 1 0 4 0v-22.2h26v14.2a10 10 0 1 0 4 0v-14.2h16.32c9.28 0 14.82-8 14.82-15.69a15.63 15.63 0 0 0 -9.23-14.31zm-77.91 54a6 6 0 1 1 -6-6 6 6 0 0 1 6 6zm30 8a6 6 0 1 1 -6-6 6 6 0 0 1 6 6zm30-8a6 6 0 1 1 -6-6 6 6 0 0 1 6 6zm12.32-28h-16.32v-8.26a8 8 0 1 0 -4 0v8.26h-26v-12.26a8 8 0 1 0 -4 0v12.26h-26v-8.26a8 8 0 1 0 -4 0v8.26h-9.42c-10.43 0-17.72-8.62-17.72-21a20.8 20.8 0 0 1 23.14-20.74 2 2 0 0 0 2.2-1.65 28.24 28.24 0 0 1 54.89-3.55 2 2 0 0 0 2.4 1.35c13.67-3.48 26.29 7 26.46 20.74a2.28 2.28 0 0 0 1.35 2.12 11.62 11.62 0 0 1 7.85 11c-.01 5.73-3.8 11.73-10.83 11.73zm-18.32-12a4 4 0 1 1 4-4 4 4 0 0 1 -4 4zm-30-4a4 4 0 1 1 4-4 4 4 0 0 1 -4 4zm-30 4a4 4 0 1 1 4-4 4 4 0 0 1 -4 4z"/></svg>