<?xml version="1.0" encoding="UTF-8"?>
<svg xmlns="http://www.w3.org/2000/svg" id="Icons" viewBox="0 0 60 60" width="512" height="512"><path d="M56,34.1V28a9.948,9.948,0,0,0-2.619-6.723A27.014,27.014,0,1,0,32,53.529V55a5.006,5.006,0,0,0,5,5H55a5.006,5.006,0,0,0,5-5V39A5.009,5.009,0,0,0,56,34.1ZM54,34H52V28a6,6,0,0,0-12,0v6H38V28a8,8,0,0,1,16,0ZM42,28h8v6H42Zm.556-2a3.965,3.965,0,0,1,6.888,0ZM18.629,44.718a48.769,48.769,0,0,1,7.371-.7V51.9C23.169,51.388,20.582,48.726,18.629,44.718ZM26,42.023a50.512,50.512,0,0,0-8.2.809A43.043,43.043,0,0,1,15.013,28H26ZM15.013,26A43.043,43.043,0,0,1,17.8,11.168a50.512,50.512,0,0,0,8.2.809V26ZM28,2.092c2.832.506,5.438,3.142,7.4,7.184a48.663,48.663,0,0,1-7.4.7ZM26,2.1V9.977a48.769,48.769,0,0,1-7.371-.7C20.582,5.274,23.169,2.612,26,2.1Zm2,9.879a50.462,50.462,0,0,0,8.23-.813,39.916,39.916,0,0,1,2.429,10.069A9.973,9.973,0,0,0,36.2,26H28ZM50.736,19.2a9.967,9.967,0,0,0-10.264.479,41.079,41.079,0,0,0-2.248-8.933,36.79,36.79,0,0,0,5.92-1.9A24.921,24.921,0,0,1,50.736,19.2ZM42.44,7.38a36.386,36.386,0,0,1-5.013,1.492,19.9,19.9,0,0,0-4.152-6.059A25.091,25.091,0,0,1,42.44,7.38ZM16.546,8.866a36.2,36.2,0,0,1-5-1.493,24.924,24.924,0,0,1,9.146-4.564A19.936,19.936,0,0,0,16.546,8.866Zm-6.7-.028a36.792,36.792,0,0,0,5.9,1.9A45.229,45.229,0,0,0,13.013,26H2.025A24.933,24.933,0,0,1,9.847,8.838ZM2.025,28H13.013a45.229,45.229,0,0,0,2.738,15.263,36.792,36.792,0,0,0-5.9,1.9A24.933,24.933,0,0,1,2.025,28Zm9.518,18.627a36.2,36.2,0,0,1,5-1.493,19.936,19.936,0,0,0,4.143,6.057A24.924,24.924,0,0,1,11.543,46.627ZM28,51.971V44.029c1.347.026,2.683.1,4,.235v7.223A24.7,24.7,0,0,1,28,51.971ZM32,39v3.257q-1.978-.189-4-.228V28h8v6.1A5.009,5.009,0,0,0,32,39ZM58,55a3,3,0,0,1-3,3H37a3,3,0,0,1-3-3V39a3,3,0,0,1,3-3H55a3,3,0,0,1,3,3Z"/><path d="M46,40a4,4,0,0,0-3.24,6.344l-.4,2.395A2.808,2.808,0,0,0,45.13,52h1.74a2.808,2.808,0,0,0,2.768-3.261v0l-.4-2.393A4,4,0,0,0,46,40Zm1.664,9.063A.809.809,0,0,1,46.87,50H45.13a.809.809,0,0,1-.794-.937l.471-2.84a1,1,0,0,0-.26-.85,2,2,0,1,1,2.906,0,1,1,0,0,0-.26.85Z"/></svg>
