<svg height="512pt" viewBox="-9 0 512 512" width="512pt" xmlns="http://www.w3.org/2000/svg"><path d="m483.046875 183.625c-5.523437 0-10 4.476562-10 10v230.066406h-51.730469c-2.652344 0-5.195312 1.050782-7.074218 2.925782-1.875 1.875-2.925782 4.421874-2.925782 7.074218v58.308594h-270.386718v-40.019531h23.386718c5.070313 0 9.339844-3.792969 9.933594-8.828125l2.601562-22.089844c.386719-3.285156 2.273438-6.199219 5.09375-7.820312.523438-.308594 1.050782-.613282 1.542969-.910157 2.746094-1.644531 6.210938-1.878906 9.261719-.628906l21.144531 8.664063c4.632813 1.898437 9.957031.074218 12.457031-4.261719l33.398438-57.96875c2.539062-4.410157 1.363281-10.023438-2.730469-13.042969l-18.640625-13.738281c-2.6875-1.984375-4.285156-5.234375-4.28125-8.695313 0-.003906 0-.011718 0-.015625v-.78125c-.019531-3.429687 1.578125-6.664062 4.277344-8.652343l18.644531-13.746094c4.097657-3.019532 5.269531-8.632813 2.730469-13.042969l-33.398438-57.964844c-2.503906-4.347656-7.835937-6.164062-12.472656-4.253906l-21.601562 8.890625c-3.03125 1.253906-6.496094 1.019531-9.242188-.609375-.355468-.207031-.691406-.40625-1.0625-.617187-2.8125-1.625-4.71875-4.554688-5.101562-7.84375l-2.621094-22.597657c-.582031-5.042969-4.855469-8.847656-9.933594-8.847656h-66.800781c-5.074219 0-9.347656 3.804687-9.933594 8.847656l-2.570312 22.167969c-.40625 3.535156-2.488281 6.71875-5.570313 8.515625-.066406.035156-.128906.074219-.191406.113281-.027344.019532-.0625.035156-.09375.054688-3.03125 1.742187-6.761719 1.984375-10.003906.644531l-21.195313-8.722656c-4.636719-1.90625-9.96875-.089844-12.472656 4.253906l-33.398437 57.96875c-2.539063 4.410156-1.363282 10.023437 2.730468 13.042969l18.648438 13.746094c2.699218 1.988281 4.300781 5.21875 4.273437 8.714843v.730469c.003907 3.464844-1.597656 6.714844-4.277343 8.691406l-18.644532 13.746094c-4.097656 3.019531-5.273437 8.632812-2.730468 13.042969l33.398437 57.964843c2.5 4.339844 7.824219 6.160157 12.457031 4.261719l21.144532-8.660156c3.054687-1.253906 6.515624-1.019531 9.21875.601563.527343.320312 1.058593.628906 1.636718.964843 2.769532 1.59375 4.65625 4.507813 5.042969 7.792969l2.601563 22.089844c.59375 5.035156 4.859374 8.828125 9.929687 8.828125h23.410156v50.019531c0 5.523438 4.480469 10 10 10h290.375c5.472657 0 8.578125-4.566406 11.867188-8.203125 5.046875-5.585937 57.734375-63.765625 58.453125-64.976563.914062-1.539062 1.425781-3.335937 1.425781-5.132812v-240.0625c0-5.523438-4.476563-10-10-10zm-378.199219 235.101562c-1.121094-9.542968-6.707031-18.066406-14.890625-22.769531-.433593-.25-.867187-.503906-1.335937-.785156-8.121094-4.867187-18.257813-5.605469-27.113282-1.976563l-13.058593 5.347657-24.574219-42.652344 11.460938-8.445313c7.78125-5.746093 12.417968-15.019531 12.402343-24.800781v-.644531c.074219-9.808594-4.566406-19.109375-12.410156-24.890625l-11.453125-8.445313 24.570312-42.636718 13.082032 5.382812c9.003906 3.722656 19.398437 3 27.816406-1.921875.058594-.035156.113281-.070312.171875-.105469.039063-.019531.082031-.046874.121094-.070312 8.429687-4.96875 14.125-13.71875 15.242187-23.425781l1.542969-13.3125h48.988281l1.59375 13.746093c1.101563 9.550782 6.703125 18.101563 14.957032 22.855469.28125.164063.5625.324219.863281.503907 8.140625 4.824218 18.261719 5.535156 27.070312 1.902343l13.496094-5.554687 24.566406 42.636718-11.453125 8.441407c-7.828125 5.769531-12.46875 15.070312-12.410156 24.816406v.703125c-.015625 9.796875 4.621094 19.074219 12.410156 24.820312l11.453125 8.445313-24.574219 42.648437-13.054687-5.347656c-8.855469-3.625-18.988281-2.886718-27.144531 1.992188-.4375.265625-.871094.519531-1.257813.742187-8.234375 4.730469-13.820312 13.253907-14.941406 22.796875l-1.5625 13.257813h-49.015625zm326.46875 57.292969v-32.328125h29.214844zm0 0"/><path d="m186.8125 322.285156c0-30.820312-25.074219-55.894531-55.894531-55.894531-30.820313 0-55.894531 25.074219-55.894531 55.894531 0 30.820313 25.074218 55.894532 55.894531 55.894532 30.820312 0 55.894531-25.074219 55.894531-55.894532zm-55.894531 35.894532c-19.792969 0-35.894531-16.105469-35.894531-35.894532 0-19.792968 16.101562-35.894531 35.894531-35.894531s35.894531 16.101563 35.894531 35.894531c0 19.789063-16.101562 35.894532-35.894531 35.894532zm0 0"/><path d="m483.046875 0h-352.121094c-5.523437 0-10 4.476562-10 10v88.398438c0 5.519531 4.476563 10 10 10 5.519531 0 10-4.480469 10-10v-78.398438h332.121094v83.613281c0 5.523438 4.480469 10 10 10 5.523437 0 10-4.476562 10-10v-93.613281c0-5.523438-4.476563-10-10-10zm0 0"/><path d="m410.585938 157h-113.730469c-5.519531 0-10 4.480469-10 10.003906 0 5.519532 4.480469 10 10 10h113.730469c5.523437 0 10-4.480468 10-10 0-5.523437-4.476563-10.003906-10-10.003906zm0 0"/><path d="m410.585938 232.195312h-113.730469c-5.519531 0-10 4.476563-10 10 0 5.523438 4.480469 10 10 10h113.730469c5.523437 0 10-4.476562 10-10 0-5.523437-4.476563-10-10-10zm0 0"/><path d="m410.585938 307.390625h-113.730469c-5.519531 0-10 4.476563-10 10 0 5.519531 4.480469 10 10 10h113.730469c5.523437 0 10-4.480469 10-10 0-5.523437-4.476563-10-10-10zm0 0"/><path d="m410.585938 382.582031h-113.730469c-5.519531 0-10 4.476563-10 10 0 5.523438 4.480469 10 10 10h113.730469c5.523437 0 10-4.476562 10-10 0-5.523437-4.476563-10-10-10zm0 0"/><path d="m10.003906 207.316406c2.355469 0 4.722656-.828125 6.625-2.511718 31.5-27.886719 72.03125-43.242188 114.128906-43.242188 30.972657 0 60.523438 8.011719 86.703126 23.351562l-11.539063 1.714844c-5.460937.8125-9.230469 5.898438-8.417969 11.363282.738282 4.964843 5.007813 8.527343 9.878906 8.527343.488282 0 .984376-.035156 1.484376-.109375l36.6875-5.457031c5.234374-.777344 9.046874-5.730469 8.46875-10.988281l-4.050782-36.703125c-.605468-5.492188-5.554687-9.453125-11.039062-8.84375-5.488282.605469-9.449219 5.546875-8.84375 11.035156l1.625 14.699219c-30.242188-18.761719-64.730469-28.589844-100.957032-28.589844-46.984374 0-92.226562 17.140625-127.386718 48.265625-4.132813 3.660156-4.519532 9.980469-.859375 14.117187 1.976562 2.230469 4.726562 3.371094 7.492187 3.371094zm0 0"/><path d="m473.816406 152.027344c1.578125 3.792968 5.4375 6.320312 9.558594 6.175781 4.117188-.144531 7.8125-2.886719 9.140625-6.785156 1.34375-3.945313.023437-8.464844-3.253906-11.046875-3.285157-2.585938-7.933594-2.871094-11.492188-.660156-4.101562 2.546874-5.808593 7.859374-3.953125 12.316406zm0 0"/><path d="m410.585938 81.808594h-203.515626c-5.519531 0-10 4.476562-10 10 0 5.523437 4.480469 10 10 10h203.515626c5.523437 0 10-4.476563 10-10 0-5.523438-4.476563-10-10-10zm0 0"/></svg>