<svg id="Layer_3" enable-background="new 0 0 64 64" height="512" viewBox="0 0 64 64" width="512" xmlns="http://www.w3.org/2000/svg"><g><path d="m42 16c.381 0 .729-.216.897-.558s.128-.75-.104-1.052l-10-13c-.379-.492-1.207-.492-1.586 0l-10 13c-.232.302-.272.71-.104 1.052s.516.558.897.558h5v8.35c-2.327.826-4 3.043-4 5.65v1.282c-1.825-1.689-3.753-3.28-5.759-4.751l2.599-4.016c.204-.316.214-.721.024-1.046s-.543-.522-.923-.495l-17 1c-.317.019-.606.187-.779.453-.174.267-.21.599-.099.896l6 16c.133.354.453.603.829.643.384.044.742-.134.947-.451l2.959-4.575c4.654 3.486 8.686 7.653 12.03 12.396-2.287.924-3.828 3.139-3.828 5.664v9c0 .552.447 1 1 1h22c.553 0 1-.448 1-1v-9c0-2.525-1.541-4.74-3.829-5.664 3.344-4.743 7.377-8.909 12.03-12.395l2.959 4.574c.205.317.564.494.947.451.376-.041.696-.29.829-.643l6-16c.111-.297.075-.63-.099-.896-.173-.266-.462-.434-.779-.453l-17-1c-.372-.03-.733.169-.923.495s-.18.73.024 1.046l2.599 4.016c-2.006 1.471-3.933 3.063-5.759 4.751v-.282c0-1.897-1.327-3.489-3.102-3.898-.15-.658-.465-1.252-.897-1.742v-9.36zm-14-2h-3.969l7.969-10.36 7.969 10.36h-3.969c-.553 0-1 .448-1 1v9.142c-.321-.084-.653-.142-1-.142h-5v-9c0-.552-.447-1-1-1zm-3 25h-.5c-.827 0-1.5-.673-1.5-1.5s.673-1.5 1.5-1.5h.5zm-12.879-6.305c-.223-.161-.502-.221-.771-.171-.269.051-.505.21-.654.439l-2.457 3.798-4.827-12.871 13.676-.804-2.042 3.156c-.29.449-.176 1.048.261 1.358 2.727 1.939 5.31 4.111 7.693 6.452v.299c-1.178.564-2 1.758-2 3.149 0 1.93 1.57 3.5 3.5 3.5h.795c.457 1.531 1.425 2.841 2.705 3.736v1.483l-2.139.535c-3.746-5.451-8.359-10.183-13.74-14.059zm16.839 15.346 1.189.396-1.149 1.149-1.244-1.244zm2.945 4.959h.19l.8 8h-1.79zm.56-2h-.93l-.449-.673.914-.913.913.913zm2.535-1.414-1.149-1.149 1.189-.396 1.204.301zm-1-3.307-2 .667-2-.667v-.574c.634.19 1.305.295 2 .295s1.366-.105 2-.295zm-2-2.279c-2.757 0-5-2.243-5-5v-4h2.395c2.187 0 4.241-.916 5.693-2.498l1.912 1.912v4.586c0 2.757-2.243 5-5 5zm-10 9c0-1.896 1.284-3.54 3.122-4l.371-.093 2.8 2.8c.195.195.451.293.707.293.228 0 .45-.09.635-.245l.335.502-.875 8.743h-3.095v-6h-2v6h-2zm20 0v8h-2v-6h-2v6h-3.095l-.874-8.743.335-.502c.184.155.406.245.634.245.256 0 .512-.098.707-.293l2.8-2.8.371.093c1.838.46 3.122 2.104 3.122 4zm6.693-25.4c.437-.31.551-.909.261-1.358l-2.042-3.156 13.676.804-4.827 12.871-2.457-3.798c-.149-.23-.386-.389-.654-.439-.268-.048-.548.012-.77.171-5.382 3.876-9.995 8.608-13.741 14.059l-2.139-.535v-1.483c1.28-.895 2.248-2.206 2.705-3.736h.795c1.93 0 3.5-1.57 3.5-3.5 0-1.391-.822-2.585-2-3.149v-.299c2.383-2.341 4.966-4.513 7.693-6.452zm-9.693 8.4h.5c.827 0 1.5.673 1.5 1.5s-.673 1.5-1.5 1.5h-.5zm0-5v3c0-.265-.105-.52-.293-.707l-3-3c-.211-.211-.5-.318-.806-.288-.298.029-.567.191-.733.44-1.066 1.6-2.851 2.555-4.773 2.555h-3.395c-.553 0-1 .448-1 1v-4c0-2.206 1.794-4 4-4h5c1.103 0 2 .897 2 2 0 .552.447 1 1 1 1.103 0 2 .897 2 2z"/></g></svg>