<svg xmlns="http://www.w3.org/2000/svg" width="40.357" height="28.812" viewBox="0 0 40.357 28.812"><g transform="translate(0 -0.5)"><path d="M142.365,53.386a.786.786,0,0,1-.558-.231,9.046,9.046,0,0,0-12.778,0,.788.788,0,0,1-1.115-1.115,10.624,10.624,0,0,1,15.008,0,.788.788,0,0,1-.557,1.346Zm0,0" transform="translate(-117.619 -44.618)" fill="#fff"/><path d="M338.781,52.576a.786.786,0,0,1-.56-.233l-.01-.01a.788.788,0,1,1,1.11-1.119l.019.018a.788.788,0,0,1-.559,1.343Zm0,0" transform="translate(-311.338 -46.506)" fill="#fff"/><path d="M94.257,6.07A.788.788,0,0,1,93.7,4.725,14.273,14.273,0,0,1,102.282.59a14.5,14.5,0,0,1,9.142,2.022.788.788,0,0,1-.823,1.345A12.807,12.807,0,0,0,94.815,5.839a.785.785,0,0,1-.557.231Zm0,0" transform="translate(-86.101 0)" fill="#fff"/><path d="M135.419,265.586a10.578,10.578,0,0,1-7.5-3.1.788.788,0,0,1,1.115-1.115,9.046,9.046,0,0,0,12.778,0,.788.788,0,1,1,1.115,1.115,10.579,10.579,0,0,1-7.5,3.1Zm0,0" transform="translate(-117.62 -240.092)" fill="#fff"/><path d="M128.9,300.922a14.456,14.456,0,0,1-7.949-2.377.788.788,0,0,1,.869-1.316,12.887,12.887,0,0,0,16.157-1.647A.788.788,0,1,1,139.1,296.7a14.449,14.449,0,0,1-8.819,4.16C129.82,300.9,129.361,300.922,128.9,300.922Zm0,0" transform="translate(-111.096 -271.61)" fill="#fff"/><path d="M94.285,296.957a.786.786,0,0,1-.554-.228L93.7,296.7a.788.788,0,0,1,1.12-1.11l.021.021a.788.788,0,0,1-.554,1.349Zm0,0" transform="translate(-86.102 -271.611)" fill="#fff"/><path d="M191.624,152.128a2.913,2.913,0,1,1,2.913-2.913A2.917,2.917,0,0,1,191.624,152.128Zm0-4.25a1.337,1.337,0,1,0,1.337,1.337A1.338,1.338,0,0,0,191.624,147.878Zm0,0" transform="translate(-173.836 -134.308)" fill="#fff"/><path d="M2.913,100.809A2.916,2.916,0,0,1,0,97.9v-9.6a2.913,2.913,0,1,1,5.826,0v9.6A2.916,2.916,0,0,1,2.913,100.809Zm0-13.854a1.338,1.338,0,0,0-1.337,1.337v9.6a1.337,1.337,0,0,0,2.674,0v-9.6A1.338,1.338,0,0,0,2.913,86.956Zm0,0" transform="translate(0 -78.188)" fill="#fff"/><path d="M366.542,101.472a2.562,2.562,0,0,1-2.559-2.559v-7.7h-.85a2.559,2.559,0,0,1,0-5.118h6.818a2.559,2.559,0,1,1,0,5.118h-.85v7.7A2.562,2.562,0,0,1,366.542,101.472Zm-3.409-13.8a.983.983,0,0,0,0,1.965h1.638a.788.788,0,0,1,.788.788v8.485a.983.983,0,0,0,1.965,0V90.428a.788.788,0,0,1,.788-.788h1.638a.983.983,0,0,0,0-1.965Zm0,0" transform="translate(-332.153 -78.851)" fill="#fff"/><path d="M146.926,111.249a6.738,6.738,0,1,1,6.738-6.738A6.746,6.746,0,0,1,146.926,111.249Zm0-11.9a5.162,5.162,0,1,0,5.162,5.162A5.167,5.167,0,0,0,146.926,99.35Zm0,0" transform="translate(-129.138 -89.605)" fill="#fff"/></g></svg>