<?xml version="1.0"?>
<svg xmlns="http://www.w3.org/2000/svg" id="Layer_3" data-name="Layer 3" viewBox="0 0 64 64" width="512" height="512"><path d="M62,57H58V54.879c2.279-.558,4-2.981,4-5.879,0-3.309-2.243-6-5-6s-5,2.691-5,6c0,2.9,1.721,5.321,4,5.879V57H50V28a1,1,0,0,0-1-1H34V2a1,1,0,0,0-1-1H4A1,1,0,0,0,3,2V57H2a1,1,0,0,0-1,1v4a1,1,0,0,0,1,1H62a1,1,0,0,0,1-1V58A1,1,0,0,0,62,57Zm-8-8c0-2.206,1.346-4,3-4s3,1.794,3,4-1.346,4-3,4S54,51.206,54,49Zm-6,8H41V55a4,4,0,0,0-8,0v2H26V29H48Zm-9,0H35V55a2,2,0,0,1,4,0ZM28,27H25a1,1,0,0,0-1,1v1H22V21h6ZM24,43H22V35h2Zm0,14H15V49h9ZM5,3H32V27H30V20a1,1,0,0,0-1-1H21a1,1,0,0,0-1,1V30a1,1,0,0,0,1,1h3v2H21a1,1,0,0,0-1,1V44a1,1,0,0,0,1,1h3v2H14a1,1,0,0,0-1,1v9H5ZM61,61H3V59H61Z"/><path d="M9,17h8a1,1,0,0,0,1-1V6a1,1,0,0,0-1-1H9A1,1,0,0,0,8,6V16A1,1,0,0,0,9,17ZM10,7h6v8H10Z"/><path d="M21,17h8a1,1,0,0,0,1-1V6a1,1,0,0,0-1-1H21a1,1,0,0,0-1,1V16A1,1,0,0,0,21,17ZM22,7h6v8H22Z"/><path d="M9,31h8a1,1,0,0,0,1-1V20a1,1,0,0,0-1-1H9a1,1,0,0,0-1,1V30A1,1,0,0,0,9,31Zm1-10h6v8H10Z"/><path d="M17,45a1,1,0,0,0,1-1V34a1,1,0,0,0-1-1H9a1,1,0,0,0-1,1V44a1,1,0,0,0,1,1ZM10,35h6v8H10Z"/><path d="M29,39h6a1,1,0,0,0,1-1V32a1,1,0,0,0-1-1H29a1,1,0,0,0-1,1v6A1,1,0,0,0,29,39Zm1-6h4v4H30Z"/><path d="M39,39h6a1,1,0,0,0,1-1V32a1,1,0,0,0-1-1H39a1,1,0,0,0-1,1v6A1,1,0,0,0,39,39Zm1-6h4v4H40Z"/><path d="M29,49h6a1,1,0,0,0,1-1V42a1,1,0,0,0-1-1H29a1,1,0,0,0-1,1v6A1,1,0,0,0,29,49Zm1-6h4v4H30Z"/><path d="M39,49h6a1,1,0,0,0,1-1V42a1,1,0,0,0-1-1H39a1,1,0,0,0-1,1v6A1,1,0,0,0,39,49Zm1-6h4v4H40Z"/><path d="M39.081,23.606A1,1,0,0,0,40,25a.989.989,0,0,0,.394-.081l4.181-1.792a12.014,12.014,0,1,0-3.7-3.7ZM51,3a10,10,0,1,1-5.745,18.177,1,1,0,0,0-.969-.1L41.9,22.1l1.021-2.382a1,1,0,0,0-.1-.97A9.989,9.989,0,0,1,51,3Z"/><path d="M50.148,20.524a1,1,0,0,0,1.7,0l4.336-7.042A5.4,5.4,0,0,0,56.417,8.2a5.849,5.849,0,0,0-4.762-3.172,7.382,7.382,0,0,0-1.313,0A5.849,5.849,0,0,0,45.583,8.2a5.4,5.4,0,0,0,.229,5.281ZM47.371,9.1a3.861,3.861,0,0,1,3.151-2.075C50.679,7.008,50.839,7,51,7s.321.008.475.021A3.862,3.862,0,0,1,54.629,9.1a3.371,3.371,0,0,1-.144,3.338L51,18.093l-3.485-5.659A3.371,3.371,0,0,1,47.371,9.1Z"/><path d="M51,14a3,3,0,1,0-3-3A3,3,0,0,0,51,14Zm0-4a1,1,0,1,1-1,1A1,1,0,0,1,51,10Z"/></svg>
