<svg id="Layer_1" height="512" viewBox="0 0 64 64" width="512" xmlns="http://www.w3.org/2000/svg" data-name="Layer 1"><path d="m39.944 34.193a1.63 1.63 0 0 0 -.182-1.276l-1.128-1.868a1.734 1.734 0 0 0 -2.3-.6l-.259.144a6.885 6.885 0 0 0 -1.243-.694v-.223a1.69 1.69 0 0 0 -1.705-1.676h-2.254a1.69 1.69 0 0 0 -1.7 1.672v.228a6.885 6.885 0 0 0 -1.243.694l-.26-.145a1.731 1.731 0 0 0 -2.3.606l-1.127 1.866a1.629 1.629 0 0 0 -.183 1.277 1.685 1.685 0 0 0 .813 1.035l.215.118a6.307 6.307 0 0 0 0 1.308l-.216.119a1.682 1.682 0 0 0 -.812 1.034 1.63 1.63 0 0 0 .182 1.276l1.128 1.868a1.732 1.732 0 0 0 2.3.6l.259-.144a6.885 6.885 0 0 0 1.243.694v.223a1.69 1.69 0 0 0 1.701 1.671h2.254a1.69 1.69 0 0 0 1.7-1.672v-.223a6.885 6.885 0 0 0 1.243-.694l.26.145a1.731 1.731 0 0 0 2.3-.606l1.127-1.866a1.629 1.629 0 0 0 .183-1.277 1.685 1.685 0 0 0 -.813-1.035l-.215-.118a6.307 6.307 0 0 0 0-1.308l.216-.119a1.682 1.682 0 0 0 .816-1.034zm-2.994 1.807a4.471 4.471 0 0 1 -.045.627 1.642 1.642 0 0 0 .853 1.673l.106.057-.8 1.319-.179-.1a1.756 1.756 0 0 0 -1.875.135 4.991 4.991 0 0 1 -1.1.608 1.688 1.688 0 0 0 -1.086 1.558v.123h-1.655v-.123a1.688 1.688 0 0 0 -1.086-1.558 4.983 4.983 0 0 1 -1.1-.609 1.753 1.753 0 0 0 -1.875-.133l-.178.1-.8-1.319.109-.059a1.639 1.639 0 0 0 .85-1.67 4.4 4.4 0 0 1 0-1.255 1.642 1.642 0 0 0 -.853-1.673l-.106-.057.8-1.319.179.1a1.756 1.756 0 0 0 1.875-.135 4.991 4.991 0 0 1 1.1-.608 1.688 1.688 0 0 0 1.086-1.558v-.124h1.662v.123a1.688 1.688 0 0 0 1.086 1.558 4.983 4.983 0 0 1 1.1.609 1.755 1.755 0 0 0 1.875.133l.178-.1.8 1.319-.109.059a1.639 1.639 0 0 0 -.85 1.67 4.5 4.5 0 0 1 .038.629z"/><path d="m32 32.5a3.5 3.5 0 1 0 3.5 3.5 3.5 3.5 0 0 0 -3.5-3.5zm0 5a1.5 1.5 0 1 1 1.5-1.5 1.5 1.5 0 0 1 -1.5 1.5z"/><path d="m37 10v-8a1 1 0 0 0 -1-1h-8a1 1 0 0 0 -1 1v8a1 1 0 0 0 1 1h8a1 1 0 0 0 1-1zm-2-1h-6v-6h6z"/><path d="m10 53h-8a1 1 0 0 0 -1 1v8a1 1 0 0 0 1 1h8a1 1 0 0 0 1-1v-8a1 1 0 0 0 -1-1zm-1 8h-6v-6h6z"/><path d="m36 53h-8a1 1 0 0 0 -1 1v8a1 1 0 0 0 1 1h8a1 1 0 0 0 1-1v-8a1 1 0 0 0 -1-1zm-1 8h-6v-6h6z"/><path d="m62 53h-8a1 1 0 0 0 -1 1v8a1 1 0 0 0 1 1h8a1 1 0 0 0 1-1v-8a1 1 0 0 0 -1-1zm-1 8h-6v-6h6z"/><path d="m31 13v6h-2a1 1 0 0 0 -.857 1.515l3 5a1 1 0 0 0 1.714 0l3-5a1 1 0 0 0 -.857-1.515h-2v-6zm2.234 8-1.234 2.057-1.234-2.057z"/><path d="m5 36v15h2v-14h15v-2h-16a1 1 0 0 0 -1 1z"/><path d="m57 51h2v-15a1 1 0 0 0 -1-1h-16v2h15z"/><path d="m31 46h2v5h-2z"/></svg>