<?xml version="1.0" encoding="UTF-8"?>
<svg xmlns="http://www.w3.org/2000/svg" id="Icons" viewBox="0 0 60 60" width="512" height="512"><path d="M15,42a3,3,0,0,0,3,3H42a3,3,0,0,0,3-3V18a3,3,0,0,0-3-3H18a3,3,0,0,0-3,3ZM25,17H35v8.915L30.576,22.8a1,1,0,0,0-1.152,0L25,25.968Zm-8,1a1,1,0,0,1,1-1h5v9.1a1.908,1.908,0,0,0,3.011,1.545L30,24.836l3.989,2.813a1.909,1.909,0,0,0,1.987.134A1.887,1.887,0,0,0,37,26.1V17h5a1,1,0,0,1,1,1V42a1,1,0,0,1-1,1H18a1,1,0,0,1-1-1Z"/><path d="M2.062,40.949a2.978,2.978,0,0,0,1.706,1.688A3.022,3.022,0,0,0,6.2,42.521a2.986,2.986,0,0,0,1.448-3.787,23.951,23.951,0,0,1,4.678-24.945l.148.149a1.879,1.879,0,0,0,2.057.414,1.96,1.96,0,0,0,1.23-1.781l.05-4.657a1.863,1.863,0,0,0-.534-1.344A1.9,1.9,0,0,0,13.9,6l-4.659.06A1.931,1.931,0,0,0,7.47,7.269a1.912,1.912,0,0,0,.413,2.079l.194.194A30,30,0,0,0,2.062,40.949Zm8.126-30.712a1,1,0,0,0,0-1.415l-.767-.765,4.389-.088-.023,4.454-.77-.77a1,1,0,0,0-.707-.293h0a1,1,0,0,0-.707.293A25.953,25.953,0,0,0,5.786,39.466a1,1,0,0,1-.479,1.265,1.038,1.038,0,0,1-.823.04.97.97,0,0,1-.56-.552,27.993,27.993,0,0,1,6.264-29.982Z"/><path d="M14.352,45.471A1.958,1.958,0,0,0,12.57,44.24l-4.655-.05a1.853,1.853,0,0,0-1.346.534A1.9,1.9,0,0,0,6,46.1l.06,4.66A1.933,1.933,0,0,0,7.27,52.53a1.91,1.91,0,0,0,2.077-.413l.2-.2a29.995,29.995,0,0,0,31.407,6.016,2.978,2.978,0,0,0,1.688-1.706,3.028,3.028,0,0,0-.116-2.431,2.989,2.989,0,0,0-3.787-1.448,23.951,23.951,0,0,1-24.945-4.678l.148-.148A1.879,1.879,0,0,0,14.352,45.471ZM30,56a25.754,25.754,0,0,0,9.466-1.786,1,1,0,0,1,1.265.479,1.03,1.03,0,0,1,.04.823.97.97,0,0,1-.552.56,27.995,27.995,0,0,1-29.982-6.263,1,1,0,0,0-1.414,0l-.766.766L7.97,46.19l4.453.023-.77.77a1.007,1.007,0,0,0-.293.708,1,1,0,0,0,.294.707A25.808,25.808,0,0,0,30,56Z"/><path d="M56.233,17.363a3.023,3.023,0,0,0-2.432.116,2.986,2.986,0,0,0-1.448,3.787,23.951,23.951,0,0,1-4.678,24.945l-.148-.148a1.881,1.881,0,0,0-2.056-.415A1.958,1.958,0,0,0,44.24,47.43l-.05,4.655a1.87,1.87,0,0,0,.534,1.346A1.9,1.9,0,0,0,46.1,54l4.66-.06a1.933,1.933,0,0,0,1.767-1.21,1.912,1.912,0,0,0-.413-2.077l-.2-.2A30,30,0,0,0,57.938,19.05,2.987,2.987,0,0,0,56.233,17.363Zm-6.421,32.4a1,1,0,0,0,0,1.414l.767.766-4.389.087.023-4.453.77.77a1,1,0,0,0,.707.293h0a1,1,0,0,0,.707-.294,25.951,25.951,0,0,0,5.816-27.812,1,1,0,0,1,.479-1.265,1.018,1.018,0,0,1,.823-.039.966.966,0,0,1,.56.551,27.993,27.993,0,0,1-6.264,29.982Z"/><path d="M21.266,7.647a23.95,23.95,0,0,1,24.945,4.679l-.148.147a1.882,1.882,0,0,0-.416,2.056A1.959,1.959,0,0,0,47.43,15.76l4.657.05h.031a1.866,1.866,0,0,0,1.314-.535A1.905,1.905,0,0,0,54,13.9l-.06-4.66a1.934,1.934,0,0,0-3.287-1.355l-.2.2A29.99,29.99,0,0,0,19.051,2.063a2.981,2.981,0,0,0-1.688,1.7A3.03,3.03,0,0,0,17.479,6.2,2.985,2.985,0,0,0,21.266,7.647ZM19.229,4.484a.968.968,0,0,1,.552-.559,27.991,27.991,0,0,1,29.982,6.262,1,1,0,0,0,1.414,0l.766-.767.087,4.389-4.453-.022.77-.771a1,1,0,0,0,0-1.415A25.953,25.953,0,0,0,20.533,5.786a1,1,0,0,1-1.264-.479A1.03,1.03,0,0,1,19.229,4.484Z"/></svg>
