<svg id="Layer_1" height="512" viewBox="0 0 64 64" width="512" xmlns="http://www.w3.org/2000/svg" data-name="Layer 1"><path d="m60 26h-3.73a24.66 24.66 0 0 0 -2.87-6.92l2.6-2.64a1 1 0 0 0 0-1.44l-7-7a1 1 0 0 0 -1.41 0l-2.67 2.6a24.66 24.66 0 0 0 -6.92-2.87v-3.73a1 1 0 0 0 -1-1h-10a1 1 0 0 0 -1 1v3.73a24.66 24.66 0 0 0 -6.92 2.87l-2.64-2.6a1 1 0 0 0 -1.44 0l-7 7a1 1 0 0 0 0 1.41l2.64 2.64a24.66 24.66 0 0 0 -2.91 6.95h-3.73a1 1 0 0 0 -1 1v10a1 1 0 0 0 1 1h3.73a24.66 24.66 0 0 0 2.87 6.92l-2.6 2.64a1 1 0 0 0 0 1.44l7 7a1 1 0 0 0 1.41 0l2.64-2.64a24.66 24.66 0 0 0 6.95 2.91v3.73a1 1 0 0 0 1 1h10a1 1 0 0 0 1-1v-3.73a24.66 24.66 0 0 0 6.92-2.87l2.64 2.6a1 1 0 0 0 1.44 0l7-7a1 1 0 0 0 0-1.41l-2.6-2.67a24.66 24.66 0 0 0 2.87-6.92h3.73a1 1 0 0 0 1-1v-10a1 1 0 0 0 -1-1zm-1 10h-3.53a1 1 0 0 0 -1 .79 22.76 22.76 0 0 1 -3.21 7.72 1 1 0 0 0 .13 1.26l2.5 2.49-5.66 5.66-2.49-2.5a1 1 0 0 0 -1.26-.13 22.76 22.76 0 0 1 -7.72 3.21 1 1 0 0 0 -.79 1v3.5h-7.97v-3.53a1 1 0 0 0 -.79-1 22.76 22.76 0 0 1 -7.72-3.21 1 1 0 0 0 -1.26.13l-2.49 2.5-5.66-5.66 2.5-2.49a1 1 0 0 0 .13-1.26 22.76 22.76 0 0 1 -3.21-7.69 1 1 0 0 0 -1-.79h-3.5v-8h3.53a1 1 0 0 0 1-.79 22.76 22.76 0 0 1 3.21-7.72 1 1 0 0 0 -.13-1.26l-2.5-2.49 5.66-5.66 2.49 2.5a1 1 0 0 0 1.26.13 22.76 22.76 0 0 1 7.69-3.21 1 1 0 0 0 .79-1v-3.5h8v3.53a1 1 0 0 0 .79 1 22.76 22.76 0 0 1 7.72 3.21 1 1 0 0 0 1.26-.13l2.49-2.5 5.66 5.66-2.5 2.49a1 1 0 0 0 -.13 1.26 22.76 22.76 0 0 1 3.21 7.72 1 1 0 0 0 1 .79h3.5z"/><path d="m33 19h2v2h-2z"/><path d="m33 23h2v2h-2z"/><path d="m33 27h2v2h-2z"/><path d="m37 21h2v2h-2z"/><path d="m41 23h2v2h-2z"/><path d="m37 25h2v2h-2z"/><path d="m29 19h2v2h-2z"/><path d="m29 23h2v2h-2z"/><path d="m29 27h2v2h-2z"/><path d="m25 21h2v2h-2z"/><path d="m25 25h2v2h-2z"/><path d="m21 23h2v2h-2z"/><path d="m32 14a18 18 0 1 0 18 18 18 18 0 0 0 -18-18zm9 31.22a16 16 0 0 1 -18 0v-12.22h5v10a1 1 0 0 0 .62.92 1 1 0 0 0 1.09-.21l2.29-2.3 2.29 2.3a1 1 0 0 0 .71.29.84.84 0 0 0 .38-.08 1 1 0 0 0 .62-.92v-10h5zm-11-4.63v-7.59h4v7.59l-1.29-1.3a1 1 0 0 0 -1.42 0zm13 3v-11.59a1 1 0 0 0 -1-1h-20a1 1 0 0 0 -1 1v11.59a16 16 0 1 1 22 0z"/></svg>