<svg height="512" viewBox="0 0 24 24" width="512" xmlns="http://www.w3.org/2000/svg"><g id="direction/trend-up-right" fill="none" fill-rule="evenodd"><path id="Fill-190" d="m2.50015 15.9981c.128 0 .256-.049.354-.146l5.646-5.647 4.646 4.647c.196.195.512.195.708 0l6.146-6.147v2.793c0 .276.224.5.5.5s.5001488-.224.5001488-.5v-3.998c.0068512-.272-.2341488-.508-.5011488-.502h-3.999c-.276 0-.5.224-.5.5s.224.5.5.5h2.793l-5.793 5.793-4.646-4.647c-.196-.195-.512-.195-.708 0l-6 6c-.195.196-.195.512 0 .708.098.097.226.146.354.146" fill="rgb(0,0,0)"/></g></svg>