<svg id="Capa_1" enable-background="new 0 0 512.059 512.059" height="512" viewBox="0 0 512.059 512.059" width="512" xmlns="http://www.w3.org/2000/svg"><g><path d="m353.931 311.504c4.559-8.028 8.089-16.559 10.544-25.475h35.055v-60h-35.055c-2.455-8.917-5.986-17.447-10.544-25.475l24.783-24.782-42.427-42.426-24.782 24.782c-8.028-4.558-16.558-8.089-25.475-10.544v-35.055h-60v35.055c-8.918 2.455-17.447 5.985-25.476 10.544l-24.782-24.782-42.427 42.426 24.783 24.782c-4.559 8.028-8.089 16.559-10.544 25.475h-35.055v60h35.055c2.455 8.917 5.986 17.447 10.544 25.475l-24.783 24.782 42.427 42.426 24.782-24.782c8.028 4.559 16.559 8.089 25.476 10.544v35.055h60v-35.055c8.917-2.455 17.447-5.986 25.475-10.544l24.782 24.782 42.427-42.426zm-40.243 23.398-5.083 3.261c-9.712 6.232-20.37 10.643-31.676 13.112l-5.9 1.289v31.967h-30v-31.967l-5.9-1.289c-11.307-2.468-21.964-6.88-31.677-13.112l-5.083-3.261-22.597 22.598-21.213-21.213 22.598-22.597-3.261-5.083c-6.232-9.713-10.644-20.371-13.112-31.677l-1.289-5.9h-31.966v-30h31.966l1.289-5.9c2.468-11.306 6.88-21.963 13.112-31.676l3.261-5.083-22.598-22.598 21.213-21.213 22.598 22.598 5.083-3.261c9.711-6.231 20.369-10.643 31.677-13.112l5.9-1.288v-31.966h30v31.966l5.9 1.288c11.308 2.47 21.965 6.881 31.676 13.112l5.083 3.261 22.598-22.598 21.213 21.213-22.598 22.598 3.261 5.083c6.232 9.713 10.644 20.37 13.112 31.676l1.289 5.9h31.966v30h-31.966l-1.289 5.9c-2.468 11.306-6.88 21.964-13.112 31.677l-3.261 5.083 22.598 22.597-21.213 21.213z"/><path d="m256.029 181.029c-41.355 0-75 33.645-75 75s33.645 75 75 75c11.319 0 22.199-2.461 32.338-7.314l-6.477-13.53c-8.102 3.878-16.803 5.845-25.862 5.845-33.084 0-60-26.916-60-60s26.916-60 60-60 60 26.916 60 60c0 9.057-1.966 17.758-5.845 25.862l13.53 6.475c4.854-10.142 7.314-21.021 7.314-32.337.002-41.356-33.643-75.001-74.998-75.001z"/><path d="m296.255 296.255h15v15h-15z" transform="matrix(.688 -.725 .725 .688 -125.672 315.008)"/><path d="m97.528 263.529v-15h-24.538l-15-25.981h-38.66l-19.33 33.481 19.33 33.481h38.66l15-25.981zm-48.198 10.981h-21.34l-10.67-18.481 10.67-18.481h21.34l10.67 18.481z"/><path d="m138.649 362.803-17.351 17.351-28.978-7.765-27.337 27.337 10.006 37.343 37.343 10.006 27.337-27.337-7.765-28.978 17.351-17.351zm-30.799 67.542-20.613-5.523-5.523-20.613 15.09-15.089 20.612 5.523 5.523 20.612z"/><path d="m373.41 149.255 17.351-17.351 28.978 7.765 27.337-27.337-10.006-37.343-37.343-10.006-27.338 27.337 7.765 28.978-17.351 17.351zm30.799-67.542 20.613 5.523 5.523 20.613-15.09 15.089-20.612-5.523-5.523-20.612z"/><path d="m263.529 414.53h-15v24.539l-25.981 15v38.66l33.481 19.33 33.481-19.33v-38.66l-25.981-15zm10.981 69.538-18.481 10.67-18.481-10.67v-21.34l18.481-10.67 18.481 10.67z"/><path d="m248.529 97.528h15v-24.538l25.981-15v-38.66l-33.481-19.33-33.481 19.33v38.66l25.981 15zm-10.981-69.538 18.481-10.67 18.481 10.67v21.34l-18.481 10.67-18.481-10.67z"/><path d="m492.729 222.548h-38.66l-15 25.981h-24.539v15h24.539l15 25.981h38.66l19.33-33.481zm-8.661 51.962h-21.34l-10.67-18.481 10.67-18.481h21.34l10.67 18.481z"/><path d="m390.76 380.154-17.351-17.351-10.606 10.606 17.351 17.351-7.765 28.978 27.337 27.337 37.343-10.006 10.006-37.343-27.337-27.337zm34.062 44.668-20.613 5.523-15.089-15.09 5.523-20.612 20.612-5.523 15.09 15.089z"/><path d="m121.298 131.905 17.351 17.351 10.606-10.606-17.351-17.351 7.765-28.978-27.337-27.337-37.343 10.005-10.006 37.343 27.337 27.337zm-34.062-44.669 20.613-5.523 15.089 15.09-5.523 20.612-20.612 5.523-15.09-15.089z"/><path d="m248.529 218.529h15v15h-15z"/><path d="m278.529 233.529h15v15h-15z"/></g></svg>