<svg xmlns="http://www.w3.org/2000/svg" width="40.181" height="40.179" viewBox="0 0 40.181 40.179"><g transform="translate(-1 -1.002)"><path d="M21.7,17a4.19,4.19,0,0,0-4.428,3.888,3.006,3.006,0,0,0,.04.483A3.862,3.862,0,0,0,15,24.777a3.55,3.55,0,0,0,.832,2.268A3.55,3.55,0,0,0,15,29.313a3.828,3.828,0,0,0,2.272,3.4A4.217,4.217,0,0,0,21.7,36.442a4.626,4.626,0,0,0,3.514-1.537.649.649,0,0,0,.159-.425V18.962a.649.649,0,0,0-.159-.425A4.626,4.626,0,0,0,21.7,17Zm0,18.146a2.971,2.971,0,0,1-3.08-2.269,2.478,2.478,0,0,0,1.842-2.345h-1.3a1.2,1.2,0,0,1-1.024,1.139A2.62,2.62,0,0,1,16.3,29.313a2.362,2.362,0,0,1,.863-1.78.648.648,0,0,0,0-.977,2.362,2.362,0,0,1-.863-1.78,2.637,2.637,0,0,1,1.98-2.4l.005,0a1.214,1.214,0,0,1,1.121,1.15h1.3a2.5,2.5,0,0,0-2.112-2.416,1.725,1.725,0,0,1-.021-.218A2.9,2.9,0,0,1,21.7,18.3a3.375,3.375,0,0,1,2.376.922v6.027a3.155,3.155,0,0,0-2.355,2.09l-.031.093,1.229.41.031-.093a1.867,1.867,0,0,1,1.126-1.158v7.638a3.375,3.375,0,0,1-2.376.922Z" transform="translate(-4.927 -5.63)" fill="#fff"/><path d="M34.847,19.976a.648.648,0,0,0,.523.265h1.177a1.939,1.939,0,1,0-.238-1.3H35.7l-1.232-1.68A.648.648,0,0,0,33.944,17H32v1.3h1.616Zm3.374-1.356a.648.648,0,1,1-.648.648.648.648,0,0,1,.648-.648Z" transform="translate(-10.91 -5.63)" fill="#fff"/><path d="M39.319,25.944h-2.66l-1.36-1.7A.649.649,0,0,0,34.793,24H32.2v1.3h2.281l1.36,1.7a.649.649,0,0,0,.506.243h2.971a1.944,1.944,0,1,0,0-1.3Zm2.473.648a.648.648,0,1,1-.648-.648.648.648,0,0,1,.648.648Z" transform="translate(-10.98 -8.093)" fill="#fff"/><path d="M38.221,40.5a1.938,1.938,0,0,0-1.674.972H35.37a.648.648,0,0,0-.523.265l-1.232,1.68H32v1.3h1.944a.648.648,0,0,0,.523-.265l1.232-1.68h.611A1.942,1.942,0,1,0,38.221,40.5Zm0,2.592a.648.648,0,1,1,.648-.648A.648.648,0,0,1,38.221,43.092Z" transform="translate(-10.91 -13.9)" fill="#fff"/><path d="M40.943,33a1.941,1.941,0,0,0-1.825,1.3H36.148a.649.649,0,0,0-.506.243l-1.361,1.7H32v1.3h2.592a.649.649,0,0,0,.506-.243l1.361-1.7h2.659A1.941,1.941,0,1,0,40.943,33Zm0,2.592a.648.648,0,1,1,.648-.648A.648.648,0,0,1,40.943,35.592Z" transform="translate(-10.91 -11.261)" fill="#fff"/><path d="M40.164,16.7H38.9a1.234,1.234,0,0,1-1.15-.9,17.4,17.4,0,0,0-1.14-2.745,1.235,1.235,0,0,1,.177-1.452l.9-.9a.648.648,0,0,0,.079-.82A20.073,20.073,0,0,0,32.3,4.417a.648.648,0,0,0-.82.079l-.9.9a1.236,1.236,0,0,1-1.452.178A17.376,17.376,0,0,0,26.381,4.43a1.234,1.234,0,0,1-.9-1.15V2.017a.648.648,0,0,0-.524-.636,19.928,19.928,0,0,0-7.734,0,.648.648,0,0,0-.524.636V3.28a1.234,1.234,0,0,1-.9,1.15,17.4,17.4,0,0,0-2.745,1.14A1.232,1.232,0,0,1,11.6,5.393l-.9-.9a.647.647,0,0,0-.82-.079A20.073,20.073,0,0,0,4.416,9.885a.648.648,0,0,0,.079.82l.9.9a1.235,1.235,0,0,1,.178,1.452A17.376,17.376,0,0,0,4.429,15.8a1.234,1.234,0,0,1-1.15.9H2.016a.648.648,0,0,0-.636.524,19.847,19.847,0,0,0,0,7.734.648.648,0,0,0,.636.524H3.279a1.234,1.234,0,0,1,1.15.9,17.4,17.4,0,0,0,1.14,2.745,1.235,1.235,0,0,1-.177,1.452l-.9.9a.648.648,0,0,0-.079.82,20.073,20.073,0,0,0,5.468,5.468.645.645,0,0,0,.82-.079l.9-.9a1.234,1.234,0,0,1,1.452-.178A17.376,17.376,0,0,0,15.8,37.753a1.234,1.234,0,0,1,.9,1.15v1.263a.648.648,0,0,0,.524.636,19.847,19.847,0,0,0,7.734,0,.648.648,0,0,0,.524-.636V38.9a1.234,1.234,0,0,1,.9-1.15,17.4,17.4,0,0,0,2.745-1.14,1.235,1.235,0,0,1,1.452.177l.9.9a.647.647,0,0,0,.82.079A20.073,20.073,0,0,0,37.765,32.3a.648.648,0,0,0-.079-.82l-.9-.9a1.235,1.235,0,0,1-.178-1.452,17.376,17.376,0,0,0,1.141-2.746,1.234,1.234,0,0,1,1.15-.9h1.263a.648.648,0,0,0,.636-.524,19.847,19.847,0,0,0,0-7.734.648.648,0,0,0-.636-.524Zm-.541,7.486H38.9a2.525,2.525,0,0,0-2.385,1.8,16.047,16.047,0,0,1-1.056,2.54,2.526,2.526,0,0,0,.411,2.966l.515.515a18.753,18.753,0,0,1-4.376,4.376l-.515-.515a2.522,2.522,0,0,0-2.967-.411,16.072,16.072,0,0,1-2.54,1.055,2.525,2.525,0,0,0-1.8,2.385v.721a18.541,18.541,0,0,1-6.19,0V38.9a2.525,2.525,0,0,0-1.8-2.385,16.048,16.048,0,0,1-2.54-1.056,2.524,2.524,0,0,0-2.966.411l-.515.515a18.753,18.753,0,0,1-4.376-4.376l.515-.515a2.526,2.526,0,0,0,.411-2.967,16.072,16.072,0,0,1-1.055-2.54,2.525,2.525,0,0,0-2.385-1.8H2.558a18.452,18.452,0,0,1,0-6.19h.721a2.525,2.525,0,0,0,2.385-1.8,16.047,16.047,0,0,1,1.056-2.54,2.526,2.526,0,0,0-.411-2.966l-.515-.515a18.753,18.753,0,0,1,4.376-4.376l.515.515a2.524,2.524,0,0,0,2.967.411,16.072,16.072,0,0,1,2.54-1.055A2.525,2.525,0,0,0,18,3.28V2.558a18.541,18.541,0,0,1,6.19,0V3.28a2.525,2.525,0,0,0,1.8,2.385,16.048,16.048,0,0,1,2.54,1.056,2.527,2.527,0,0,0,2.966-.411l.515-.515a18.753,18.753,0,0,1,4.376,4.376l-.515.515a2.526,2.526,0,0,0-.411,2.967,16.073,16.073,0,0,1,1.055,2.54A2.525,2.525,0,0,0,38.9,18h.721a18.452,18.452,0,0,1,0,6.19Z" fill="#fff"/><path d="M24.258,10A14.258,14.258,0,1,0,38.515,24.258,14.258,14.258,0,0,0,24.258,10Zm0,27.219A12.962,12.962,0,1,1,37.219,24.258,12.962,12.962,0,0,1,24.258,37.219Z" transform="translate(-3.167 -3.166)" fill="#fff"/><rect width="1" height="2" transform="translate(22 18.002)" fill="#fff"/><rect width="1" height="1" transform="translate(23 21.002)" fill="#fff"/></g></svg>