<?xml version="1.0"?>
<svg xmlns="http://www.w3.org/2000/svg" viewBox="0 0 512 512" width="512" height="512"><g id="OUTLINE"><path d="M464.11475,234.29883l33.59228-17.7793-22.68994-69.05469-37.65625,5.14063-25.83887-35.166,16.76612-34.24316L369.00586,40.57715,341.29443,66.87988,299.394,53.40918,292.60889,16H219.39062l-6.78515,37.40918-41.90039,13.4707-27.71-26.30176L83.7124,83.19727,100.478,117.43945l-25.83887,35.167-37.65723-5.14063L14.29346,216.52051l33.59179,17.77832v43.40234L14.293,295.48047l22.68994,69.05469,37.65625-5.14063,25.83887,35.166L83.71191,428.80371l59.28272,42.61914,27.71094-26.30273,41.90039,13.4707L219.39111,496h73.21827l6.78515-37.40918,41.90039-13.4707,27.71,26.30176,59.28321-42.61915L411.522,394.56055l25.83936-35.167,37.65674,5.14063,22.689-69.05469-33.5918-17.77832Zm-.1377,112.5791-33.87744-4.623-37.2085,50.63965,15.0835,30.80664-37.55859,27-24.98633-23.71582L285.36328,446.294,279.25,480H232.75049L226.63721,446.294l-60.06641-19.3086-24.9873,23.7168-37.5586-27,15.084-30.80762-37.209-50.64062-33.87695,4.625L33.707,303.30859l30.17822-15.97265V224.66406L33.707,208.69238l14.31543-43.57129,33.87842,4.624,37.208-50.63965-15.0835-30.80664,37.55859-27,24.98633,23.71582,60.06641-19.3086L232.75,32h46.49951l6.11328,33.70605,60.06641,19.3086L370.417,61.29785l37.55762,27-15.0835,30.80762,37.2085,50.64062,33.87744-4.625L478.293,208.69141l-30.17822,15.97265.00048,62.67188,30.17823,15.97168Z"/><path d="M256,88C163.36426,88,88,163.36426,88,256s75.36426,168,168,168,168-75.36426,168-168S348.63574,88,256,88Zm0,320c-83.813,0-152-68.18652-152-152s68.187-152,152-152,152,68.18652,152,152S339.813,408,256,408Z"/><path d="M348.09277,180.459l-79.99951-46.666a24.03388,24.03388,0,0,0-24.186,0l-80.001,46.666A24.08288,24.08288,0,0,0,152,201.18945v109.6211A24.0817,24.0817,0,0,0,163.90723,331.541l79.99951,46.666a24.03622,24.03622,0,0,0,24.186,0l80.001-46.666A24.08288,24.08288,0,0,0,360,310.81055V201.18945A24.0817,24.0817,0,0,0,348.09277,180.459Zm-96.12353-32.8457a8.01207,8.01207,0,0,1,8.062,0L336.12305,192l-76.09229,44.38672a8.009,8.009,0,0,1-8.062,0l-13.40735-7.8208,38.17151-22.90283L231.4043,179.002l-38.35712,23.01416-17.17065-10.01635ZM199.44482,224.271l16.01233,9.34033-.00793,23.52637-16.0044-9.40821Zm9.37012-13.05713,22.67041-13.60254,13.92139,8.18847-22.61341,13.56812ZM171.96973,317.7207A8.02754,8.02754,0,0,1,168,310.81055V205.92822l15.44482,9.00928v41.94629l47.99561,28.21289.01379-42.15356,12.45252,7.26391A23.91708,23.91708,0,0,0,248,252.09424V362.07153Zm168.06152,0L264,362.07129v-109.977a23.8974,23.8974,0,0,0,4.09277-1.88721L344,205.928V310.81055A8.02872,8.02872,0,0,1,340.03125,317.7207Z"/></g></svg>
