<?xml version="1.0" encoding="UTF-8"?>
<svg xmlns="http://www.w3.org/2000/svg" id="Icons" viewBox="0 0 60 60" width="512" height="512"><path d="M56,0H4A4,4,0,0,0,0,4V50a4,4,0,0,0,4,4H14.151a23.933,23.933,0,0,0,31.7,0H56a4,4,0,0,0,4-4V4A4,4,0,0,0,56,0ZM4,2H56a2,2,0,0,1,2,2V8H2V4A2,2,0,0,1,4,2ZM8,36A22,22,0,1,1,30,58,22.025,22.025,0,0,1,8,36ZM56,52H47.869a24,24,0,1,0-35.738,0H4a2,2,0,0,1-2-2V10H58V50A2,2,0,0,1,56,52Z"/><path d="M30,16A20,20,0,1,0,50,36,20.023,20.023,0,0,0,30,16ZM47.949,35H32.816A3,3,0,0,0,31,33.184V18.051A17.994,17.994,0,0,1,47.949,35ZM31,36a1,1,0,1,1-1-1A1,1,0,0,1,31,36ZM30,54a17.988,17.988,0,0,1-1-35.949V33.184A2.993,2.993,0,1,0,32.816,37H47.949A18.007,18.007,0,0,1,30,54Z"/><path d="M5,6H6A1,1,0,0,0,6,4H5A1,1,0,0,0,5,6Z"/><path d="M10,6h1a1,1,0,0,0,0-2H10a1,1,0,0,0,0,2Z"/><path d="M15,6h1a1,1,0,0,0,0-2H15a1,1,0,0,0,0,2Z"/><path d="M49,6h6a1,1,0,0,0,0-2H49a1,1,0,0,0,0,2Z"/><path d="M43.7,39.042a1,1,0,0,0-1.244.672A13,13,0,1,1,26.286,23.54a1,1,0,1,0-.572-1.916A15,15,0,1,0,44.376,40.286,1,1,0,0,0,43.7,39.042Z"/><path d="M23.223,37.733a2.978,2.978,0,0,0,.643-5.063A7.027,7.027,0,0,1,26.5,29.937a1,1,0,0,0-1-1.733,9.058,9.058,0,0,0-3.564,3.8,2.988,2.988,0,0,0-.738,5.87,9,9,0,0,0,16.6,2.626A1,1,0,0,0,36.065,39.5a7,7,0,0,1-12.842-1.764ZM22,34a1,1,0,1,1-1,1A1,1,0,0,1,22,34Z"/><path d="M37,30a3,3,0,1,0-3-3A3,3,0,0,0,37,30Zm0-4a1,1,0,1,1-1,1A1,1,0,0,1,37,26Z"/></svg>
