<svg id="Capa_1" enable-background="new 0 0 512 512" height="512" viewBox="0 0 512 512" width="512" xmlns="http://www.w3.org/2000/svg"><g><path d="m231.952 440.887h-168.339c-.285 0-.516-.231-.516-.516v-353.225h56.629c8.556 0 15.516-6.961 15.516-15.517v-56.629h232.984c.285 0 .516.231.516.517v248.5c0 4.143 3.358 7.5 7.5 7.5s7.5-3.357 7.5-7.5v-248.5c0-8.556-6.96-15.517-15.516-15.517h-241.859c-6.285 0-12.194 2.447-16.64 6.892l-54.737 54.738c-4.445 4.443-6.894 10.353-6.894 16.64v362.102c0 8.556 6.96 15.516 15.516 15.516h168.339c4.142 0 7.5-3.357 7.5-7.5s-3.357-7.501-7.499-7.501zm-111.71-423.297v54.039c0 .285-.231.517-.516.517h-54.038z"/><path d="m189.158 210.615c-2.929-2.928-7.678-2.928-10.606 0l-3.463 3.463c-4.115-3.524-9.452-5.659-15.282-5.659h-32.065c-12.976 0-23.532 10.557-23.532 23.532v32.065c0 12.976 10.557 23.532 23.532 23.532h32.065c12.976 0 23.532-10.557 23.532-23.532v-32.065c0-1.531-.152-3.026-.432-4.477l6.252-6.252c2.928-2.929 2.928-7.677-.001-10.607zm-20.819 53.402c0 4.705-3.828 8.532-8.532 8.532h-32.065c-4.705 0-8.532-3.827-8.532-8.532v-32.065c0-4.705 3.828-8.532 8.532-8.532h32.065c1.69 0 3.263.5 4.59 1.351l-18.568 18.568-3.363-6.726c-1.852-3.704-6.355-5.205-10.062-3.354-3.705 1.853-5.206 6.357-3.354 10.062l8.017 16.032c1.078 2.156 3.127 3.662 5.507 4.049.4.064.802.097 1.202.097 1.973 0 3.885-.779 5.303-2.196l19.261-19.261v21.975z"/><path d="m189.158 306.81c-2.928-2.928-7.677-2.928-10.606 0l-3.463 3.463c-4.115-3.524-9.452-5.659-15.282-5.659h-32.065c-12.976 0-23.532 10.557-23.532 23.532v32.064c0 12.976 10.557 23.532 23.532 23.532h32.065c12.976 0 23.532-10.557 23.532-23.532v-32.064c0-1.531-.152-3.027-.432-4.477l6.252-6.252c2.928-2.93 2.928-7.678-.001-10.607zm-20.819 53.4c0 4.705-3.828 8.532-8.532 8.532h-32.065c-4.705 0-8.532-3.827-8.532-8.532v-32.064c0-4.705 3.828-8.532 8.532-8.532h32.065c1.69 0 3.263.5 4.59 1.351l-18.568 18.568-3.363-6.726c-1.852-3.704-6.355-5.204-10.062-3.354-3.705 1.853-5.206 6.357-3.354 10.062l8.017 16.032c1.078 2.156 3.127 3.662 5.507 4.049.4.064.802.097 1.202.097 1.972 0 3.885-.779 5.303-2.196l19.261-19.261v21.974z"/><path d="m272.032 224.451h-56.113c-4.142 0-7.5 3.357-7.5 7.5s3.358 7.5 7.5 7.5h56.113c4.142 0 7.5-3.357 7.5-7.5s-3.358-7.5-7.5-7.5z"/><path d="m335.645 264.017c0-4.143-3.358-7.5-7.5-7.5h-112.226c-4.142 0-7.5 3.357-7.5 7.5s3.358 7.5 7.5 7.5h112.226c4.142 0 7.5-3.358 7.5-7.5z"/><path d="m215.919 320.646c-4.142 0-7.5 3.357-7.5 7.5s3.358 7.5 7.5 7.5h48.097c4.142 0 7.5-3.357 7.5-7.5s-3.358-7.5-7.5-7.5z"/><path d="m239.968 352.71h-24.048c-4.142 0-7.5 3.357-7.5 7.5s3.358 7.5 7.5 7.5h24.048c4.142 0 7.5-3.357 7.5-7.5s-3.358-7.5-7.5-7.5z"/><path d="m442.332 435.791-29.973-9.992-9.865-9.865c-5.425-5.424-14.143-6.043-20.281-1.44l-22.003 16.502-22.003-16.502c-6.136-4.602-14.856-3.982-20.281 1.44l-9.865 9.865-29.973 9.992c-12.903 4.301-21.572 16.328-21.572 29.929v38.78c0 4.143 3.358 7.5 7.5 7.5s7.5-3.357 7.5-7.5v-38.78c0-7.134 4.547-13.442 11.316-15.698l25.482-8.495 8.828 17.656c2.063 4.127 5.823 7.102 10.313 8.162 1.186.28 2.386.418 3.578.418 3.321 0 6.58-1.069 9.296-3.106l12.38-9.285v49.128c0 4.143 3.358 7.5 7.5 7.5s7.5-3.357 7.5-7.5v-49.129l12.38 9.285c2.717 2.037 5.975 3.106 9.296 3.106 1.192 0 2.392-.138 3.578-.418 4.491-1.061 8.25-4.035 10.313-8.162l8.828-17.656 25.482 8.495c6.768 2.256 11.315 8.564 11.315 15.698v38.78c0 4.143 3.358 7.5 7.5 7.5s7.5-3.357 7.5-7.5v-38.78c.002-13.6-8.667-25.627-21.569-29.928zm-111.003 16.865c-.053.041-.191.146-.428.09-.235-.056-.313-.213-.343-.272l-9.319-18.639 7.293-7.293c.181-.182.471-.199.675-.048l18.502 13.877zm58.533-.182c-.03.06-.108.217-.343.272-.234.056-.375-.049-.428-.09l-16.381-12.285 18.503-13.877c.204-.152.494-.134.675.048l7.294 7.293z"/><path d="m304.613 320.129v16.032c0 5.7 3.059 10.839 8.016 13.573v10.476c0 26.235 21.345 47.58 47.581 47.58s47.581-21.345 47.581-47.58v-9.352c4.816-2.684 8.016-7.777 8.016-13.564v-17.165c0-17.396-14.153-31.548-31.549-31.548h-48.097c-17.396 0-31.548 14.152-31.548 31.548zm55.596 72.661c-17.965 0-32.581-14.615-32.581-32.58v-10.463c.623-.346 1.228-.736 1.81-1.173l14.505-10.878c7.854 5.849 24.512 15.621 48.132 15.621.236 0 .478-.008.715-.01v6.902c.001 17.966-14.615 32.581-32.581 32.581zm40.598-72.661v17.165c0 .274-.279.528-.621.566-31.418 3.506-49.957-14.284-50.705-15.019-1.454-1.453-3.374-2.196-5.305-2.196-1.575 0-3.157.494-4.498 1.5l-19.239 14.429c-.114.087-.256.191-.54.049-.286-.143-.286-.319-.286-.462v-16.032c0-9.125 7.423-16.548 16.548-16.548h48.097c9.125 0 16.549 7.423 16.549 16.548z"/><path d="m215.72 191.354h.418c12.855-.031 23.314-10.517 23.314-23.372v-.221c0-2.189 1.469-3.274 2.101-3.639.631-.365 2.306-1.095 4.201 0 11.224 6.479 25.662 2.643 32.21-8.603l.099-.173c6.394-11.149 2.54-25.45-8.592-31.877-.001-.001-.002-.001-.003-.002l-.182-.104c-1.896-1.095-2.101-2.909-2.101-3.639s.205-2.544 2.103-3.64l.2-.115c11.136-6.429 14.981-20.729 8.575-31.867l-.12-.209c-6.51-11.212-20.942-15.06-32.188-8.566-1.897 1.095-3.57.364-4.202 0s-2.101-1.449-2.101-3.699c0-12.976-10.557-23.532-23.532-23.532h-.2c-12.866 0-23.333 10.467-23.333 23.333v.26c0 2.189-1.469 3.273-2.101 3.639-.632.364-2.305 1.096-4.219-.01-11.229-6.482-25.66-2.636-32.192 8.612l-.094.164c-6.411 11.147-2.567 25.447 8.575 31.879l.196.113c1.896 1.095 2.101 2.909 2.101 3.639s-.205 2.544-2.015 3.59c-.029.017-.07.039-.098.056-11.226 6.483-15.113 20.905-8.639 32.193 6.522 11.199 20.96 15.04 32.184 8.559 1.896-1.096 3.569-.365 4.202 0 .631.365 2.101 1.449 2.101 3.639v.221c-.001 12.855 10.458 23.34 23.332 23.371zm-27.534-42.825c-3.297 0-6.595.868-9.601 2.604-4.086 2.36-9.345.962-11.697-3.074-2.346-4.091-.932-9.339 3.067-11.648.029-.017.069-.039.098-.056 6.012-3.471 9.601-9.688 9.601-16.629s-3.589-13.158-9.606-16.632l-.196-.113c-3.985-2.301-5.361-7.418-3.062-11.416l.079-.137c2.368-4.078 7.617-5.477 11.717-3.109 6.011 3.47 13.19 3.472 19.201 0 6.012-3.471 9.601-9.688 9.601-16.629v-.26c0-4.595 3.738-8.333 8.333-8.333h.2c4.705 0 8.532 3.827 8.532 8.593 0 6.941 3.589 13.158 9.601 16.629s13.19 3.471 19.219-.01c4.085-2.359 9.332-.958 11.68 3.083l.104.182c2.294 3.989.918 9.106-3.069 11.408l-.2.115c-6.012 3.471-9.601 9.688-9.601 16.629s3.589 13.158 9.604 16.631l.185.106c3.988 2.305 5.368 7.428 3.076 11.424l-.074.129c-2.375 4.078-7.633 5.477-11.722 3.117-6.011-3.47-13.189-3.471-19.202 0-6.012 3.471-9.601 9.688-9.601 16.629v.221c0 4.605-3.746 8.36-8.333 8.372h-.381c-4.605-.012-8.351-3.767-8.351-8.372v-.221c0-6.941-3.589-13.158-9.601-16.629-3.007-1.736-6.304-2.604-9.601-2.604z"/><path d="m215.919 143.258c12.976 0 23.532-10.557 23.532-23.532s-10.557-23.532-23.532-23.532-23.532 10.557-23.532 23.532 10.557 23.532 23.532 23.532zm0-32.065c4.705 0 8.532 3.827 8.532 8.532s-3.828 8.532-8.532 8.532-8.532-3.827-8.532-8.532 3.828-8.532 8.532-8.532z"/></g></svg>