<svg id="Capa_1" enable-background="new 0 0 512 512" height="512" viewBox="0 0 512 512" width="512" xmlns="http://www.w3.org/2000/svg"><path d="m163 80c22.056 0 40-17.944 40-40s-17.944-40-40-40-40 17.944-40 40 17.944 40 40 40zm0-60c11.028 0 20 8.972 20 20s-8.972 20-20 20-20-8.972-20-20 8.972-20 20-20z"/><path d="m286 80c22.056 0 40-17.944 40-40s-17.944-40-40-40-40 17.944-40 40 17.944 40 40 40zm0-60c11.028 0 20 8.972 20 20s-8.972 20-20 20-20-8.972-20-20 8.972-20 20-20z"/><path d="m40 203c22.056 0 40-17.944 40-40s-17.944-40-40-40-40 17.944-40 40 17.944 40 40 40zm0-60c11.028 0 20 8.972 20 20s-8.972 20-20 20-20-8.972-20-20 8.972-20 20-20z"/><path d="m40 326c22.056 0 40-17.944 40-40s-17.944-40-40-40-40 17.944-40 40 17.944 40 40 40zm0-60c11.028 0 20 8.972 20 20s-8.972 20-20 20-20-8.972-20-20 8.972-20 20-20z"/><circle cx="402" cy="502" r="10"/><path d="m472 282c-7.384 0-14.307 2.011-20.25 5.514-2.236-19.953-19.21-35.514-39.75-35.514-7.388 0-14.311 2.021-20.256 5.529-2.231-19.959-19.2-35.529-39.744-35.529-7.283 0-14.112 1.966-20 5.381v-55.381c0-22.056-17.944-40-40-40s-40 17.944-40 40v104h-50.266c-3.626-14.036-14.699-25.108-28.734-28.734v-45.532c17.233-4.452 30-20.13 30-38.734 0-22.056-17.944-40-40-40-7.263 0-14.229 1.929-20.321 5.537l-68.216-68.217c3.608-6.092 5.537-13.058 5.537-20.32 0-22.056-17.944-40-40-40s-40 17.944-40 40 17.944 40 40 40c7.263 0 14.229-1.929 20.321-5.537l68.216 68.216c-3.608 6.093-5.537 13.059-5.537 20.321 0 18.604 12.767 34.282 30 38.734v45.532c-17.233 4.452-30 20.13-30 38.734 0 22.056 17.944 40 40 40 18.604 0 34.282-12.767 38.734-30h50.266v51.335c-13.637-7.869-31.58-7.277-44.982 3.433-17.276 13.804-20.065 38.958-6.246 56.219l68.999 86.249c9.537 11.925 23.766 18.764 39.039 18.764h48.189c5.522 0 10-4.477 10-10s-4.478-10-10-10h-48.189c-9.163 0-17.699-4.103-23.421-11.257l-69.002-86.253c-6.902-8.619-5.525-21.193 3.115-28.098 8.614-6.883 21.208-5.532 28.107 3.112l6.58 8.23c2.652 3.318 7.112 4.597 11.119 3.192 4.008-1.406 6.691-5.189 6.691-9.437v-199.489c0-11.028 8.972-20 20-20s20 8.972 20 20v150c0 5.523 4.478 10 10 10s10-4.477 10-10v-60c0-11.028 8.972-20 20-20s20 8.972 20 20v60c0 5.523 4.478 10 10 10s10-4.477 10-10v-30c0-11.028 8.972-20 20-20s20 8.972 20 20v30c0 5.523 4.478 10 10 10s10-4.477 10-10c0-11.028 8.972-20 20-20s20 8.972 20 20v100c0 30.396-19.398 57.146-48.271 66.564-5.25 1.713-8.118 7.357-6.405 12.608 1.377 4.22 5.294 6.901 9.505 6.901 1.027 0 2.073-.16 3.104-.496 37.125-12.11 62.068-46.501 62.068-85.577v-100c0-22.056-17.944-40-40-40zm-452-242c0-11.028 8.972-20 20-20s20 8.972 20 20c0 11.008-8.934 20-20 20-11.028 0-20-8.972-20-20zm123 123c0-11.008 8.934-20 20-20 11.028 0 20 8.972 20 20s-8.972 20-20 20-20-8.972-20-20zm20 143c-11.028 0-20-8.972-20-20s8.972-20 20-20 20 8.972 20 20-8.972 20-20 20z"/></svg>