<svg id="Capa_1" enable-background="new 0 0 512.008 512.008" height="512" viewBox="0 0 512.008 512.008" width="512" xmlns="http://www.w3.org/2000/svg"><g><path d="m434.311 320.634c-48.044-46.598-111.368-72.26-178.308-72.26s-130.264 25.662-178.308 72.26c-47.936 46.494-75.527 108.792-77.687 175.426-.131 4.206 1.414 8.19 4.35 11.22 2.91 3.002 6.976 4.724 11.156 4.724h332.3c4.143 0 7.5-3.357 7.5-7.5s-3.357-7.5-7.5-7.5h-46.034l69.978-79.339c3.306-3.747 5.126-8.563 5.126-13.562 0-5.473-2.13-10.616-5.996-14.483-7.638-7.636-19.957-8.016-28.045-.871l-80.705 71.184c-2.007-.275-4.053-.429-6.134-.429-22.257 0-40.781 16.246-44.363 37.5h-146.476c3.954-101.854 88.034-183.5 190.839-183.5s186.885 81.646 190.839 183.5h-64.03c-4.143 0-7.5 3.357-7.5 7.5s3.357 7.5 7.5 7.5h113.681c4.18 0 8.245-1.722 11.154-4.723 2.938-3.029 4.482-7.014 4.352-11.23-2.161-66.625-29.751-128.923-77.689-175.417zm-39.935 31.39c-34.866-31.669-80.604-51.561-130.872-53.37v-35.155c60.3 1.811 114.889 25.37 156.109 63.288zm-276.745.001-25.236-25.236c41.22-37.919 95.809-61.478 156.109-63.289v35.155c-50.268 1.809-96.006 21.7-130.873 53.37zm235.137 47.97c2.167-1.914 5.469-1.812 7.512.232 1.034 1.033 1.604 2.41 1.604 3.876 0 1.342-.488 2.635-1.375 3.64l-65.536 74.301c-3.96-6.844-9.666-12.55-16.509-16.509zm-96.764 74.509c13.953 0 25.712 9.575 29.051 22.5h-58.101c3.338-12.925 15.097-22.5 29.05-22.5zm-240.49 22.5c-.15 0-.28-.055-.385-.164-.134-.138-.129-.265-.128-.303 2.015-62.133 26.991-117.857 66.686-159.244l25.212 25.212c-33.625 35.292-54.871 82.469-56.743 134.499zm481.365-.164c-.105.109-.234.164-.385.164h-34.641c-1.872-52.03-23.118-99.207-56.743-134.499l25.213-25.212c39.695 41.385 64.67 97.106 66.685 159.233.001.048.005.176-.129.314z"/><path d="m490.643.004h-75.8c-11.777 0-21.359 9.551-21.359 21.29 0 11.734 9.582 21.28 21.359 21.28h24.16l-119.026 118.369c-.193.195-.51.193-.703.003l-77.141-76.721c-13.727-13.65-36.061-13.649-49.787.001l-186.076 185.055c-4.042 4.027-6.267 9.382-6.264 15.077.003 5.69 2.229 11.036 6.273 15.058 4.039 4.01 9.396 6.218 15.084 6.218 5.695 0 11.056-2.208 15.099-6.223l180.428-179.437c.195-.194.512-.193.705-.002l77.135 76.705c6.646 6.621 15.487 10.267 24.894 10.267 9.4 0 18.242-3.645 24.899-10.263l42.819-42.591c2.937-2.921 2.949-7.67.028-10.606-2.923-2.938-7.672-2.949-10.606-.028l-42.818 42.59c-3.826 3.804-8.912 5.898-14.322 5.898-5.411 0-10.492-2.093-14.312-5.898l-77.141-76.712c-6.025-5.987-15.829-5.988-21.855.003l-180.426 179.434c-1.209 1.201-2.817 1.862-4.526 1.862-1.702 0-3.306-.661-4.511-1.858-1.19-1.183-1.845-2.754-1.846-4.425-.001-1.675.657-3.254 1.846-4.439l186.07-185.049c7.894-7.851 20.739-7.85 28.633-.001l77.142 76.722c6.023 5.988 15.826 5.987 21.855-.001l125.044-124.355c3.311-3.298 4.297-8.22 2.513-12.539-1.785-4.321-5.96-7.114-10.636-7.114h-32.63c-3.507 0-6.359-2.817-6.359-6.28 0-3.469 2.853-6.29 6.359-6.29h75.8c3.507 0 6.36 2.821 6.36 6.29v75.37c0 3.469-2.854 6.29-6.36 6.29-3.513 0-6.37-2.821-6.37-6.29v-32.47c0-4.66-2.778-8.829-7.077-10.62-4.301-1.791-9.216-.828-12.531 2.462l-63.08 62.74c-2.937 2.921-2.949 7.67-.028 10.606s7.67 2.95 10.606.028l57.11-56.803v24.056c0 11.739 9.587 21.29 21.37 21.29 11.778 0 21.36-9.551 21.36-21.29v-75.37c0-11.738-9.582-21.289-21.361-21.289z"/></g></svg>