<?xml version="1.0"?>
<svg xmlns="http://www.w3.org/2000/svg" id="Layer_1" data-name="Layer 1" viewBox="0 0 64 64" width="512" height="512"><path d="M14.68,45.26a2.71,2.71,0,0,0-1.47,3.55l1.39,3.37a2.73,2.73,0,0,0,3.55,1.47.74.74,0,0,1,.86.19A16.8,16.8,0,0,0,21.16,56a.75.75,0,0,1,.2.83v0a2.73,2.73,0,0,0,1.47,3.55l3.37,1.39a2.72,2.72,0,0,0,3.55-1.47v0a.74.74,0,0,1,.73-.45,17.15,17.15,0,0,0,3,0,.76.76,0,0,1,.74.47,2.68,2.68,0,0,0,1.47,1.47,2.72,2.72,0,0,0,1,.21,2.68,2.68,0,0,0,1-.21l3.37-1.39a2.73,2.73,0,0,0,1.47-3.55.74.74,0,0,1,.19-.86A16.18,16.18,0,0,0,45,53.84a.74.74,0,0,1,.86-.19,2.73,2.73,0,0,0,3.55-1.47l1.39-3.37a2.71,2.71,0,0,0-1.47-3.55.74.74,0,0,1-.47-.74c0-.51.07-1,.07-1.52h-2c0,.45,0,.89-.06,1.33a2.73,2.73,0,0,0,1.7,2.78.73.73,0,0,1,.39.94l-1.4,3.36a.72.72,0,0,1-.94.39,2.74,2.74,0,0,0-3.16.76,14.75,14.75,0,0,1-1.89,1.9,2.72,2.72,0,0,0-.76,3.15.72.72,0,0,1-.39.94L37,59.94a.68.68,0,0,1-.54,0,.74.74,0,0,1-.39-.39,2.74,2.74,0,0,0-2.77-1.7,15,15,0,0,1-2.68,0,2.73,2.73,0,0,0-2.77,1.69v0a.71.71,0,0,1-.93.37l-3.37-1.39a.72.72,0,0,1-.4-.92v0a2.73,2.73,0,0,0-.76-3.16,14.75,14.75,0,0,1-1.9-1.89,2.72,2.72,0,0,0-3.15-.76.72.72,0,0,1-.94-.39l-1.4-3.36a.74.74,0,0,1,.43-1,2.7,2.7,0,0,0,1.66-2.71c0-.46-.06-.93-.06-1.38h-2c0,.51,0,1,.07,1.56A.69.69,0,0,1,14.68,45.26Z"/><path d="M32,54A11,11,0,0,0,43,43H41a9,9,0,0,1-18,0H21A11,11,0,0,0,32,54Z"/><path d="M54,16a1,1,0,0,0-1-1H45a1,1,0,0,0-1,1V39H37V23a1,1,0,0,0-1-1H28a1,1,0,0,0-1,1V39H20V30a1,1,0,0,0-1-1H11a1,1,0,0,0-1,1v9H2v2H62V39H54ZM18,39H12V31h6Zm17,0H29V24h6Zm17,0H46V17h6Z"/><path d="M7.21,25.52,53.73,6.84,52,9.93l1.74,1,3.15-5.58a1,1,0,0,0,.06-.86,1,1,0,0,0-.64-.59L50.16,2,49.58,4,53,5,6.46,23.67Z"/></svg>
