<?xml version="1.0" encoding="iso-8859-1"?>
<!-- Generator: Adobe Illustrator 19.0.0, SVG Export Plug-In . SVG Version: 6.00 Build 0)  -->
<svg version="1.1" id="Capa_1" xmlns="http://www.w3.org/2000/svg" xmlns:xlink="http://www.w3.org/1999/xlink" x="0px" y="0px"
	 viewBox="0 0 480.058 480.058" style="enable-background:new 0 0 480.058 480.058;" xml:space="preserve">
<g>
	<g>
		<path d="M172.942,377.717l-59.457-46.254c-8.07-6.231-18.829-7.739-28.301-3.969L66.61,225.217
			c-1.144-17.786-15.281-31.976-33.063-33.188c-9.398,0.155-18.234,4.507-24.086,11.863c-6.099,7.579-9.377,17.041-9.274,26.77
			l-0.16,141.367c-0.64,22.224,9.672,43.345,27.59,56.508l52.41,31.98v11.512c0,4.418,3.582,8,8,8h80c4.418,0,8-3.582,8-8v-88
			C176.028,381.562,174.889,379.233,172.942,377.717z M160.028,464.029h-64v-8c0-2.788-1.452-5.375-3.832-6.828l-55.945-34.133
			c-13.348-10.193-20.894-26.249-20.223-43.031l0.16-141.367c-0.077-6.007,1.902-11.859,5.609-16.586
			c2.802-3.689,7.12-5.914,11.75-6.055c9.813,1.348,17.155,9.685,17.25,19.59l20.31,111.905c-2.709,4.474-4.16,9.596-4.201,14.825
			c-0.001,7.655,3.062,14.992,8.504,20.375l38.961,38.961l11.312-11.312l-38.961-38.961c-2.448-2.379-3.825-5.65-3.816-9.063
			c0.032-2.952,1.049-5.809,2.892-8.116c0.695-0.821,1.477-1.566,2.331-2.22c4.61-3.471,10.971-3.436,15.543,0.086l56.355,43.844
			V464.029z"/>
	</g>
</g>
<g>
	<g>
		<path d="M480.028,372.021l-0.16-141.352c0.106-9.73-3.172-19.194-9.274-26.773c-5.85-7.358-14.687-11.712-24.086-11.867
			c-17.628,1.14-31.712,15.112-32.992,32.73l-18.645,102.719c-9.481-3.761-20.243-2.242-28.312,3.996l-59.441,46.238
			c-1.949,1.516-3.09,3.847-3.09,6.316v88c0,4.418,3.582,8,8,8h80c4.418,0,8-3.582,8-8v-11.512l52.699-32.168
			C470.491,415.167,480.686,394.132,480.028,372.021z M444.098,414.881L444.098,414.881l-56.238,34.32
			c-2.38,1.453-3.832,4.04-3.832,6.828v8h-64v-76.086l56.34-43.828c4.538-3.521,10.867-3.587,15.477-0.16
			c0.889,0.67,1.703,1.435,2.426,2.281c1.836,2.309,2.849,5.163,2.879,8.113c0.008,3.413-1.369,6.684-3.816,9.062l-38.961,38.962
			l11.312,11.312l38.961-38.961c5.442-5.383,8.504-12.72,8.504-20.375c-0.022-5.262-1.468-10.419-4.184-14.926l20.364-112.261
			c0.217-9.745,7.515-17.872,17.18-19.133c4.631,0.14,8.95,2.367,11.75,6.059c3.709,4.727,5.689,10.582,5.61,16.59l0.16,141.352
			C464.715,388.697,457.288,404.666,444.098,414.881z"/>
	</g>
</g>
<g>
	<g>
		<path d="M328.028,72.029h-176c-4.418,0-8,3.582-8,8v176c0,4.418,3.582,8,8,8h176c4.418,0,8-3.582,8-8v-176
			C336.028,75.611,332.446,72.029,328.028,72.029z M320.028,248.029h-160v-160h160V248.029z"/>
	</g>
</g>
<g>
	<g>
		<path d="M298.61,308.334c-9.177,3.833-18.71,6.751-28.461,8.711l3.148,15.687c10.787-2.167,21.333-5.396,31.484-9.641
			L298.61,308.334z"/>
	</g>
</g>
<g>
	<g>
		<path d="M146.591,28.392c-9.131,6.126-17.644,13.127-25.418,20.902l11.32,11.313c7.037-7.042,14.744-13.381,23.012-18.926
			L146.591,28.392z"/>
	</g>
</g>
<g>
	<g>
		<path d="M207.102,3.256c-10.791,2.147-21.343,5.354-31.504,9.574l6.141,14.773c9.186-3.814,18.726-6.712,28.481-8.652
			L207.102,3.256z"/>
	</g>
</g>
<g>
	<g>
		<path d="M156.036,294.736l-8.852,13.328c9.162,6.085,18.901,11.254,29.074,15.434l6.078-14.797
			C173.135,304.916,164.326,300.239,156.036,294.736z"/>
	</g>
</g>
<g>
	<g>
		<path d="M347.794,275.228c-7.02,7.057-14.713,13.411-22.969,18.973l8.938,13.273c9.121-6.146,17.619-13.167,25.375-20.965
			L347.794,275.228z"/>
	</g>
</g>
<g>
	<g>
		<path d="M240.028,320.029c-9.791,0.001-19.559-0.934-29.172-2.793l-3.055,15.703c10.619,2.057,21.41,3.092,32.227,3.09h0.504
			L240.028,320.029z"/>
	</g>
</g>
<g>
	<g>
		<path d="M304.126,12.689l-6.109,14.789c9.195,3.8,17.994,8.494,26.27,14.016l8.883-13.305
			C324.018,22.085,314.291,16.893,304.126,12.689z"/>
	</g>
</g>
<g>
	<g>
		<path d="M240.028,0.029h-0.168l0.168,16c9.899-0.002,19.774,0.955,29.488,2.859l3.086-15.703
			C261.871,1.085,250.963,0.028,240.028,0.029z"/>
	</g>
</g>
<g>
	<g>
		<path d="M358.634,49.049l-11.297,11.328c7.05,7.031,13.398,14.733,18.953,22.996l13.281-8.93
			C373.433,65.319,366.421,56.814,358.634,49.049z"/>
	</g>
</g>
<g>
	<g>
		<path d="M91.036,198.303l-15.68,3.172c2.182,10.783,5.422,21.325,9.672,31.473l14.758-6.188
			C95.941,217.585,93.01,208.053,91.036,198.303z"/>
	</g>
</g>
<g>
	<g>
		<path d="M113.942,252.954l-13.258,8.953c6.155,9.113,13.185,17.603,20.989,25.352l11.273-11.352
			C125.881,268.892,119.517,261.204,113.942,252.954z"/>
	</g>
</g>
<g>
	<g>
		<path d="M100.29,74.736c-6.111,9.146-11.312,18.868-15.527,29.027l14.781,6.125c3.814-9.192,8.52-17.988,14.051-26.262
			L100.29,74.736z"/>
	</g>
</g>
<g>
	<g>
		<path d="M75.22,135.283c-2.124,10.786-3.192,21.753-3.191,32.746v0.68l16-0.68c-0.001-9.952,0.966-19.88,2.887-29.645
			L75.22,135.283z"/>
	</g>
</g>
<g>
	<g>
		<path d="M395.161,103.439l-14.766,6.156c3.823,9.184,6.732,18.722,8.684,28.477l15.688-3.137
			C402.609,124.146,399.392,113.596,395.161,103.439z"/>
	</g>
</g>
<g>
	<g>
		<path d="M380.638,225.869c-3.789,9.2-8.476,18.004-13.992,26.285l13.32,8.867c6.095-9.156,11.276-18.889,15.469-29.059
			L380.638,225.869z"/>
	</g>
</g>
<g>
	<g>
		<path d="M392.028,168.029c0.002,9.847-0.944,19.671-2.824,29.336l15.703,3.063c2.077-10.674,3.122-21.524,3.121-32.398v-0.336
			L392.028,168.029z"/>
	</g>
</g>
<g>
	<g>
		<path d="M302.551,147.122c-1.5-2.114-3.931-3.37-6.523-3.37h-37.012l-11.399-34.25c-1.395-4.192-5.925-6.459-10.117-5.063
			c-2.391,0.796-4.267,2.672-5.063,5.063l-11.398,34.25h-37.012c-4.418,0-7.999,3.582-7.999,8c0,2.592,1.256,5.023,3.37,6.523
			l29.777,21.129l-11.348,34.098c-1.397,4.191,0.868,8.72,5.059,10.117c2.42,0.807,5.08,0.41,7.16-1.066l29.98-21.266l29.98,21.266
			c3.602,2.557,8.595,1.711,11.152-1.891c1.477-2.08,1.873-4.74,1.066-7.16l-11.348-34.098l29.777-21.129
			C304.26,155.718,305.108,150.725,302.551,147.122z M256.79,169.783c-2.872,2.036-4.074,5.711-2.961,9.051l5.5,16.527
			l-14.672-10.406c-2.772-1.969-6.486-1.969-9.258,0l-14.672,10.406l5.5-16.527c1.113-3.34-0.089-7.015-2.961-9.051l-14.137-10.031
			h17.68c3.444,0,6.502-2.205,7.59-5.473l5.629-16.914l5.629,16.914c1.088,3.268,4.146,5.472,7.59,5.473h17.68L256.79,169.783z"/>
	</g>
</g>
<g>
</g>
<g>
</g>
<g>
</g>
<g>
</g>
<g>
</g>
<g>
</g>
<g>
</g>
<g>
</g>
<g>
</g>
<g>
</g>
<g>
</g>
<g>
</g>
<g>
</g>
<g>
</g>
<g>
</g>
</svg>
