<svg id="Layer_1" enable-background="new 0 0 512 512" height="512" viewBox="0 0 512 512" width="512" xmlns="http://www.w3.org/2000/svg"><path d="m502.212 332.092-45.165-89.209c-1.192-2.354-3.606-3.838-6.245-3.838h-147.595c.155-.902.253-1.823.253-2.768v-20.126c0-6.498-3.826-12.104-9.335-14.73 2.409-20.355 8.211-29.346 13.84-38.058 5.608-8.68 11.408-17.654 11.408-35.348 0-34.962-28.444-63.406-63.406-63.406s-63.406 28.444-63.406 63.406c0 17.693 5.8 26.669 11.408 35.349 5.629 8.711 11.431 17.703 13.84 38.057-5.509 2.625-9.335 8.232-9.335 14.73v20.126c0 .945.098 1.866.253 2.768h-148.415c-2.639 0-5.053 1.483-6.245 3.838l-44.279 87.437c-1.099 2.17-.992 4.755.281 6.827s3.531 3.335 5.964 3.335h37.279v155.518c0 3.866 3.134 7 7 7h390.425c3.866 0 7-3.134 7-7v-153.746h38.23c2.432 0 4.69-1.263 5.964-3.335s1.38-4.657.281-6.827zm-267.827-93.49h-9.585c-1.26 0-2.325-1.064-2.325-2.324v-20.126c0-1.26 1.064-2.324 2.325-2.324h62.336c1.26 0 2.325 1.064 2.325 2.324v20.126c0 1.26-1.064 2.324-2.325 2.324h-9.586c-3.866 0-7 3.134-7 7v9.351c0 .974-.823 1.797-1.796 1.797h-25.571c-.974 0-1.797-.823-1.797-1.797v-9.351c-.001-3.867-3.136-7-7.001-7zm-27.824-110.586c0-27.243 22.164-49.406 49.406-49.406s49.406 22.163 49.406 49.406c0 13.563-3.845 19.514-9.167 27.75-5.917 9.156-13.16 20.382-15.985 44.062h-17.255v-57.272l20.688-11.944c3.348-1.934 4.495-6.214 2.562-9.562-1.932-3.349-6.213-4.493-9.562-2.562l-20.688 11.944-20.688-11.944c-3.348-1.931-7.628-.785-9.562 2.562-1.933 3.349-.786 7.629 2.562 9.562l20.688 11.944v57.272h-17.255c-2.824-23.678-10.068-34.905-15.985-44.062-5.32-8.236-9.165-14.187-9.165-27.75zm-141.948 125.029h125.929l-37.19 73.438h-125.928zm2.699 87.437h90.343c2.639 0 5.053-1.483 6.245-3.838l31.034-61.283v213.639h-127.622zm376.425 148.518h-234.803v-213.631l31.919 63.047c1.192 2.354 3.606 3.838 6.245 3.838h196.639zm-192.337-160.746-38.076-75.209h14.061v1.907c0 8.71 7.086 15.797 15.797 15.797h25.571c8.71 0 15.796-7.087 15.796-15.797v-1.907h161.951l38.077 75.209zm46.831-285.475 8.665-15.008c1.933-3.349 6.215-4.492 9.562-2.562 3.348 1.934 4.495 6.215 2.562 9.562l-8.665 15.008c-1.296 2.246-3.649 3.501-6.068 3.501-1.188 0-2.391-.303-3.494-.938-3.348-1.934-4.495-6.215-2.562-9.563zm35.377 42.377c-1.933-3.348-.786-7.629 2.562-9.562l15.008-8.665c3.348-1.93 7.63-.786 9.562 2.562 1.933 3.348.786 7.629-2.562 9.562l-15.008 8.665c-1.102.636-2.306.938-3.494.938-2.418.001-4.771-1.254-6.068-3.5zm-182.414-15.665c1.933-3.348 6.214-4.493 9.562-2.562l15.008 8.665c3.348 1.934 4.495 6.215 2.562 9.562-1.296 2.245-3.649 3.501-6.068 3.501-1.188 0-2.391-.303-3.494-.938l-15.008-8.665c-3.348-1.934-4.495-6.215-2.562-9.563zm97.773-36.16v-17.331c0-3.866 3.134-7 7-7s7 3.134 7 7v17.331c0 3.866-3.134 7-7 7s-7-3.134-7-7zm-56.053 1.44c-1.933-3.348-.786-7.629 2.562-9.562 3.348-1.93 7.629-.785 9.562 2.562l8.665 15.008c1.933 3.348.786 7.629-2.562 9.562-1.102.636-2.306.938-3.494.938-2.419 0-4.772-1.255-6.068-3.501z"/></svg>