<svg height="512" viewBox="0 0 128 128" width="512" xmlns="http://www.w3.org/2000/svg"><g id="production"><path d="m70.42 126h-12.84a5.58 5.58 0 0 1 -5.58-5.58v-11.88a1.64 1.64 0 0 0 -.91-1.44l-.19-.1a1.54 1.54 0 0 0 -1.72.34l-6.7 6.7a5.56 5.56 0 0 1 -7.88 0l-7.66-7.66a5.56 5.56 0 0 1 0-7.88l7.76-7.77a1.65 1.65 0 0 0 .35-1.7l-.05-.03a1.55 1.55 0 0 0 -1.46-1h-11a5.58 5.58 0 0 1 -5.54-5.58v-4.42a2 2 0 0 1 4 0v4.42a1.58 1.58 0 0 0 1.58 1.58h11a5.54 5.54 0 0 1 5.26 3.72s0 .08 0 .11a5.61 5.61 0 0 1 -1.33 5.74l-7.77 7.77a1.6 1.6 0 0 0 0 2.24l7.66 7.66a1.6 1.6 0 0 0 2.24 0l6.7-6.7a5.53 5.53 0 0 1 6.24-1.14l.2.09a5.59 5.59 0 0 1 3.2 5.05v11.88a1.58 1.58 0 0 0 1.6 1.58h12.84a1.58 1.58 0 0 0 1.58-1.58v-11.88a5.6 5.6 0 0 1 3.22-5.06l.19-.08a5.53 5.53 0 0 1 6.23 1.14l6.7 6.7a1.6 1.6 0 0 0 2.24 0l7.66-7.66a1.6 1.6 0 0 0 0-2.24l-7.77-7.77a5.61 5.61 0 0 1 -1.33-5.74s0-.07 0-.11a5.54 5.54 0 0 1 5.3-3.72h11a1.58 1.58 0 0 0 1.56-1.58v-4.42a2 2 0 0 1 4 0v4.42a5.58 5.58 0 0 1 -5.58 5.58h-11a1.55 1.55 0 0 0 -1.42 1v.08a1.65 1.65 0 0 0 .35 1.7l7.77 7.77a5.58 5.58 0 0 1 0 7.88l-7.67 7.66a5.56 5.56 0 0 1 -7.88 0l-6.7-6.7a1.55 1.55 0 0 0 -1.74-.33l-.16.07a1.63 1.63 0 0 0 -.92 1.44v11.88a5.58 5.58 0 0 1 -5.63 5.55zm4.99-22.59h-.07z"/><path d="m64 95.82a16.78 16.78 0 0 1 -16.65-16.88c0-.36 0-.71 0-1.07a2 2 0 0 1 4 .26v.81a12.65 12.65 0 1 0 25.3 0c0-.21 0-.42 0-.63a2 2 0 0 1 1.9-2.09 2 2 0 0 1 2.09 1.91v.81a16.78 16.78 0 0 1 -16.64 16.88z"/><path d="m78.34 36.41h-.26a2 2 0 0 1 -1.72-2.24c.35-2.66.62-5.48.82-8.39v-.54c.11-1.61.18-3.08.22-4.52 0-1.11 0-2.06.06-2.81v-.14c0-.2 0-.41 0-.61v-8a6.3 6.3 0 0 1 6.48-6.16h18.12a6.3 6.3 0 0 1 6.44 6.12v8 .63.12c0 .75 0 1.7.06 2.79 0 1.52.11 3 .22 4.49v.62c.1 1.52.21 2.84.33 4a2 2 0 1 1 -4 .4c-.12-1.21-.24-2.58-.35-4.16v-.62c-.11-1.48-.19-3.05-.23-4.62 0-1.11 0-2.08-.06-2.86v-.15c0-.18 0-.35 0-.49v-8.15a2.3 2.3 0 0 0 -2.41-2.12h-18.12a2.3 2.3 0 0 0 -2.44 2.12v8.18.47.17c0 .78 0 1.75-.06 2.88 0 1.48-.11 3-.22 4.64v.56c-.21 3-.5 5.91-.86 8.65a2 2 0 0 1 -2.02 1.74z"/><path d="m111.73 79h-27.73a2 2 0 0 1 0-4h27.12c.42-.55 1.55-2.92.32-11.79a118.47 118.47 0 0 0 -3.11-14.73l-.13-.48c-.16-.58-.44-1.59-.74-2.84-.45-1.87-.71-3.43-.92-4.69l-.14-.85q-.11-.57-.21-1.32a2 2 0 1 1 4-.58c.07.46.13.88.19 1.23l.15.87c.2 1.25.44 2.67.86 4.39.29 1.21.56 2.18.71 2.73.06.23.11.39.13.48s8.36 28.15.3 31.44a2 2 0 0 1 -.8.14z"/><path d="m106.84 28h-27.67a2 2 0 0 1 -2-2.24v-.54c.11-1.61.18-3.08.22-4.52 0-1 0-1.9.06-2.62v-.08a2 2 0 0 1 2-2h27a2 2 0 0 1 2 2v.11c0 .72 0 1.59.06 2.6 0 1.52.11 3 .22 4.49v.59a2 2 0 0 1 -.37 1.42 2 2 0 0 1 -1.52.79zm-25.54-4h23.41c-.07-1.05-.11-2.13-.14-3.2v-.8h-23.11v.82c-.06 1.03-.1 2.08-.16 3.18z"/><path d="m34 79h-3a2 2 0 0 1 0-4h3a2 2 0 0 1 0 4z"/><path d="m84 79h-42a2 2 0 0 1 0-4h40v-38h-66v38h7a2 2 0 0 1 0 4h-9a2 2 0 0 1 -2-2v-42a2 2 0 0 1 2-2h70a2 2 0 0 1 2 2v42a2 2 0 0 1 -2 2z"/><path d="m54 55h-14a2 2 0 0 1 -2-2v-10a2 2 0 0 1 2-2h14a2 2 0 0 1 2 2v10a2 2 0 0 1 -2 2zm-12-4h10v-6h-10z"/><path d="m76 55h-14a2 2 0 0 1 -2-2v-10a2 2 0 0 1 2-2h14a2 2 0 0 1 2 2v10a2 2 0 0 1 -2 2zm-12-4h10v-6h-10z"/></g></svg>