<svg xmlns="http://www.w3.org/2000/svg" width="36.914" height="38.207" viewBox="0 0 36.914 38.207"><g transform="translate(6899 1293.292)"><g transform="translate(-6899 -1274.033)"><g transform="translate(26.269)"><path d="M330.213,223.7a4.241,4.241,0,1,1,4.234-4.241A4.242,4.242,0,0,1,330.213,223.7Zm0-6.233a1.992,1.992,0,1,0,1.985,1.992A1.991,1.991,0,0,0,330.213,217.469Z" transform="translate(-325.979 -215.22)" fill="#3cb3e7"/></g><g transform="translate(2.177)"><path d="M33.276,223.7a4.241,4.241,0,1,1,4.234-4.241A4.242,4.242,0,0,1,33.276,223.7Zm0-6.233a1.992,1.992,0,1,0,1.985,1.992A1.991,1.991,0,0,0,33.276,217.469Z" transform="translate(-29.042 -215.22)" fill="#3cb3e7"/></g><g transform="translate(0 0.445)"><path d="M176.985,226.2a5.027,5.027,0,1,0-6.151,4.907v3.789h2.249V231.1A5.041,5.041,0,0,0,176.985,226.2Zm-5.027,2.787a2.787,2.787,0,1,1,2.778-2.787A2.786,2.786,0,0,1,171.958,228.982Z" transform="translate(-153.501 -221.16)" fill="#3cb3e7"/><g transform="translate(10.698 8.77)"><path d="M143.536,347.891H132.947a2.468,2.468,0,0,1-2.465-2.465v-1.972a7.732,7.732,0,0,1,2.087-5.294l1.644,1.535a5.49,5.49,0,0,0-1.482,3.76v1.972a.216.216,0,0,0,.216.216h10.589a.216.216,0,0,0,.216-.216v-1.972a5.49,5.49,0,0,0-1.482-3.76l1.643-1.535a7.732,7.732,0,0,1,2.088,5.3v1.972A2.468,2.468,0,0,1,143.536,347.891Z" transform="translate(-130.482 -338.159)" fill="#3cb3e7"/></g><g transform="translate(32.002 7.41)"><path d="M405.188,327.363h-2.719v-2.249h2.663V323.6a4.14,4.14,0,0,0-.708-2.323l1.864-1.257a6.38,6.38,0,0,1,1.092,3.58v1.571A2.195,2.195,0,0,1,405.188,327.363Z" transform="translate(-402.469 -320.019)" fill="#3cb3e7"/></g><g transform="translate(28.178 12.506)"><path d="M356.186,388h1.97v2.249h-1.97Z" transform="translate(-356.186 -388)" fill="#3cb3e7"/></g><g transform="translate(6.766 12.506)"><path d="M85.532,388H87.5v2.249h-1.97Z" transform="translate(-85.532 -388)" fill="#3cb3e7"/></g><g transform="translate(0 7.74)"><path d="M4.912,331.441H2.192A2.195,2.195,0,0,1,0,329.248v-1.572a6.406,6.406,0,0,1,.884-3.25l1.938,1.141a4.155,4.155,0,0,0-.573,2.108v1.515H4.912Z" transform="translate(0 -324.427)" fill="#3cb3e7"/></g></g></g><g transform="translate(-6888.636 -1293.292)"><path d="M98.4,128.41a8.005,8.005,0,1,0,8,8A8.014,8.014,0,0,0,98.4,128.41Zm0,14.125a6.12,6.12,0,1,1,6.12-6.12A6.127,6.127,0,0,1,98.4,142.535Zm0,0" transform="translate(-90.398 -128.41)" fill="#3cb3e7"/><path d="M160.009,212.267l-3.718,3.718-1.009-1.009a.942.942,0,0,0-1.333,1.333l1.676,1.676a.942.942,0,0,0,1.333,0l4.385-4.385a.942.942,0,1,0-1.333-1.333Zm0,0" transform="translate(-149.703 -206.748)" fill="#3cb3e7"/></g></g></svg>