<svg id="Capa_1" enable-background="new 0 0 512.015 512.015" height="512" viewBox="0 0 512.015 512.015" width="512" xmlns="http://www.w3.org/2000/svg"><g><path d="m25.007 246.007h367.127c4.142 0 7.5-3.358 7.5-7.5s-3.358-7.5-7.5-7.5h-367.127c-13.785 0-25 11.215-25 25s11.215 25 25 25h462c13.785 0 25-11.215 25-25s-11.215-25-25-25h-59.873c-4.142 0-7.5 3.358-7.5 7.5s3.358 7.5 7.5 7.5h59.873c5.514 0 10 4.486 10 10s-4.486 10-10 10h-462c-5.514 0-10-4.486-10-10 0-5.514 4.486-10 10-10z"/><path d="m493.748 331.413c-77.169-23.494-157.157-35.406-237.741-35.406s-160.571 11.912-237.738 35.406c-6.758 2.055-12.248 6.58-15.459 12.74-3.065 5.88-3.644 12.53-1.629 18.723 4.166 12.811 18.194 19.996 31.28 16.02 55.946-17.032 113.868-27.654 172.158-31.568 4.133-.278 7.258-3.853 6.98-7.986-.277-4.133-3.857-7.257-7.985-6.981-59.429 3.992-118.483 14.82-175.519 32.185-5.321 1.618-10.993-1.213-12.65-6.309-.758-2.331-.521-4.87.667-7.149 1.334-2.559 3.65-4.45 6.524-5.324 152.674-46.479 314.07-46.48 466.746 0 2.872.874 5.188 2.764 6.522 5.323 1.188 2.279 1.425 4.818.666 7.15-1.657 5.095-7.334 7.925-12.646 6.31-79.546-24.217-161.99-35.575-245.039-33.755-4.142.09-7.425 3.521-7.334 7.662.091 4.142 3.543 7.435 7.662 7.334 81.462-1.78 162.319 9.355 240.344 33.109 2.443.743 4.918 1.096 7.357 1.096 10.619 0 20.531-6.698 23.92-17.116 2.015-6.193 1.436-12.843-1.629-18.724-3.211-6.161-8.702-10.685-15.457-12.74z"/><path d="m18.267 180.602c77.169 23.494 157.157 35.406 237.741 35.406s160.571-11.912 237.738-35.405c6.758-2.055 12.248-6.58 15.459-12.74 3.065-5.88 3.644-12.53 1.629-18.723-4.166-12.81-18.194-19.996-31.28-16.02-112.717 34.316-233.68 42.209-349.812 22.827-4.085-.685-7.951 2.077-8.632 6.163-.682 4.085 2.077 7.95 6.163 8.632 59.152 9.872 119.481 12.911 179.316 9.032 60.046-3.893 119.71-14.761 177.332-32.304 5.319-1.62 10.993 1.213 12.65 6.309.758 2.331.521 4.87-.667 7.149-1.334 2.559-3.65 4.45-6.524 5.324-152.674 46.479-314.07 46.48-466.746 0-2.872-.874-5.188-2.764-6.522-5.323-1.188-2.279-1.425-4.818-.666-7.15 1.657-5.095 7.331-7.926 12.646-6.31 21.211 6.458 42.958 12.079 64.635 16.707 4.053.86 8.036-1.719 8.901-5.769.865-4.051-1.718-8.036-5.769-8.9-21.263-4.54-42.593-10.053-63.401-16.388-13.077-3.974-27.11 3.21-31.277 16.02-2.015 6.193-1.436 12.843 1.629 18.724 3.211 6.159 8.701 10.684 15.457 12.739z"/><path d="m307.729 410.373-36.107-42.178c-3.911-4.567-9.602-7.187-15.614-7.187s-11.704 2.62-15.615 7.188l-36.107 42.178c-3.471 4.055-4.24 9.585-2.008 14.434s6.934 7.86 12.271 7.86h12.459v14.84c0 4.142 3.358 7.5 7.5 7.5h43c4.142 0 7.5-3.358 7.5-7.5v-14.84h12.459c5.337 0 10.04-3.012 12.271-7.86s1.462-10.38-2.009-14.435zm-30.222 7.294c-4.142 0-7.5 3.358-7.5 7.5v14.84h-28v-14.84c0-4.142-3.358-7.5-7.5-7.5h-16.721l34-39.717c1.058-1.235 2.596-1.943 4.221-1.943s3.163.708 4.22 1.942l34.001 39.718z"/><path d="m277.507 467.507h-43c-4.142 0-7.5 3.358-7.5 7.5v29.5c0 4.142 3.358 7.5 7.5 7.5h43c4.142 0 7.5-3.358 7.5-7.5v-29.5c0-4.142-3.358-7.5-7.5-7.5zm-7.5 29.5h-28v-14.5h28z"/><path d="m204.286 101.642 36.107 42.178c3.911 4.567 9.602 7.187 15.614 7.187s11.704-2.62 15.615-7.187l36.107-42.178c3.471-4.055 4.24-9.585 2.008-14.434s-6.934-7.86-12.271-7.86h-12.459v-14.84c0-4.142-3.358-7.5-7.5-7.5h-43c-4.142 0-7.5 3.358-7.5 7.5v14.84h-12.459c-5.337 0-10.04 3.012-12.271 7.86s-1.463 10.379 2.009 14.434c-.001 0-.001 0 0 0zm30.221-7.295c4.142 0 7.5-3.358 7.5-7.5v-14.84h28v14.84c0 4.142 3.358 7.5 7.5 7.5h16.721l-34 39.717c-1.058 1.235-2.596 1.943-4.221 1.943s-3.163-.708-4.22-1.942l-34.001-39.718z"/><path d="m234.507 44.507h43c4.142 0 7.5-3.358 7.5-7.5v-29.5c0-4.142-3.358-7.5-7.5-7.5h-43c-4.142 0-7.5 3.358-7.5 7.5v29.5c0 4.142 3.358 7.5 7.5 7.5zm7.5-29.5h28v14.5h-28z"/></g></svg>