<?xml version="1.0"?>
<svg xmlns="http://www.w3.org/2000/svg" id="Icons" viewBox="0 0 60 60" width="512" height="512"><path d="M57.907,50.426,46.625,41.805a26.045,26.045,0,1,0-4.821,4.82l8.623,11.286a5.347,5.347,0,0,0,3.884,2.077q.175.012.351.012A5.331,5.331,0,0,0,60,54.661,5.3,5.3,0,0,0,57.907,50.426ZM2,26A24,24,0,1,1,26,50,24.028,24.028,0,0,1,2,26ZM57.025,57.022a3.4,3.4,0,0,1-2.583.971,3.342,3.342,0,0,1-2.427-1.3L43.346,45.348a26.234,26.234,0,0,0,2-2L56.69,52.014a3.337,3.337,0,0,1,.335,5.008Z"/><path d="M12.406,34.523A2.887,2.887,0,0,0,14.929,36H37.071a2.887,2.887,0,0,0,2.523-1.477,3.042,3.042,0,0,0-.008-3.041L28.518,12.472a2.889,2.889,0,0,0-5.033,0L12.415,31.481A3.042,3.042,0,0,0,12.406,34.523Zm1.737-2.035,11.074-19.02a.889.889,0,0,1,1.569.005L37.858,32.489a1.023,1.023,0,0,1,0,1.038.905.905,0,0,1-.788.473H14.929a.908.908,0,0,1-.789-.473A1.025,1.025,0,0,1,14.143,32.488Z"/><path d="M26,4a1,1,0,0,0,0,2,19.99,19.99,0,1,1-4.758.572,1,1,0,0,0-.476-1.943A22.01,22.01,0,1,0,26,4Z"/><path d="M54.707,53.293a1,1,0,0,0-1.414,1.414l1,1a1,1,0,0,0,1.414-1.414Z"/><path d="M26,27a1,1,0,0,0,1-1V19a1,1,0,0,0-2,0v7A1,1,0,0,0,26,27Z"/><path d="M26,32a1,1,0,0,0,1-1V30a1,1,0,0,0-2,0v1A1,1,0,0,0,26,32Z"/></svg>
