<svg id="Layer_1" enable-background="new 0 0 512 512" height="512" viewBox="0 0 512 512" width="512" xmlns="http://www.w3.org/2000/svg"><path d="m504 471.187h-24.113v-308.26c0-4.418-3.582-8-8-8h-65.715c-4.418 0-8 3.582-8 8v308.26h-40.303v-246.214c0-4.418-3.582-8-8-8h-65.714c-4.418 0-8 3.582-8 8v246.214h-40.306v-177.242c0-4.418-3.582-8-8-8h-65.715c-4.418 0-8 3.582-8 8v177.242h-40.307v-111.19c0-4.418-3.582-8-8-8h-65.714c-4.418 0-8 3.582-8 8v111.19h-24.113c-4.418 0-8 3.582-8 8v24.813c0 4.418 3.582 8 8 8h496c4.418 0 8-3.582 8-8v-24.813c0-4.419-3.582-8-8-8zm-89.828-300.26h49.715v300.26h-49.715zm-122.017 62.046h49.714v238.214h-49.714zm-122.021 68.972h49.715v169.242h-49.715zm-122.021 66.052h49.714v103.19h-49.714zm447.887 128.003h-480v-8.813h480zm-365.085-226.663c.5.096 1.007.145 1.514.145s1.014-.048 1.514-.145c65.381-12.603 112.836-70.068 112.836-136.64v-88.893c0-3.435-2.192-6.486-5.448-7.582l-106.349-35.804c-1.656-.557-3.449-.557-5.105 0l-106.35 35.804c-3.255 1.096-5.448 4.147-5.448 7.582v88.894c0 66.571 47.455 124.036 112.836 136.639zm-96.836-219.785 98.35-33.111 98.35 33.111v83.146c0 58.403-41.266 108.886-98.35 120.627-57.083-11.741-98.35-62.224-98.35-120.627zm59.111 149.331 13.117-9.497c1.94.929 3.927 1.753 5.954 2.469l2.559 15.986c.621 3.881 3.969 6.735 7.899 6.735h19.42c3.93 0 7.278-2.855 7.899-6.736l2.559-15.987c2.026-.716 4.013-1.54 5.953-2.468l13.117 9.497c3.183 2.304 7.569 1.956 10.348-.823l13.732-13.732c2.779-2.779 3.128-7.165.823-10.348l-9.497-13.117c.929-1.94 1.753-3.927 2.469-5.953l15.986-2.559c3.881-.621 6.736-3.969 6.736-7.899v-19.42c0-3.93-2.855-7.278-6.736-7.899l-15.987-2.559c-.716-2.026-1.54-4.013-2.469-5.953l9.497-13.117c2.305-3.183 1.956-7.569-.823-10.348l-13.732-13.732c-2.779-2.779-7.165-3.128-10.348-.823l-13.117 9.497c-1.94-.929-3.927-1.753-5.953-2.469l-2.559-15.986c-.621-3.881-3.969-6.736-7.899-6.736h-19.42c-3.93 0-7.278 2.854-7.899 6.735l-2.559 15.986c-2.027.716-4.014 1.54-5.954 2.469l-13.116-9.497c-3.184-2.305-7.57-1.957-10.348.823l-13.732 13.732c-2.779 2.779-3.128 7.165-.823 10.349l9.498 13.117c-.929 1.94-1.753 3.927-2.468 5.953l-15.988 2.559c-3.88.621-6.735 3.969-6.735 7.899v19.42c0 3.93 2.855 7.278 6.735 7.899l15.988 2.56c.716 2.026 1.54 4.012 2.468 5.952l-9.498 13.117c-2.305 3.183-1.956 7.569.823 10.348l13.732 13.732c2.78 2.78 7.165 3.128 10.348.824zm-24.598-61.253v-5.778l14.181-2.27c3.148-.504 5.696-2.829 6.486-5.917 1.042-4.074 2.662-7.98 4.815-11.611 1.626-2.743 1.468-6.189-.401-8.772l-8.426-11.637 4.086-4.086 11.636 8.425c2.583 1.871 6.031 2.027 8.773.4 3.63-2.153 7.536-3.773 11.611-4.815 3.089-.79 5.414-3.338 5.918-6.486l2.27-14.179h5.778l2.27 14.179c.504 3.148 2.829 5.696 5.918 6.486 4.072 1.041 7.979 2.661 11.61 4.815 2.742 1.628 6.189 1.469 8.772-.4l11.637-8.426 4.085 4.086-8.425 11.637c-1.87 2.583-2.027 6.029-.401 8.772 2.153 3.63 3.773 7.538 4.815 11.612.79 3.088 3.338 5.413 6.486 5.917l14.18 2.27v5.778l-14.179 2.27c-3.148.504-5.696 2.829-6.486 5.918-1.042 4.073-2.662 7.979-4.815 11.611-1.627 2.743-1.47 6.189.4 8.772l8.425 11.637-4.085 4.086-11.637-8.426c-2.583-1.871-6.031-2.027-8.772-.4-3.628 2.152-7.535 3.772-11.611 4.814-3.088.79-5.413 3.338-5.917 6.486l-2.27 14.18h-5.778l-2.27-14.179c-.504-3.148-2.829-5.696-5.918-6.486-4.072-1.042-7.979-2.662-11.611-4.816-2.743-1.626-6.189-1.469-8.772.401l-11.637 8.425-4.086-4.086 8.426-11.636c1.87-2.583 2.027-6.03.401-8.772-2.152-3.629-3.772-7.537-4.816-11.613-.79-3.088-3.338-5.412-6.485-5.916zm63.837 33.806c20.233 0 36.695-16.461 36.695-36.695 0-20.233-16.461-36.694-36.695-36.694s-36.695 16.461-36.695 36.694c0 20.234 16.462 36.695 36.695 36.695zm0-57.39c11.411 0 20.695 9.283 20.695 20.694 0 11.412-9.284 20.695-20.695 20.695s-20.695-9.284-20.695-20.695c0-11.41 9.284-20.694 20.695-20.694z"/></svg>