<?xml version="1.0" encoding="UTF-8"?><svg id="Layer_2" xmlns="http://www.w3.org/2000/svg" viewBox="0 0 284.59 61.11"><defs><style>.cls-1{fill:#fff;}.cls-2{fill:#3cb4e6;}</style></defs><g id="Layer_1-2"><g><g id="Wordmark"><g id="Cygnet"><path class="cls-1" d="M21.86,29.9c-1.37,.68-4.11,1.37-7.61,1.37C6.12,31.27,0,26.14,0,16.68S6.12,1.54,15.06,1.54c3.59,0,5.86,.77,6.84,1.28l-.9,3.04c-1.41-.68-3.42-1.2-5.82-1.2-6.76,0-11.25,4.32-11.25,11.89,0,7.06,4.06,11.59,11.08,11.59,2.27,0,4.58-.47,6.07-1.2l.77,2.95Z"/><path class="cls-1" d="M27.76,10.14l4.53,12.23c.47,1.37,.98,2.99,1.33,4.24h.09c.38-1.24,.81-2.82,1.33-4.32l4.11-12.15h3.98l-5.65,14.76c-2.69,7.1-4.53,10.74-7.1,12.96-1.84,1.63-3.68,2.27-4.62,2.44l-.94-3.17c.94-.3,2.18-.9,3.29-1.84,1.03-.81,2.31-2.27,3.17-4.19,.17-.39,.3-.68,.3-.9s-.09-.51-.26-.98l-7.66-19.08h4.11Z"/><path class="cls-1" d="M64.81,10.14c-.09,1.5-.17,3.17-.17,5.69v12.02c0,4.75-.94,7.66-2.95,9.45-2.01,1.88-4.92,2.48-7.53,2.48s-5.22-.6-6.89-1.71l.94-2.87c1.37,.86,3.51,1.63,6.07,1.63,3.85,0,6.67-2.01,6.67-7.23v-2.31h-.09c-1.15,1.92-3.38,3.46-6.59,3.46-5.13,0-8.81-4.36-8.81-10.1,0-7.02,4.58-10.99,9.33-10.99,3.59,0,5.56,1.88,6.46,3.59h.09l.17-3.12h3.29Zm-3.89,8.17c0-.64-.04-1.2-.21-1.71-.68-2.18-2.52-3.98-5.26-3.98-3.59,0-6.16,3.04-6.16,7.83,0,4.06,2.05,7.44,6.12,7.44,2.31,0,4.41-1.45,5.22-3.85,.21-.64,.3-1.37,.3-2.01v-3.72Z"/><path class="cls-1" d="M71.48,15.74c0-2.14-.04-3.89-.17-5.6h3.34l.21,3.42h.09c1.03-1.97,3.42-3.89,6.84-3.89,2.87,0,7.32,1.71,7.32,8.81v12.36h-3.76v-11.94c0-3.34-1.24-6.12-4.79-6.12-2.48,0-4.41,1.75-5.05,3.85-.17,.47-.26,1.11-.26,1.75v12.45h-3.76V15.74Z"/><path class="cls-1" d="M98.13,21.17c.09,5.09,3.34,7.19,7.1,7.19,2.69,0,4.32-.47,5.73-1.07l.64,2.69c-1.33,.6-3.59,1.28-6.89,1.28-6.37,0-10.18-4.19-10.18-10.44s3.68-11.17,9.71-11.17c6.76,0,8.56,5.95,8.56,9.75,0,.77-.09,1.37-.13,1.75h-14.54Zm11.04-2.69c.04-2.4-.98-6.12-5.22-6.12-3.81,0-5.48,3.51-5.78,6.12h10.99Z"/><path class="cls-1" d="M122.86,4.19v5.95h5.39v2.87h-5.39v11.17c0,2.57,.73,4.02,2.82,4.02,.98,0,1.71-.13,2.18-.26l.17,2.82c-.73,.3-1.88,.51-3.34,.51-1.75,0-3.17-.56-4.06-1.58-1.07-1.11-1.45-2.95-1.45-5.39V13h-3.21v-2.87h3.21V5.18l3.68-.98Z"/></g><g id="Infotech"><path class="cls-1" d="M145.71,2.01V30.84h-2.01V2.01h2.01Z"/><path class="cls-1" d="M154.14,15.23c0-1.88-.09-3.29-.17-4.92h1.88l.17,3.72h.09c1.11-2.31,3.68-4.19,7.06-4.19,1.97,0,7.14,.98,7.14,8.68v12.32h-2.01v-12.15c0-3.72-1.45-7.1-5.69-7.1-2.91,0-5.35,2.05-6.16,4.71-.17,.51-.3,1.2-.3,1.84v12.7h-2.01V15.23Z"/><path class="cls-1" d="M178.01,30.84V11.94h-2.95v-1.63h2.95v-1.11c0-3.17,.6-5.73,2.27-7.4,1.24-1.24,2.95-1.8,4.53-1.8,1.33,0,2.48,.34,3.08,.68l-.64,1.63c-.56-.3-1.37-.6-2.61-.6-3.81,0-4.62,3.51-4.62,7.44v1.15h5.52v1.63h-5.52V30.84h-2.01Z"/><path class="cls-1" d="M206.84,20.36c0,7.7-5.26,10.95-9.84,10.95-5.3,0-9.41-4.15-9.41-10.57,0-7.06,4.62-10.91,9.71-10.91,5.69,0,9.54,4.24,9.54,10.52Zm-17.2,.26c0,5.13,3.29,8.98,7.49,8.98s7.66-3.85,7.66-9.11c0-3.76-2.14-8.98-7.53-8.98s-7.61,4.71-7.61,9.11Z"/><path class="cls-1" d="M215.74,4.36v5.95h5.86v1.63h-5.86v13.35c0,2.61,.81,4.28,2.99,4.28,1.07,0,1.84-.17,2.35-.34l.26,1.58c-.68,.26-1.63,.47-2.87,.47-1.5,0-2.74-.47-3.51-1.45-.94-1.07-1.28-2.78-1.28-4.88V11.94h-3.46v-1.63h3.46V5.01l2.05-.64Z"/><path class="cls-1" d="M227.03,20.36c0,6.59,3.59,9.15,7.83,9.15,2.99,0,4.53-.6,5.69-1.15l.51,1.63c-.77,.43-2.87,1.28-6.46,1.28-5.9,0-9.58-4.28-9.58-10.31,0-6.84,3.94-11.12,9.24-11.12,6.72,0,8,6.33,8,9.28,0,.56,0,.9-.09,1.24h-15.14Zm13.09-1.63c.04-2.87-1.15-7.23-6.12-7.23-4.53,0-6.5,4.06-6.84,7.23h12.96Z"/><path class="cls-1" d="M262.49,29.94c-.9,.47-3.04,1.33-5.99,1.33-5.95,0-9.88-4.28-9.88-10.48s4.45-10.95,10.61-10.95c2.52,0,4.58,.73,5.39,1.28l-.73,1.67c-1.03-.56-2.61-1.2-4.88-1.2-5.52,0-8.34,4.24-8.34,9.07,0,5.35,3.38,8.85,8.13,8.85,2.44,0,4.02-.68,5.13-1.15l.56,1.58Z"/><path class="cls-1" d="M268.23,.47h2.01V13.99h.09c.6-1.16,1.58-2.27,2.82-2.99,1.15-.73,2.57-1.15,4.15-1.15,1.92,0,7.1,.98,7.1,8.6v12.41h-2.01v-12.15c0-3.72-1.45-7.1-5.65-7.1-2.91,0-5.35,2.1-6.2,4.66-.21,.6-.3,1.2-.3,2.01v12.58h-2.01V.47Z"/></g></g><path class="cls-1" d="M274.73,60.21c.81,.45,2.43,.87,4.07,.87,3.94,0,5.79-2.04,5.79-4.45,0-2.02-1.19-3.34-3.73-4.28-1.85-.7-2.66-1.11-2.66-2.02,0-.75,.68-1.38,2.09-1.38s2.43,.4,3,.68l.72-2.62c-.85-.38-2.04-.72-3.66-.72-3.39,0-5.43,1.87-5.43,4.32,0,2.09,1.56,3.41,3.94,4.24,1.73,.62,2.41,1.13,2.41,2.02s-.79,1.56-2.28,1.56c-1.38,0-2.73-.45-3.6-.9l-.66,2.68Zm-2.28-8.05h-5.28v-2.98h5.6v-2.66h-8.86v14.36h9.16v-2.66h-5.9v-3.41h5.28v-2.64Zm-11.16,5.77c-.64,.26-1.73,.47-2.71,.47-2.9,0-4.6-1.81-4.6-4.69,0-3.2,2-4.75,4.58-4.75,1.15,0,2.07,.26,2.73,.53l.66-2.58c-.58-.3-1.85-.64-3.54-.64-4.35,0-7.84,2.73-7.84,7.63,0,4.09,2.56,7.18,7.52,7.18,1.75,0,3.09-.32,3.69-.62l-.49-2.54Zm-16.13,2.94h3.26v-14.36h-3.26v14.36Zm-6.37,0l4.84-14.36h-3.45l-1.83,6.14c-.49,1.64-.94,3.34-1.3,5.07h-.06c-.34-1.79-.79-3.43-1.28-5.13l-1.75-6.07h-3.56l4.6,14.36h3.79Zm-16.47-11.95c.23-.04,.68-.11,1.47-.11,1.49,.02,2.39,.68,2.39,2s-.96,2.07-2.58,2.07h-1.28v-3.96Zm-3.22,11.95h3.22v-5.65h.98c1.32,.02,1.94,.51,2.32,2.3,.43,1.77,.77,2.94,1,3.34h3.32c-.28-.55-.72-2.43-1.17-4.05-.36-1.32-.92-2.28-1.92-2.68v-.06c1.24-.45,2.53-1.7,2.53-3.54,0-1.32-.47-2.32-1.32-3-1.02-.81-2.51-1.13-4.64-1.13-1.73,0-3.28,.13-4.32,.3v14.17Zm-2.83-8.71h-5.28v-2.98h5.6v-2.66h-8.86v14.36h9.16v-2.66h-5.9v-3.41h5.28v-2.64Zm-20.6,8.05c.81,.45,2.43,.87,4.07,.87,3.94,0,5.79-2.04,5.79-4.45,0-2.02-1.19-3.34-3.73-4.28-1.85-.7-2.66-1.11-2.66-2.02,0-.75,.68-1.38,2.09-1.38s2.43,.4,3,.68l.72-2.62c-.85-.38-2.04-.72-3.66-.72-3.39,0-5.43,1.87-5.43,4.32,0,2.09,1.56,3.41,3.94,4.24,1.73,.62,2.41,1.13,2.41,2.02s-.79,1.56-2.28,1.56c-1.38,0-2.73-.45-3.6-.9l-.66,2.68Zm-10.03,.66v-5.99l4.73-8.37h-3.64l-1.45,3.45c-.43,1.02-.77,1.85-1.09,2.75h-.04c-.36-.94-.66-1.7-1.11-2.75l-1.47-3.45h-3.71l4.54,8.48v5.88h3.24Zm-9.1-8.22h-5.35v2.53h2.22v3c-.26,.13-.85,.21-1.6,.21-2.66,0-4.52-1.75-4.52-4.71,0-3.11,2.04-4.64,4.75-4.64,1.58,0,2.56,.28,3.34,.62l.68-2.6c-.7-.34-2.13-.7-3.98-.7-4.71,0-8.18,2.73-8.2,7.5-.02,2.11,.7,3.98,2.02,5.22,1.32,1.28,3.22,1.94,5.84,1.94,1.9,0,3.79-.47,4.79-.81v-7.56Zm-21.03-3.79c2.24,0,3.47,2.22,3.47,4.79,0,2.79-1.26,4.88-3.45,4.88s-3.49-1.98-3.49-4.79,1.28-4.88,3.47-4.88m.09-2.58c-4.24,0-6.99,3.22-6.99,7.52s2.49,7.31,6.75,7.31,7.05-2.85,7.05-7.56c0-3.96-2.41-7.26-6.82-7.26m-16.4,14.59h8.97v-2.73h-5.71v-11.63h-3.26v14.36Zm-9.03-12.02c2.24,0,3.47,2.22,3.47,4.79,0,2.79-1.26,4.88-3.45,4.88s-3.49-1.98-3.49-4.79,1.28-4.88,3.47-4.88m.09-2.58c-4.24,0-6.99,3.22-6.99,7.52s2.49,7.31,6.75,7.31,7.05-2.85,7.05-7.56c0-3.96-2.41-7.26-6.82-7.26m-18.04,14.59v-4.32c0-2.34-.04-4.37-.13-6.26l.06-.02c.7,1.68,1.64,3.54,2.49,5.07l3.07,5.54h3.41v-14.36h-2.98v4.2c0,2.15,.06,4.09,.28,5.99h-.06c-.64-1.62-1.49-3.41-2.34-4.92l-2.98-5.26h-3.79v14.36h2.98Zm-17.66-14.36v14.36h3.26v-6.01h5.35v6.01h3.24v-14.36h-3.24v5.52h-5.35v-5.52h-3.26Zm-2.62,11.42c-.64,.26-1.73,.47-2.71,.47-2.9,0-4.6-1.81-4.6-4.69,0-3.2,2-4.75,4.58-4.75,1.15,0,2.07,.26,2.73,.53l.66-2.58c-.58-.3-1.85-.64-3.54-.64-4.35,0-7.84,2.73-7.84,7.63,0,4.09,2.56,7.18,7.52,7.18,1.75,0,3.09-.32,3.69-.62l-.49-2.54Zm-12.89-5.77h-5.28v-2.98h5.6v-2.66h-8.86v14.36h9.16v-2.66h-5.9v-3.41h5.28v-2.64Zm-17.45,8.71h3.26v-11.63h3.92v-2.73h-11.03v2.73h3.86v11.63Z"/><path class="cls-2" d="M.05,54.57c4.24,1.5,8.68,.97,12.99,.39,9.02-1.25,17.38-5.44,26.71-4.73,4.69,.26,9.57,1.96,12.89,5.32-4.11-1.53-8.53-2.07-12.87-1.63-8.91,.7-17.31,4.86-26.47,4.69-4.57-.1-9.83-.71-13.26-4.04H.05Z"/></g></g></svg>