<svg clip-rule="evenodd" fill-rule="evenodd" height="512" stroke-linejoin="round" stroke-miterlimit="2" viewBox="0 0 356 356" width="512" xmlns="http://www.w3.org/2000/svg"><g id="Exp-1.-O"><g><path d="m296.037 228.093 25.233-12.621s12.419-1.063 12.419-1.063c2.291-.196 3.992-2.215 3.796-4.507-.196-2.291-2.216-3.992-4.507-3.796l-13.214 1.131c-.525.045-1.037.189-1.508.425l-25.947 12.978c-2.056 1.029-2.891 3.534-1.862 5.591s3.534 2.891 5.59 1.862z"/><path d="m332.236 50.01-63.435 17.324s-61.598-23.761-61.598-23.761c-4.413-1.703-9.314-1.632-13.677.197-15.872 6.654-62.26 26.103-62.26 26.103-.499.209-.953.514-1.335.896 0 0-23.732 23.733-40.03 40.03-4.763 4.763-7.438 11.222-7.438 17.957 0 6.736 2.675 13.195 7.438 17.958 0 0 .781.781 0 0 4.763 4.763 11.222 7.438 17.958 7.438 6.735 0 13.194-2.675 17.957-7.438 0 0 35.042-35.043 35.042-35.043s58.728 22.545 58.728 22.545c2.147.824 4.559-.25 5.384-2.397.824-2.146-.25-4.559-2.397-5.383l-61.254-23.514c-1.537-.59-3.276-.22-4.44.944 0 0-21.607 21.606-36.956 36.955-3.199 3.2-7.539 4.998-12.064 4.998-4.526 0-8.866-1.798-12.065-4.998 1.191 1.192 0 0 0 0-3.2-3.199-4.998-7.539-4.998-12.065 0-4.525 1.798-8.865 4.998-12.064 0 0 39.45-39.451 39.45-39.451s61.505-25.786 61.505-25.786c2.378-.997 5.049-1.035 7.455-.107l62.875 24.253c.829.32 1.739.367 2.597.132l64.755-17.684c2.218-.606 3.528-2.899 2.922-5.117s-2.899-3.528-5.117-2.922z"/><path d="m215.98 218.779s21.606 21.607 36.956 36.956c4.762 4.763 11.222 7.438 17.957 7.438s13.195-2.675 17.957-7.438l2.052-2.051c8.905-8.906 9.938-22.993 2.427-33.103l-67.595-90.976c-1.371-1.846-3.983-2.231-5.829-.86s-2.231 3.984-.86 5.83l67.595 90.976c5.046 6.792 4.352 16.257-1.631 22.24 0 .001-2.051 2.052-2.051 2.052-3.2 3.199-7.54 4.997-12.065 4.997s-8.865-1.798-12.065-4.997c-15.349-15.349-36.956-36.956-36.956-36.956-1.626-1.626-4.266-1.626-5.892 0s-1.626 4.266 0 5.892z"/><path d="m126.237 73.934-103.092-23.421c-2.242-.509-4.476.898-4.986 3.14-.509 2.243.898 4.477 3.14 4.987l103.092 23.42c2.243.51 4.477-.897 4.986-3.14.51-2.242-.897-4.477-3.14-4.986z"/><path d="m158.754 305.772c9.917-9.917 9.917-25.997 0-35.914l-5.893 5.892c6.664 6.663 6.664 17.467 0 24.13-6.663 6.663-17.466 6.663-24.129 0-.001 0-83.347-83.347-83.347-83.347-.349-.349-.757-.633-1.205-.839-.268-.124-20.229-9.227-20.229-9.227-2.092-.955-4.565-.031-5.52 2.062-.954 2.092-.03 4.565 2.062 5.52 0 0 16.019 7.306 19.531 8.908 0 0 82.815 82.815 82.815 82.815 9.918 9.918 25.997 9.918 35.915 0z"/><path d="m147.858 270.746s13.658 13.659 25.018 25.019c9.918 9.918 25.997 9.918 35.915 0l.01-.01c4.76-4.76 7.434-11.216 7.434-17.948 0-6.731-2.674-13.187-7.434-17.947l-5.893 5.893c3.198 3.197 4.994 7.533 4.994 12.054 0 4.522-1.796 8.858-4.994 12.055-.003.004-.006.007-.01.01-6.663 6.664-17.466 6.664-24.129.001 0-.001-25.019-25.019-25.019-25.019-1.626-1.626-4.266-1.626-5.892 0-1.627 1.626-1.627 4.266 0 5.892z"/><path d="m248.821 275.75c9.917-9.918 9.917-25.997 0-35.915l-5.893 5.893c6.663 6.663 6.663 17.466 0 24.13-3.2 3.199-7.54 4.997-12.065 4.997s-8.865-1.798-12.065-4.998l-30.022-30.022c-1.626-1.626-4.266-1.626-5.892 0-1.627 1.626-1.627 4.267 0 5.893 0 0 16.924 16.924 30.022 30.022 4.762 4.763 11.222 7.438 17.957 7.438 6.736 0 13.195-2.675 17.958-7.438z"/></g></g></svg>