<?xml version="1.0" encoding="iso-8859-1"?>
<!-- Generator: Adobe Illustrator 19.0.0, SVG Export Plug-In . SVG Version: 6.00 Build 0)  -->
<svg version="1.1" id="Capa_1" xmlns="http://www.w3.org/2000/svg" xmlns:xlink="http://www.w3.org/1999/xlink" x="0px" y="0px"
	 viewBox="0 0 512 512" style="enable-background:new 0 0 512 512;" xml:space="preserve">
<g>
	<g>
		<g>
			<path d="M330.852,500.827C435.606,468.736,512,371.128,512,256c0-108.849-68.292-202.032-164.273-238.995
				c-0.552-0.292-1.145-0.515-1.764-0.672C317.96,5.787,287.645,0,256,0C114.84,0,0,114.84,0,256
				c0,115.128,76.394,212.736,181.148,244.827c0.402,0.154,0.817,0.284,1.247,0.372c15.467,4.651,31.539,7.887,48.076,9.532
				c0.495,0.096,1.006,0.15,1.529,0.15c0.033,0,0.065-0.005,0.099-0.005C239.971,511.607,247.94,512,256,512
				s16.029-0.393,23.901-1.125c0.033,0,0.065,0.005,0.099,0.005c0.523,0,1.034-0.054,1.529-0.15
				c16.536-1.645,32.609-4.88,48.076-9.532C330.035,501.111,330.449,500.981,330.852,500.827z M16,256
				c0-8.099,0.409-16.105,1.197-24H192c17.648,0,32,14.352,32,32v229.861c-10.914-1.461-21.597-3.658-32-6.54V392
				c0-26.472-21.528-48-48-48h-17.012c-3.56-13.788-16.101-24-30.988-24c-17.648,0-32,14.352-32,32s14.352,32,32,32
				c14.886,0,27.427-10.212,30.988-24H144c17.648,0,32,14.352,32,32v90.272C82.88,449.251,16,360.296,16,256z M112,352
				c0,8.824-7.176,16-16,16s-16-7.176-16-16c0-8.824,7.176-16,16-16S112,343.176,112,352z M240,495.454V264
				c0-26.472-21.528-48-48-48H19.352C38.452,102.638,137.291,16,256,16c28.04,0,54.965,4.85,80,13.728V144c0,26.472,21.528,48,48,48
				h17.012c3.56,13.788,16.101,24,30.988,24c17.648,0,32-14.352,32-32s-14.352-32-32-32c-14.886,0-27.427,10.212-30.988,24H384
				c-17.648,0-32-14.352-32-32V36.061C436.684,73.168,496,157.781,496,256c0,104.296-66.88,193.251-160,226.272V336
				c0-17.648,14.352-32,32-32h17.012c3.56,13.788,16.101,24,30.988,24c17.648,0,32-14.352,32-32s-14.352-32-32-32
				c-14.886,0-27.427,10.212-30.988,24H368c-26.472,0-48,21.528-48,48v151.321c-10.403,2.882-21.086,5.079-32,6.54v-6.821
				c0-4.416-3.584-8-8-8c-4.416,0-8,3.584-8,8v8.414c-5.291,0.35-10.622,0.546-16,0.546S245.291,495.804,240,495.454z M416,184
				c0-8.824,7.176-16,16-16c8.824,0,16,7.176,16,16c0,8.824-7.176,16-16,16C423.176,200,416,192.824,416,184z M400,296
				c0-8.824,7.176-16,16-16c8.824,0,16,7.176,16,16c0,8.824-7.176,16-16,16C407.176,312,400,304.824,400,296z"/>
			<path d="M272,176v214.88c0,4.416,3.584,8,8,8c4.416,0,8-3.584,8-8V176c0-26.472-21.528-48-48-48h-17.012
				c-3.56-13.788-16.101-24-30.988-24c-17.648,0-32,14.352-32,32s14.352,32,32,32c14.886,0,27.427-10.212,30.988-24H240
				C257.648,144,272,158.352,272,176z M192,152c-8.824,0-16-7.176-16-16s7.176-16,16-16c8.824,0,16,7.176,16,16
				C208,144.824,200.824,152,192,152z"/>
			<path d="M274.32,418.32c-1.44,1.52-2.32,3.6-2.32,5.68c0,2.08,0.88,4.16,2.32,5.68c1.52,1.44,3.6,2.32,5.68,2.32
				c2.08,0,4.16-0.88,5.68-2.32c1.44-1.52,2.32-3.52,2.32-5.68c0-2.08-0.88-4.16-2.32-5.68
				C282.64,415.36,277.36,415.36,274.32,418.32z"/>
			<path d="M274.32,450.32c-1.44,1.52-2.32,3.6-2.32,5.68c0,2.08,0.88,4.16,2.32,5.68c1.52,1.44,3.6,2.32,5.68,2.32
				c2.08,0,4.16-0.88,5.68-2.32c1.44-1.52,2.32-3.6,2.32-5.68c0-2.08-0.88-4.16-2.32-5.68
				C282.72,447.36,277.36,447.36,274.32,450.32z"/>
		</g>
	</g>
</g>
<g>
</g>
<g>
</g>
<g>
</g>
<g>
</g>
<g>
</g>
<g>
</g>
<g>
</g>
<g>
</g>
<g>
</g>
<g>
</g>
<g>
</g>
<g>
</g>
<g>
</g>
<g>
</g>
<g>
</g>
</svg>
