<svg id="Capa_1" enable-background="new 0 0 512 512" height="512" viewBox="0 0 512 512" width="512" xmlns="http://www.w3.org/2000/svg"><g><path d="m397.742 0h-118.84c-26.038 0-50.519 10.142-68.933 28.557l-146.651 146.641c-18.408 18.418-28.545 42.899-28.545 68.932v15.207c0 .058-.004.115-.004.173 0 .029.004.058.004.087v172.913c0 43.831 35.659 79.49 79.49 79.49h23.53c4.142 0 7.5-3.358 7.5-7.5s-3.358-7.5-7.5-7.5h-23.53c-35.56 0-64.49-28.93-64.49-64.49v-173.173c.094-24.816 20.308-44.976 45.145-44.976h74.72c43.83 0 79.487-35.658 79.487-79.488v-74.72c0-24.895 20.254-45.149 45.149-45.149.029 0 .058-.004.087-.004h103.382c35.56 0 64.49 28.93 64.49 64.49v34.346h-43.16l-33.203-33.194c.224-1.619.349-3.269.349-4.949 0-19.806-16.114-35.92-35.92-35.92s-35.92 16.114-35.92 35.92 16.114 35.92 35.92 35.92c1.679 0 3.329-.125 4.947-.349l39.543 39.543c4.087 4.087 9.523 6.338 15.306 6.338h52.138v10.084h-36.41c-4.142 0-7.5 3.358-7.5 7.5s3.358 7.5 7.5 7.5h36.41v13.304h-89.873c-1.989 0-3.897.79-5.303 2.197l-12.938 12.937c-2.527-3.691-5.724-6.887-9.415-9.414l17.081-17.081c1.253-1.253 2.925-1.943 4.707-1.943h29.33c4.142 0 7.5-3.358 7.5-7.5s-3.358-7.5-7.5-7.5h-29.33c-5.789 0-11.227 2.25-15.313 6.337l-21.771 21.771c-1.617-.224-3.266-.348-4.943-.348-19.806 0-35.92 16.114-35.92 35.92s16.114 35.92 35.92 35.92 35.92-16.114 35.92-35.92c0-1.678-.125-3.327-.349-4.945l15.431-15.43h86.766v10.09h-15.441c-5.783 0-11.218 2.251-15.306 6.338l-39.548 39.548c-1.617-.224-3.265-.348-4.943-.348-19.806 0-35.92 16.114-35.92 35.92s16.114 35.92 35.92 35.92 35.92-16.114 35.92-35.92c0-1.681-.125-3.333-.35-4.954l33.203-33.195h6.463v168.577c0 35.56-28.93 64.49-64.49 64.49h-229.95c-4.142 0-7.5 3.358-7.5 7.5s3.358 7.5 7.5 7.5h229.95c43.831 0 79.49-35.659 79.49-79.49v-353.02c.001-43.831-35.658-79.49-79.489-79.49zm-163.618 134.873c0 35.559-28.929 64.488-64.487 64.488h-74.72c-15.143 0-28.985 5.637-39.571 14.907 4.089-10.543 10.345-20.225 18.579-28.464l146.65-146.64c8.238-8.238 17.919-14.496 28.461-18.587-9.273 10.586-14.912 24.431-14.912 39.577zm90.341 116.956c-11.535 0-20.92-9.385-20.92-20.92s9.385-20.92 20.92-20.92 20.92 9.385 20.92 20.92-9.385 20.92-20.92 20.92zm4.914-176.136c0-11.535 9.385-20.92 20.92-20.92s20.92 9.385 20.92 20.92-9.385 20.92-20.92 20.92-20.92-9.384-20.92-20.92zm80.715 66.453c-1.776 0-3.445-.691-4.699-1.945l-34.854-34.854c3.689-2.526 6.884-5.721 9.41-9.41l30.712 30.704c1.407 1.406 3.314 2.196 5.303 2.196h46.266v13.309zm-23.099 180.856c-11.535 0-20.92-9.385-20.92-20.92s9.385-20.92 20.92-20.92 20.92 9.385 20.92 20.92-9.384 20.92-20.92 20.92zm65.668-74.069c-1.989 0-3.896.79-5.303 2.196l-30.714 30.706c-2.527-3.688-5.722-6.883-9.411-9.409l34.857-34.857c1.254-1.254 2.923-1.945 4.699-1.945h15.441v13.309z"/><path d="m99.971 279.681h146.719c4.142 0 7.5-3.358 7.5-7.5s-3.358-7.5-7.5-7.5h-146.719c-4.142 0-7.5 3.358-7.5 7.5s3.358 7.5 7.5 7.5z"/><path d="m99.971 318.909h210.337c4.142 0 7.5-3.358 7.5-7.5s-3.358-7.5-7.5-7.5h-210.337c-4.142 0-7.5 3.358-7.5 7.5s3.358 7.5 7.5 7.5z"/><path d="m99.971 358.137h210.337c4.142 0 7.5-3.358 7.5-7.5s-3.358-7.5-7.5-7.5h-210.337c-4.142 0-7.5 3.358-7.5 7.5s3.358 7.5 7.5 7.5z"/><path d="m99.971 397.365h210.337c4.142 0 7.5-3.358 7.5-7.5s-3.358-7.5-7.5-7.5h-210.337c-4.142 0-7.5 3.358-7.5 7.5s3.358 7.5 7.5 7.5z"/><path d="m324.465 449.263h76.749c4.142 0 7.5-3.358 7.5-7.5s-3.358-7.5-7.5-7.5h-76.749c-4.142 0-7.5 3.358-7.5 7.5s3.358 7.5 7.5 7.5z"/></g></svg>