<?xml version="1.0" encoding="UTF-8"?>
<svg xmlns="http://www.w3.org/2000/svg" id="Layer_1" data-name="Layer 1" viewBox="0 0 512 512" width="512" height="512"><path d="M65.287,154.353l42.632,34.1a177.543,177.543,0,0,0-5.276,33.471L51.588,241.167a8,8,0,0,0-5.159,8.047A234.723,234.723,0,0,0,52.7,288.952,8,8,0,0,0,59.749,295c25.393,2.272,59.827,6.518,60.314,6.621a8,8,0,0,0,7.307-2.171l46.379-46.379a8,8,0,0,0,2.275-6.7A104.017,104.017,0,1,1,265.5,335.846a8,8,0,0,0-6.7,2.275L212.421,384.5a8,8,0,0,0-2.171,7.308c.1.486,4.349,34.92,6.621,60.313a8,8,0,0,0,6.048,7.053,234.566,234.566,0,0,0,39.736,6.266,8,8,0,0,0,8.048-5.158l19.245-51.055a177.541,177.541,0,0,0,33.472-5.276l34.1,42.632A8.008,8.008,0,0,0,366.766,449,232.309,232.309,0,0,0,402.6,430.734a8,8,0,0,0,3.476-8.9l-14.449-52.648c4.354-3.6,8.56-7.422,12.551-11.412s7.814-8.2,11.412-12.551l52.648,14.449a8,8,0,0,0,8.9-3.476,232.351,232.351,0,0,0,18.268-35.838,8.01,8.01,0,0,0-2.419-9.249l-42.632-34.1a177.518,177.518,0,0,0,5.276-33.471l51.055-19.245a8,8,0,0,0,5.158-8.048,234.755,234.755,0,0,0-6.265-39.737,8,8,0,0,0-7.4-6.07L443.7,167.913a175.885,175.885,0,0,0-15.4-30.21l29.971-45.546a8,8,0,0,0-.565-9.553c-4.38-5.2-8.957-10.19-13.6-14.837s-9.638-9.224-14.837-13.6a8,8,0,0,0-9.552-.564l-45.547,29.97a175.885,175.885,0,0,0-30.21-15.4l-2.524-54.486a8,8,0,0,0-6.071-7.4A234.641,234.641,0,0,0,295.625.02a8,8,0,0,0-8.049,5.158L268.332,56.233a177.462,177.462,0,0,0-33.471,5.276l-34.1-42.632a8,8,0,0,0-9.249-2.419,232.354,232.354,0,0,0-35.838,18.268,8,8,0,0,0-3.476,8.9l14.449,52.648c-4.354,3.6-8.561,7.423-12.55,11.412s-7.815,8.2-11.413,12.551L90.038,105.79a8,8,0,0,0-8.9,3.476A232.309,232.309,0,0,0,62.868,145.1,8.011,8.011,0,0,0,65.287,154.353Zm78.235-17.293a8,8,0,0,0,8.437-2.808,162.727,162.727,0,0,1,28.7-28.7,8,8,0,0,0,2.808-8.436L169.229,45.222a216.647,216.647,0,0,1,22.815-11.63l33.607,42.019A8,8,0,0,0,234.13,78.3,161.39,161.39,0,0,1,274.2,71.98a8,8,0,0,0,7.242-5.175l18.97-50.326A218.93,218.93,0,0,1,325.73,20.47l2.488,53.7a8,8,0,0,0,5.293,7.161,159.819,159.819,0,0,1,36.141,18.425,8,8,0,0,0,8.906.075l44.9-29.543A214.411,214.411,0,0,1,441.58,88.416l-29.543,44.9a8,8,0,0,0,.075,8.907,159.75,159.75,0,0,1,18.425,36.14,8,8,0,0,0,7.161,5.293l53.7,2.488a218.93,218.93,0,0,1,3.991,25.314l-50.326,18.97a8,8,0,0,0-5.175,7.242,161.375,161.375,0,0,1-6.317,40.074,8,8,0,0,0,2.686,8.479l42.019,33.607a216.643,216.643,0,0,1-11.63,22.815L414.758,328.4a8,8,0,0,0-8.437,2.808,162.727,162.727,0,0,1-28.7,28.7,8,8,0,0,0-2.808,8.437l14.241,51.89a216.741,216.741,0,0,1-22.815,11.63l-33.607-42.019a8,8,0,0,0-8.479-2.686,161.455,161.455,0,0,1-40.075,6.318,8,8,0,0,0-7.241,5.174l-18.97,50.326a218.848,218.848,0,0,1-25.581-4.05c-.537-5.835-5.189-50.444-5.456-52.209l40.555-40.555A120.017,120.017,0,1,0,159.7,244.488l-40.555,40.556c-1.765-.268-46.374-4.92-52.209-5.457a219.1,219.1,0,0,1-4.051-25.581l50.327-18.97a8,8,0,0,0,5.175-7.242,161.375,161.375,0,0,1,6.317-40.074,8,8,0,0,0-2.685-8.479L80,145.634a216.542,216.542,0,0,1,11.629-22.815ZM307,163.194a8,8,0,0,0-5.479-5.7,78.489,78.489,0,0,0-99.409,90.227L13.247,436.58c-16.933,16.934-17.554,44.608-1.384,61.691.287.3.575.6.868.891a43.871,43.871,0,0,0,62.031-.011l189.389-189.39a78.487,78.487,0,0,0,90.227-99.408,8,8,0,0,0-13.326-3.382l-40.57,40.569L271.97,239.9l-7.64-28.512,40.57-40.569A8,8,0,0,0,307,163.194ZM257.71,248.5a8.006,8.006,0,0,0,5.657,5.657L300.8,264.19a8,8,0,0,0,7.727-2.07l33-33a62.486,62.486,0,0,1-76.148,64.55,11.69,11.69,0,0,0-10.895,3.13L63.448,487.837a27.871,27.871,0,0,1-39.965-.566c-10.27-10.848-9.786-28.513,1.078-39.377L215.068,257.388a11.7,11.7,0,0,0,3.13-10.894,62.486,62.486,0,0,1,64.549-76.15l-33,33a8,8,0,0,0-2.071,7.728Z"/></svg>
