<svg id="Layer_1" enable-background="new 0 0 512.001 512.001" height="512" viewBox="0 0 512.001 512.001" width="512" xmlns="http://www.w3.org/2000/svg"><g><g><path d="m256 13.5c-88.224 0-160 71.776-160 160 0 80.135 33.181 112.635 59.843 138.75 15.18 14.868 26.702 26.163 29.499 43.056-12.699 4.423-21.841 16.508-21.841 30.696 0 14.432 9.459 26.69 22.5 30.919v21.582h-2.5c-5.523 0-10 4.477-10 10s4.477 10 10 10h2.5v10c0 16.542 13.458 30 30 30h80c16.542 0 30-13.458 30-30v-10h2.5c5.523 0 10-4.477 10-10s-4.477-10-10-10h-2.501v-21.583c13.041-4.228 22.5-16.487 22.5-30.919 0-14.187-9.142-26.273-21.841-30.696 2.797-16.893 14.318-28.188 29.498-43.056 26.662-26.114 59.843-58.614 59.843-138.749 0-88.225-71.775-160-160-160zm50 455.002c0 5.514-4.486 10-10 10h-80c-5.514 0-10-4.486-10-10v-10h100zm-99.999-30v-20.001h100v20.001zm136.162-140.541c-16.434 16.096-32.054 31.411-35.467 55.54h-5.692c-5.523 0-10 4.477-10 10s4.477 10 10 10h14.996c6.893 0 12.5 5.608 12.5 12.5s-5.607 12.5-12.5 12.5h-120c-6.893 0-12.5-5.607-12.5-12.5s5.607-12.5 12.5-12.5h15.003c5.523 0 10-4.477 10-10s-4.477-10-10-10h-5.699c-3.413-24.129-19.033-39.444-35.467-55.541-25.234-24.716-53.837-52.731-53.837-124.46 0-77.196 62.804-140 140-140s140 62.804 140 140c0 71.729-28.602 99.744-53.837 124.461z"/><path d="m65.999 173.5c0-5.523-4.477-10-10-10h-45.999c-5.523 0-10 4.477-10 10s4.477 10 10 10h45.999c5.523 0 10-4.478 10-10z"/><path d="m77.794 264.84-39.836 23c-4.783 2.761-6.422 8.877-3.66 13.66 1.852 3.208 5.213 5.002 8.669 5.002 1.696 0 3.416-.433 4.991-1.342l39.836-23c4.783-2.761 6.422-8.877 3.66-13.66-2.761-4.783-8.878-6.422-13.66-3.66z"/><path d="m474.043 287.84-39.836-23c-4.781-2.76-10.898-1.123-13.66 3.66s-1.123 10.899 3.66 13.66l39.836 23c1.575.91 3.294 1.342 4.991 1.342 3.456 0 6.817-1.794 8.669-5.002 2.762-4.783 1.124-10.899-3.66-13.66z"/><path d="m502.001 163.5h-45.999c-5.523 0-10 4.477-10 10s4.477 10 10 10h45.999c5.523 0 10-4.477 10-10s-4.477-10-10-10z"/><path d="m429.217 83.5c1.696 0 3.416-.433 4.991-1.342l39.836-23c4.783-2.761 6.422-8.877 3.66-13.66-2.761-4.783-8.878-6.422-13.66-3.66l-39.836 23c-4.783 2.761-6.422 8.877-3.66 13.66 1.851 3.209 5.213 5.002 8.669 5.002z"/><path d="m87.794 64.838-39.836-23c-4.782-2.763-10.899-1.123-13.66 3.66-2.762 4.783-1.123 10.899 3.66 13.66l39.836 23c1.575.91 3.294 1.342 4.991 1.342 3.456 0 6.817-1.794 8.669-5.002 2.762-4.782 1.123-10.898-3.66-13.66z"/><path d="m334.819 131.547-37.695-6.678-18.689-34.379c-.001-.002-.001-.003-.002-.005-2.394-4.397-5.997-7.969-10.421-10.328-6.022-3.212-12.937-3.886-19.469-1.9-6.531 1.988-11.897 6.4-15.112 12.428l-17.998 33.785-37.865 7.036c-5.186.82-9.928 3.179-13.723 6.829-4.924 4.736-7.708 11.106-7.841 17.938-.132 6.831 2.403 13.304 7.147 18.236l26.589 27.578-4.905 37.396c-1.035 5.45-.299 10.962 2.139 15.968 4.429 9.096 13.569 14.395 23.064 14.395 3.757 0 7.571-.83 11.169-2.583l34.398-16.743 35.346 16.838c4.498 2.147 9.521 2.914 14.524 2.223 13.974-1.933 23.769-14.874 21.834-28.862l-5.3-37.932 26.11-27.54c3.961-3.794 6.551-8.653 7.498-14.076 1.176-6.738-.342-13.531-4.274-19.127-3.933-5.595-9.81-9.325-16.524-10.497zm1.097 26.186c-.268 1.532-1.067 2.547-1.69 3.129-.149.139-.294.283-.434.431l-29.608 31.23c-2.094 2.208-3.068 5.25-2.647 8.264l5.965 42.688c.422 3.05-1.716 5.875-4.766 6.296-1.115.155-2.213-.005-3.176-.464l-39.699-18.913c-2.748-1.309-5.941-1.295-8.677.037l-38.729 18.852c-2.779 1.354-6.144.194-7.498-2.586-.691-1.419-.627-2.729-.453-3.577.049-.237.089-.477.121-.717l5.573-42.489c.396-3.017-.604-6.05-2.716-8.241l-29.923-31.036c-1.033-1.074-1.585-2.485-1.557-3.975.029-1.49.636-2.878 1.71-3.912 1.059-1.019 2.229-1.375 3.023-1.495.114-.017.227-.036.34-.057l42.748-7.944c2.992-.556 5.568-2.444 6.999-5.13l20.26-38.031c.698-1.31 1.865-2.27 3.286-2.702.535-.163 1.082-.244 1.626-.244.9 0 1.792.221 2.608.657.963.514 1.747 1.288 2.266 2.24l20.988 38.607c1.453 2.674 4.045 4.54 7.042 5.071l42.462 7.522c1.476.257 2.762 1.074 3.624 2.3s1.189 2.714.932 4.189z"/><path d="m267.087 200.811h-1.087v-49.998c0-3.573-1.906-6.874-5-8.66s-6.905-1.786-10 0l-11.087 6.401c-4.783 2.761-6.422 8.877-3.66 13.66 2.044 3.541 5.926 5.356 9.747 4.943v33.654h-1.087c-5.523 0-10 4.477-10 10s4.477 10 10 10h22.174c5.523 0 10-4.477 10-10s-4.477-10-10-10z"/><path d="m256.008 353.501h-.008c-5.523 0-9.996 4.477-9.996 10s4.48 10 10.003 10 10-4.477 10-10-4.476-10-9.999-10z"/></g></g></svg>