<?xml version="1.0" encoding="UTF-8"?>
<svg xmlns="http://www.w3.org/2000/svg" id="Layer_1" data-name="Layer 1" viewBox="0 0 64 64" width="512" height="512"><path d="M4,48H8.98v6A6.614,6.614,0,0,0,12,59.554V63h2V59a1,1,0,0,0-.5-.867A4.72,4.72,0,0,1,10.98,54V46a.5.5,0,0,1,1,0v3h2V44a.5.5,0,0,1,1,0v5h2V42a.5.5,0,0,1,1,0l0,7h2V43.988a.5.5,0,0,1,1,.012v8a1,1,0,0,0,1.646.764l1.517-1.284a1.008,1.008,0,0,0,.166-.179.77.77,0,0,1,.628-.324.759.759,0,0,1,.747.523.827.827,0,0,1,0,.538l-2.719,4.721A2.183,2.183,0,0,1,21,58a1,1,0,0,0-1,1v4h2V59.88a4.117,4.117,0,0,0,2.726-2.18l2.724-4.733a2.822,2.822,0,0,0,.138-2.08,2.785,2.785,0,0,0-4.608-1.1V48H41.02v1.787a2.785,2.785,0,0,0-4.61,1.107,2.852,2.852,0,0,0,.177,2.143l2.656,4.6A4.177,4.177,0,0,0,42,59.879V63h2V59a1,1,0,0,0-1-1,2.219,2.219,0,0,1-1.994-1.3l-2.65-4.594a.824.824,0,0,1-.043-.6.785.785,0,0,1,1.378-.2,1.008,1.008,0,0,0,.166.179l1.517,1.284A1,1,0,0,0,43.02,52V44a.5.5,0,0,1,1-.012V49h2l0-7a.5.5,0,0,1,1,0v7h2V44a.5.5,0,0,1,1,0v5h2V46a.5.5,0,0,1,1,0v8A4.72,4.72,0,0,1,50.5,58.133,1,1,0,0,0,50,59v4h2V59.554A6.614,6.614,0,0,0,55.02,54V48H60a1,1,0,0,0,.91-1.414L56,35.784V2a1,1,0,0,0-1-1H9A1,1,0,0,0,8,2V35.784l-4.91,10.8A1,1,0,0,0,4,48ZM10,3H54V35H10ZM9.644,37H54.356l4.091,9H55.02a2.485,2.485,0,0,0-3.046-2.436A2.5,2.5,0,0,0,49.518,41.5a2.448,2.448,0,0,0-.545.064,2.493,2.493,0,0,0-4.911,0A2.486,2.486,0,0,0,41.02,44v2H22.98V44a2.486,2.486,0,0,0-3.042-2.437,2.493,2.493,0,0,0-4.911,0,2.448,2.448,0,0,0-.545-.064,2.5,2.5,0,0,0-2.456,2.064A2.485,2.485,0,0,0,8.98,46H5.553Z"/><path d="M32.878,7.521a1.04,1.04,0,0,0-1.756,0l-12,22A1,1,0,0,0,20,31H44a1,1,0,0,0,.878-1.479ZM21.685,29,32,10.088,42.315,29Z"/><rect x="31" y="16" width="2" height="7"/><rect x="31" y="25" width="2" height="2"/></svg>
