<svg id="Layer_1" height="512" viewBox="0 0 48 48" width="512" xmlns="http://www.w3.org/2000/svg" data-name="Layer 1"><path d="m31.365 32.741-6.99-4.036a.75.75 0 0 0 -.75 0l-6.99 4.036a.749.749 0 0 0 -.375.649v8.051a.751.751 0 0 0 .375.65l6.99 4.035a.747.747 0 0 0 .75 0l6.99-4.035a.751.751 0 0 0 .375-.65v-8.051a.749.749 0 0 0 -.375-.649zm-7.365-2.52 5.49 3.169-5.49 3.17-5.49-3.17zm-6.24 4.468 5.49 3.17v6.319l-5.49-3.17zm12.48 6.319-5.49 3.17v-6.319l5.49-3.17z"/><path d="m13.459 17.42a.738.738 0 0 0 .374-.1l3.185-1.838 6.607 3.818a.747.747 0 0 0 .75 0l6.607-3.814 3.185 1.838a.738.738 0 0 0 .374.1.75.75 0 0 0 .376-1.4l-3.177-1.837v-7.628a.751.751 0 0 0 -.375-.65l-6.99-4.035a.75.75 0 0 0 -.75 0l-6.99 4.035a.751.751 0 0 0 -.375.65v7.628l-3.177 1.834a.75.75 0 0 0 .376 1.4zm14.6-5.361a.75.75 0 1 0 -.75 1.3l2.176 1.257-4.735 2.731v-6.32l3.888-2.244 1.6-.926v5.463zm-4.059-8.67 5.49 3.17-5.49 3.169-5.49-3.169zm-6.24 4.468 1.6.926 3.888 2.244v6.32l-4.732-2.732 2.176-1.257a.75.75 0 1 0 -.75-1.3l-2.182 1.262z"/><path d="m17.581 30.751a.738.738 0 0 0 .374.1.75.75 0 0 0 .376-1.4l-2.851-1.644v-7.607a.751.751 0 0 0 -.375-.65l-6.99-4.036a.75.75 0 0 0 -.75 0l-6.99 4.031a.751.751 0 0 0 -.375.655v8.051a.749.749 0 0 0 .375.649l6.99 4.036a.747.747 0 0 0 .75 0l6.62-3.822zm-9.841-13.726 5.49 3.17-5.49 3.169-5.49-3.164zm-6.24 4.469 1.6.925 3.89 2.245v6.318l-5.49-3.17zm6.99 9.488v-6.318l3.888-2.245 1.6-.925v5.447l-2.559-1.477a.75.75 0 0 0 -.75 1.3l2.564 1.48z"/><path d="m47.625 19.545-6.99-4.036a.75.75 0 0 0 -.75 0l-6.985 4.036a.751.751 0 0 0 -.375.65v7.612l-2.851 1.646a.75.75 0 0 0 .376 1.4.738.738 0 0 0 .374-.1l2.846-1.642 6.62 3.822a.747.747 0 0 0 .75 0l6.99-4.036a.749.749 0 0 0 .37-.651v-8.046a.751.751 0 0 0 -.375-.655zm-7.365-2.52 5.49 3.17-5.49 3.169-5.49-3.164zm-2.66 8.713a.749.749 0 0 0 -1.024-.274l-2.556 1.477v-5.447l1.6.925 3.888 2.245v6.318l-4.745-2.739 2.564-1.48a.75.75 0 0 0 .273-1.025zm3.407 5.244v-6.318l3.893-2.245 1.6-.925v6.318z"/></svg>