<svg id="Layer_1" enable-background="new 0 0 512 512" height="512" viewBox="0 0 512 512" width="512" xmlns="http://www.w3.org/2000/svg"><g fill="rgb(0,0,0)"><path d="m391.9 345c.9 1.6 2.6 2.5 4.3 2.5.9 0 1.7-.3 2.5-.7l4.3-2.5c1.5-.9 2.5-2.5 2.5-4.3v-5c0-2.7-2.2-5-5-5s-5 2.2-5 5v2.1l-1.8 1.1c-2.3 1.3-3.2 4.4-1.8 6.8z"/><path d="m353.6 361.2-8 4.6c-2.3 1.3-3.2 4.4-1.8 6.8.9 1.6 2.6 2.5 4.3 2.5.8 0 1.7-.3 2.5-.7l8-4.6c2.3-1.3 3.1-4.5 1.8-6.8s-4.4-3.2-6.8-1.8z"/><path d="m372.2 361.3c.8 0 1.7-.3 2.5-.7l8-4.6c2.3-1.3 3.2-4.4 1.8-6.8-1.3-2.3-4.4-3.2-6.8-1.8l-8 4.6c-2.3 1.3-3.2 4.4-1.8 6.8.9 1.6 2.6 2.5 4.3 2.5z"/><path d="m281.4 402.6-8 4.6c-2.3 1.3-3.2 4.4-1.8 6.8.9 1.6 2.6 2.5 4.3 2.5.9 0 1.7-.2 2.5-.7l8-4.6c2.3-1.3 3.2-4.4 1.8-6.8-1.3-2.3-4.4-3.2-6.8-1.8z"/><path d="m305.5 388.8-8 4.6c-2.3 1.3-3.2 4.4-1.8 6.8.9 1.6 2.6 2.5 4.3 2.5.8 0 1.7-.2 2.5-.7l8-4.6c2.3-1.3 3.1-4.5 1.8-6.8s-4.4-3.2-6.8-1.8z"/><path d="m257.4 416.4-1.8 1.1-1.8-1.1c-2.4-1.4-5.4-.6-6.8 1.8s-.6 5.4 1.8 6.8l4.3 2.5c.8.5 1.6.7 2.5.7.8 0 1.7-.3 2.5-.7l4.3-2.5c2.3-1.3 3.2-4.4 1.8-6.8-1.3-2.3-4.4-3.2-6.8-1.8z"/><path d="m157.8 360.7c-2.4-1.4-5.4-.6-6.8 1.8s-.6 5.4 1.8 6.8l8 4.6c.8.5 1.6.7 2.5.7 1.7 0 3.4-.9 4.3-2.5 1.4-2.4.6-5.4-1.8-6.8z"/><path d="m128.8 355.3 8 4.6c.8.5 1.6.7 2.5.7 1.7 0 3.4-.9 4.3-2.5 1.4-2.4.6-5.4-1.8-6.8l-8-4.6c-2.4-1.4-5.4-.6-6.8 1.8s-.6 5.4 1.8 6.8z"/><path d="m237.7 407.1-8-4.6c-2.4-1.4-5.4-.6-6.8 1.8s-.6 5.4 1.8 6.8l8 4.6c.8.5 1.6.7 2.5.7 1.8 0 3.4-.9 4.3-2.5 1.4-2.4.6-5.4-1.8-6.8z"/><path d="m189.8 379.2-8-4.6c-2.4-1.4-5.4-.6-6.8 1.8-1.2 2-.8 4.4.8 6l-61.6 98.6h-64.8c-2.2-10.3-11.4-18-22.4-18-12.7 0-23 10.3-23 23s10.3 23 23 23c11 0 20.2-7.7 22.4-18h67.6c1.7 0 3.3-.9 4.2-2.4l63-101s0-.1.1-.1l.5.3c.8.5 1.6.7 2.5.7 1.7 0 3.4-.9 4.3-2.5 1.4-2.4.6-5.4-1.8-6.8zm-162.8 119.8c-7.2 0-13-5.8-13-13s5.8-13 13-13 13 5.8 13 13-5.8 13-13 13z"/><path d="m213.8 393.1-8-4.6c-2.4-1.4-5.4-.6-6.8 1.8s-.6 5.4 1.8 6.8l8 4.6c.8.5 1.6.7 2.5.7 1.7 0 3.4-.9 4.3-2.5 1.4-2.4.6-5.4-1.8-6.8z"/><path d="m106 339.2c0 1.8 1 3.4 2.5 4.3l4.3 2.5c.8.5 1.6.7 2.5.7 1.8 0 3.4-.9 4.3-2.5 1.4-2.4.6-5.4-1.8-6.8l-1.8-1.1v-2.1c0-2.7-2.2-5-5-5s-5 2.2-5 5z"/><path d="m111.4 209.8c2.7 0 5-2.3 5-5v-9.2c0-2.7-2.2-5-5-5s-5 2.2-5 5v9.2c0 2.7 2.2 5 5 5z"/><path d="m106.1 315.7c0 2.7 2.2 5 5 5 2.7 0 5-2.2 5-5v-9.2c0-2.7-2.2-5-5-5s-5 2.2-5 5z"/><path d="m106.3 232.5c0 2.7 2.2 5 5 5s5-2.2 5-5v-9.2c0-2.7-2.2-5-5-5s-5 2.2-5 5z"/><path d="m116.2 288v-9.2c0-2.7-2.2-5-5-5s-5 2.2-5 5v9.2c0 2.7 2.2 5 5 5 2.7 0 4.9-2.3 5-5z"/><path d="m120 167c-1.3-2.3-4.4-3.2-6.8-1.8l-4.3 2.5c-1.5.9-2.5 2.5-2.5 4.3v5c0 2.7 2.2 5 5 5s5-2.2 5-5v-2.1l1.8-1.1c2.3-1.3 3.2-4.4 1.8-6.8z"/><path d="m155.9 151.5c.8 0 1.7-.2 2.5-.7l8-4.6c2.3-1.3 3.2-4.4 1.8-6.8-1.3-2.3-4.4-3.2-6.8-1.8l-8 4.6c-2.3 1.3-3.2 4.4-1.8 6.8.9 1.6 2.6 2.5 4.3 2.5z"/><path d="m131.8 165.4c.9 0 1.7-.3 2.5-.7l8-4.6c2.3-1.3 3.2-4.4 1.8-6.8-1.3-2.3-4.4-3.2-6.8-1.8l-8 4.6c-2.3 1.3-3.2 4.4-1.8 6.8.9 1.6 2.6 2.5 4.3 2.5z"/><path d="m228.1 110.1c.8 0 1.7-.2 2.5-.7l8-4.6c2.3-1.3 3.2-4.4 1.8-6.8-1.3-2.3-4.4-3.2-6.8-1.8l-8 4.6c-2.3 1.3-3.2 4.4-1.8 6.8.9 1.6 2.6 2.5 4.3 2.5z"/><path d="m204 123.9c.8 0 1.7-.2 2.5-.7l8-4.6c2.3-1.3 3.2-4.4 1.8-6.8-1.3-2.3-4.4-3.2-6.8-1.8l-8 4.6c-2.3 1.3-3.2 4.4-1.8 6.8.9 1.6 2.6 2.5 4.3 2.5z"/><path d="m254.7 95.7 1.8-1.1 1.8 1.1c.8.5 1.6.7 2.5.7 1.7 0 3.4-.9 4.3-2.5 1.4-2.4.6-5.4-1.8-6.8l-4.3-2.5c-1.5-.9-3.5-.9-5 0l-4.3 2.5c-2.3 1.3-3.2 4.4-1.8 6.8 1.4 2.3 4.4 3.2 6.8 1.8z"/><path d="m322.2 132.8 8 4.6c.8.5 1.6.7 2.5.7 1.7 0 3.4-.8 4.3-2.5 1.1-2 .8-4.3-.7-5.9.3-.3.6-.6.9-1l61.5-96.7h65.7c2.1 10.3 11.2 18 22 18 12.4 0 22.5-10.1 22.5-22.5s-10-22.5-22.4-22.5c-10.5 0-19.4 7.2-21.8 17h-68.7c-1.7 0-3.3.9-4.2 2.3l-63 99c-.3.5-.5.9-.6 1.4l-1-.6c-2.4-1.4-5.4-.6-6.8 1.8s-.6 5.5 1.8 6.9zm164.3-117.8c6.9 0 12.5 5.6 12.5 12.5s-5.6 12.5-12.5 12.5-12.5-5.6-12.5-12.5 5.6-12.5 12.5-12.5z"/><path d="m274.2 105 8 4.6c.8.5 1.6.7 2.5.7 1.8 0 3.4-.9 4.3-2.5 1.4-2.4.6-5.4-1.8-6.8l-8-4.6c-2.4-1.4-5.4-.6-6.8 1.8s-.6 5.4 1.8 6.8z"/><path d="m354.2 151.4c.8.5 1.6.7 2.5.7 1.7 0 3.4-.9 4.3-2.5 1.4-2.4.6-5.4-1.8-6.8l-8-4.6c-2.4-1.4-5.4-.6-6.8 1.8s-.6 5.4 1.8 6.8z"/><path d="m383.2 156.7-8-4.6c-2.4-1.4-5.4-.6-6.8 1.8s-.6 5.4 1.8 6.8l8 4.6c.8.5 1.6.7 2.5.7 1.7 0 3.4-.9 4.3-2.5 1.4-2.4.6-5.4-1.8-6.8z"/><path d="m298.2 118.9 8 4.6c.8.5 1.6.7 2.5.7 1.7 0 3.4-.9 4.3-2.5 1.4-2.4.6-5.4-1.8-6.8l-8-4.6c-2.4-1.4-5.4-.6-6.8 1.8s-.6 5.4 1.8 6.8z"/><path d="m406 172.8c0-1.7-1-3.4-2.5-4.3l-4.3-2.5c-2.4-1.4-5.4-.6-6.8 1.8s-.6 5.4 1.8 6.8l1.8 1.1v2.1c0 2.7 2.2 5 5 5 2.7 0 5-2.2 5-5z"/><path d="m405.6 307.3c0-2.7-2.2-5-5-5s-5 2.2-5 5v9.2c0 2.7 2.2 5 5 5s5-2.3 5-5z"/><path d="m400.8 219.1c-2.8 0-5 2.2-5 5v9.2c0 2.7 2.2 5 5 5s5-2.3 5-5v-9.2c0-2.7-2.2-5-5-5z"/><path d="m405.9 196.3c0-2.7-2.2-5-5-5s-5 2.2-5 5v9.2c0 2.7 2.2 5 5 5s5-2.2 5-5z"/><path d="m405.7 279.5c0-2.7-2.2-5-5-5s-5 2.2-5 5v9.2c0 2.7 2.2 5 5 5 2.7 0 5-2.2 5-5z"/><path d="m368.8 318.6.3-124.7c0-1.8-.9-3.4-2.5-4.3l-107.8-62.6c-1.5-.9-3.5-.9-5 0l-108.1 62.1c-1.5.9-2.5 2.5-2.5 4.3l-.3 124.7c0 1.8.9 3.4 2.5 4.3l107.8 62.6c.8.5 1.6.7 2.5.7s1.7-.2 2.5-.7l108.1-62.1c1.5-.9 2.5-2.5 2.5-4.3zm-10-2.9-103.1 59.2-102.8-59.7.3-118.9 103.1-59.2 102.8 59.7z"/><path d="m233.6 252.8c3-3.6 4.9-8.4 4.9-14.8 0-16.9-13.8-23-23-23h-18c-2.8 0-5 2.2-5 5v72c0 2.8 2.2 5 5 5h27c9.2 0 23-6.1 23-23 0-11.8-6.7-18.3-13.9-21.2zm-31.1-27.8h13c2.2 0 13 .8 13 13s-10.9 13-13 13h-13zm22 62h-22v-26h22c1.3 0 13 .4 13 13 0 12.2-10.9 13-13 13z"/><path d="m278.5 287c-2.8 0-5 2.2-5 5s2.2 5 5 5h36c2.8 0 5-2.2 5-5s-2.2-5-5-5h-13v-62h13c2.8 0 5-2.2 5-5s-2.2-5-5-5h-36c-2.8 0-5 2.2-5 5s2.2 5 5 5h13v62z"/><path d="m487 463c-11 0-20.2 7.7-22.4 18h-65.7l-60-100c-.5-.8-1.1-1.4-1.8-1.8 0-.8-.2-1.7-.6-2.5-1.3-2.3-4.4-3.2-6.8-1.8l-8 4.6c-2.3 1.3-3.2 4.4-1.8 6.8.9 1.6 2.6 2.5 4.3 2.5.9 0 1.7-.3 2.5-.7l3.7-2.1v.1l61.5 102.4c.9 1.5 2.5 2.4 4.3 2.4h68.6c2.3 10.3 11.5 18 22.4 18 12.7 0 23-10.3 23-23s-10.5-22.9-23.2-22.9zm0 36c-7.2 0-13-5.8-13-13s5.8-13 13-13 13 5.8 13 13-5.8 13-13 13z"/><path d="m27 50c11 0 20.2-7.7 22.4-18h64.8l61.5 96.7c.1.2.3.4.5.6-1.4 1.5-1.8 3.9-.7 5.9.9 1.6 2.6 2.5 4.3 2.5.9 0 1.7-.2 2.5-.7l8-4.6c2.3-1.3 3.2-4.4 1.8-6.8-1.3-2.3-4.4-3.2-6.8-1.8l-.7.4c-.1-.3-.3-.6-.5-.9l-63-99c-.9-1.4-2.5-2.3-4.2-2.3h-67.5c-2.2-10.3-11.4-18-22.4-18-12.7 0-23 10.3-23 23s10.3 23 23 23zm0-36c7.2 0 13 5.8 13 13s-5.8 13-13 13-13-5.8-13-13 5.8-13 13-13z"/><path d="m27 278.9c11 0 20.2-7.7 22.5-18.1l56.7-.7v.1c0 2.7 2.2 5 5 5s5-2.2 5-5v-9.2c0-2.7-2.2-5-5-5-2.5 0-4.5 1.8-4.9 4.1-.1 0-.1 0-.2 0l-56.7.7c-2.3-10.3-11.5-17.9-22.4-17.9-12.7 0-23 10.3-23 23s10.3 23 23 23zm0-36c7.2 0 13 5.8 13 13s-5.8 13-13 13-13-5.8-13-13 5.8-13 13-13z"/><path d="m464.1 261.4c2.4 10.1 11.5 17.7 22.4 17.7 12.7 0 23-10.3 23-23s-10.3-23-23-23c-11.1 0-20.3 7.9-22.5 18.3h-58.2c-.2-2.5-2.3-4.6-5-4.6-2.8 0-5 2.2-5 5v9.2c0 2.7 2.2 5 5 5 2.6 0 4.7-2 4.9-4.6zm22.4-18.3c7.2 0 13 5.8 13 13s-5.8 13-13 13-13-5.8-13-13 5.8-13 13-13z"/></g></svg>