<svg height="496pt" viewBox="0 -48 496.008 496" width="496pt" xmlns="http://www.w3.org/2000/svg"><path d="m375.679688 86.410156c-28.75-44.085937-76.488282-70.40625-127.679688-70.40625-48.65625 0-95 24.289063-123.976562 64.976563l-13.03125-9.28125c31.96875-44.894531 83.183593-71.69531275 137.007812-71.69531275 56.625 0 109.367188 29.03124975 141.089844 77.66406275zm0 0"/><path d="m319.878906 335.644531-6.96875-14.410156c43.289063-20.917969 75.265625-62.207031 85.539063-110.453125l15.65625 3.335938c-11.289063 53.039062-46.519531 98.472656-94.226563 121.527343zm0 0"/><path d="m176.070312 335.613281c-47.535156-22.992187-82.71875-68.273437-94.101562-121.136719l15.640625-3.367187c10.351563 48.078125 42.285156 89.230469 85.429687 110.09375zm0 0"/><path d="m297.3125 400.003906h-98.625c-4.421875 0-8-3.582031-8-8v-56.65625c0-13.457031 10.679688-24.390625 23.816406-24.390625h13.734375c2.808594 0 5.410157 1.472657 6.851563 3.871094l12.910156 21.414063 12.910156-21.414063c1.449219-2.398437 4.050782-3.871094 6.851563-3.871094h13.734375c13.136718 0 23.816406 10.941407 23.816406 24.390625v56.65625c0 4.417969-3.578125 8-8 8zm-90.625-16h82.625v-48.65625c0-4.632812-3.503906-8.390625-7.816406-8.390625h-9.214844l-17.433594 28.910157c-2.886718 4.808593-10.816406 4.808593-13.703125 0l-17.433593-28.910157h-9.214844c-4.304688 0-7.816406 3.765625-7.816406 8.390625zm0 0"/><path d="m248 307.890625c-20.273438 0-36.777344-17.0625-36.777344-38.046875v-10.007812c0-20.984376 16.503906-38.046876 36.777344-38.046876s36.777344 17.0625 36.777344 38.046876v10.007812c0 20.984375-16.503906 38.046875-36.777344 38.046875zm0-70.101563c-11.457031 0-20.777344 9.886719-20.777344 22.046876v10.007812c0 12.160156 9.320313 22.046875 20.777344 22.046875s20.777344-9.886719 20.777344-22.046875v-10.007812c0-12.160157-9.320313-22.046876-20.777344-22.046876zm0 0"/><path d="m106.632812 188.980469h-98.632812c-4.425781 0-8-3.585938-8-8v-66.242188c0-5.542969 3.097656-10.664062 8.070312-13.382812l17.691407-9.640625c3.671875-2 8.246093-.839844 10.535156 2.664062 4.429687 6.816406 12.488281 11.050782 21.015625 11.050782 8.535156 0 16.589844-4.234376 21.015625-11.050782 2.367187-3.640625 7.183594-4.734375 10.886719-2.464844l18.042968 11.066407c4.613282 2.832031 7.375 7.679687 7.375 12.976562v65.023438c0 4.414062-3.578124 8-8 8zm-90.664062-16h82.664062v-57.023438l-11.6875-6.832031c-7.585937 7.816406-18.203124 12.3125-29.632812 12.3125-11.503906 0-22.175781-4.5625-29.777344-12.464844l-11.816406 6.4375zm0 0"/><path d="m57.3125 89.140625c-20.273438 0-36.777344-17.066406-36.777344-38.039063v-10.015624c0-20.976563 16.503906-38.042969 36.777344-38.042969 20.28125 0 36.785156 17.066406 36.785156 38.042969v10.015624c0 20.964844-16.503906 38.039063-36.785156 38.039063zm0-70.105469c-11.457031 0-20.777344 9.890625-20.777344 22.039063v10.019531c0 12.160156 9.320313 22.039062 20.777344 22.039062 11.464844 0 20.785156-9.890624 20.785156-22.039062v-10.019531c0-12.148438-9.320312-22.039063-20.785156-22.039063zm0 0"/><path d="m488 188.980469h-98.632812c-4.421876 0-8-3.585938-8-8v-65.136719c0-6.097656 3.746093-11.601562 9.527343-14.023438l26.761719-11.183593c3.863281-1.59375 8.304688.015625 10.199219 3.726562l10.832031 21.105469 10.832031-21.105469c1.953125-3.824219 6.558594-5.429687 10.496094-3.597656l27.03125 12.558594c5.449219 2.527343 8.960937 7.9375 8.960937 13.777343v63.878907c-.007812 4.414062-3.582031 8-8.007812 8zm-90.671875-16h82.671875v-55.289063l-19.761719-9.183594-10.765625 20.984376c-2.113281 4.105468-6.242187 6.648437-10.792968 6.648437-.007813 0-.007813 0-.015626 0-4.542968 0-8.679687-2.550781-10.777343-6.65625l-10.894531-21.230469-19.921876 8.335938zm82.960937-55.152344h.085938zm0 0"/><path d="m438.871094 88.820312c-20.277344 0-36.78125-17.0625-36.78125-38.039062v-10.015625c0-20.976563 16.503906-38.042969 36.78125-38.042969 20.273437 0 36.777344 17.066406 36.777344 38.042969v10.015625c0 20.976562-16.496094 38.039062-36.777344 38.039062zm0-70.105468c-11.464844 0-20.78125 9.890625-20.78125 22.042968v10.015626c0 12.160156 9.316406 22.039062 20.78125 22.039062 11.457031 0 20.777344-9.886719 20.777344-22.039062v-10.015626c0-12.152343-9.320313-22.042968-20.777344-22.042968zm0 0"/></svg>