<svg id="Layer_1" enable-background="new 0 0 512 512" height="512" viewBox="0 0 512 512" width="512" xmlns="http://www.w3.org/2000/svg"><path d="m110.36 329.414c-35.199 16.665-56.213 49.864-56.213 88.809v85.777c0 4.418 3.582 8 8 8h387.706c4.418 0 8-3.582 8-8v-85.778c0-38.945-21.014-72.145-56.213-88.809l-94.543-44.761-2.419-35.352c7.713-5.056 14.596-11.274 20.4-18.407h12.319c17.922 0 32.503-14.581 32.503-32.504v-5.248c12.277-8.199 20.301-21.606 20.301-36.739s-8.024-28.54-20.301-36.739v-5.763c0-62.805-51.095-113.9-113.9-113.9s-113.9 51.095-113.9 113.9v5.715c-12.671 8.398-20.301 21.969-20.301 36.789 0 24.901 21.705 45.159 48.384 45.159.298 0 .593-.02.891-.025 6.276 19.884 19.357 36.773 36.498 47.928l-2.698 35.201zm190.656-29.938 27.097 12.829-18.23 42.216-41.16-30.845zm-58.985 102.372h27.938l5.83 94.152h-39.598zm40.089-48.139-10.443 32.139h-31.354l-10.684-32.882 25.744-19.292zm-81.237.812-18.021-41.731 27.365-12.956 31.815 23.842zm-130.736 63.701c0-32.603 17.592-60.396 47.06-74.348l51.187-24.234 21.823 50.538c.971 2.25 2.919 3.93 5.288 4.56.678.181 1.369.269 2.056.269 1.712 0 3.399-.55 4.798-1.598l13.751-10.305 10.322 31.768-6.262 101.128h-150.023zm371.706 0v77.778h-150.023l-6.262-101.128 10.081-31.025 12.76 9.562c1.399 1.048 3.086 1.598 4.798 1.598.687 0 1.378-.088 2.056-.269 2.368-.63 4.316-2.31 5.288-4.56l22.033-51.023 52.211 24.719c29.466 13.951 47.058 41.745 47.058 74.348zm-104.457-203.328h-1.922c2.162-4.267 3.991-8.731 5.451-13.356.298.005.593.025.891.025 4.136 0 8.151-.489 11.985-1.404-.885 8.271-7.902 14.735-16.405 14.735zm6.995-29.432c.42-3.5.642-7.06.642-10.671v-47.402c16.353 1.459 29.168 13.913 29.168 29.015 0 15.297-13.153 27.872-29.81 29.058zm-88.391-169.462c53.57 0 97.22 43.251 97.884 96.666-2.931-.705-5.971-1.15-9.088-1.328-3.322-46.087-41.877-82.57-88.796-82.57-46.918 0-85.472 36.481-88.796 82.566-3.07.178-6.115.64-9.088 1.352.653-53.425 44.307-96.686 97.884-96.686zm69.333 78.895c-12.733-4.543-24.68-9.156-33.598-20.02-1.514-1.844-3.771-2.916-6.156-2.924-.009 0-.019 0-.028 0-2.375 0-4.628 1.056-6.148 2.881-20.209 24.276-48.669 27.821-78.799 31.574-5.608.699-11.339 1.427-17.049 2.289 4.499-35.986 35.26-63.927 72.445-63.927 32.27 0 59.7 21.046 69.333 50.127zm-187.534 61.508c0-10.843 6.631-20.732 17.305-25.808 3.726-1.771 7.707-2.835 11.864-3.199v47.395c0 3.611.222 7.171.642 10.671-16.658-1.186-29.811-13.761-29.811-29.059zm45.168 18.388v-49.817c6.476-1.046 13.128-1.883 19.614-2.691 29.312-3.651 59.54-7.416 83.071-30.627 10.98 10.02 23.788 14.572 36.24 18.998 2.303.819 4.655 1.659 6.978 2.528.096 1.529.161 3.066.161 4.619v56.99c0 14.803-4.439 28.583-12.039 40.103h-53.335c-4.418 0-8 3.582-8 8s3.582 8 8 8h39.039c-12.669 10.563-28.951 16.93-46.697 16.93-40.27 0-73.032-32.762-73.032-73.033zm73.033 89.033c11.728 0 22.931-2.284 33.195-6.423l2.014 29.432-35.825 26.847-34.694-26 2.314-30.198c10.21 4.088 21.344 6.342 32.996 6.342zm135.521 142.622c4.418 0 8 3.582 8 8s-3.582 8-8 8h-56c-4.418 0-8-3.582-8-8s3.582-8 8-8z"/></svg>