<svg id="&#x421;&#x43B;&#x43E;&#x439;_1" height="512" viewBox="0 0 128 128" width="512" xmlns="http://www.w3.org/2000/svg"><path d="m126 31h-20v-6a11 11 0 0 0 -22 0v6h-42a2 2 0 0 0 -2 2v7a7 7 0 0 1 -14 0v-7a2 2 0 0 0 -2-2h-22a2 2 0 0 0 -2 2v62a2 2 0 0 0 2 2h20v6a11 11 0 0 0 22 0v-6h42a2 2 0 0 0 2-2v-7a7 7 0 0 1 14 0v7a2 2 0 0 0 2 2h22a2 2 0 0 0 2-2v-62a2 2 0 0 0 -2-2zm-84 62a2 2 0 0 0 -2 2v8a7 7 0 0 1 -14 0v-8a2 2 0 0 0 -2-2h-20v-58h18v5a11 11 0 0 0 22 0v-5h18v18h-5a11 11 0 0 0 0 22h5v18zm82 0h-18v-5a11 11 0 0 0 -22 0v5h-18v-20a2 2 0 0 0 -2-2h-7a7 7 0 0 1 0-14h7a2 2 0 0 0 2-2v-20h20a2 2 0 0 0 2-2v-8a7 7 0 0 1 14 0v8a2 2 0 0 0 2 2h20z"/></svg>