<svg id="Capa_1" enable-background="new 0 0 512 512" height="512" viewBox="0 0 512 512" width="512" xmlns="http://www.w3.org/2000/svg"><g><g id="Page-1_19_"><g id="_x30_20---CSS-Code-Lines"><path id="Shape_340_" d="m460.8 0h-409.6c-28.265.028-51.172 22.935-51.2 51.2v409.6c.028 28.265 22.935 51.172 51.2 51.2h409.6c28.265-.028 51.172-22.935 51.2-51.2v-409.6c-.028-28.265-22.935-51.172-51.2-51.2zm-409.6 17.067h409.6c18.851 0 34.133 15.282 34.133 34.133v51.2h-477.866v-51.2c0-18.851 15.282-34.133 34.133-34.133zm409.6 477.866h-409.6c-18.851 0-34.133-15.282-34.133-34.133v-341.333h477.867v341.333c-.001 18.851-15.283 34.133-34.134 34.133z"/><path id="Shape_339_" d="m59.733 85.333c14.138 0 25.6-11.462 25.6-25.6s-11.462-25.6-25.6-25.6-25.6 11.462-25.6 25.6 11.462 25.6 25.6 25.6zm0-34.133c4.713 0 8.533 3.821 8.533 8.533s-3.821 8.533-8.533 8.533-8.533-3.82-8.533-8.533 3.821-8.533 8.533-8.533z"/><path id="Shape_338_" d="m128 85.333c14.139 0 25.6-11.462 25.6-25.6s-11.462-25.6-25.6-25.6-25.6 11.462-25.6 25.6 11.462 25.6 25.6 25.6zm0-34.133c4.713 0 8.533 3.821 8.533 8.533s-3.821 8.533-8.533 8.533c-4.713 0-8.533-3.821-8.533-8.533s3.82-8.533 8.533-8.533z"/><path id="Shape_337_" d="m196.267 85.333c14.138 0 25.6-11.462 25.6-25.6s-11.462-25.6-25.6-25.6-25.6 11.462-25.6 25.6 11.461 25.6 25.6 25.6zm0-34.133c4.713 0 8.533 3.821 8.533 8.533s-3.821 8.533-8.533 8.533-8.533-3.821-8.533-8.533 3.82-8.533 8.533-8.533z"/><path id="Shape_336_" d="m366.933 85.333h85.333c14.138 0 25.6-11.462 25.6-25.6s-11.462-25.6-25.6-25.6h-85.333c-14.138 0-25.6 11.462-25.6 25.6s11.462 25.6 25.6 25.6zm0-34.133h85.333c4.713 0 8.533 3.821 8.533 8.533s-3.82 8.533-8.533 8.533h-85.333c-4.713 0-8.533-3.821-8.533-8.533s3.821-8.533 8.533-8.533z"/><path id="Shape_335_" d="m76.8 170.667c0-4.713 3.821-8.533 8.533-8.533s8.533-3.821 8.533-8.533-3.821-8.533-8.533-8.533c-14.138 0-25.6 11.462-25.6 25.6v17.067c0 4.713-3.821 8.533-8.533 8.533s-8.533 3.821-8.533 8.533c0 4.713 3.821 8.533 8.533 8.533s8.533 3.821 8.533 8.533v17.067c0 14.138 11.462 25.6 25.6 25.6 4.713 0 8.533-3.821 8.533-8.533 0-4.713-3.821-8.533-8.533-8.533s-8.533-3.821-8.533-8.533v-17.067c.006-6.301-2.323-12.381-6.537-17.067 4.214-4.685 6.542-10.765 6.537-17.067z"/><path id="Shape_334_" d="m460.8 392.533c-4.713 0-8.533-3.82-8.533-8.533v-17.067c0-14.138-11.462-25.6-25.6-25.6-4.713 0-8.533 3.821-8.533 8.533 0 4.713 3.82 8.533 8.533 8.533s8.533 3.82 8.533 8.533v17.068c-.006 6.301 2.323 12.381 6.537 17.067-4.214 4.685-6.542 10.765-6.537 17.067v17.066c0 4.713-3.82 8.533-8.533 8.533s-8.533 3.82-8.533 8.533 3.82 8.533 8.533 8.533c14.138 0 25.6-11.462 25.6-25.6v-17.067c0-4.713 3.82-8.533 8.533-8.533s8.533-3.821 8.533-8.533-3.82-8.533-8.533-8.533z"/><path id="Shape_333_" d="m136.533 366.933c14.138 0 25.6-11.462 25.6-25.6 0-4.713-3.821-8.533-8.533-8.533s-8.533 3.82-8.533 8.533-3.821 8.533-8.533 8.533-8.534-3.82-8.534-8.533v-34.133c0-4.713 3.821-8.533 8.533-8.533s8.533 3.82 8.533 8.533 3.82 8.533 8.533 8.533 8.533-3.82 8.533-8.533c0-14.138-11.462-25.6-25.6-25.6s-25.6 11.462-25.6 25.6v34.133c.001 14.139 11.463 25.6 25.601 25.6z"/><path id="Shape_332_" d="m204.8 349.867h-17.067c-4.713 0-8.533 3.82-8.533 8.533s3.821 8.533 8.533 8.533h17.067c14.138 0 25.6-11.462 25.6-25.6s-11.462-25.6-25.6-25.6c-4.713 0-8.533-3.82-8.533-8.533s3.821-8.533 8.533-8.533h17.067c4.713 0 8.533-3.821 8.533-8.533 0-4.713-3.821-8.533-8.533-8.533h-17.067c-14.139 0-25.6 11.462-25.6 25.6s11.462 25.6 25.6 25.6c4.713 0 8.533 3.82 8.533 8.533s-3.82 8.533-8.533 8.533z"/><path id="Shape_331_" d="m273.067 298.667h17.067c4.713 0 8.533-3.821 8.533-8.533 0-4.713-3.821-8.533-8.533-8.533h-17.067c-14.138 0-25.6 11.462-25.6 25.6s11.462 25.6 25.6 25.6c4.713 0 8.533 3.82 8.533 8.533s-3.82 8.533-8.533 8.533h-17.067c-4.713 0-8.533 3.82-8.533 8.533s3.821 8.533 8.533 8.533h17.067c14.138 0 25.6-11.462 25.6-25.6s-11.462-25.6-25.6-25.6c-4.713 0-8.533-3.82-8.533-8.533s3.82-8.533 8.533-8.533z"/><path id="Shape_330_" d="m119.467 162.133h76.8c4.713 0 8.533-3.821 8.533-8.533s-3.821-8.533-8.533-8.533h-76.8c-4.713 0-8.533 3.82-8.533 8.533s3.82 8.533 8.533 8.533z"/><path id="Shape_329_" d="m119.467 204.8h119.467c4.713 0 8.533-3.821 8.533-8.533s-3.821-8.533-8.533-8.533h-119.467c-4.713 0-8.533 3.821-8.533 8.533s3.82 8.533 8.533 8.533z"/><path id="Shape_328_" d="m119.467 247.467h76.8c4.713 0 8.533-3.821 8.533-8.533 0-4.713-3.821-8.533-8.533-8.533h-76.8c-4.713 0-8.533 3.821-8.533 8.533-.001 4.712 3.82 8.533 8.533 8.533z"/><path id="Shape_327_" d="m119.467 418.133h59.733c4.713 0 8.533-3.821 8.533-8.533 0-4.713-3.82-8.533-8.533-8.533h-59.733c-4.713 0-8.533 3.821-8.533 8.533-.001 4.713 3.82 8.533 8.533 8.533z"/><path id="Shape_326_" d="m273.067 204.8h25.6c4.713 0 8.533-3.821 8.533-8.533s-3.82-8.533-8.533-8.533h-25.6c-4.713 0-8.533 3.821-8.533 8.533s3.82 8.533 8.533 8.533z"/><path id="Shape_325_" d="m332.8 204.8h68.267c4.713 0 8.533-3.821 8.533-8.533s-3.821-8.533-8.533-8.533h-68.267c-4.713 0-8.533 3.821-8.533 8.533s3.82 8.533 8.533 8.533z"/><path id="Shape_324_" d="m435.2 204.8h8.533c4.713 0 8.533-3.821 8.533-8.533s-3.821-8.533-8.533-8.533h-8.533c-4.713 0-8.533 3.821-8.533 8.533s3.82 8.533 8.533 8.533z"/><path id="Shape_323_" d="m375.467 247.467h8.533c4.713 0 8.533-3.821 8.533-8.533 0-4.713-3.82-8.533-8.533-8.533h-8.533c-4.713 0-8.533 3.821-8.533 8.533-.001 4.712 3.82 8.533 8.533 8.533z"/><path id="Shape_322_" d="m341.333 230.4h-110.933c-4.713 0-8.533 3.821-8.533 8.533 0 4.713 3.82 8.533 8.533 8.533h110.933c4.713 0 8.533-3.821 8.533-8.533.001-4.712-3.82-8.533-8.533-8.533z"/><path id="Shape_321_" d="m375.467 273.067c-4.713 0-8.533 3.82-8.533 8.533s3.821 8.533 8.533 8.533h76.8c4.713 0 8.533-3.821 8.533-8.533s-3.82-8.533-8.533-8.533z"/><path id="Shape_320_" d="m401.067 315.733h-25.6c-4.713 0-8.533 3.821-8.533 8.533s3.821 8.533 8.533 8.533h25.6c4.713 0 8.533-3.82 8.533-8.533s-3.82-8.533-8.533-8.533z"/><path id="Shape_319_" d="m401.067 358.4h-76.8c-4.713 0-8.533 3.82-8.533 8.533s3.821 8.533 8.533 8.533h76.8c4.713 0 8.533-3.82 8.533-8.533s-3.82-8.533-8.533-8.533z"/><path id="Shape_318_" d="m401.067 401.067h-25.6c-4.713 0-8.533 3.821-8.533 8.533 0 4.713 3.821 8.533 8.533 8.533h25.6c4.713 0 8.533-3.821 8.533-8.533 0-4.713-3.82-8.533-8.533-8.533z"/><path id="Shape_317_" d="m213.333 418.133h128c4.713 0 8.533-3.821 8.533-8.533 0-4.713-3.821-8.533-8.533-8.533h-128c-4.713 0-8.533 3.821-8.533 8.533 0 4.713 3.821 8.533 8.533 8.533z"/><path id="Shape_316_" d="m145.067 443.733h-25.6c-4.713 0-8.533 3.82-8.533 8.533s3.821 8.533 8.533 8.533h25.6c4.713 0 8.533-3.82 8.533-8.533s-3.821-8.533-8.533-8.533z"/><path id="Shape_315_" d="m238.933 443.733h-59.733c-4.713 0-8.533 3.82-8.533 8.533s3.821 8.533 8.533 8.533h59.733c4.713 0 8.533-3.82 8.533-8.533s-3.82-8.533-8.533-8.533z"/><path id="Shape_314_" d="m384 443.733h-110.933c-4.713 0-8.533 3.82-8.533 8.533s3.82 8.533 8.533 8.533h110.933c4.713 0 8.533-3.82 8.533-8.533s-3.82-8.533-8.533-8.533z"/><path id="Shape_313_" d="m341.333 273.067h-17.067c-4.713 0-8.533 3.82-8.533 8.533s3.821 8.533 8.533 8.533h17.067c4.713 0 8.533-3.821 8.533-8.533s-3.82-8.533-8.533-8.533z"/><path id="Shape_312_" d="m341.333 315.733h-17.067c-4.713 0-8.533 3.821-8.533 8.533s3.821 8.533 8.533 8.533h17.067c4.713 0 8.533-3.82 8.533-8.533s-3.82-8.533-8.533-8.533z"/></g></g></g></svg>