<svg id="Capa_1" enable-background="new 0 0 512 512" height="512" viewBox="0 0 512 512" width="512" xmlns="http://www.w3.org/2000/svg"><g><path d="m494.217 160.174c-21.146 0-38.349 17.246-38.349 38.444v80.925c-5.841-2.767-12.316-4.017-18.945-3.566-10.202.697-19.522 5.328-26.253 13.042l-56.875 62.968c-.027.03-.055.061-.082.092-13.366 15.294-20.728 34.917-20.728 55.253v42.668h-6.485c-7.444 0-13.5 6.056-13.5 13.5v35c0 7.444 6.056 13.5 13.5 13.5h131c7.444 0 13.5-6.056 13.5-13.5v-35c0-7.444-6.056-13.5-13.5-13.5h-6.548v-24.817c0-5.178 1.741-10.282 4.903-14.373l45.848-59.324c6.64-8.528 10.297-19.184 10.297-30.003v-143.494c0-9.823-7.978-17.815-17.783-17.815zm2.783 161.309c0 7.498-2.533 14.881-7.149 20.81l-45.863 59.345c-5.182 6.703-8.035 15.065-8.035 23.545v24.817h-24.08c-4.143 0-7.5 3.358-7.5 7.5s3.357 7.5 7.5 7.5h44.127v32h-128v-32h48.872c4.143 0 7.5-3.358 7.5-7.5s-3.357-7.5-7.5-7.5h-28.887v-42.668c0-16.686 6.03-32.784 16.983-45.337l56.878-62.971c.032-.036.063-.071.095-.107 4.101-4.716 9.784-7.548 16.005-7.974 6.207-.426 12.225 1.604 16.924 5.714 1.17 1.023 1.29 2.812.318 3.93l-56.89 64.116c-2.749 3.098-2.466 7.838.633 10.587 3.099 2.75 7.839 2.466 10.588-.632l56.939-64.173c1.868-2.187 4.409-6.733 4.409-11.297v-100.57c0-12.927 10.475-23.444 23.349-23.444 1.534 0 2.783 1.263 2.783 2.814v143.495z"/><path d="m185.5 450h-6.485v-42.668c0-20.336-7.361-39.959-20.728-55.253-.028-.032-.057-.064-.085-.096l-.338-.374c-2.779-3.071-7.522-3.31-10.594-.531s-3.31 7.521-.531 10.593l.294.324c10.951 12.553 16.981 28.65 16.981 45.335v42.67h-87.966v-24.817c0-8.48-2.854-16.842-8.034-23.545l-45.881-59.366c-4.6-5.908-7.133-13.291-7.133-20.789v-143.494c0-1.552 1.249-2.814 2.783-2.814 12.874 0 23.349 10.517 23.349 23.444v100.569c0 3.441 1.115 6.989 4.459 11.354l56.89 64.116c1.482 1.67 3.543 2.522 5.613 2.522 1.77 0 3.547-.623 4.975-1.89 3.099-2.749 3.382-7.489.633-10.587l-56.84-64.059c-1.021-1.175-.9-2.964.27-3.988 4.697-4.108 10.709-6.139 16.923-5.712 6.221.425 11.904 3.257 16.005 7.974.033.042 33.069 36.611 33.247 36.811 2.775 3.074 7.519 3.314 10.593.539 3.073-2.777 3.314-7.519.538-10.593l-33.107-36.654c-6.73-7.712-16.051-12.343-26.252-13.04-6.628-.452-13.104.798-18.945 3.565v-80.925c0-21.198-17.203-38.444-38.349-38.444-9.807-.003-17.785 7.989-17.785 17.812v143.494c0 10.82 3.657 21.475 10.28 29.982l45.865 59.345c3.161 4.091 4.902 9.195 4.902 14.373v24.817h-6.547c-7.444 0-13.5 6.056-13.5 13.5v35c0 7.444 6.056 13.5 13.5 13.5h131c7.444 0 13.5-6.056 13.5-13.5v-35c0-7.444-6.056-13.5-13.5-13.5zm-1.5 47h-128v-32h128z"/><path d="m470.171 102c0-56.243-45.755-102-101.995-102-23.9 0-52.942 14.244-88.786 43.545-7.105 5.809-14.407 12.159-21.703 18.874-.961.886-2.412.885-3.373 0-7.296-6.715-14.598-13.065-21.703-18.873-3.87-3.165-7.714-6.195-11.424-9.008-3.302-2.502-8.006-1.855-10.508 1.445s-1.855 8.005 1.445 10.508c3.564 2.703 7.263 5.619 10.992 8.668 6.88 5.624 13.958 11.78 21.039 18.297 6.752 6.215 16.938 6.215 23.689 0 7.081-6.518 14.159-12.674 21.039-18.297 33.056-27.023 58.993-40.159 79.293-40.159 47.97 0 86.995 39.028 86.995 87s-39.025 87-86.995 87c-20.3 0-46.236-13.136-79.292-40.159-6.88-5.624-13.958-11.78-21.039-18.297-6.752-6.215-16.938-6.215-23.689 0-7.081 6.518-14.159 12.674-21.039 18.297-33.056 27.023-58.993 40.159-79.293 40.159-47.97 0-86.995-39.028-86.995-87s39.025-87 86.995-87c11.368 0 24.895 4.315 40.203 12.827 3.619 2.012 8.188.709 10.199-2.911 2.013-3.621.71-8.187-2.91-10.2-17.812-9.902-33.347-14.716-47.492-14.716-56.24 0-101.995 45.757-101.995 102s45.755 102 101.995 102c23.9 0 52.942-14.244 88.786-43.545 7.105-5.809 14.407-12.159 21.703-18.874.961-.886 2.412-.885 3.373 0 7.296 6.715 14.598 13.065 21.703 18.874 35.844 29.301 64.886 43.545 88.787 43.545 56.24 0 101.995-45.757 101.995-102z"/><path d="m390.697 143.962c-3.646 1.966-5.008 6.515-3.042 10.161 1.966 3.645 6.515 5.009 10.161 3.041 20.348-10.973 32.988-32.11 32.988-55.164 0-34.535-28.095-62.632-62.629-62.632-28.057 0-79.491 47.65-89.518 57.202-1.485 1.416-2.326 3.378-2.326 5.43s.841 4.015 2.326 5.43c23.694 22.575 56.948 49.024 79.224 55.552 3.009.887 7.65-.487 9.307-5.088 1.165-3.975-1.113-8.142-5.088-9.307-15.117-4.431-41.046-22.449-67.295-46.588 30.77-28.311 60.363-47.631 73.37-47.631 26.263 0 47.629 21.368 47.629 47.632.001 17.531-9.62 33.61-25.107 41.962z"/><path d="m81.195 102c0 34.535 28.095 62.632 62.629 62.632 28.058 0 79.491-47.65 89.518-57.202 1.485-1.416 2.326-3.378 2.326-5.43s-.841-4.015-2.326-5.43c-10.026-9.552-61.461-57.202-89.518-57.202-34.534 0-62.629 28.097-62.629 62.632zm62.629 47.632c-26.263 0-47.629-21.368-47.629-47.632s21.366-47.632 47.629-47.632c13.007 0 42.602 19.321 73.371 47.632-30.769 28.311-60.364 47.632-73.371 47.632z"/></g></svg>