<svg id="Layer_1" height="512" viewBox="0 0 64 64" width="512" xmlns="http://www.w3.org/2000/svg" data-name="Layer 1"><path d="m28 38h-4a7.008 7.008 0 0 1 -7-7v-8a3 3 0 0 1 3-3h12a3 3 0 0 1 3 3v8a7.008 7.008 0 0 1 -7 7zm-8-16a1 1 0 0 0 -1 1v8a5.006 5.006 0 0 0 5 5h4a5.006 5.006 0 0 0 5-5v-8a1 1 0 0 0 -1-1z"/><path d="m26 30a1 1 0 0 1 -1-1v-2a1 1 0 0 1 2 0v2a1 1 0 0 1 -1 1z"/><path d="m30 22h-8a1 1 0 0 1 -1-1v-2a5 5 0 0 1 10 0v2a1 1 0 0 1 -1 1zm-7-2h6v-1a3 3 0 0 0 -6 0z"/><path d="m62 57h-18a2 2 0 0 1 -2-2v-2a1 1 0 0 1 2 0v2h18v-34a1 1 0 0 1 2 0v34a2 2 0 0 1 -2 2z"/><path d="m63 19a1 1 0 0 1 -1-1v-7h-18v4a1 1 0 0 1 -2 0v-4a2 2 0 0 1 2-2h18a2 2 0 0 1 2 2v7a1 1 0 0 1 -1 1z"/><path d="m56 14h-6a1 1 0 0 1 0-2h6a1 1 0 0 1 0 2z"/><path d="m49 51h-46a3 3 0 0 1 -3-3v-28a3 3 0 0 1 3-3h15a1 1 0 0 1 0 2h-15a1 1 0 0 0 -1 1v28a1 1 0 0 0 1 1h46a1 1 0 0 0 1-1v-28a1 1 0 0 0 -1-1h-15a1 1 0 0 1 0-2h15a3 3 0 0 1 3 3v28a3 3 0 0 1 -3 3z"/><path d="m51 46h-47a1 1 0 0 1 0-2h47a1 1 0 0 1 0 2z"/><path d="m29 57h-6a2 2 0 0 1 -2-2v-4a2 2 0 0 1 2-2h6a2 2 0 0 1 2 2v4a2 2 0 0 1 -2 2zm-6-6v4h6v-4z"/><path d="m36 57h-20a1 1 0 0 1 0-2h20a1 1 0 0 1 0 2z"/><path d="m60 54h-17a1 1 0 0 1 0-2h17a1 1 0 0 1 0 2z"/></svg>