<svg height="457.14286pt" viewBox="0 0 457.14286 457.14286" width="457.14286pt" xmlns="http://www.w3.org/2000/svg"><path d="m428.070312 0h-399c-16.027343 0-29.070312 13.042969-29.070312 29.074219v398.992187c0 16.03125 13.042969 29.078125 29.070312 29.078125h399c16.027344 0 29.074219-13.046875 29.074219-29.078125v-398.992187c0-16.03125-13.046875-29.074219-29.074219-29.074219zm-399 18.285156h399c6.046876 0 10.785157 4.742188 10.785157 10.789063v52.113281h-420.570313v-52.113281c0-6.046875 4.742188-10.789063 10.785156-10.789063zm399 420.570313h-399c-6.042968 0-10.785156-4.738281-10.785156-10.789063v-328.59375h420.570313v328.59375c0 6.050782-4.738281 10.789063-10.785157 10.789063zm0 0"/><path d="m158.777344 58.878906h251.125c5.054687 0 9.140625-4.09375 9.140625-9.140625 0-5.050781-4.085938-9.144531-9.140625-9.144531h-251.125c-5.054688 0-9.144532 4.09375-9.144532 9.144531 0 5.046875 4.089844 9.140625 9.144532 9.140625zm0 0"/><path d="m42.144531 57.324219c.550781.367187 1.007813.640625 1.5625.824219.542969.269531 1.1875.453124 1.730469.546874.644531.089844 1.1875.183594 1.832031.183594.542969 0 1.1875-.09375 1.730469-.183594.644531-.09375 1.195312-.277343 1.742188-.546874.542968-.183594 1.097656-.457032 1.550781-.824219.554687-.363281 1.011719-.730469 1.375-1.097657.914062-.914062 1.554687-1.917968 2.011719-3.015624.453124-1.097657.730468-2.285157.730468-3.472657s-.277344-2.382812-.730468-3.476562c-.457032-1.191407-1.097657-2.105469-2.011719-3.015625-.363281-.367188-.820313-.734375-1.375-1.097656-.453125-.367188-1.007813-.640626-1.550781-.824219-.546876-.273438-1.097657-.457031-1.742188-.546875-1.1875-.277344-2.375-.277344-3.5625 0-.542969.089844-1.1875.273437-1.730469.546875-.554687.183593-1.011719.457031-1.5625.824219-.457031.363281-.914062.730468-1.367187 1.097656-.820313.910156-1.554688 1.917968-2.007813 3.015625-.464843 1.09375-.644531 2.289062-.644531 3.476562 0 2.375.910156 4.753907 2.652344 6.488281.453125.367188.910156.734376 1.367187 1.097657zm0 0"/><path d="m87.855469 57.324219c.554687.367187 1.011719.640625 1.5625.824219.546875.269531 1.1875.453124 1.734375.546874.640625.089844 1.1875.183594 1.828125.183594.546875 0 1.1875-.09375 1.734375-.183594.640625-.09375 1.195312-.277343 1.742187-.546874.542969-.183594 1.097657-.457032 1.550781-.824219.554688-.273438 1.011719-.730469 1.375-1.097657.910157-.820312 1.554688-1.828124 2.011719-3.015624.453125-1.097657.730469-2.285157.730469-3.472657s-.277344-2.382812-.730469-3.476562c-.457031-1.191407-1.101562-2.105469-2.011719-3.015625-.363281-.367188-.820312-.734375-1.375-1.097656-.453124-.367188-1.007812-.640626-1.550781-.824219-.546875-.273438-1.101562-.457031-1.742187-.546875-1.1875-.277344-2.375-.277344-3.5625 0-.546875.089844-1.1875.273437-1.734375.546875-.550781.183593-1.007813.457031-1.5625.824219-.453125.363281-.910157.730468-1.363281 1.097656-.824219.910156-1.554688 1.917968-2.011719 3.015625-.460938 1.09375-.640625 2.289062-.640625 3.476562 0 2.375.910156 4.753907 2.652344 6.488281.453124.367188.910156.824219 1.363281 1.097657zm0 0"/><path d="m326.992188 231.625h-107.1875v-31.753906c0-31.65625-25.75-57.410156-57.410157-57.410156-31.664062 0-57.414062 25.753906-57.414062 57.410156v37.234375c0 5.050781 4.089843 9.144531 9.144531 9.144531s9.144531-4.09375 9.144531-9.144531v-37.234375c0-21.570313 17.550781-39.125 39.125-39.125 21.570313 0 39.125 17.554687 39.125 39.125v31.753906h-5.539062c-13.882813 0-25.175781 11.292969-25.175781 25.175781v110.238281c0 13.878907 11.292968 25.175782 25.175781 25.175782h131.011719c13.875 0 25.167968-11.296875 25.167968-25.175782v-110.238281c0-13.882812-11.292968-25.175781-25.167968-25.175781zm6.882812 135.414062c0 3.800782-3.089844 6.890626-6.882812 6.890626h-131.011719c-3.800781 0-6.890625-3.089844-6.890625-6.890626v-110.238281c0-3.800781 3.089844-6.890625 6.890625-6.890625h131.011719c3.792968 0 6.882812 3.089844 6.882812 6.890625zm0 0"/><path d="m261.480469 295.863281c-5.050781 0-9.140625 4.09375-9.140625 9.140625v13.828125c0 5.046875 4.089844 9.140625 9.140625 9.140625 5.054687 0 9.144531-4.09375 9.144531-9.140625v-13.828125c0-5.046875-4.089844-9.140625-9.144531-9.140625zm0 0"/></svg>