<svg id="Capa_1" enable-background="new 0 0 512 512" height="512" viewBox="0 0 512 512" width="512" xmlns="http://www.w3.org/2000/svg"><path d="m376.242 456.919h-56.113c-4.142 0-7.5 3.358-7.5 7.5s3.358 7.5 7.5 7.5h56.113c4.142 0 7.5-3.358 7.5-7.5s-3.358-7.5-7.5-7.5z"/><path d="m392.274 424.854h-56.113c-4.142 0-7.5 3.358-7.5 7.5s3.358 7.5 7.5 7.5h56.113c4.142 0 7.5-3.358 7.5-7.5s-3.357-7.5-7.5-7.5z"/><path d="m55.597 87.145h40.081c4.142 0 7.5-3.358 7.5-7.5s-3.358-7.5-7.5-7.5h-40.081c-4.142 0-7.5 3.358-7.5 7.5s3.358 7.5 7.5 7.5z"/><path d="m103.177 111.709c0-4.142-3.358-7.5-7.5-7.5h-40.08c-4.142 0-7.5 3.358-7.5 7.5s3.358 7.5 7.5 7.5h40.081c4.141 0 7.499-3.357 7.499-7.5z"/><path d="m231.952 87.145h40.081c4.142 0 7.5-3.358 7.5-7.5s-3.358-7.5-7.5-7.5h-40.081c-4.142 0-7.5 3.358-7.5 7.5s3.358 7.5 7.5 7.5z"/><path d="m279.532 111.709c0-4.142-3.358-7.5-7.5-7.5h-40.081c-4.142 0-7.5 3.358-7.5 7.5s3.358 7.5 7.5 7.5h40.081c4.142 0 7.5-3.357 7.5-7.5z"/><path d="m493.771 42.277-40.081-40.08c-1.406-1.407-3.314-2.197-5.303-2.197h-64.129c-8.556 0-15.517 6.96-15.517 15.516v128.258c0 8.556 6.961 15.516 15.517 15.516h40.597v24.564c0 4.705-3.828 8.532-8.532 8.532h-138.023c-2.344-6.951-7.849-12.455-14.8-14.8v-18.297h40.597c8.556 0 15.516-6.96 15.516-15.516v-96.192c0-1.989-.79-3.897-2.197-5.303l-40.081-40.081c-1.406-1.407-3.314-2.197-5.303-2.197h-64.129c-8.556 0-15.516 6.96-15.516 15.516v128.258c0 8.556 6.96 15.516 15.516 15.516h40.597v18.297c-6.951 2.344-12.455 7.849-14.8 14.8h-138.023c-4.705 0-8.532-3.828-8.532-8.532v-24.564h40.597c8.556 0 15.517-6.96 15.517-15.516v-96.194c0-1.989-.79-3.897-2.197-5.303l-40.082-40.081c-1.406-1.407-3.313-2.197-5.303-2.197h-64.129c-8.556 0-15.516 6.96-15.516 15.516v128.258c0 8.556 6.96 15.516 15.516 15.516h40.597v24.564c0 12.976 10.557 23.532 23.532 23.532h138.023c2.344 6.951 7.849 12.455 14.8 14.8v50.292c-3.88-.33-7.487-1.991-10.272-4.778l-17.978-17.977c-5.958-5.958-13.881-9.24-22.308-9.24h-70.201c-17.396 0-31.548 14.152-31.548 31.548v208.419c0 17.394 14.149 31.545 31.542 31.548h.003 263.234c13.601 0 25.628-8.669 29.93-21.572l55.131-165.392c1.573-4.719.776-9.944-2.132-13.979s-7.614-6.444-12.588-6.444h-45.507v-.516c0-17.396-14.152-31.548-31.548-31.548h-96.195c-4.142 0-7.5 3.358-7.5 7.5s3.358 7.5 7.5 7.5h96.195c9.125 0 16.548 7.423 16.548 16.548v.516h-137.306v-82.426c6.951-2.344 12.455-7.849 14.8-14.8h138.023c12.976 0 23.532-10.557 23.532-23.532v-24.564h40.597c8.556 0 15.516-6.96 15.516-15.516v-96.192c0-1.99-.79-3.897-2.197-5.304zm-214.239-16.671 14.474 14.474h-13.958c-.285 0-.516-.231-.516-.516zm-72.145 118.168v-128.258c0-.285.231-.516.516-.516h56.629v24.564c0 8.556 6.96 15.516 15.516 15.516h24.564v88.694c0 .285-.231.516-.516.516h-96.193c-.284.001-.516-.231-.516-.516zm-104.21-118.168 14.474 14.474h-13.958c-.285 0-.516-.231-.516-.516zm-72.145 118.168v-128.258c0-.285.231-.516.516-.516h56.629v24.564c0 8.556 6.96 15.516 15.516 15.516h24.565v88.694c0 .285-.232.516-.517.516h-96.193c-.284.001-.516-.231-.516-.516zm224.968 47.581c4.7 0 8.524 3.82 8.531 8.518 0 .005-.001.01-.001.014s.001.01.001.014c-.008 4.698-3.832 8.518-8.531 8.518-4.705 0-8.532-3.828-8.532-8.532s3.827-8.532 8.532-8.532zm205.732 128.472c.154.214.098.384.071.465l-55.131 165.392c-2.256 6.768-8.565 11.315-15.699 11.315h-263.231c-4.691 0-8.923-1.971-11.937-5.117l53.652-160.955c2.256-6.768 8.565-11.315 15.699-11.315h276.158c.085.001.264.001.418.215zm-276.576-15.214c-13.601 0-25.628 8.669-29.93 21.572l-44.033 132.098v-186.251c0-9.125 7.423-16.548 16.548-16.548h70.201c4.42 0 8.576 1.721 11.701 4.847l17.977 17.977c5.62 5.621 12.989 8.856 20.879 9.206v17.099zm270.731-279.007 14.474 14.474h-13.958c-.285 0-.516-.231-.516-.516zm24.565 118.685h-96.193c-.285 0-.517-.231-.517-.516v-128.259c0-.285.232-.516.517-.516h56.629v24.564c0 8.556 6.96 15.516 15.516 15.516h24.564v88.694c0 .285-.232.517-.516.517z"/><path d="m448.387 72.145h-40.081c-4.142 0-7.5 3.358-7.5 7.5s3.358 7.5 7.5 7.5h40.081c4.142 0 7.5-3.358 7.5-7.5s-3.358-7.5-7.5-7.5z"/><path d="m448.387 104.209h-40.081c-4.142 0-7.5 3.358-7.5 7.5s3.358 7.5 7.5 7.5h40.081c4.142 0 7.5-3.358 7.5-7.5s-3.358-7.5-7.5-7.5z"/></svg>