<svg id="Capa_1" enable-background="new 0 0 512 512" height="512" viewBox="0 0 512 512" width="512" xmlns="http://www.w3.org/2000/svg"><g><path d="m436.5 429h-8.5v-85.4c0-3.9-3.1-7-7-7h-52.8c-3.9 0-7 3.1-7 7v85.4h-25.6v-153.3c0-3.9-3.1-7-7-7h-52.8c-3.9 0-7 3.1-7 7v153.3h-25.6v-237.4c0-3.9-3.1-7-7-7h-52.8c-3.9 0-7 3.1-7 7v237.4h-25.6v-324.5c0-3.9-3.1-7-7-7h-52.8c-3.9 0-7 3.1-7 7v324.5h-7.5c-3.9 0-7 3.1-7 7s3.1 7 7 7h360c3.9 0 7-3.1 7-7s-3.1-7-7-7zm-338.5 0v-317.5h38.8v317.5zm92.4 0v-230.4h38.8v230.4zm92.4 0v-146.3h38.8v146.3zm92.4 0v-78.4h38.8v78.4z"/><path d="m225.7 105.2 167.9 130.3-17.1 3.9c-3.8.9-6.1 4.6-5.3 8.4.7 3.2 3.6 5.5 6.8 5.5.5 0 1-.1 1.6-.2l31.5-7.1c3.6-.7 6-4.5 5.4-8l-6.3-35.9c-.6-3.8-4.2-6.4-8-5.8s-6.4 4.2-5.8 8v.1l3.2 18-165.4-128.2c-3.1-2.4-7.5-1.8-9.8 1.2-2.4 3.1-1.8 7.5 1.3 9.8z"/></g></svg>