<svg xmlns="http://www.w3.org/2000/svg" width="33.394" height="33.394" viewBox="0 0 33.394 33.394"><path d="M19.162,15.217V1.044A1.044,1.044,0,0,0,18.118,0H1.044A1.044,1.044,0,0,0,0,1.044V15.217a1.044,1.044,0,0,0,1.044,1.044H18.118a1.043,1.043,0,0,0,1.044-1.043ZM17.074,2.087v5H2.087v-5ZM2.087,14.174v-5H17.074v5Zm13.245-2.5a1.044,1.044,0,0,1-1.044,1.044h-5.3a1.044,1.044,0,0,1,0-2.087h5.3A1.044,1.044,0,0,1,15.332,11.674ZM7.977,4.587A1.044,1.044,0,0,1,9.02,3.544h5.3a1.044,1.044,0,1,1,0,2.087H9.02A1.044,1.044,0,0,1,7.977,4.587Zm7.689,21.891a1.044,1.044,0,0,1-1.044,1.044H7.091a1.044,1.044,0,0,1-1.044-1.044V19.165a1.044,1.044,0,0,1,2.087,0v6.269h6.488A1.044,1.044,0,0,1,15.666,26.478ZM21.934,6.851a1.044,1.044,0,0,1,1.044-1.044h4.752a1.044,1.044,0,0,1,1.044,1.044v7.378a1.044,1.044,0,0,1-2.087,0V7.894H22.978A1.044,1.044,0,0,1,21.934,6.851Zm9.688,11.03H20.046a1.773,1.773,0,0,0-1.771,1.771V28.2a1.773,1.773,0,0,0,1.771,1.771h4.769v1.339H23.176a1.044,1.044,0,0,0,0,2.087h5.316a1.044,1.044,0,0,0,0-2.087H26.9V29.968h4.72A1.773,1.773,0,0,0,33.394,28.2V19.653a1.773,1.773,0,0,0-1.771-1.771Zm-.316,10H20.362V19.968H31.306ZM3.7,4.587A1.141,1.141,0,1,1,4.844,5.728,1.144,1.144,0,0,1,3.7,4.587Zm2.283,7.087a1.141,1.141,0,1,1-1.141-1.141A1.144,1.144,0,0,1,5.986,11.674Z" fill="#3cb3e7" fill-rule="evenodd"/></svg>