<svg height="512pt" viewBox="0 0 512 512" width="512pt" xmlns="http://www.w3.org/2000/svg"><path d="m256 137.355469c26.640625 0 51.8125 8.628906 72.789062 24.953125 3.269532 2.546875 7.980469 1.957031 10.523438-1.3125 2.546875-3.269532 1.957031-7.980469-1.3125-10.523438-23.636719-18.394531-51.992188-28.117187-82-28.117187-73.691406 0-133.640625 59.953125-133.640625 133.644531 0 64.222656 45.535156 118 106.011719 130.765625.167968.039063.339844.078125.511718.109375 17.804688 3.683594 36.355469 3.699219 54.234376 0 .171874-.03125.34375-.066406.511718-.109375 60.476563-12.765625 106.015625-66.542969 106.015625-130.765625 0-28.617188-8.925781-55.914062-25.808593-78.941406-2.449219-3.339844-7.140626-4.0625-10.480469-1.613282-3.34375 2.449219-4.066407 7.144532-1.617188 10.484376 14.984375 20.433593 22.90625 44.664062 22.90625 70.070312 0 53.863281-36.085937 99.453125-85.347656 113.878906v-72.726562c7.09375-3.515625 13.664063-8.160156 19.46875-13.882813 34.640625-34.164062 28.394531-92.195312-13.851563-117.808593-4.050781-2.457032-9.128906-2.539063-13.253906-.214844-4.121094 2.320312-6.679687 6.699218-6.679687 11.425781v43.269531l-19.460938 18.601563-18.5-18.5v-43.371094c0-4.726563-2.558593-9.105469-6.679687-11.425781-4.125-2.324219-9.207032-2.238282-13.261719.21875-41.542969 25.191406-49.179687 83.363281-13.371094 118.128906 5.683594 5.519531 12.097657 10.023438 18.996094 13.464844v25.136718c0 4.140626 3.359375 7.5 7.5 7.5 4.144531 0 7.5-3.359374 7.5-7.5v-19.558593c12.089844 3.050781 24.71875 2.996093 36.59375.042969v70.550781c-3.550781.550781-7.152344.941406-10.796875 1.167969v-42.207032c0-4.140625-3.359375-7.5-7.5-7.5s-7.5 3.359375-7.5 7.5v42.207032c-3.644531-.230469-7.246094-.617188-10.796875-1.167969v-16.035157c0-4.144531-3.355469-7.5-7.5-7.5-4.140625 0-7.5 3.355469-7.5 7.5v12.683594c-49.261719-14.425781-85.347656-60.015625-85.347656-113.878906 0-65.421875 53.222656-118.644531 118.644531-118.644531zm-22.199219 148.304687c-.480469-.261718-.992187-.464844-1.527343-.621094-20.636719-8.863281-35.363282-28.9375-36.367188-52.652343-.886719-20.84375 9.050781-40.566407 26.113281-52.265625v40.824218c0 3.425782 1.332031 6.644532 3.753907 9.066407l20.648437 20.644531c4.886719 4.890625 12.925781 4.980469 17.917969.203125l21.679687-20.71875c2.515625-2.40625 3.957031-5.785156 3.957031-9.265625v-40.757812c16.453126 11.242187 26.171876 29.558593 26.171876 49.640624 0 25.46875-15.648438 46.621094-36.96875 55.535157-.238282.089843-.472657.1875-.699219.300781-13.710938 5.527344-29.832031 5.96875-44.679688.066406zm0 0"/><path d="m492.929688 199.476562-49.175782-5.9375c-1.371094-.164062-2.519531-1.113281-3-2.476562-2.363281-6.722656-5.140625-13.402344-8.25-19.863281-.597656-1.242188-.464844-2.664063.351563-3.703125l30.648437-39.0625c6.757813-8.617188 6.015625-20.953125-1.726562-28.699219l-49.511719-49.511719c-7.746094-7.742187-20.082031-8.484375-28.699219-1.726562l-39.0625 30.652344c-1.042968.8125-2.460937.949218-3.703125.347656-6.457031-3.109375-13.140625-5.886719-19.859375-8.25-1.367187-.480469-2.316406-1.628906-2.480468-3l-5.9375-49.175782c-1.3125-10.871093-10.5625-19.070312-21.511719-19.070312h-70.023438c-10.949219 0-20.199219 8.199219-21.511719 19.070312l-5.9375 49.171876c-.164062 1.375-1.113281 2.523437-2.476562 3.003906-6.722656 2.363281-13.40625 5.140625-19.859375 8.25-1.246094.597656-2.664063.464844-3.703125-.351563l-39.066406-30.648437c-8.617188-6.761719-20.953125-6.015625-28.695313 1.726562l-12.382812 12.382813c-2.929688 2.929687-2.929688 7.679687 0 10.605469 2.929687 2.929687 7.675781 2.929687 10.605469 0l12.382812-12.378907c2.382812-2.382812 6.175781-2.613281 8.832031-.53125l39.0625 30.648438c5.574219 4.371093 13.035157 5.164062 19.472657 2.0625 5.960937-2.871094 12.125-5.433594 18.328124-7.613281 6.789063-2.390626 11.539063-8.273438 12.394532-15.355469l5.933594-49.175781c.40625-3.34375 3.25-5.867188 6.621093-5.867188h70.023438c3.367187 0 6.214843 2.523438 6.621093 5.867188l5.933594 49.175781c.855469 7.082031 5.605469 12.964843 12.394532 15.351562 6.203124 2.183594 12.367187 4.746094 18.328124 7.617188 6.4375 3.097656 13.898438 2.308593 19.472657-2.0625l39.0625-30.648438c2.652343-2.082031 6.449219-1.851562 8.832031.53125l49.511719 49.511719c2.382812 2.382812 2.613281 6.179688.53125 8.832031l-30.648438 39.0625c-4.371093 5.574219-5.160156 13.035157-2.0625 19.472657 2.871094 5.960937 5.433594 12.128906 7.617188 18.328124 2.386719 6.789063 8.273437 11.539063 15.351562 12.394532l49.171875 5.933594c3.347656.40625 5.871094 3.25 5.871094 6.621093v70.023438c0 3.371093-2.523438 6.214843-5.867188 6.621093l-49.175781 5.9375c-7.078125.851563-12.964843 5.601563-15.351562 12.390626-2.183594 6.203124-4.746094 12.367187-7.617188 18.328124-3.097656 6.4375-2.308593 13.898438 2.0625 19.472657l30.648438 39.066406c2.082031 2.652344 1.851562 6.449219-.53125 8.832031l-49.511719 49.511719c-2.382812 2.382813-6.179688 2.609375-8.832031.53125l-39.0625-30.648437c-5.574219-4.375-13.035157-5.164063-19.472657-2.0625-5.960937 2.871093-12.125 5.433593-18.328124 7.613281-6.789063 2.390625-11.539063 8.273437-12.394532 15.355469l-5.933594 49.171874c-.40625 3.347657-3.25 5.871094-6.621093 5.871094h-70.023438c-3.371093 0-6.214843-2.523437-6.621093-5.871094l-5.933594-49.171874c-.855469-7.082032-5.605469-12.964844-12.394532-15.355469-6.203124-2.179688-12.367187-4.742188-18.328124-7.613281-6.4375-3.101563-13.898438-2.3125-19.472657 2.0625l-39.0625 30.644531c-2.652343 2.078125-6.449219 1.851562-8.832031-.53125l-49.511719-49.511719c-2.382812-2.382812-2.613281-6.179688-.53125-8.832031l30.648438-39.0625c4.371093-5.574219 5.160156-13.035157 2.0625-19.472657-2.871094-5.960937-5.433594-12.128906-7.617188-18.328124-2.386719-6.789063-8.273437-11.539063-15.351562-12.394532l-49.171875-5.933594c-3.347656-.40625-5.871094-3.25-5.871094-6.621093v-70.023438c0-3.371093 2.523438-6.214843 5.867188-6.621093l49.175781-5.9375c7.078125-.851563 12.964843-5.601563 15.351562-12.390626 2.183594-6.203124 4.746094-12.367187 7.617188-18.328124 3.097656-6.4375 2.308593-13.898438-2.0625-19.472657l-30.648438-39.0625c-2.082031-2.652343-1.851562-6.449219.53125-8.832031l12.382813-12.382812c2.925781-2.929688 2.925781-7.679688 0-10.605469-2.929688-2.929688-7.679688-2.929688-10.609375 0l-12.378907 12.382812c-7.746093 7.742188-8.488281 20.078125-1.726562 28.695313l30.648438 39.066406c.816406 1.039062.949218 2.457031.347656 3.703125-3.109375 6.457031-5.886719 13.140625-8.25 19.855469-.480469 1.367187-1.628906 2.316406-3 2.480468l-49.175782 5.9375c-10.871093 1.3125-19.070312 10.5625-19.070312 21.511719v70.023438c0 10.949219 8.199219 20.199219 19.070312 21.511719l49.175782 5.9375c1.371094.164062 2.519531 1.113281 3 2.476562 2.363281 6.71875 5.140625 13.402344 8.25 19.859375.601562 1.246094.464844 2.664063-.347656 3.703125l-30.648438 39.066406c-6.761719 8.617188-6.019531 20.953125 1.726562 28.695313l49.511719 49.511719c7.742188 7.746093 20.078125 8.488281 28.695313 1.726562l39.066406-30.648438c1.039062-.816406 2.457031-.949218 3.703125-.347656 6.453125 3.109375 13.136719 5.882813 19.859375 8.25 1.363281.476563 2.3125 1.628906 2.476562 3l5.9375 49.171875c1.3125 10.875 10.5625 19.074219 21.511719 19.074219h70.023438c10.949219 0 20.199219-8.199219 21.511719-19.070312l5.9375-49.175782c.164062-1.371094 1.113281-2.519531 2.476562-3 6.722656-2.363281 13.40625-5.140625 19.859375-8.25 1.246094-.601562 2.664063-.464844 3.703125.351563l39.066406 30.648437c8.613282 6.757813 20.953125 6.015625 28.695313-1.726562l49.511719-49.511719c7.746093-7.746094 8.488281-20.082031 1.726562-28.699219l-30.648438-39.0625c-.816406-1.039062-.949218-2.460937-.347656-3.703125 3.109375-6.460937 5.882813-13.140625 8.25-19.859375.476563-1.363281 1.628906-2.3125 3-2.480468l49.171875-5.9375c10.875-1.3125 19.074219-10.5625 19.074219-21.511719v-70.023438c0-10.949219-8.199219-20.199219-19.070312-21.511719zm0 0"/></svg>