<svg id="Capa_1" enable-background="new 0 0 512 512" height="512" viewBox="0 0 512 512" width="512" xmlns="http://www.w3.org/2000/svg"><g><g><path d="m188.846 137.262c1.772 1.108 3.54 2.303 5.404 3.654 3.355 2.43 8.044 1.681 10.474-1.674 2.431-3.354 1.682-8.043-1.673-10.474-2.145-1.553-4.19-2.936-6.253-4.225-1.956-1.224-3.319-3.14-3.837-5.395-.519-2.256-.129-4.579 1.1-6.542 1.225-1.959 3.139-3.323 5.391-3.841 2.258-.519 4.584-.125 6.553 1.106 17.113 10.7 31.399 25.346 41.518 42.521-3.456 6.775-6.373 13.869-8.7 21.222-2.646-6.233-5.887-12.228-9.714-17.905-2.314-3.436-6.976-4.342-10.411-2.027s-4.342 6.977-2.026 10.411c10.251 15.208 15.669 33.061 15.669 51.628 0 51.005-41.5 92.5-92.51 92.5-22.544 0-44.275-8.239-61.191-23.198-3.104-2.745-7.843-2.454-10.587.65-2.744 3.103-2.453 7.842.649 10.586 19.66 17.387 44.921 26.962 71.129 26.962 59.281 0 107.51-48.224 107.51-107.5 0-68.837 55.999-124.84 124.83-124.84 32.088 0 62.597 12.198 85.904 34.347 3.002 2.854 7.751 2.732 10.603-.27 2.854-3.002 2.732-7.75-.271-10.603-26.107-24.81-60.285-38.474-96.236-38.474-48.304 0-90.964 24.624-116.094 61.978-10.933-16.264-25.305-30.194-42.119-40.707-5.363-3.353-11.708-4.422-17.865-3.006-6.163 1.416-11.401 5.149-14.75 10.507-3.35 5.354-4.415 11.695-3 17.854 1.415 6.163 5.144 11.403 10.503 14.755z"/><path d="m491.603 143.045c-2.157-3.537-6.777-4.652-10.309-2.496-3.536 2.158-4.653 6.773-2.496 10.309 11.908 19.515 18.202 41.945 18.202 64.864 0 29.456-10.5 58.07-29.566 80.573-18.849 22.246-44.914 37.28-73.394 42.332-2.614.464-4.788 2.274-5.717 4.761-.929 2.486-.474 5.279 1.196 7.342l3.229 3.991c1.459 1.795 2.13 4.051 1.892 6.352-.239 2.3-1.359 4.369-3.151 5.821-1.565 1.268-3.453 1.938-5.459 1.938-2.627 0-5.083-1.169-6.736-3.205l-22.943-28.286c-2.213-2.723-2.565-6.479-.899-9.57l17.279-32.048c1.101-2.04 2.929-3.529 5.148-4.194 2.214-.664 4.556-.426 6.597.677 2.034 1.095 3.52 2.918 4.184 5.134.663 2.217.425 4.559-.672 6.593l-3.46 6.42c-1.374 2.55-1.157 5.663.558 7.997 1.714 2.335 4.622 3.471 7.463 2.926 50.482-9.722 87.122-54.114 87.122-105.555 0-59.281-48.225-107.51-107.5-107.51-59.281 0-107.51 48.229-107.51 107.51 0 68.831-55.999 124.83-124.83 124.83-68.833.001-124.831-55.998-124.831-124.829 0-29.46 10.5-58.079 29.566-80.582 18.849-22.247 44.913-37.281 73.395-42.334 2.614-.464 4.789-2.276 5.717-4.765s.471-5.282-1.203-7.345l-3.221-3.969c-1.461-1.801-2.134-4.062-1.895-6.365.239-2.301 1.359-4.37 3.155-5.825 3.71-3.009 9.18-2.437 12.191 1.27l22.943 28.285c2.213 2.723 2.565 6.48.898 9.572l-17.276 32.056c-1.515 2.808-4.442 4.552-7.64 4.552-1.443 0-2.82-.349-4.105-1.044-2.034-1.095-3.52-2.918-4.184-5.135-.663-2.217-.425-4.559.672-6.593l3.46-6.42c1.374-2.55 1.157-5.663-.558-7.998s-4.622-3.472-7.465-2.925c-50.48 9.733-87.12 54.129-87.12 105.564 0 17.869 4.499 35.588 13.011 51.242 1.978 3.638 6.528 4.986 10.172 3.006 3.639-1.979 4.984-6.533 3.006-10.171-7.319-13.462-11.188-28.704-11.188-44.077 0-39.286 24.842-73.801 60.801-86.918-.38 3.179-.105 6.432.841 9.591 1.813 6.059 5.878 11.045 11.431 14.034 3.438 1.86 7.321 2.843 11.228 2.843 8.718 0 16.703-4.762 20.842-12.432l17.28-32.06c4.552-8.443 3.585-18.707-2.458-26.144l-22.942-28.284c-8.226-10.125-23.156-11.68-33.286-3.466-4.908 3.981-7.972 9.637-8.625 15.925-.421 4.046.189 8.043 1.739 11.688-27.523 7.28-52.441 22.972-71.058 44.945-21.361 25.21-33.124 57.272-33.124 90.279 0 77.103 62.728 139.83 139.83 139.83 48.305 0 90.964-24.622 116.094-61.973 10.929 16.256 25.303 30.186 42.122 40.707 3.772 2.359 8.106 3.605 12.532 3.605 8.226 0 15.731-4.154 20.074-11.105 3.355-5.357 4.423-11.701 3.006-17.863-1.417-6.164-5.148-11.403-10.504-14.75-27.233-17.046-43.492-46.375-43.492-78.456h-.003c.002-51.008 41.501-92.506 92.51-92.506 51.005 0 92.5 41.5 92.5 92.51 0 39.292-24.839 73.803-60.801 86.911.38-3.18.105-6.434-.841-9.595-1.813-6.059-5.878-11.045-11.434-14.036-5.562-3.004-11.962-3.658-18.021-1.843-6.056 1.814-11.044 5.877-14.046 11.443l-17.28 32.051c-4.552 8.443-3.586 18.707 2.458 26.143l22.942 28.284c4.518 5.562 11.217 8.751 18.382 8.751 5.403 0 10.694-1.875 14.904-5.285 4.908-3.981 7.972-9.636 8.625-15.924.421-4.049-.19-8.047-1.741-11.688 27.525-7.279 52.441-22.97 71.06-44.943 21.361-25.207 33.124-57.265 33.124-90.268 0-25.677-7.054-50.808-20.397-72.677zm-176.402 163.846c1.958 1.223 3.321 3.139 3.84 5.393.519 2.256.128 4.579-1.104 6.548-1.589 2.542-4.339 4.06-7.357 4.06-1.61 0-3.194-.458-4.578-1.323-17.123-10.71-31.409-25.356-41.522-42.521 3.458-6.778 6.376-13.875 8.703-21.232 8.455 19.936 22.904 37.111 42.018 49.075z"/><path d="m170.146 415.874c4.143 0 7.5-3.358 7.5-7.5s-3.357-7.5-7.5-7.5h-20.431c-4.143 0-7.5 3.358-7.5 7.5v48.488c0 4.142 3.357 7.5 7.5 7.5h20.431c4.143 0 7.5-3.358 7.5-7.5s-3.357-7.5-7.5-7.5h-12.931v-9.244h11.425c4.143 0 7.5-3.358 7.5-7.5s-3.357-7.5-7.5-7.5h-11.425v-9.244z"/><path d="m99.582 400.874h-13.733c-1.992 0-3.901.792-5.309 2.202s-2.195 3.321-2.191 5.313l.099 48.488c.004 1.992.8 3.899 2.212 5.304 1.405 1.397 3.307 2.181 5.288 2.181h.028c.415-.001 10.217-.039 14.139-.107 15.383-.269 26.548-13.574 26.548-31.636-.001-18.988-10.884-31.745-27.081-31.745zm.271 48.383c-1.507.026-3.976.048-6.421.065l-.067-33.448h6.218c11.209 0 12.08 12.816 12.08 16.744-.001 8.18-3.652 16.496-11.81 16.639z"/><path d="m237.36 401.346c-3.927-1.307-8.176.822-9.481 4.753l-9.884 29.751-10.392-29.936c-1.357-3.913-5.633-5.983-9.544-4.626-3.913 1.358-5.984 5.632-4.626 9.545l16.597 47.812c1.217 3.425 4.467 5.716 8.098 5.716h.06c3.655-.025 6.901-2.367 8.094-5.877l15.832-47.656c1.306-3.931-.822-8.176-4.754-9.482z"/><path d="m418.367 425.964-2.163-.796c-5.615-2.065-8.435-3.103-10.952-4.474-.179-.097-.598-.325-.5-1.271.113-1.099.961-2.492 2.999-3.106 6.044-1.821 11.808 2.655 12.021 2.824 3.173 2.621 7.867 2.199 10.519-.956 2.665-3.171 2.255-7.902-.915-10.567-4.387-3.687-14.791-9.027-25.95-5.663-7.491 2.257-12.826 8.508-13.593 15.926-.694 6.713 2.466 12.839 8.245 15.986 3.482 1.896 6.845 3.133 12.949 5.379l2.149.792c2.872 1.059 5.809 2.928 5.438 4.998-.312 1.745-2.769 4.327-7.054 4.327-4.42 0-8.659-1.766-11.339-4.724-2.781-3.069-7.524-3.304-10.594-.521-3.069 2.781-3.303 7.524-.521 10.594 5.558 6.133 13.742 9.651 22.454 9.651 5.236 0 10.306-1.668 14.272-4.697 4.037-3.083 6.718-7.342 7.548-11.993 1.31-7.335-1.946-16.889-15.013-21.709z"/><path d="m352.697 400.874h-13.502c-1.993 0-3.905.794-5.312 2.206s-2.194 3.326-2.188 5.32l.091 26.316c-.054.363-.091.731-.091 1.109v21.061c0 4.142 3.357 7.5 7.5 7.5s7.5-3.358 7.5-7.5v-13.625c2.284-.011 4.573-.02 6.002-.02 11.828 0 21.451-9.503 21.451-21.183 0-11.681-9.623-21.184-21.451-21.184zm0 27.367c-1.415 0-3.671.009-5.934.02l-.042-12.386h5.976c3.497 0 6.451 2.832 6.451 6.184 0 3.351-2.954 6.182-6.451 6.182z"/><path d="m284.527 400.874c-17.503 0-31.743 14.24-31.743 31.744 0 17.503 14.24 31.744 31.743 31.744 17.504 0 31.744-14.24 31.744-31.744 0-17.503-14.24-31.744-31.744-31.744zm0 48.488c-9.232 0-16.743-7.511-16.743-16.744s7.511-16.744 16.743-16.744 16.744 7.511 16.744 16.744-7.511 16.744-16.744 16.744z"/></g></g></svg>