<svg height="682.66669pt" viewBox="-21 -21 682.66669 682.66669" width="682.66669pt" xmlns="http://www.w3.org/2000/svg"><path d="m640 395.921875v-151.84375h-98.667969c-3.136719-9.152344-6.875-18.144531-11.15625-26.882813l69.785157-69.78125-107.375-107.375-69.730469 69.730469c-8.640625-4.21875-17.65625-7.9375-26.933594-11.105469v-98.664062h-151.84375v98.667969c-9.152344 3.144531-18.148437 6.878906-26.882813 11.15625l-69.78125-69.785157-107.375 107.375 69.785157 69.78125c-4.28125 8.738282-8.019531 17.734376-11.15625 26.882813h-98.667969v151.84375h98.667969c3.136719 9.152344 6.875 18.144531 11.15625 26.882813l-69.785157 69.78125 107.375 107.375 69.78125-69.785157c8.734376 4.28125 17.730469 8.011719 26.882813 11.15625v98.667969h151.84375v-98.617188c9.074219-3.125 18.078125-6.875 26.886719-11.203124l69.777344 69.78125 107.375-107.375-69.785157-69.78125c4.28125-8.738282 8.019531-17.734376 11.15625-26.882813zm-66.554688 96.664063-80.859374 80.859374-66.222657-66.226562-6.121093 3.226562c-11.847657 6.25-24.117188 11.359376-36.46875 15.1875l-6.601563 2.042969v93.574219h-114.34375v-93.628906c-19.992187-6.191406-27.507813-8.964844-49.191406-20.402344l-66.222657 66.226562-80.855468-80.859374 66.222656-66.222657c-11.453125-21.714843-14.210938-29.195312-20.402344-49.191406h-93.628906v-114.34375h93.625c6.136719-19.800781 8.917969-27.417969 20.40625-49.191406l-66.222656-66.222657 80.855468-80.859374 66.222657 66.226562 6.121093-3.226562c11.683594-6.160157 23.953126-11.253907 36.46875-15.136719l6.601563-2.042969v-93.625h114.351563v93.625l6.59375 2.042969c12.78125 3.960937 25.070312 9.035156 36.53125 15.082031l6.117187 3.226562 66.171875-66.171874 80.851562 80.859374-66.222656 66.222657c9.917969 18.792969 13.277344 26.167969 20.402344 49.191406h93.625v114.34375h-93.625c-2.707031 8.746094-6.96875 23.722656-17.179688 43.070313l-3.226562 6.121093zm0 0"/><path d="m85.78125 491.023438 43.726562-43.722657 13.257813 13.253907-43.726563 43.726562zm0 0"/><path d="m285.625 391.722656 23.351562-23.347656-13.265624-13.257812-23.34375 23.351562c-32.257813 32.257812-84.671876 32.257812-116.933594 0-15.621094-15.617188-24.21875-36.378906-24.21875-58.46875 0-22.085938 8.597656-42.847656 24.21875-58.460938 32.238281-32.242187 84.691406-32.242187 116.933594-.007812l106.117187 106.128906c26.28125 26.277344 69.039063 26.277344 95.3125-.003906 26.339844-26.332031 26.351563-68.96875 0-95.308594-26.296875-26.308594-68.996094-26.308594-95.3125-.003906l-23.347656 23.351562 13.261719 13.253907 23.34375-23.34375c9.175781-9.175781 21.390624-14.222657 34.398437-14.222657 27 0 48.648437 21.800782 48.648437 48.617188 0 13-5.058593 25.210938-14.246093 34.398438-18.964844 18.964843-49.824219 18.96875-68.792969 0l-106.125-106.121094c-39.550781-39.550782-103.902344-39.546875-143.453125 0-39.636719 39.644531-39.640625 103.800781 0 143.449218 39.589844 39.585938 103.863281 39.585938 143.453125-.003906zm0 0"/><path d="m497.871094 248.273438c-39.550782-39.546876-103.902344-39.546876-143.453125.003906l-23.347657 23.347656 13.257813 13.257812 23.347656-23.351562c32.238281-32.238281 84.699219-32.234375 116.933594 0 32.242187 32.238281 32.242187 84.699219 0 116.9375-32.234375 32.238281-84.691406 32.238281-116.933594 0l-106.121093-106.125c-26.28125-26.28125-69.035157-26.28125-95.3125 0-26.277344 26.28125-26.277344 69.03125 0 95.3125 26.277343 26.28125 69.035156 26.28125 95.3125 0l23.347656-23.351562-13.257813-13.253907-23.347656 23.347657c-18.964844 18.964843-49.828125 18.964843-68.796875 0-18.96875-18.96875-18.96875-49.828126 0-68.796876 18.96875-18.964843 49.828125-18.964843 68.796875 0l106.121094 106.125c39.574219 39.570313 103.925781 39.523438 143.453125 0 39.546875-39.546874 39.546875-103.898437 0-143.453124zm0 0"/><path d="m208.183594 431.8125-13.257813 13.257812c69.128907 69.125 181.007813 69.128907 250.144531 0l-13.265624-13.257812c-61.796876 61.796875-161.820313 61.804688-223.621094 0zm0 0"/><path d="m445.070312 158.273438-13.265624-13.257813 13.257812-13.257813 13.261719 13.257813zm22.09375-22.097657-13.261718-13.261719 13.261718-13.257812 13.257813 13.265625zm22.09375-22.097656-13.257812-13.257813 17.40625-17.40625 13.265625 13.257813zm0 0"/><path d="m431.804688 208.1875c-47.234376-47.230469-116.992188-58.535156-175.179688-33.105469l-7.507812-17.183593c64.472656-28.167969 142.621093-16.292969 195.953124 37.03125zm-223.621094 0-13.257813-13.257812c4.660157-4.65625 9.613281-9.09375 14.738281-13.191407l11.710938 14.636719c-4.578125 3.667969-9.015625 7.644531-13.191406 11.8125zm22.675781-18.832031-10.582031-15.480469c5.429687-3.714844 11.132812-7.160156 16.945312-10.238281l8.777344 16.566406c-5.1875 2.75-10.28125 5.832031-15.140625 9.152344zm0 0"/></svg>