<svg id="Layer_1_1_" enable-background="new 0 0 64 64" height="512" viewBox="0 0 64 64" width="512" xmlns="http://www.w3.org/2000/svg"><path d="m4 56c0-1.654 1.346-3 3-3h10c1.654 0 3 1.346 3 3v6h2v-6c0-2.757-2.243-5-5-5h-.54c.954-1.063 1.54-2.462 1.54-4 0-3.309-2.691-6-6-6s-6 2.691-6 6c0 1.538.586 2.937 1.54 4h-.54c-2.757 0-5 2.243-5 5v6h2zm8-13c2.206 0 4 1.794 4 4s-1.794 4-4 4-4-1.794-4-4 1.794-4 4-4z"/><path d="m6 56h2v6h-2z"/><path d="m16 56h2v6h-2z"/><path d="m35.151 27.067-2.236-.342-1.01-2.15c-.165-.351-.517-.575-.905-.575s-.74.224-.905.575l-1.01 2.15-2.236.342c-.37.056-.678.315-.797.671s-.029.748.232 1.016l1.647 1.689-.391 2.396c-.062.378.099.758.411.978s.725.243 1.061.058l1.988-1.099 1.987 1.099c.152.083.319.125.485.125.202 0 .404-.062.576-.183.312-.22.473-.6.411-.978l-.391-2.396 1.647-1.689c.262-.268.352-.66.232-1.016s-.426-.614-.796-.671zm-2.867 2.34c-.222.227-.322.546-.271.859l.141.862-.669-.37c-.151-.083-.317-.125-.484-.125s-.333.042-.484.125l-.669.37.141-.862c.051-.313-.05-.632-.271-.859l-.641-.657.84-.128c.329-.05.612-.261.754-.563l.329-.706.331.705c.142.302.425.513.754.563l.84.128z"/><path d="m40 6c-4.963 0-9 4.038-9 9s4.037 9 9 9 9-4.038 9-9-4.037-9-9-9zm0 16c-3.859 0-7-3.14-7-7s3.141-7 7-7 7 3.14 7 7-3.141 7-7 7z"/><path d="m37.002 12h-.004c-.551 0-.998.447-.998.998v.004c0 .551.447.998.998.998h.004c.551 0 .998-.447.998-.998v-.004c0-.551-.447-.998-.998-.998z"/><path d="m42.998 14h.004c.551 0 .998-.447.998-.998v-.004c0-.551-.447-.998-.998-.998h-.004c-.551 0-.998.447-.998.998v.004c0 .551.447.998.998.998z"/><path d="m40 18c-.631 0-1.214-.299-1.587-.782-.247-.321-.695-.412-1.077-.277-.638.226-.888 1.021-.465 1.55.746.934 1.891 1.509 3.129 1.509s2.383-.575 3.129-1.508c.422-.529.173-1.324-.465-1.55-.382-.135-.83-.044-1.077.277-.373.482-.956.781-1.587.781z"/><path d="m46.829 26.172h8v2h-8z" transform="matrix(.707 -.707 .707 .707 -4.326 43.9)"/><path d="m52.241 29.999.003.003c.39.39 1.022.389 1.411 0l.003-.003c.39-.39.389-1.022 0-1.411l-.003-.003c-.39-.39-1.022-.389-1.411 0l-.003.003c-.39.389-.39 1.021 0 1.411z"/><path d="m47.999 25.756.003.003c.39.39 1.021.39 1.411 0l.003-.003c.39-.39.39-1.021 0-1.411l-.003-.003c-.39-.39-1.021-.39-1.411 0l-.003.003c-.39.389-.39 1.021 0 1.411z"/><path d="m26 45c0-1.654-1.346-3-3-3s-3 1.346-3 3 1.346 3 3 3 3-1.346 3-3zm-3 1c-.552 0-1-.449-1-1s.448-1 1-1 1 .449 1 1-.448 1-1 1z"/><path d="m40 1c-12.131 0-22 8.972-22 20 0 4.498 1.68 8.867 4.748 12.392-.486.784-.748 1.685-.748 2.608 0 2.757 2.243 5 5 5 1.498 0 2.902-.683 3.843-1.828 2.897 1.213 5.973 1.828 9.157 1.828 12.131 0 22-8.972 22-20s-9.869-20-22-20zm0 38c-3.178 0-6.237-.668-9.094-1.985-.136-.062-.278-.092-.418-.092-.354 0-.694.188-.876.516-.532.963-1.533 1.561-2.612 1.561-1.654 0-3-1.346-3-3 0-.73.278-1.441.783-2 .35-.387.343-.978-.016-1.357-3.074-3.254-4.767-7.389-4.767-11.643 0-9.925 8.972-18 20-18s20 8.075 20 18-8.972 18-20 18z"/></svg>