<svg id="Layer_1" height="512" viewBox="0 0 64 64" width="512" xmlns="http://www.w3.org/2000/svg" data-name="Layer 1"><path d="m62.581 56.186-7-5a1 1 0 0 0 -1.581.814v2h-6v-11a1 1 0 0 0 -.649-.937l-7.351-2.756v-7.307a1 1 0 0 0 -1-1h-14a1 1 0 0 0 -1 1v7.307l-7.351 2.756a1 1 0 0 0 -.649.937v11h-14a1 1 0 0 0 -1 1v4a1 1 0 0 0 1 1h52v2a1 1 0 0 0 1.581.814l7-5a1 1 0 0 0 0-1.628zm-22.581-14.743 6 2.25v10.307h-6zm-14-8.443h12v21h-2v-3a4 4 0 0 0 -8 0v3h-2zm8 18v3h-4v-3a2 2 0 0 1 4 0zm-16-7.307 6-2.25v12.557h-6zm38 16.364v-1.057a1 1 0 0 0 -1-1h-52v-2h52a1 1 0 0 0 1-1v-1.057l4.279 3.057z"/><path d="m33 29v-8.184a3 3 0 1 0 -2 0v8.184zm-1-12a1 1 0 1 1 -1 1 1 1 0 0 1 1-1z"/><path d="m27 29v-4a1 1 0 0 0 -.4-.8l-1.749-1.312a2.968 2.968 0 0 0 .149-.888 3.007 3.007 0 1 0 -1.339 2.5l1.339 1v3.5zm-5-6a1 1 0 1 1 1-1 1 1 0 0 1 -1 1z"/><path d="m37 25v4h2v-3.5l1.339-1a3.119 3.119 0 1 0 -1.19-1.607l-1.749 1.307a1 1 0 0 0 -.4.8zm5-4a1 1 0 1 1 -1 1 1 1 0 0 1 1-1z"/><path d="m28.5 35h2v2h-2z"/><path d="m33.5 35h2v2h-2z"/><path d="m28.5 39h2v2h-2z"/><path d="m33.5 39h2v2h-2z"/><path d="m28.5 43h2v2h-2z"/><path d="m33.5 43h2v2h-2z"/><path d="m2.869 27.79 2.349.781a26.729 26.729 0 0 0 -.218 3.429 27.029 27.029 0 0 0 .218 3.44l-2.348.769a2.009 2.009 0 0 0 -1.281 2.521l1.859 5.7a2 2 0 0 0 2.524 1.3l2.349-.764a26.935 26.935 0 0 0 3.426 4.9l1.506-1.316a25.03 25.03 0 0 1 -3.185-4.559 2.026 2.026 0 0 0 -2.368-.941l-2.347.76-1.859-5.7 2.347-.769a1.993 1.993 0 0 0 1.359-2.17 24.984 24.984 0 0 1 0-6.349 1.99 1.99 0 0 0 -1.359-2.162l-2.35-.77 1.858-5.71 2.351.771a2.033 2.033 0 0 0 2.379-.951 24.606 24.606 0 0 1 3.729-5.142 1.992 1.992 0 0 0 .171-2.553l-1.452-2 4.853-3.528 1.457 2.01a2.015 2.015 0 0 0 2.484.615 24.376 24.376 0 0 1 6.034-1.969 2.008 2.008 0 0 0 1.645-1.963v-2.47h6v2.47a2.008 2.008 0 0 0 1.647 1.963 24.429 24.429 0 0 1 6.053 1.977 2.011 2.011 0 0 0 2.473-.633l1.454-2 4.843 3.523-1.442 1.99a1.994 1.994 0 0 0 .165 2.563 24.706 24.706 0 0 1 3.739 5.161 2.028 2.028 0 0 0 2.37.933l2.347-.76 1.859 5.7-2.347.769a1.993 1.993 0 0 0 -1.363 2.17 24.984 24.984 0 0 1 0 6.349 1.99 1.99 0 0 0 1.362 2.162l2.35.77-1.858 5.71-2.352-.768a2.034 2.034 0 0 0 -2.38.951 24.946 24.946 0 0 1 -3.173 4.538l1.506 1.316a26.771 26.771 0 0 0 3.426-4.908l2.356.772a2 2 0 0 0 2.516-1.292l1.861-5.7a2.005 2.005 0 0 0 -1.281-2.515l-2.349-.781a26.729 26.729 0 0 0 .218-3.43 27.029 27.029 0 0 0 -.218-3.44l2.348-.769a2.009 2.009 0 0 0 1.281-2.521l-1.859-5.695a2 2 0 0 0 -2.524-1.295l-2.349.762a26.645 26.645 0 0 0 -4.039-5.565l1.446-2a2 2 0 0 0 -.439-2.8l-4.847-3.513a1.994 1.994 0 0 0 -1.5-.364 1.972 1.972 0 0 0 -1.3.8l-1.459 2a26.151 26.151 0 0 0 -6.541-2.13v-2.47a2 2 0 0 0 -2-2h-6a2 2 0 0 0 -2 2l-.013 2.467a26.354 26.354 0 0 0 -6.537 2.133l-1.445-1.99a1.995 1.995 0 0 0 -2.8-.449l-4.856 3.523a2 2 0 0 0 -.438 2.793l1.442 2.006a26.512 26.512 0 0 0 -4.032 5.567l-2.356-.772a2 2 0 0 0 -2.516 1.292l-1.861 5.7a2.005 2.005 0 0 0 1.281 2.52z"/><path d="m52.428 40.173a21.785 21.785 0 0 0 1.572-8.173 22 22 0 0 0 -44 0 21.785 21.785 0 0 0 1.572 8.173l1.856-.747a19.772 19.772 0 0 1 -1.428-7.426 20 20 0 0 1 40 0 19.772 19.772 0 0 1 -1.428 7.426z"/></svg>