<svg id="Layer_1" height="512" viewBox="0 0 64 64" width="512" xmlns="http://www.w3.org/2000/svg" data-name="Layer 1"><path d="m4 53a2 2 0 0 1 2-2h8a2 2 0 0 1 2 2v9h2v-9a4 4 0 0 0 -4-4h-1.031a5 5 0 1 0 -5.938 0h-1.031a4 4 0 0 0 -4 4v9h2zm3-8a3 3 0 1 1 3 3 3 3 0 0 1 -3-3z"/><path d="m5 53h2v9h-2z"/><path d="m13 53h2v9h-2z"/><path d="m37 45a5 5 0 1 0 -7.969 4h-1.031a4 4 0 0 0 -4 4v9h2v-9a2 2 0 0 1 2-2h8a2 2 0 0 1 2 2v9h2v-9a4 4 0 0 0 -4-4h-1.031a4.982 4.982 0 0 0 2.031-4zm-5 3a3 3 0 1 1 3-3 3 3 0 0 1 -3 3z"/><path d="m27 53h2v9h-2z"/><path d="m35 53h2v9h-2z"/><path d="m58 49h-1.031a5 5 0 1 0 -5.938 0h-1.031a4 4 0 0 0 -4 4v9h2v-9a2 2 0 0 1 2-2h8a2 2 0 0 1 2 2v9h2v-9a4 4 0 0 0 -4-4zm-4-1a3 3 0 1 1 3-3 3 3 0 0 1 -3 3z"/><path d="m49 53h2v9h-2z"/><path d="m57 53h2v9h-2z"/><path d="m8.062 27.394a1.82 1.82 0 0 0 .2 1.423l1.449 2.4a1.935 1.935 0 0 0 2.574.676l.485-.276a8.864 8.864 0 0 0 1.872 1.045v.475a1.887 1.887 0 0 0 1.909 1.863h2.9a1.887 1.887 0 0 0 1.9-1.864v-.476a7.1 7.1 0 0 0 1.827-1.06l.53.292a1.935 1.935 0 0 0 2.573-.675l1.451-2.4a1.821 1.821 0 0 0 .2-1.422 1.855 1.855 0 0 0 -.907-1.15l-.439-.245a7.813 7.813 0 0 0 0-2l.445-.246a1.855 1.855 0 0 0 .907-1.15 1.82 1.82 0 0 0 -.2-1.423l-1.449-2.4a1.933 1.933 0 0 0 -2.574-.676l-.485.276a8.864 8.864 0 0 0 -1.872-1.045v-.475a1.887 1.887 0 0 0 -1.909-1.861h-2.9a1.887 1.887 0 0 0 -1.9 1.864v.476a7.1 7.1 0 0 0 -1.827 1.06l-.53-.292a1.935 1.935 0 0 0 -2.573.675l-1.451 2.4a1.821 1.821 0 0 0 -.2 1.422 1.855 1.855 0 0 0 .907 1.15l.439.245a7.813 7.813 0 0 0 0 2l-.445.246a1.855 1.855 0 0 0 -.907 1.148zm3.288-2.394a5.818 5.818 0 0 1 .062-.847 1.846 1.846 0 0 0 -.953-1.859l-.4-.218 1.32-2.184.471.259a1.967 1.967 0 0 0 2.1-.152 6.715 6.715 0 0 1 1.472-.818 1.882 1.882 0 0 0 1.218-1.738v-.443h2.708v.443a1.883 1.883 0 0 0 1.217 1.738 6.737 6.737 0 0 1 1.479.819 1.965 1.965 0 0 0 2.1.153l.471-.259 1.32 2.184-.4.218a1.843 1.843 0 0 0 -.953 1.86 5.934 5.934 0 0 1 .068.844 5.818 5.818 0 0 1 -.062.847 1.846 1.846 0 0 0 .953 1.859l.4.218-1.32 2.184-.471-.259a1.964 1.964 0 0 0 -2.1.152 6.715 6.715 0 0 1 -1.472.818 1.882 1.882 0 0 0 -1.218 1.738v.443h-2.714v-.443a1.883 1.883 0 0 0 -1.217-1.738 6.737 6.737 0 0 1 -1.473-.819 1.963 1.963 0 0 0 -2.1-.153l-.471.259-1.32-2.184.4-.218a1.843 1.843 0 0 0 .953-1.86 5.934 5.934 0 0 1 -.068-.844z"/><path d="m18 29.5a4.5 4.5 0 1 0 -4.5-4.5 4.505 4.505 0 0 0 4.5 4.5zm0-7a2.5 2.5 0 1 1 -2.5 2.5 2.5 2.5 0 0 1 2.5-2.5z"/><path d="m37.059 23.1a1.723 1.723 0 0 0 .193 1.349l1.288 2.133a1.835 1.835 0 0 0 2.438.641l.376-.208a7.825 7.825 0 0 0 1.553.867v.349a1.789 1.789 0 0 0 1.804 1.769h2.578a1.789 1.789 0 0 0 1.8-1.768v-.349a7.847 7.847 0 0 0 1.553-.867l.376.208a1.834 1.834 0 0 0 2.437-.64l1.29-2.134a1.727 1.727 0 0 0 .192-1.349 1.788 1.788 0 0 0 -.86-1.093l-.329-.181a7.148 7.148 0 0 0 0-1.654l.329-.181a1.788 1.788 0 0 0 .86-1.093 1.723 1.723 0 0 0 -.193-1.349l-1.284-2.133a1.834 1.834 0 0 0 -2.438-.641l-.376.208a7.825 7.825 0 0 0 -1.553-.867v-.349a1.789 1.789 0 0 0 -1.804-1.768h-2.578a1.789 1.789 0 0 0 -1.8 1.768v.349a7.847 7.847 0 0 0 -1.553.867l-.376-.208a1.834 1.834 0 0 0 -2.437.64l-1.29 2.134a1.727 1.727 0 0 0 -.192 1.349 1.788 1.788 0 0 0 .86 1.093l.329.181a7.148 7.148 0 0 0 0 1.654l-.329.181a1.788 1.788 0 0 0 -.864 1.092zm3.141-2.1a5.019 5.019 0 0 1 .054-.738 1.732 1.732 0 0 0 -.9-1.764l-.251-.139 1.057-1.751.324.179a1.863 1.863 0 0 0 1.992-.144 5.809 5.809 0 0 1 1.283-.712 1.787 1.787 0 0 0 1.151-1.648v-.283h2.186v.283a1.787 1.787 0 0 0 1.151 1.648 5.8 5.8 0 0 1 1.284.713 1.86 1.86 0 0 0 1.991.143l.324-.179 1.054 1.751-.25.138a1.733 1.733 0 0 0 -.9 1.768 5.087 5.087 0 0 1 .05.735 5.019 5.019 0 0 1 -.054.738 1.732 1.732 0 0 0 .9 1.764l.251.139-1.057 1.751-.324-.179a1.863 1.863 0 0 0 -1.992.144 5.809 5.809 0 0 1 -1.283.712 1.787 1.787 0 0 0 -1.151 1.648v.283h-2.183v-.283a1.787 1.787 0 0 0 -1.151-1.648 5.8 5.8 0 0 1 -1.284-.713 1.864 1.864 0 0 0 -1.991-.143l-.324.179-1.057-1.751.25-.138a1.733 1.733 0 0 0 .9-1.768 5.087 5.087 0 0 1 -.05-.735z"/><path d="m46 25a4 4 0 1 0 -4-4 4 4 0 0 0 4 4zm0-6a2 2 0 1 1 -2 2 2 2 0 0 1 2-2z"/><path d="m53.789 12.614 5.5-7.068.366 3.188 1.987-.228-.646-5.62a1 1 0 0 0 -1.107-.88l-5.62.646.228 1.987 3.256-.374-5.539 7.121z"/><path d="m32.112 13.261 3.347 2.152 1.082-1.683-4-2.571a1 1 0 0 0 -1.222.108l-4.307 4 1.361 1.466z"/><path d="m3.215 35h5.878v2h-5.878z" transform="matrix(.733 -.681 .681 .733 -22.854 13.809)"/></svg>