<svg id="Layer_5" enable-background="new 0 0 64 64" height="512" viewBox="0 0 64 64" width="512" xmlns="http://www.w3.org/2000/svg"><g><circle cx="6" cy="53" r="1"/><path d="m20 30h2v2h-2z"/><path d="m28 30h2v2h-2z"/><path d="m24 30h2v2h-2z"/><path d="m20 34h2v2h-2z"/><path d="m24 34h2v2h-2z"/><path d="m28 34h2v2h-2z"/><path d="m20 38h2v2h-2z"/><path d="m28 38h2v2h-2z"/><path d="m24 38h2v2h-2z"/><path d="m20 42h2v2h-2z"/><path d="m28 42h2v2h-2z"/><path d="m24 42h2v2h-2z"/><path d="m63 51v-4.353l-.221-.274c-1.752-2.175-4.514-3.373-7.779-3.373-.388 0-.77.032-1.149.076 1.714-2.655 2.92-5.557 3.575-8.652l2.574-.643v-9.562l-2.574-.644c-.661-3.12-1.873-6.048-3.61-8.721l1.363-2.274-6.76-6.761-2.274 1.365c-2.672-1.738-5.6-2.95-8.721-3.611l-.643-2.573h-9.563l-.643 2.574c-3.121.661-6.049 1.873-8.721 3.611l-2.273-1.365-6.76 6.761 1.363 2.274c-1.737 2.673-2.949 5.601-3.61 8.721l-2.574.643v9.562l2.574.643c.66 3.12 1.873 6.048 3.61 8.721l-1.363 2.274 2.581 2.581h-5.402c-2.757 0-5 2.243-5 5s2.243 5 5 5h40.349c1.787 3.1 5.047 5 8.651 5 3.259 0 6.021-1.197 7.778-3.371l.222-.275v-4.354h-8v-4zm-51.661-5.892 1.217-2.028-.362-.529c-1.894-2.763-3.165-5.833-3.779-9.127l-.118-.631-2.297-.574v-6.438l2.296-.574.118-.631c.614-3.294 1.886-6.364 3.779-9.126l.362-.529-1.217-2.028 4.553-4.553 2.028 1.217.529-.363c2.762-1.894 5.832-3.165 9.127-3.779l.631-.118.575-2.297h6.438l.574 2.296.631.118c3.295.614 6.365 1.885 9.127 3.779l.529.363 2.028-1.217 4.553 4.553-1.217 2.028.362.529c1.894 2.762 3.165 5.833 3.779 9.126l.118.631 2.297.575v6.438l-2.296.574-.118.631c-.61 3.274-1.871 6.329-3.746 9.079l-1.416 1.621c-1.672.863-3.098 2.182-4.075 3.876h-3.262c6.67-3.876 10.913-11.025 10.913-19 0-12.131-9.869-22-22-22s-22 9.869-22 22c0 7.993 4.232 15.128 10.9 19h-6.67zm14.43 2.892c-2.993-.979-5.628-2.599-7.769-4.689v-15.311h14v20zm8.231-14h12v2h-12zm4.689-12h2.621l.625 10h-3.871zm.125-2 .125-2h2.121l.125 2zm5.125 12-1-16h-5.879l-1 16h-2.06v-6h-4v-4h-2v4h-2v-6h-2v6h-2v-4h-2v4h-4v15.031c-2.537-3.376-4-7.555-4-12.031 0-11.028 8.972-20 20-20s20 8.972 20 20c0 4.462-1.465 8.638-4 12.016v-9.016zm-9.939 6h12v5.298c-.626.612-1.294 1.182-2 1.71v-5.008h-8v8h-2zm4 4h4v4.317c-1.175.676-2.426 1.247-3.754 1.683h-.246zm23 15v1.633c-1.747 1.948-4.208 2.367-6 2.367-3.051 0-5.794-1.703-7.158-4.445l-.277-.555h-41.565c-1.654 0-3-1.346-3-3s1.346-3 3-3h19.428c.01.003.02.008.03.011l.003-.011h22.104l.276-.555c1.365-2.742 4.108-4.445 7.159-4.445 1.796 0 4.259.419 6 2.366v1.634h-8v8z"/></g></svg>