<svg id="Layer_1" height="512" viewBox="0 0 64 64" width="512" xmlns="http://www.w3.org/2000/svg" data-name="Layer 1"><path d="m52.75781 44.5918a1.30869 1.30869 0 0 1 1.22949-.97168h1.5586a1 1 0 0 0 .98144-.8086 25.196 25.196 0 0 0 .47266-4.81152.99974.99974 0 0 0 -1-1h-10v-13a.99979.99979 0 0 0 -.72559-.96143l-6.27441-1.79266v-5.24591a.99974.99974 0 0 0 -1-1h-12a.99974.99974 0 0 0 -1 1v5.24591l-6.27441 1.79266a.99979.99979 0 0 0 -.72559.96143v13h-10a.99974.99974 0 0 0 -1 1 25.196 25.196 0 0 0 .47266 4.81152 1 1 0 0 0 .98144.8086h1.5586a1.30869 1.30869 0 0 1 1.22949.97168 21.694 21.694 0 0 0 1.4209 3.41943 1.31112 1.31112 0 0 1 -.18262 1.56006l-1.1084 1.1084a1 1 0 0 0 -.12207 1.26562 25.002 25.002 0 0 0 6.80469 6.80518 1.00027 1.00027 0 0 0 1.26562-.12256l1.1084-1.1084a1.32413 1.32413 0 0 1 1.55859-.1831 21.67441 21.67441 0 0 0 3.42188 1.42138 1.30822 1.30822 0 0 1 .9707 1.229v1.55859a1 1 0 0 0 .8086.98145 24.70155 24.70155 0 0 0 9.623 0 1 1 0 0 0 .8086-.98145v-1.55858a1.30822 1.30822 0 0 1 .9707-1.229 21.62555 21.62555 0 0 0 3.4209-1.42138 1.32488 1.32488 0 0 1 1.55957.1831l1.1084 1.1084a1.00053 1.00053 0 0 0 1.26562.12256 25.002 25.002 0 0 0 6.80473-6.80519 1 1 0 0 0 -.12207-1.26562l-1.1084-1.1084a1.31049 1.31049 0 0 1 -.18262-1.55957 21.7185 21.7185 0 0 0 1.4209-3.41992zm-13.75781-21.26618 5 1.42877v12.24561h-5zm-12-6.32562h10v20h-2v-4a.99974.99974 0 0 0 -1-1h-4a.99974.99974 0 0 0 -1 1v4h-2zm6 17v3h-2v-3zm-13-9.24561 5-1.42877v13.67438h-5zm25.77258 14.24561a13.80768 13.80768 0 0 1 -27.54516 0zm5.079 4.98535a19.69906 19.69906 0 0 1 -1.29 3.105 3.3184 3.3184 0 0 0 .54395 3.895l.51562.51563a22.98572 22.98572 0 0 1 -5.12015 5.12011l-.51563-.51562a3.31268 3.31268 0 0 0 -3.89648-.54346 19.57489 19.57489 0 0 1 -3.10352 1.28955 3.31513 3.31513 0 0 0 -2.36523 3.13526v.7207a22.62458 22.62458 0 0 1 -7.24024 0v-.7207a3.31513 3.31513 0 0 0 -2.36523-3.13526 19.62305 19.62305 0 0 1 -3.10451-1.28956 3.3136 3.3136 0 0 0 -3.89551.54346l-.51563.51562a22.98572 22.98572 0 0 1 -5.12011-5.12008l.51562-.51563a3.319 3.319 0 0 0 .544-3.89551 19.67456 19.67456 0 0 1 -1.29-3.10449 3.31768 3.31768 0 0 0 -3.13574-2.36523h-.72079a23.53452 23.53452 0 0 1 -.26954-2.62014h7.205a15.80295 15.80295 0 0 0 31.54516 0h7.205a23.53452 23.53452 0 0 1 -.26953 2.62012h-.72079a3.31768 3.31768 0 0 0 -3.13574 2.36523z"/><path d="m33 14v-7.18427a3.00011 3.00011 0 1 0 -2-.00006v7.18433zm-1-11a1 1 0 1 1 -1 1 1.001 1.001 0 0 1 1-1z"/><path d="m42 14v7h2v-6.58594l1.71466-1.71466a2.96548 2.96548 0 0 0 1.28534.3006 3 3 0 1 0 -3-3 2.96548 2.96548 0 0 0 .3006 1.28534l-2.0076 2.00766a1.00012 1.00012 0 0 0 -.293.707zm5-5a1 1 0 1 1 -1 1 1.001 1.001 0 0 1 1-1z"/><path d="m17 7a3 3 0 0 0 0 6 2.96548 2.96548 0 0 0 1.28534-.3006l1.71466 1.71466v6.58594h2v-7a1.00012 1.00012 0 0 0 -.293-.707l-2.0076-2.00766a2.96548 2.96548 0 0 0 .3006-1.28534 3.00328 3.00328 0 0 0 -3-3zm0 4a1 1 0 1 1 1-1 1.001 1.001 0 0 1 -1 1z"/><path d="m7 18a3 3 0 1 0 2.07971 5.15393l2.92029 1.46326v7.38281h2v-8a1.00054 1.00054 0 0 0 -.55176-.894l-3.48462-1.74638a2.94724 2.94724 0 0 0 .03638-.35962 3.00328 3.00328 0 0 0 -3-3zm0 4a1 1 0 1 1 1-1 1.001 1.001 0 0 1 -1 1z"/><path d="m12 34h2v2h-2z"/><path d="m60 21a3 3 0 0 0 -6 0 2.94724 2.94724 0 0 0 .03638.35962l-3.48462 1.74638a1.00054 1.00054 0 0 0 -.55176.894v8h2v-7.38281l2.92029-1.46326a2.994 2.994 0 0 0 5.07971-2.15393zm-4 0a1 1 0 1 1 1 1 1.001 1.001 0 0 1 -1-1z"/><path d="m50 34h2v2h-2z"/><path d="m29 20h6v2h-6z"/><path d="m29 24h6v2h-6z"/><path d="m29 28h6v2h-6z"/><path d="m40 26h3v2h-3z"/><path d="m40 30h3v2h-3z"/><path d="m21 26h3v2h-3z"/><path d="m21 30h3v2h-3z"/></svg>