<?xml version="1.0" encoding="UTF-8"?>
<svg xmlns="http://www.w3.org/2000/svg" id="outline" viewBox="0 0 512 512" width="512" height="512"><path d="M488,264H272V48a7.99977,7.99977,0,0,0-8-8H40A24.0275,24.0275,0,0,0,16,64V344a24.0275,24.0275,0,0,0,24,24H208v64H184a7.99977,7.99977,0,0,0-8,8v32a7.99977,7.99977,0,0,0,8,8H328a7.99977,7.99977,0,0,0,8-8V440a7.99977,7.99977,0,0,0-8-8H304V368H472a24.0275,24.0275,0,0,0,24-24V272A7.99977,7.99977,0,0,0,488,264ZM40,56H256V88H32V64A8.00917,8.00917,0,0,1,40,56ZM320,464H192V448H320Zm-32-32H224V368h24v24a8,8,0,0,0,16,0V368h24Zm192-88a8.00917,8.00917,0,0,1-8,8H40a8.00917,8.00917,0,0,1-8-8V104H256V272a7.99977,7.99977,0,0,0,8,8H480Z"/><circle cx="48" cy="72" r="8"/><circle cx="72" cy="72" r="8"/><circle cx="96" cy="72" r="8"/><path d="M240,128a7.99977,7.99977,0,0,0-8-8H200a7.99977,7.99977,0,0,0-8,8v32H168a7.99977,7.99977,0,0,0-8,8v24H136a7.99977,7.99977,0,0,0-8,8v32H104a7.99977,7.99977,0,0,0-8,8v24H72a7.99977,7.99977,0,0,0-8,8v24H48v16H272V296H240ZM80,280H96v16H80Zm32-32h16v48H112Zm32-40h16v88H144Zm32-32h16V296H176Zm32,120V136h16V296Z"/><rect x="288" y="296" width="16" height="16"/><path d="M344,216a24,24,0,1,0-22.6239-32H288v16h33.3761A24.03756,24.03756,0,0,0,344,216Zm0-32a8,8,0,1,1-8,8A8.00917,8.00917,0,0,1,344,184Z"/><path d="M472,40a24.03756,24.03756,0,0,0-22.6239,16H432a8.00106,8.00106,0,0,0-6.07422,2.79346l-42.37793,49.44092L357.65674,82.34326A7.99877,7.99877,0,0,0,352,80H288V96h60.68652l29.65674,29.65674A7.99877,7.99877,0,0,0,384,128h41.3761a24,24,0,1,0,0-16H401.394l34.28565-40H449.3761A23.99854,23.99854,0,1,0,472,40Zm-24,72a8,8,0,1,1-8,8A8.00917,8.00917,0,0,1,448,112Zm24-40a8,8,0,1,1,8-8A8.00917,8.00917,0,0,1,472,72Z"/><path d="M376,80a24,24,0,1,0-22.6239-32H288V64h65.3761A24.03756,24.03756,0,0,0,376,80Zm0-32a8,8,0,1,1-8,8A8.00917,8.00917,0,0,1,376,48Z"/><path d="M362.34546,149.65894a24.009,24.009,0,1,0,11.31348-11.31348l-16.0022-16.0022A7.99877,7.99877,0,0,0,352,120H288v16h60.68652ZM392,160a8,8,0,1,1-8-8A8.00917,8.00917,0,0,1,392,160Z"/><path d="M414.24707,236.99756l24.63977-30.79968a24.018,24.018,0,1,0-11.94006-10.68769L404.15479,224H288v16H408A7.99951,7.99951,0,0,0,414.24707,236.99756ZM448,176a8,8,0,1,1-8,8A8.00917,8.00917,0,0,1,448,176Z"/></svg>
