<?xml version="1.0" encoding="iso-8859-1"?>
<!-- Generator: Adobe Illustrator 19.0.0, SVG Export Plug-In . SVG Version: 6.00 Build 0)  -->
<svg version="1.1" id="Capa_1" xmlns="http://www.w3.org/2000/svg" xmlns:xlink="http://www.w3.org/1999/xlink" x="0px" y="0px"
	 viewBox="0 0 512 512" style="enable-background:new 0 0 512 512;" xml:space="preserve">
<g>
	<g>
		<path d="M158.101,104.951H82.277c-4.143,0-7.5,3.357-7.5,7.5s3.357,7.5,7.5,7.5h75.824c4.143,0,7.5-3.357,7.5-7.5
			S162.244,104.951,158.101,104.951z"/>
	</g>
</g>
<g>
	<g>
		<path d="M107.908,127.378H82.277c-4.143,0-7.5,3.357-7.5,7.5s3.357,7.5,7.5,7.5h25.631c4.143,0,7.5-3.357,7.5-7.5
			S112.051,127.378,107.908,127.378z"/>
	</g>
</g>
<g>
	<g>
		<path d="M82.4,165.54l-0.099-0.001c-0.025,0-0.05,0-0.076,0c-4.106,0-7.407,3.31-7.448,7.426
			c-0.041,4.142,3.333,7.534,7.475,7.575c0.025,0,0.051,0,0.076,0c4.106,0,7.457-3.31,7.498-7.426
			C89.867,168.972,86.542,165.581,82.4,165.54z"/>
	</g>
</g>
<g>
	<g>
		<path d="M210.412,63.465H82.277c-4.143,0-7.5,3.357-7.5,7.5c0,4.143,3.357,7.5,7.5,7.5h128.135c4.143,0,7.5-3.357,7.5-7.5
			C217.912,66.822,214.555,63.465,210.412,63.465z"/>
	</g>
</g>
<g>
	<g>
		<path d="M221.948,287.075H82.326c-4.143,0-7.5,3.357-7.5,7.5s3.357,7.5,7.5,7.5h139.622c4.142,0,7.5-3.357,7.5-7.5
			C229.448,290.432,226.091,287.075,221.948,287.075z"/>
	</g>
</g>
<g>
	<g>
		<path d="M174.546,317.073h-92.22c-4.143,0-7.5,3.357-7.5,7.5s3.357,7.5,7.5,7.5h92.22c4.143,0,7.5-3.357,7.5-7.5
			S178.689,317.073,174.546,317.073z"/>
	</g>
</g>
<g>
	<g>
		<path d="M82.326,427.5h-0.099c-4.143,0-7.451,3.357-7.451,7.5s3.407,7.5,7.55,7.5s7.5-3.357,7.5-7.5S86.469,427.5,82.326,427.5z"
			/>
	</g>
</g>
<g>
	<g>
		<path d="M498.64,228.842c-7.798-7.796-20.485-7.798-28.285,0l-21.75,21.75c-10.554-8.717-22.518-15.359-35.294-19.703v-76.571
			c0-2.864-0.604-5.631-1.724-8.176c-0.097-0.234-0.204-0.463-0.324-0.684c-0.977-2.011-2.273-3.875-3.9-5.502l-47.877-47.881
			c-2.929-2.93-7.678-2.929-10.606-0.001c-2.93,2.929-2.93,7.678-0.001,10.606l38.827,38.831H277.125
			c-2.93,0-5.313-2.384-5.313-5.313V25.607l52.899,52.904c2.929,2.929,7.678,2.93,10.606,0.001c2.93-2.929,2.93-7.678,0.001-10.606
			l-61.95-61.957c-1.621-1.62-3.477-2.913-5.478-3.889c-0.231-0.126-0.471-0.237-0.716-0.339C264.631,0.603,261.867,0,259.005,0
			H27.824C16.624,0,7.511,9.112,7.511,20.313v334.598c0,4.143,3.357,7.5,7.5,7.5s7.5-3.357,7.5-7.5V20.313
			c0-2.93,2.383-5.313,5.313-5.313h228.988v121.197c0,11.201,9.112,20.313,20.313,20.313h121.187v70.411
			c-6.932-1.327-14.021-2.013-21.185-2.013c-30.572,0-58.325,12.284-78.598,32.168H82.326c-4.143,0-7.5,3.357-7.5,7.5
			s3.357,7.5,7.5,7.5h203.361c-3.386,4.739-6.408,9.753-9.036,14.998h-22.277c-4.143,0-7.5,3.357-7.5,7.5s3.357,7.5,7.5,7.5h16.078
			c-3.654,11.062-5.639,22.877-5.639,35.148c0,18.691,4.595,36.327,12.706,51.847H82.326c-4.143,0-7.5,3.357-7.5,7.5
			s3.357,7.5,7.5,7.5h204.602c20.485,27.57,53.29,45.469,90.199,45.469c7.151,0,14.24-0.707,21.185-2.043v44.191
			c0,2.93-2.383,5.313-5.313,5.313H27.824c-2.93,0-5.313-2.384-5.313-5.313V389.089c0-4.143-3.357-7.5-7.5-7.5s-7.5,3.357-7.5,7.5
			v102.598c0,11.201,9.112,20.313,20.313,20.313h365.175c11.2,0,20.313-9.112,20.313-20.313v-48.171
			c13.217-4.5,25.59-11.429,36.382-20.574c3.16-2.678,3.551-7.41,0.873-10.57c-2.677-3.16-7.411-3.552-10.57-0.873
			c-17.535,14.858-39.862,23.041-62.869,23.041c-53.659,0-97.314-43.655-97.314-97.315c0-53.659,43.655-97.314,97.314-97.314
			c22.211,0,43.587,7.556,60.806,21.355l-88.525,88.526l-12.122-12.123c-7.796-7.798-20.484-7.799-28.284-0.001
			c-3.778,3.777-5.858,8.8-5.858,14.143c0,5.342,2.08,10.364,5.857,14.142l26.265,26.267c3.778,3.777,8.801,5.857,14.143,5.857
			c5.342,0,10.364-2.08,14.143-5.857l99.912-99.912c7.188,13.804,10.98,29.227,10.98,44.918c0,17.644-4.773,34.927-13.804,49.98
			c-2.131,3.553-0.979,8.159,2.573,10.29c1.208,0.725,2.538,1.069,3.852,1.069c2.548,0,5.032-1.299,6.438-3.643
			c10.429-17.385,15.94-37.337,15.94-57.697c0-19.681-5.167-39.007-14.932-55.967l24.13-24.13
			C506.438,249.328,506.438,236.641,498.64,228.842z M488.033,246.52l-135.09,135.09c-0.931,0.931-2.219,1.465-3.535,1.465
			c-1.316,0-2.604-0.534-3.535-1.464l-26.265-26.267c-0.945-0.944-1.465-2.2-1.465-3.535c0-1.336,0.52-2.591,1.463-3.534
			c0.977-0.976,2.257-1.463,3.538-1.463c1.28,0,2.561,0.487,3.534,1.461l17.426,17.427c1.407,1.407,3.314,2.197,5.304,2.197
			s3.896-0.79,5.304-2.196l126.251-126.252c1.949-1.951,5.121-1.951,7.07,0C489.983,241.398,489.983,244.57,488.033,246.52z"/>
	</g>
</g>
<g>
	<g>
		<path d="M123.953,228.578H82.326c-4.143,0-7.5,3.357-7.5,7.5s3.357,7.5,7.5,7.5h41.627c4.143,0,7.5-3.357,7.5-7.5
			S128.096,228.578,123.953,228.578z"/>
	</g>
</g>
<g>
</g>
<g>
</g>
<g>
</g>
<g>
</g>
<g>
</g>
<g>
</g>
<g>
</g>
<g>
</g>
<g>
</g>
<g>
</g>
<g>
</g>
<g>
</g>
<g>
</g>
<g>
</g>
<g>
</g>
</svg>
