<svg id="Capa_1" enable-background="new 0 0 511 511" height="512" viewBox="0 0 511 511" width="512" xmlns="http://www.w3.org/2000/svg"><g id="Outline_43_"><g><path d="m487.5 0h-464c-12.958 0-23.5 10.542-23.5 23.5v168.782c0 4.143 3.357 7.5 7.5 7.5s7.5-3.357 7.5-7.5v-137.282h396.805c4.143 0 7.5-3.357 7.5-7.5s-3.357-7.5-7.5-7.5h-396.805v-16.5c0-4.687 3.813-8.5 8.5-8.5h464c4.687 0 8.5 3.813 8.5 8.5v16.5h-47.805c-4.143 0-7.5 3.357-7.5 7.5s3.357 7.5 7.5 7.5h47.805v281h-481v-109.187c0-4.143-3.357-7.5-7.5-7.5s-7.5 3.357-7.5 7.5v148.687c0 12.958 10.542 23.5 23.5 23.5h176.5v52.253l-36.358 21.815c-2.26 1.355-3.642 3.797-3.642 6.432v24c0 4.143 3.357 7.5 7.5 7.5h176c4.143 0 7.5-3.357 7.5-7.5v-24c0-2.635-1.382-5.076-3.642-6.432l-36.358-21.815v-52.253h176.5c12.958 0 23.5-10.542 23.5-23.5v-352c0-12.958-10.542-23.5-23.5-23.5zm-151.5 496h-161v-12.254l31.866-19.119c7.432 5.347 23.675 14.373 48.634 14.373s41.202-9.026 48.634-14.373l31.866 19.119zm-40-43.979c-5.002 3.787-18.377 11.979-40.5 11.979-22.153 0-35.533-8.213-40.5-11.976v-53.024h81zm200-76.521c0 4.687-3.813 8.5-8.5 8.5h-464c-4.687 0-8.5-3.813-8.5-8.5v-24.5h481z"/><path d="m399.5 319c4.143 0 7.5-3.357 7.5-7.5v-232c0-4.143-3.357-7.5-7.5-7.5h-288c-4.143 0-7.5 3.357-7.5 7.5v232c0 4.143 3.357 7.5 7.5 7.5zm-280.5-15v-169h273v169zm0-217h273v33h-273z"/><circle cx="367.5" cy="103.5" r="8"/><circle cx="335.5" cy="103.5" r="8"/><circle cx="303.5" cy="103.5" r="8"/><path d="m196.804 178.196c-2.93-2.928-7.678-2.928-10.607 0l-32 32c-2.929 2.93-2.929 7.678 0 10.607l32 32c3.051 3.049 8.201 2.846 11.006-.431 2.513-2.936 2.332-7.446-.398-10.177l-26.699-26.695 26.697-26.696c2.929-2.93 2.929-7.678.001-10.608z"/><path d="m324.804 178.196c-2.93-2.928-7.678-2.928-10.607 0-2.929 2.93-2.929 7.678 0 10.607l26.697 26.696-26.697 26.696c-2.73 2.731-2.912 7.241-.398 10.177 2.804 3.276 7.955 3.479 11.006.431l32-32c2.929-2.93 2.929-7.678 0-10.607z"/><path d="m282.196 178.196-64 64c-2.73 2.731-2.912 7.241-.398 10.177 2.804 3.276 7.955 3.479 11.006.431l64-64c2.929-2.93 2.929-7.678 0-10.607-2.93-2.928-7.678-2.928-10.608-.001z"/></g></g></svg>