<?xml version="1.0" encoding="UTF-8"?>
<svg xmlns="http://www.w3.org/2000/svg" id="Layer_1" data-name="Layer 1" viewBox="0 0 128 128" width="512" height="512"><path d="M94.59,76.59l-5.81,5.8A8.89,8.89,0,0,0,84,81a9,9,0,1,0,9,9,8.89,8.89,0,0,0-1.39-4.78l5.8-5.81a2,2,0,0,0-2.82-2.82ZM84,95a5,5,0,1,1,5-5A5,5,0,0,1,84,95Z"/><path d="M109.59,64.71l-.13-.17-.17-.13a36,36,0,0,0-50.78,51,2,2,0,0,0,2.82,0l3.57-3.51a2,2,0,1,0-2.81-2.85L60,111.15A31.72,31.72,0,0,1,52.07,92H55a2,2,0,0,0,0-4H52.07a31.82,31.82,0,0,1,8-19.15l2.06,2.06a2,2,0,0,0,2.83,0,2,2,0,0,0,0-2.83L62.85,66A31.82,31.82,0,0,1,82,58.07V61a2,2,0,0,0,4,0V58.07A31.82,31.82,0,0,1,105.15,66l-2.06,2.06a2,2,0,0,0,1.42,3.41,2,2,0,0,0,1.41-.58L108,68.85a31.82,31.82,0,0,1,8,19.15H113a2,2,0,0,0,0,4h2.93a31.57,31.57,0,0,1-8,19.13l-2-2a2,2,0,1,0-2.83,2.83l3.5,3.49a2,2,0,0,0,2.82,0,35.86,35.86,0,0,0,.18-50.71Z"/><path d="M45.47,70.47A51.82,51.82,0,0,1,38,71c-12.59,0-22-4.4-22-8.34V50.26c4.53,3.41,12.51,5.58,22,5.58s17.47-2.17,22-5.58V54a2,2,0,0,0,4,0V24.07C64,17,52.44,12,38,12S12,17,12,24V62.66C12,69.69,23.18,75,38,75a55.72,55.72,0,0,0,8.06-.57,2,2,0,0,0-.59-4ZM38,16c12.59,0,22,4.4,22,8.34s-9.41,8.34-22,8.34-22-4.4-22-8.34S25.41,16,38,16ZM16,31.1c4.53,3.41,12.51,5.58,22,5.58s17.47-2.17,22-5.58V43.5c0,3.94-9.41,8.34-22,8.34s-22-4.4-22-8.34Z"/></svg>
