<svg height="512" viewBox="0 0 512 512" width="512" xmlns="http://www.w3.org/2000/svg"><g id="_OUTLINE" data-name=" OUTLINE"><path d="m341.55713 381.75488-11.11426-11.50976c-41.04785 39.63965-107.83789 39.63965-148.88574 0l-11.11426 11.50976a124.20218 124.20218 0 0 0 171.11426 0z"/><path d="m149.75244 394.44043-11.50488 11.11914c31.4375 32.52686 73.25586 50.44043 117.75244 50.44043s86.31494-17.91357 117.75244-50.44043l-11.50488-11.11914c-28.39551 29.37939-66.12793 45.55957-106.24756 45.55957s-77.852-16.18018-106.24756-45.55957z"/><path d="m255.99951 480c-52.15185 0-101.21338-21.82471-138.147-61.4541l-11.70508 10.9082c39.99368 42.9126 93.21195 66.5459 149.85208 66.5459h.00049c56.63623 0 109.86084-23.63574 149.85254-66.5459l-11.70508-10.9082c-36.93408 39.62939-85.99609 61.4541-138.14795 61.4541z"/><path d="m319.50354 232h-15.50354v16h15.48218a63.982 63.982 0 0 1 -126.96436 0h15.48218v-16h-15.48218a63.66874 63.66874 0 0 1 12.95618-31.21252l12.86926 12.86926 11.31348-11.31348-12.86926-12.86926a63.66874 63.66874 0 0 1 31.21252-12.95618v15.48218h16v-15.49707a63.10446 63.10446 0 0 1 20.43994 6.14551l7.12012-14.32813a79.20575 79.20575 0 0 0 -35.56006-8.32031 79.9565 79.9565 0 1 0 71.10693 43.30908l-14.21293 7.34766a63.0432 63.0432 0 0 1 6.60954 21.34326z"/><path d="m401.56885 264.15527a41.87087 41.87087 0 0 1 -33.56885-40.94727v-39.208h-.02271a187.00147 187.00147 0 0 0 -108.62475-167.26367l-3.35254-1.54733-3.35254 1.54737a187.0017 187.0017 0 0 0 -108.62482 167.26363h-.02264v39.208a41.87087 41.87087 0 0 1 -33.56885 40.94726 57.914 57.914 0 0 0 -46.43115 56.63674v31.208h384v-31.208a57.914 57.914 0 0 0 -46.43115-56.63673zm-257.56885 71.84473h-64v-15.208a41.87087 41.87087 0 0 1 33.56885-40.94726 57.56735 57.56735 0 0 0 30.43115-16.80983zm112-303.14453a170.5671 170.5671 0 0 1 57.66333 45.95764l-8.01538 4.453a101.62588 101.62588 0 0 1 -99.2959 0l-8.01544-4.453a170.5679 170.5679 0 0 1 57.66339-45.95764zm96 190.35253v112.792h-192v-149.45752a170.98592 170.98592 0 0 1 28.76923-94.74121l9.81231 5.45117a118.54781 118.54781 0 0 0 49.41846 14.59863v32.14893h16v-32.14893a118.54755 118.54755 0 0 0 49.41846-14.59863l9.81225-5.45117a170.9855 170.9855 0 0 1 28.76929 94.74121zm80 112.792h-64v-72.96509a57.56757 57.56757 0 0 0 30.43115 16.80982 41.87087 41.87087 0 0 1 33.56885 40.94727z"/><path d="m266.34106 218.34546a24.009 24.009 0 1 0 11.31348 11.31348l48.0022-48.0022-11.31348-11.31348zm-10.34106 29.65454a8 8 0 1 1 8-8 8.00917 8.00917 0 0 1 -8 8z"/><path d="m424 40h16v40h-16z"/><path d="m392 120h16v64h-16z"/><path d="m392 208h16v16h-16z"/><path d="m464 104h16v56h-16z"/><path d="m448 208h16v56h-16z"/><path d="m104 16h16v48h-16z"/><path d="m32 48h16v48h-16z"/><path d="m32 112h16v16h-16z"/><path d="m88 112h16v64h-16z"/><path d="m32 192h16v64h-16z"/></g></svg>