<svg id="Capa_1" enable-background="new 0 0 512 512" height="512" viewBox="0 0 512 512" width="512" xmlns="http://www.w3.org/2000/svg"><g><g><path d="m256 174.749c41.574 0 77.613-29.562 85.692-70.29.807-4.063-1.834-8.01-5.897-8.815-4.064-.805-8.01 1.835-8.815 5.897-6.691 33.728-36.542 58.208-70.979 58.208-39.907 0-72.375-32.468-72.375-72.375s32.467-72.374 72.374-72.374c33.3 0 62.175 22.54 70.218 54.813 1.002 4.02 5.076 6.464 9.091 5.464 4.02-1.002 6.466-5.072 5.464-9.091-9.712-38.969-44.572-66.186-84.773-66.186-48.178 0-87.375 39.196-87.375 87.374.001 48.179 39.197 87.375 87.375 87.375z"/><path d="m289.12 62.157-38.521 38.522-27.72-27.721c-2.929-2.928-7.678-2.928-10.606 0-2.929 2.93-2.929 7.678 0 10.607l33.023 33.023c1.406 1.406 3.314 2.196 5.303 2.196s3.897-.79 5.303-2.196l43.825-43.825c2.929-2.93 2.929-7.678 0-10.607-2.929-2.927-7.677-2.927-10.607.001z"/><path d="m504.135 205.541-24.464-24.464c-2.93-2.928-7.678-2.928-10.607 0-2.929 2.93-2.929 7.678 0 10.607l23.032 23.031-49.979 49.979-93.054-93.054 49.979-49.979 45.272 45.273c2.93 2.928 7.678 2.928 10.607 0 2.929-2.93 2.929-7.678 0-10.607l-46.707-46.706c-5.059-5.057-13.29-5.056-18.349.001l-52.844 52.845c-5.056 5.058-5.056 13.289.001 18.349l4.716 4.716-16.101 16.101c-11.203 11.204-27.957 14.662-42.683 8.81-20.296-8.067-43.389-3.3-58.831 12.142l-12.223 12.226-39.96-39.96 3.036-3.036c5.056-5.058 5.056-13.289-.001-18.349l-52.843-52.843c-5.059-5.059-13.29-5.057-18.349 0l-95.917 95.918c-2.451 2.45-3.801 5.709-3.801 9.175s1.349 6.724 3.8 9.176l52.842 52.84c2.451 2.452 5.709 3.802 9.176 3.802s6.725-1.35 9.174-3.8l2.095-2.095 42.318 42.318c1.567 1.567 3.002 3.236 4.316 4.983l-41.046 41.046c-10.731 10.731-10.731 28.193 0 38.926 5.366 5.365 12.414 8.048 19.462 8.048.272 0 .543-.011.815-.019-.008.275-.02.55-.02.827 0 7.352 2.863 14.264 8.062 19.463 5.199 5.198 12.111 8.062 19.463 8.062.277 0 .551-.012.827-.02-.215 7.317 2.457 14.705 8.03 20.277 5.198 5.199 12.11 8.063 19.462 8.063 3.525 0 6.946-.665 10.128-1.923 1.089 4.955 3.549 9.667 7.395 13.514 5.366 5.365 12.414 8.048 19.462 8.048s14.097-2.683 19.463-8.049l5.909-5.909 19.583 19.582c5.884 5.885 13.707 9.125 22.027 9.125 8.321 0 16.145-3.24 22.026-9.124 5.884-5.883 9.124-13.706 9.125-22.026 0-.806-.03-1.607-.091-2.402 8.765.669 17.735-2.34 24.415-9.019 6.683-6.684 9.688-15.673 9.017-24.431 8.759.674 17.747-2.334 24.431-9.017 6.678-6.679 9.685-15.661 9.019-24.413.977.074 1.965.104 2.957.084 8.528-.151 16.432-3.679 22.255-9.931 11.291-12.121 10.76-31.699-1.184-43.644l-23.306-23.306 62.755-62.755 4.715 4.715c2.451 2.452 5.709 3.802 9.176 3.802s6.725-1.35 9.175-3.8l52.841-52.842c2.452-2.451 3.802-5.709 3.802-9.176s-1.351-6.725-3.801-9.175zm-406.788 196.765c-4.883-4.884-4.883-12.83 0-17.713l46.407-46.407c2.373-2.372 5.505-3.668 8.849-3.668.095 0 .19.001.286.003 3.448.076 6.636 1.525 8.976 4.081 4.452 4.863 4.075 12.817-.838 17.735l-45.967 45.968c-4.884 4.884-12.831 4.882-17.713.001zm46.028 28.321c-2.365 2.363-5.509 3.665-8.853 3.665-3.345 0-6.491-1.303-8.856-3.668-2.366-2.366-3.668-5.512-3.668-8.856 0-3.346 1.303-6.49 3.668-8.855l51.653-51.653c2.368-2.368 5.508-3.668 8.853-3.668h.102c3.382.026 6.542 1.379 8.896 3.809 4.731 4.882 4.669 12.765-.138 17.571l-51.652 51.652c-.003 0-.004.002-.005.003zm36.989 19.649-8.666 8.666c-2.366 2.366-5.511 3.669-8.856 3.669s-6.49-1.303-8.856-3.669c-2.366-2.365-3.668-5.511-3.668-8.855 0-3.346 1.303-6.491 3.668-8.856l42.417-42.417c2.367-2.361 5.503-3.659 8.843-3.659.033 0 .067 0 .101.001 3.383.026 6.542 1.378 8.896 3.808 4.731 4.882 4.67 12.766-.137 17.572l-33.742 33.74c0-.001 0 0 0 0zm50.903 5.735-22.584 22.584c-4.883 4.884-12.83 4.883-17.712.001-4.88-4.881-4.883-12.819-.009-17.704l22.598-22.598c2.392-2.389 5.573-3.666 8.95-3.664 3.382.026 6.541 1.379 8.895 3.809 4.731 4.881 4.669 12.764-.138 17.572zm146.903-87.325c6.299 6.299 6.665 16.532.814 22.813-3.024 3.247-7.124 5.078-11.545 5.157-4.453.049-8.582-1.602-11.709-4.729-2.93-2.928-7.678-2.928-10.607 0-1.464 1.465-2.196 3.385-2.196 5.304 0 1.92.732 3.839 2.196 5.304 6.298 6.297 6.298 16.543 0 22.84-6.297 6.299-16.543 6.299-22.84 0-2.93-2.928-7.678-2.928-10.607 0-1.464 1.465-2.196 3.385-2.196 5.304s.732 3.839 2.196 5.304c6.298 6.297 6.298 16.543 0 22.84-6.295 6.298-16.542 6.3-22.841.001-2.928-2.928-7.677-2.928-10.606 0-2.929 2.93-2.929 7.678 0 10.606 3.051 3.051 4.73 7.106 4.73 11.421 0 4.313-1.681 8.369-4.731 11.42s-7.105 4.73-11.42 4.73c-4.313 0-8.369-1.68-11.42-4.731l-19.583-19.583 6.069-6.069c10.565-10.565 10.701-27.889.303-38.618-3.52-3.633-7.861-6.166-12.617-7.435 5.397-10.26 3.901-23.325-4.545-32.041-3.744-3.863-8.416-6.478-13.529-7.656 4.155-9.887 2.326-21.786-5.545-29.909-5.173-5.338-12.116-8.31-19.549-8.368-.075 0-.148 0-.223 0-2.17 0-4.299.255-6.358.74-.69-5.387-2.97-10.587-6.881-14.858-5.131-5.604-12.13-8.782-19.709-8.948-5.031-.115-9.863 1.118-14.113 3.523-1.549-1.989-3.225-3.893-5.029-5.698l-42.318-42.318 33.762-33.761c2.929-2.93 2.929-7.678 0-10.607-2.928-2.928-7.677-2.928-10.606 0l-45.032 45.031-49.979-49.979 93.055-93.054 49.979 49.979-23.274 23.273c-2.929 2.93-2.929 7.678 0 10.607 2.929 2.928 7.678 2.928 10.606 0l11.064-11.064 39.96 39.961-8.171 8.171c-5.884 5.884-9.124 13.707-9.124 22.027s3.24 16.144 9.124 22.027 13.706 9.123 22.027 9.123 16.144-3.24 22.027-9.123l21.761-21.761c5.98-5.98 15.479-6.988 22.58-2.397.011.007.023.013.034.021zm-23.305-44.521-46.587-46.587c.091-.025.183-.044.274-.071l38.943-11.13c3.983-1.138 6.289-5.289 5.15-9.271-1.139-3.984-5.291-6.293-9.271-5.15l-38.944 11.13c-5.011 1.432-10.393.631-14.77-2.198-12.997-8.401-30.38-6.56-41.329 4.388l-21.761 21.762c-3.05 3.05-7.106 4.729-11.42 4.729s-8.37-1.68-11.42-4.73c-6.297-6.297-6.297-16.543 0-22.84l31.004-31.004c11.204-11.204 27.958-14.662 42.683-8.81 20.296 8.066 43.388 3.3 58.831-12.142l16.101-16.101 65.271 65.27z"/></g></g></svg>