<svg width="1026" height="156" viewBox="0 0 1026 156" fill="none" xmlns="http://www.w3.org/2000/svg">
<g clip-path="url(#clip0_1:22)">
<path d="M303.592 125.047V24.4813H322.629V155.914H303.592L228.445 56.3437V155.914H208.907V24.4813H226.942L303.592 125.047ZM375.231 43.3996C366.715 43.3996 362.206 47.8803 362.206 56.8415V124.549C362.206 133.013 366.715 137.493 374.73 137.493H425.83C433.846 137.493 437.853 133.013 437.853 125.047V55.8458C437.853 47.3824 433.846 43.3996 425.329 43.3996H375.231ZM343.169 52.3609C343.169 33.9405 352.687 24.4813 371.724 24.4813H428.335C447.372 24.4813 456.891 33.9405 456.891 52.3609V127.536C456.891 146.455 447.372 155.914 428.335 155.914H371.724C352.687 155.914 343.169 146.455 343.169 128.034V52.3609ZM477.932 24.4813H563.098C581.133 25.477 590.15 34.9362 591.653 52.3609V66.7985C591.653 76.2577 588.146 82.2319 581.133 85.219C588.146 87.7082 591.653 93.1846 591.653 102.644V128.034C590.15 145.459 581.133 154.918 563.098 155.914H477.932V24.4813ZM556.585 75.7598C567.105 76.2577 572.616 71.777 572.616 61.82V57.3394C572.616 47.8803 568.107 43.3996 558.589 43.3996H496.969V137.493H558.589C568.107 136.995 572.616 132.515 572.616 123.553V107.124C572.616 98.6609 567.105 94.1803 555.583 94.1803H507.489V75.7598H556.585ZM637.242 155.914H618.205V24.4813H637.242V155.914ZM680.827 137.493H765.993V155.914H662.291V24.4813H680.827V137.493ZM879.715 75.7598V94.1803H807.073V75.7598H879.715ZM796.553 137.493H881.218V155.914H777.516V24.4813H881.218V43.3996H796.553V137.493ZM893.241 23.9835H919.793L959.871 73.2706L998.947 24.4813H1026L972.896 90.1975L1026 155.914H999.448L893.241 23.9835ZM919.793 155.914H893.241L939.832 98.1631L952.857 114.592L919.793 155.914Z" fill="#0C4452"/>
<path fill-rule="evenodd" clip-rule="evenodd" d="M47.0918 16.5169C36.0703 22.9889 25.5498 28.9631 14.5283 35.4352V53.8556V72.7739L30.5596 82.233L47.0918 91.1943L63.123 82.233L79.6553 72.7739V53.8556V35.4352C68.6338 28.9631 57.6123 22.9889 47.0918 16.5169ZM126.246 16.5169C115.726 22.9889 104.704 28.9631 94.1836 35.4352V53.8556V72.7739L110.215 82.233L126.246 91.1943L142.778 82.233L158.81 72.7739V53.8556V35.4352C148.289 28.9631 137.268 22.9889 126.246 16.5169ZM122.739 2.07923L126.246 0.0878296L130.254 2.07923C143.279 9.54698 156.806 17.5126 169.831 24.9803L173.338 26.9717V31.4524V53.8556V76.7567V81.2373L169.831 83.2287L149.792 94.6793L130.254 106.13L126.246 108.121L122.739 106.13L103.201 94.6793L86.6689 85.2201L70.6377 94.6793L50.5986 106.13L47.0918 108.121L43.585 106.13L23.5459 94.6793L3.50684 83.2287L0 81.2373V76.7567V53.8556V31.4524V26.9717L3.50684 24.9803C17.0332 17.5126 30.0586 9.54698 43.585 2.07923L47.0918 0.0878296L50.5986 2.07923C62.6221 9.04913 74.6455 16.019 86.6689 22.9889C98.6924 16.019 110.716 9.04913 122.739 2.07923Z" fill="#BAC5C8"/>
<path fill-rule="evenodd" clip-rule="evenodd" d="M14.5283 72.7726L30.5596 82.2318L47.0918 91.1931L50.0977 89.6995V99.6565L56.1094 103.141L50.5986 106.129L47.0918 108.12L43.585 106.129L23.5459 94.678L3.50684 83.2275L0 81.2361L14.5283 72.7726ZM123.741 89.6995L126.246 91.1931L142.778 82.2318L158.81 72.7726L173.338 80.7382L130.254 106.129L126.246 108.12L122.739 106.129L117.729 103.141L123.741 99.6565V89.6995Z" fill="#9DABAE"/>
<path fill-rule="evenodd" clip-rule="evenodd" d="M47.0918 16.5169C36.0703 22.9889 25.5498 28.9631 14.5283 35.4352L0 26.9717L3.50684 24.9803C17.0332 17.5126 30.0586 9.54698 43.585 2.07923L47.0918 0.0878296L50.5986 2.07923C62.6221 9.04913 74.6455 16.019 86.6689 22.9889C98.6924 16.019 110.716 9.04913 122.739 2.07923L126.246 0.0878296L130.254 2.07923C143.279 9.54698 156.806 17.5126 169.831 24.9803L173.338 26.9717L158.81 35.4352L126.246 16.5169C115.726 22.9889 104.704 28.9631 94.1836 35.4352V40.4137L87.1699 36.4309L79.6553 40.4137V35.4352C68.6338 28.9631 57.6123 22.9889 47.0918 16.5169Z" fill="#D6DEDC"/>
<path fill-rule="evenodd" clip-rule="evenodd" d="M86.6688 39.9146L70.6376 48.8759L54.1053 58.3351V77.2533V95.6738L70.6376 105.133L86.6688 114.094L103.201 105.133L119.232 95.6738V77.2533V58.3351L103.201 48.8759L86.6688 39.9146ZM63.1229 36.4297L83.162 24.9791L86.6688 22.9877L90.6766 24.9791L110.215 36.4297L130.254 47.8802L133.761 49.8716V54.3523V77.2533V99.6566V104.137L130.254 106.129L110.215 117.579L90.6766 129.03L86.6688 131.021L83.162 129.03L63.1229 117.579L43.5848 106.129L39.577 104.137V99.6566V77.2533V54.3523V49.8716L43.5848 47.8802L63.1229 36.4297Z" fill="#D94500"/>
<path fill-rule="evenodd" clip-rule="evenodd" d="M86.6689 39.9146L54.1055 58.3351L40.0781 49.8716C55.6084 40.9103 71.1387 31.949 86.6689 22.9877C102.7 31.949 118.23 40.9103 133.761 49.8716L119.232 58.3351L86.6689 39.9146Z" fill="#FF8838"/>
<path fill-rule="evenodd" clip-rule="evenodd" d="M86.6689 114.094L70.6377 105.133L54.1055 95.6738L40.0781 104.137L43.585 106.129L63.123 117.579L83.1621 129.03L86.6689 131.021L90.6768 129.03L110.215 117.579L130.254 106.129L133.761 104.137L119.232 95.6738L103.201 105.133L86.6689 114.094Z" fill="#A73B0A"/>
</g>
<defs>
<clipPath id="clip0_1:22">
<rect width="1026" height="156" fill="white"/>
</clipPath>
</defs>
</svg>
