<svg id="Layer_1" enable-background="new 0 0 512 512" height="512" viewBox="0 0 512 512" width="512" xmlns="http://www.w3.org/2000/svg"><path d="m482.5 22.5h-38c-4.142 0-7.5 3.357-7.5 7.5s3.358 7.5 7.5 7.5h38c7.995 0 14.5 6.505 14.5 14.5v332c0 7.995-6.505 14.5-14.5 14.5h-453c-7.995 0-14.5-6.505-14.5-14.5v-256.319c0-4.143-3.358-7.5-7.5-7.5s-7.5 3.357-7.5 7.5v256.319c0 16.267 13.234 29.5 29.5 29.5h157.488v31h-42.631c-12.407 0-22.5 10.094-22.5 22.5s10.093 22.5 22.5 22.5h230.263c12.407 0 22.5-10.094 22.5-22.5s-10.093-22.5-22.5-22.5h-42.632v-31h150.512c16.266 0 29.5-13.233 29.5-29.5v-332c0-16.267-13.234-29.5-29.5-29.5zm-100.38 444.5c0 4.136-3.364 7.5-7.5 7.5h-230.263c-4.136 0-7.5-3.364-7.5-7.5s3.364-7.5 7.5-7.5h230.263c4.136 0 7.5 3.364 7.5 7.5zm-65.132-22.5h-115v-31h115z"/><path d="m7.5 103.553c4.142 0 7.5-3.357 7.5-7.5v-44.053c0-7.995 6.505-14.5 14.5-14.5h382.256c4.142 0 7.5-3.357 7.5-7.5s-3.358-7.5-7.5-7.5h-382.256c-16.266 0-29.5 13.233-29.5 29.5v44.053c0 4.142 3.358 7.5 7.5 7.5z"/><path d="m474.5 295.506c4.142 0 7.5-3.357 7.5-7.5v-225.006c0-5.79-4.71-10.5-10.5-10.5h-431c-5.79 0-10.5 4.71-10.5 10.5v274c0 5.79 4.71 10.5 10.5 10.5h431c5.79 0 10.5-4.71 10.5-10.5v-17.18c0-4.143-3.358-7.5-7.5-7.5s-7.5 3.357-7.5 7.5v12.68h-422v-265h422v220.506c0 4.142 3.358 7.5 7.5 7.5z"/><path d="m71.5 87.5c-6.341 0-11.5 5.159-11.5 11.5v202c0 6.341 5.159 11.5 11.5 11.5h369c6.341 0 11.5-5.159 11.5-11.5v-202c0-6.341-5.159-11.5-11.5-11.5zm3.5 85h95v55h-95zm110 0h252v55h-252zm252-15h-252v-55h252zm-362-55h95v55h-95zm0 140h95v55h-95zm362 55h-252v-55h252z"/></svg>