<svg clip-rule="evenodd" fill-rule="evenodd" height="512" image-rendering="optimizeQuality" shape-rendering="geometricPrecision" text-rendering="geometricPrecision" viewBox="0 0 1.70666 1.70666" width="512" xmlns="http://www.w3.org/2000/svg"><g id="Layer_x0020_1" fill-rule="nonzero"><path d="m1.44605.0799961h-1.00373v.101701h.523114c.0112165 0 .0213543.00461811.0286181.0120591l.338575.338575.00000394-.00000394c.00781102.00780709.0117126.0180472.0117126.0282835h.00000394v.88435h.101701v-1.36496zm-1.04373-.08h1.08373c.0220906 0 .04.0179094.04.04v1.44496c0 .0220906-.0179094.04-.04.04h-.181701c-.0220906 0-.04-.0179094-.04-.04v-.907791l-.315472-.315472h-.546555c-.0220906 0-.04-.0179094-.04-.04v-.181701c0-.0220906.0179094-.04.04-.04z"/><path d="m.260618 1.62666h1.00373v-1.02605h-.298913c-.0220906 0-.04-.0179094-.04-.04v-.298913h-.664815v1.36496zm1.04373.08h-1.08373c-.0220906 0-.04-.0179094-.04-.04v-1.44496c0-.0220906.0179094-.04.04-.04h.744815c.0220906 0 .04.0179094.04.04v.298913h.298913c.0220906 0 .04.0179094.04.04v1.10605c0 .0220906-.0179094.04-.04.04z"/><path d="m1.20779.52061-.202354-.202354v.202354zm-.214075-.327193.338575.338575c.00744094.00726378.0120591.0174016.0120591.0286181 0 .0220906-.0179094.04-.04.04h-.338913c-.0220906 0-.04-.0179094-.04-.04v-.338913h.00000394c0-.0102362.00390551-.0204764.0117126-.0282835.0156181-.0156181.0409488-.0156181.0565669 0l-.00000394.00000394z"/><path d="m1.0149.869031c.0697047.0697047.104563.161067.104563.252421 0 .0913465-.0348583.182713-.104563.252417-.0697047.0697047-.161067.104563-.252421.104563-.0913465 0-.182713-.0348583-.252417-.104563-.0697047-.0697047-.104559-.161071-.104559-.252417 0-.0913543.0348543-.182717.104559-.252421.0697047-.0697047.161071-.104559.252417-.104559.0913543 0 .182717.0348543.252421.104559zm.024563.252421c0-.0708937-.0270433-.141783-.081122-.195862-.0540787-.0540787-.124969-.0811181-.195862-.0811181-.0708898 0-.14178.0270394-.195858.0811181-.0540787.0540787-.0811181.124969-.0811181.195862 0 .0708898.0270394.14178.0811181.195858.0540787.0540787.124969.081122.195858.081122.0708937 0 .141783-.0270433.195862-.081122.0540787-.0540787.081122-.124969.081122-.195858z"/><path d="m1.0149.925591c.0156181-.0156181.0156181-.0409409 0-.0565591-.0156181-.0156181-.0409409-.0156181-.0565591 0l-.44828.44828c-.0156181.0156181-.0156181.0409409 0 .0565591.0156181.0156181.0409409.0156181.0565591 0z"/></g></svg>