<svg height="512" viewBox="0 0 60 60" width="512" xmlns="http://www.w3.org/2000/svg"><g id="Page-1" fill="none" fill-rule="evenodd"><g id="009---Desktop-Publishing" fill="rgb(0,0,0)" fill-rule="nonzero"><path id="Shape" d="m57 7h-12.586l-6.121-6.121c-.5675219-.55505624-1.3272206-.86989602-2.121-.879h-21.172c-1.6568542 0-3 1.34314575-3 3v4h-9c-1.65685425 0-3 1.34314575-3 3v37c0 1.6568542 1.34314575 3 3 3h17.987c-.2226187 1.6023968-1.0388221 3.0627835-2.287 4.092h-.7c-1.6060441 0-2.908 1.3019559-2.908 2.908s1.3019559 2.908 2.908 2.908h24c1.6060441 0 2.908-1.3019559 2.908-2.908s-1.3019559-2.908-2.908-2.908h-.7c-1.2481779-1.0292165-2.0643813-2.4896032-2.287-4.092h17.987c1.6568542 0 3-1.3431458 3-3v-37c0-1.65685425-1.3431458-3-3-3zm-13.708 1.706 1.294 1.294h-5.586c-.5522847 0-1-.44771525-1-1v-5.586zm-29.292-5.706c0-.55228475.4477153-1 1-1h21v7c0 1.6568542 1.3431458 3 3 3h7v25c0 .5522847-.4477153 1-1 1h-30c-.5522847 0-1-.4477153-1-1zm29.093 54c-.0005519.6032567-.4897431 1.0920003-1.093 1.092h-24c-.390134 0-.7506328-.208134-.9456998-.546-.1950671-.337866-.1950671-.754134 0-1.092.195067-.337866.5555658-.546.9456998-.546h24c.6032569-.0000003 1.0924481.4887433 1.093 1.092zm-4.317-2.908h-17.552c.8569847-1.2138434 1.40483-2.6184693 1.596-4.092h14.36c.19117 1.4735307.7390153 2.8781566 1.596 4.092zm18.224-6.092h-54c-.55228475 0-1-.4477153-1-1v-2h4c.55228475 0 1-.4477153 1-1s-.44771525-1-1-1h-4v-33c0-.55228475.44771525-1 1-1h9v28c0 1.6568542 1.3431458 3 3 3h30c1.6568542 0 3-1.3431458 3-3v-25.171c0-1.329-.7-1.861-1.586-2.829h10.586c.5522847 0 1 .44771525 1 1v33h-48c-.55228475 0-1 .4477153-1 1s.44771525 1 1 1h48v2c0 .5522847-.4477153 1-1 1z"/><path id="Shape" d="m16.011 20.105c.0556719 1.0591261.9284208 1.8906289 1.989 1.895h14c1.1045695 0 2-.8954305 2-2v-14c0-1.1045695-.8954305-2-2-2h-14c-1.1045695 0-2 .8954305-2 2v14 .054c0 .018.009.034.011.051zm2.306-.105 4.74-5.529 2.236 2.236c.3923789.3789722 1.0160848.3735524 1.4018186-.0121814s.3911536-1.0094397.0121814-1.4018186l-.477-.477 1.853-2.316 3.917 3.915v3.585zm13.683-14v7.586l-3.293-3.293c-.2023745-.19975-.4789443-.30595571-.763-.293-.2838423.0159441-.5474821.1519458-.725.374l-2.412 3.017-1.1-1.1c-.1977098-.1953838-.4672035-.3006491-.745-.291-.2783076.010537-.5396129.1366594-.721.348l-4.241 4.952v-11.3z"/><circle id="Oval" cx="21" cy="9" r="1"/><path id="Shape" d="m17 27h5c.5522847 0 1-.4477153 1-1s-.4477153-1-1-1h-5c-.5522847 0-1 .4477153-1 1s.4477153 1 1 1z"/><path id="Shape" d="m25 26c0 .5522847.4477153 1 1 1h17c.5522847 0 1-.4477153 1-1s-.4477153-1-1-1h-17c-.5522847 0-1 .4477153-1 1z"/><path id="Shape" d="m17 31h17c.5522847 0 1-.4477153 1-1s-.4477153-1-1-1h-17c-.5522847 0-1 .4477153-1 1s.4477153 1 1 1z"/><path id="Shape" d="m43 29h-5c-.5522847 0-1 .4477153-1 1s.4477153 1 1 1h5c.5522847 0 1-.4477153 1-1s-.4477153-1-1-1z"/></g></g></svg>