<svg id="Capa_1" enable-background="new 0 0 512 512" height="512" viewBox="0 0 512 512" width="512" xmlns="http://www.w3.org/2000/svg"><g><path d="m128.5 324.5c0 20.678 16.822 37.5 37.5 37.5h180c20.678 0 37.5-16.822 37.5-37.5 0-6.72-1.806-13.319-5.223-19.086-.345-.585-.686-1.159-1.008-1.704l-88.985-150.299c-6.736-11.356-19.106-18.411-32.284-18.411-13.183 0-25.551 7.057-32.278 18.416-.342.575-.682 1.148-1.012 1.705l-89 150.302c-3.409 5.77-5.21 12.367-5.21 19.077zm18.121-11.441c.889-1.502 88.814-149.998 89.982-151.957 4.065-6.865 11.488-11.102 19.397-11.102 7.908 0 15.335 4.239 19.38 11.059.889 1.501 88.692 149.792 89.964 151.952l.029.05c2.046 3.453 3.127 7.408 3.127 11.439 0 12.406-10.094 22.5-22.5 22.5h-180c-12.407 0-22.5-10.094-22.5-22.5 0-4.028 1.081-7.987 3.121-11.441z"/><path d="m166 332h180c2.694 0 5.182-1.445 6.516-3.786 1.334-2.34 1.311-5.217-.063-7.535-9.14-15.437-89.321-150.854-90.076-152.081-1.376-2.239-3.814-3.598-6.451-3.573-2.628.021-5.053 1.417-6.392 3.679-3.646 6.156-89.295 150.8-89.998 151.993-1.365 2.319-1.382 5.191-.047 7.526 1.336 2.336 3.821 3.777 6.511 3.777zm89.993-144.765c16.472 27.798 60.072 101.429 76.85 129.765h-153.688c16.757-28.302 60.341-101.905 76.838-129.765z"/><path d="m406 45h-98.044c-3.652-25.407-25.555-45-51.956-45-26.402 0-48.304 19.593-51.956 45h-98.044c-20.678 0-37.5 16.822-37.5 37.5v392c0 20.678 16.822 37.5 37.5 37.5h300c20.678 0 37.5-16.822 37.5-37.5v-392c0-20.678-16.822-37.5-37.5-37.5zm-150-30c20.678 0 37.5 16.822 37.5 37.5v30c0 4.143 3.357 7.5 7.5 7.5h15c9.778 0 18.119 6.27 21.215 15h-162.43c3.095-8.73 11.437-15 21.215-15h15c4.142 0 7.5-3.357 7.5-7.5v-30c0-20.678 16.822-37.5 37.5-37.5zm172.5 459.5c0 12.406-10.094 22.5-22.5 22.5h-300c-12.407 0-22.5-10.094-22.5-22.5v-392c0-12.406 10.093-22.5 22.5-22.5h97.5v15h-7.5c-20.678 0-37.5 16.822-37.5 37.5 0 4.143 3.358 7.5 7.5 7.5h180c4.143 0 7.5-3.357 7.5-7.5 0-20.678-16.822-37.5-37.5-37.5h-7.5v-15h97.5c12.406 0 22.5 10.094 22.5 22.5z"/><path d="m256 74.999c12.406 0 22.5-10.094 22.5-22.5s-10.094-22.5-22.5-22.5c-12.407 0-22.5 10.094-22.5 22.5s10.093 22.5 22.5 22.5zm0-30c4.136 0 7.5 3.364 7.5 7.5s-3.364 7.5-7.5 7.5-7.5-3.364-7.5-7.5 3.364-7.5 7.5-7.5z"/><circle cx="255.987" cy="294.5" r="7.5"/><path d="m255.987 272c4.143 0 7.5-3.357 7.5-7.5v-33.111c0-4.143-3.357-7.5-7.5-7.5-4.142 0-7.5 3.357-7.5 7.5v33.111c0 4.143 3.358 7.5 7.5 7.5z"/><path d="m406 75h-38.066c-4.143 0-7.5 3.357-7.5 7.5s3.357 7.5 7.5 7.5h30.566v264.5c0 12.406-10.094 22.5-22.5 22.5h-60c-4.143 0-7.5 3.357-7.5 7.5v60c0 12.406-10.094 22.5-22.5 22.5h-172.5v-377h30.566c4.142 0 7.5-3.357 7.5-7.5s-3.358-7.5-7.5-7.5h-38.066c-4.142 0-7.5 3.357-7.5 7.5v392c0 4.143 3.358 7.5 7.5 7.5h180c10.095 0 19.264-4.017 26.013-10.527.172-.144 90.817-90.788 90.961-90.961 6.51-6.748 10.526-15.917 10.526-26.011v-272c0-4.144-3.357-7.501-7.5-7.501zm-35.681 317-46.819 46.819v-46.819z"/></g></svg>