<?xml version="1.0" encoding="UTF-8"?>
<svg xmlns="http://www.w3.org/2000/svg" viewBox="0 0 64 64" width="512" height="512"><g id="Layer_32" data-name="Layer 32"><path d="M58,23.4V12.5A10.512,10.512,0,0,0,47.5,2,9.511,9.511,0,0,0,38,11.5v2.943c-.088-.06-.171-.125-.264-.179A4.588,4.588,0,0,0,33.764,12H30a6,6,0,0,0-5.186,3A2.994,2.994,0,0,0,22,13V11a6,6,0,0,0-12,0v2a3,3,0,0,0,0,6h.812A6.047,6.047,0,0,0,12,20.46v1.721L6.188,23.343A6.454,6.454,0,0,0,1,29.672V37a1,1,0,0,0,1,1H4.914a27.713,27.713,0,0,0,3.5,8.1L6.544,47.971a1,1,0,0,0,0,1.414l7.071,7.071a1,1,0,0,0,1.414,0L16.9,54.582A27.669,27.669,0,0,0,26,58.348V61a1,1,0,0,0,1,1H37a1,1,0,0,0,1-1V58.348a27.669,27.669,0,0,0,9.1-3.766l1.874,1.874a1,1,0,0,0,1.414,0l7.071-7.071a1,1,0,0,0,0-1.414L55.582,46.1a27.713,27.713,0,0,0,3.5-8.1H62a1,1,0,0,0,1-1V29.672A6.438,6.438,0,0,0,58,23.4ZM38,26V25a1,1,0,0,1,0,2h-.09A6,6,0,0,0,38,26Zm2-3.019V18.235h0V18.22A2.981,2.981,0,0,0,42,19h.812A6.047,6.047,0,0,0,44,20.46v1.721ZM42.09,17H42a1,1,0,0,1,0-2v1A6,6,0,0,0,42.09,17ZM48,20a4,4,0,0,1-4-4V11.174a14.529,14.529,0,0,0,8,2.811V16A4,4,0,0,1,48,20Zm-2.8,3.98A1,1,0,0,0,46,23V21.65a5.889,5.889,0,0,0,4,0V23a1,1,0,0,0,.8.98l1.007.2a3.986,3.986,0,0,1-7.622,0Zm6.8-1.8V20.46A6.047,6.047,0,0,0,53.188,19H54a2.981,2.981,0,0,0,2-.78v4.761ZM54,16V15a1,1,0,0,1,0,2h-.09A6,6,0,0,0,54,16ZM47.5,4A8.51,8.51,0,0,1,56,12.5v1.28A2.981,2.981,0,0,0,54,13a1,1,0,0,0-1-1h-.343a12.573,12.573,0,0,1-8.95-3.707A1,1,0,0,0,42,9v4a2.981,2.981,0,0,0-2,.78V11.5A7.508,7.508,0,0,1,47.5,4ZM26,18a4,4,0,0,1,4-4h3.764A2.6,2.6,0,0,1,36.1,15.447a1,1,0,0,0,.448.448A2.6,2.6,0,0,1,38,18.235V21a3,3,0,0,0-3-3,1,1,0,0,0-.9.553A6.2,6.2,0,0,1,28.528,22H27a1,1,0,0,0-1,1ZM41.419,35.3A4.455,4.455,0,0,1,45,39.672V46H41V41H39v5H25V41H23v5H19V39.672A4.454,4.454,0,0,1,22.581,35.3l3.631-.727a6,6,0,0,0,11.576,0ZM40.24,48a17.974,17.974,0,0,1-16.48,0ZM34.8,33.98l1.007.2a3.986,3.986,0,0,1-7.622,0l1.007-.2A1,1,0,0,0,30,33V31.65a5.889,5.889,0,0,0,4,0V33A1,1,0,0,0,34.8,33.98ZM32,30a4,4,0,0,1-4-4V24h.528a8.186,8.186,0,0,0,6.979-3.861A1,1,0,0,1,36,21v5A4,4,0,0,1,32,30ZM20,22.181V20.46A6.047,6.047,0,0,0,21.188,19H22a2.981,2.981,0,0,0,2-.78v4.761ZM26,25v1a6,6,0,0,0,.09,1H26a1,1,0,0,1,0-2Zm-3-9a1,1,0,0,1-1,1h-.09A6,6,0,0,0,22,16V15A1,1,0,0,1,23,16ZM16,7a4,4,0,0,1,3.667,2.411,2.456,2.456,0,0,0-.285-.029,2.642,2.642,0,0,0-1.171.276l-.764.382a3.29,3.29,0,0,1-2.894,0l-.764-.382a2.642,2.642,0,0,0-1.171-.276,2.456,2.456,0,0,0-.285.029A4,4,0,0,1,16,7ZM12.9,11.447l.763.382a5.236,5.236,0,0,0,4.684,0l.763-.382A.636.636,0,0,1,20,12v4a4,4,0,0,1-8,0V12A.635.635,0,0,1,12.9,11.447ZM10,17a1,1,0,0,1,0-2v1a6,6,0,0,0,.09,1Zm6,5a5.976,5.976,0,0,0,2-.35V23a1,1,0,0,0,.8.98l1.007.2a3.986,3.986,0,0,1-7.622,0l1.007-.2A1,1,0,0,0,14,23V21.65A5.976,5.976,0,0,0,16,22ZM3,29.672A4.454,4.454,0,0,1,6.581,25.3l3.631-.727a6,6,0,0,0,11.576,0l1.438.288A2.994,2.994,0,0,0,26,29h.812A6.047,6.047,0,0,0,28,30.46v1.721l-3,.6V31H23v2.18l-.812.163A6.466,6.466,0,0,0,18.169,36H9V31H7v5H3ZM17,41.938A18.083,18.083,0,0,1,15.031,38h2.2c-.01.036-.026.069-.035.1A6.466,6.466,0,0,0,17,39.672Zm36.472,3.723a1,1,0,0,0,.118,1.272l1.745,1.745-5.657,5.657L47.933,52.59a1,1,0,0,0-1.272-.118,25.722,25.722,0,0,1-9.846,4.076A1,1,0,0,0,36,57.53V60H28V57.53a1,1,0,0,0-.815-.982,25.722,25.722,0,0,1-9.846-4.076,1,1,0,0,0-1.272.118l-1.745,1.745L8.665,48.678l1.745-1.745a1,1,0,0,0,.118-1.272A25.706,25.706,0,0,1,6.99,38h5.935A20.047,20.047,0,0,0,17,45.217V47a1,1,0,0,0,1,1h2.017a19.949,19.949,0,0,0,23.966,0H46a1,1,0,0,0,1-1V45.217A20.064,20.064,0,0,0,51.075,38H57.01A25.706,25.706,0,0,1,53.472,45.661Zm-6.665-7.555c-.009-.036-.026-.07-.035-.106h2.2A18.053,18.053,0,0,1,47,41.937V39.672A6.451,6.451,0,0,0,46.807,38.106ZM61,36H56v-.6a7.891,7.891,0,0,0,2-5.225V30H56v.172a5.868,5.868,0,0,1-1.707,4.121A1,1,0,0,0,54,35v1H45.83a6.464,6.464,0,0,0-4.018-2.657l-.976-.2A5.787,5.787,0,0,1,40,30.172V30H38v.172a7.817,7.817,0,0,0,.418,2.492L36,32.181V30.46A6.047,6.047,0,0,0,37.188,29H38a2.994,2.994,0,0,0,2.774-4.135l1.438-.288a6,6,0,0,0,11.576,0l3.631.727A4.455,4.455,0,0,1,61,29.672Z"/></g></svg>
