<svg id="Capa_1" enable-background="new 0 0 512.003 512.003" height="512" viewBox="0 0 512.003 512.003" width="512" xmlns="http://www.w3.org/2000/svg"><g><path d="m284.449 353.774 2.619-21.857c7.452-2.946 14.372-6.948 20.665-11.952l20.247 8.667c7.857 3.368 17.001.326 21.277-7.078l10.648-18.454c4.273-7.396 2.339-16.838-4.499-21.962-.001-.001-.002-.001-.003-.002l-17.624-13.198c.577-3.936.869-7.933.869-11.933s-.292-7.999-.87-11.941l17.619-13.194c6.843-5.113 8.782-14.555 4.509-21.966l-10.647-18.444c-4.27-7.408-13.418-10.45-21.274-7.083l-20.252 8.669c-6.292-5.003-13.213-9.006-20.665-11.952l-2.618-21.852c-1.011-8.488-8.22-14.889-16.77-14.889h-21.309c-8.533 0-15.742 6.394-16.771 14.886l-2.61 21.854c-7.455 2.945-14.378 6.948-20.671 11.952l-20.244-8.669c-7.858-3.364-17.006-.319-21.271 7.076l-10.661 18.454c-4.271 7.408-2.332 16.85 4.506 21.959l17.633 13.198c-.578 3.942-.87 7.94-.87 11.94s.292 7.996.869 11.932l-17.636 13.201c-6.838 5.125-8.772 14.566-4.5 21.96l10.659 18.459c4.274 7.396 13.418 10.437 21.272 7.075l20.243-8.669c6.294 5.005 13.217 9.008 20.671 11.953l2.612 21.866c1.026 8.474 8.235 14.865 16.769 14.865h21.309c8.551.003 15.76-6.394 16.769-14.871zm-39.953-1.782-3.158-26.443c-.346-2.895-2.338-5.326-5.107-6.236-8.76-2.877-16.703-7.47-23.61-13.652-1.402-1.254-3.19-1.911-5.003-1.911-.997 0-2.001.198-2.951.605l-24.492 10.488c-.879.375-1.903.037-2.38-.789l-10.659-18.459c-.478-.825-.26-1.88.503-2.452l21.326-15.963c2.333-1.746 3.442-4.685 2.848-7.537-.929-4.45-1.399-9.039-1.399-13.639 0-4.598.471-9.19 1.4-13.65.594-2.851-.517-5.788-2.849-7.534l-21.331-15.966c-.761-.569-.974-1.624-.498-2.449l10.661-18.454c.476-.825 1.499-1.162 2.377-.785l24.493 10.488c2.678 1.147 5.78.638 7.954-1.306 6.906-6.181 14.851-10.774 23.61-13.651 2.77-.91 4.762-3.341 5.107-6.236l3.156-26.431c.116-.956.923-1.677 1.878-1.677h21.309c.956 0 1.762.714 1.876 1.667l3.168 26.443c.346 2.893 2.337 5.323 5.104 6.233 8.757 2.878 16.698 7.472 23.604 13.652 2.173 1.944 5.274 2.453 7.953 1.306l24.507-10.49c.874-.377 1.896-.039 2.374.79l10.648 18.446c.479.83.266 1.885-.501 2.458l-21.317 15.963c-2.331 1.746-3.441 4.682-2.848 7.533.93 4.46 1.4 9.053 1.4 13.65 0 4.6-.471 9.189-1.399 13.639-.595 2.852.515 5.79 2.847 7.536l21.314 15.961c.767.574.984 1.629.505 2.458l-10.648 18.455c-.479.827-1.5 1.168-2.38.79l-24.502-10.489c-2.678-1.146-5.78-.639-7.953 1.306-6.905 6.181-14.848 10.774-23.604 13.652-2.768.91-4.759 3.34-5.104 6.233l-3.169 26.448c-.112.942-.918 1.653-1.875 1.653h-21.309c-.955.002-1.763-.715-1.876-1.654z"/><path d="m303.148 256.006c0-25.434-20.688-46.126-46.118-46.126-25.434 0-46.126 20.692-46.126 46.126s20.692 46.126 46.126 46.126c25.43 0 46.118-20.692 46.118-46.126zm-46.118 31.126c-17.163 0-31.126-13.963-31.126-31.126s13.963-31.126 31.126-31.126c17.158 0 31.118 13.963 31.118 31.126s-13.96 31.126-31.118 31.126z"/><path d="m212.72 411.175v-33.095c0-13.471-10.96-24.431-24.431-24.431h-162.824c-13.472 0-24.432 10.96-24.432 24.431v33.096c0 6.57 2.611 12.537 6.845 16.932-4.234 4.396-6.846 10.363-6.846 16.934v33.09c0 13.471 10.959 24.43 24.43 24.43h87.33c4.143 0 7.5-3.358 7.5-7.5s-3.357-7.5-7.5-7.5h-87.33c-5.199 0-9.43-4.23-9.43-9.43v-33.09c0-5.2 4.23-9.43 9.43-9.43h162.83c5.199 0 9.43 4.23 9.43 9.43v33.09c0 5.2-4.23 9.43-9.43 9.43h-40.5c-4.143 0-7.5 3.358-7.5 7.5s3.357 7.5 7.5 7.5h40.5c13.471 0 24.43-10.959 24.43-24.43v-33.09c0-6.57-2.612-12.538-6.846-16.934 4.233-4.396 6.844-10.363 6.844-16.933zm-196.687-33.095c0-5.2 4.231-9.431 9.432-9.431h162.825c5.2 0 9.431 4.231 9.431 9.431v33.096c0 5.2-4.23 9.431-9.431 9.431h-162.825c-5.2 0-9.432-4.23-9.432-9.431z"/><path d="m45.935 416.251c11.924 0 21.624-9.7 21.624-21.624s-9.7-21.624-21.624-21.624-21.624 9.701-21.624 21.624 9.7 21.624 21.624 21.624zm0-28.248c3.652 0 6.624 2.972 6.624 6.624s-2.972 6.624-6.624 6.624-6.624-2.971-6.624-6.624 2.972-6.624 6.624-6.624z"/><path d="m92.754 416.251c11.923 0 21.623-9.7 21.623-21.624s-9.7-21.624-21.623-21.624c-11.924 0-21.624 9.701-21.624 21.624s9.7 21.624 21.624 21.624zm0-28.248c3.652 0 6.623 2.972 6.623 6.624s-2.971 6.624-6.623 6.624-6.624-2.971-6.624-6.624 2.971-6.624 6.624-6.624z"/><path d="m24.311 461.585c0 11.923 9.7 21.624 21.624 21.624s21.624-9.7 21.624-21.624-9.7-21.624-21.624-21.624-21.624 9.701-21.624 21.624zm28.248 0c0 3.652-2.972 6.624-6.624 6.624s-6.624-2.971-6.624-6.624 2.972-6.624 6.624-6.624 6.624 2.972 6.624 6.624z"/><path d="m71.13 461.585c0 11.923 9.7 21.624 21.624 21.624 11.923 0 21.623-9.7 21.623-21.624s-9.7-21.624-21.623-21.624c-11.924 0-21.624 9.701-21.624 21.624zm28.247 0c0 3.652-2.971 6.624-6.623 6.624s-6.624-2.971-6.624-6.624 2.972-6.624 6.624-6.624 6.623 2.972 6.623 6.624z"/><path d="m135.386 402.127h44.301c4.143 0 7.5-3.358 7.5-7.5s-3.357-7.5-7.5-7.5h-44.301c-4.143 0-7.5 3.358-7.5 7.5s3.358 7.5 7.5 7.5z"/><path d="m187.187 461.585c0-4.142-3.357-7.5-7.5-7.5h-44.301c-4.143 0-7.5 3.358-7.5 7.5s3.357 7.5 7.5 7.5h44.301c4.143 0 7.5-3.358 7.5-7.5z"/><path d="m491.002.011h-40.26c-.023 0-.045-.003-.068-.003-.045 0-.09.003-.135.003h-3.417c-12.515 0-24.278 4.872-33.124 13.717l-42.913 42.923c-8.843 8.854-13.713 20.613-13.713 33.109v81.01c0 11.011 8.958 19.97 19.97 19.97h55.83c4.143 0 7.5-3.358 7.5-7.5s-3.357-7.5-7.5-7.5h-55.83c-2.74 0-4.97-2.229-4.97-4.97v-77.376c0-.026.004-.051.004-.077 0-6.808 5.538-12.346 12.346-12.346h33.642c11.009 0 19.965-8.957 19.965-19.965v-33.653c0-6.785 5.502-12.305 12.278-12.342h40.396c2.74 0 4.97 2.225 4.97 4.96v150.8c0 2.74-2.229 4.97-4.97 4.97h-22.83c-4.143 0-7.5 3.358-7.5 7.5s3.357 7.5 7.5 7.5h22.83c11.012 0 19.97-8.958 19.97-19.97v-150.8c-.002-11.006-8.96-19.96-19.971-19.96zm-67.674 60.995c0 2.738-2.228 4.965-4.965 4.965h-33.642c-.609 0-1.212.027-1.811.066l40.484-40.493c-.039.598-.066 1.2-.066 1.808z"/><path d="m402.922 116.909h62.503c4.143 0 7.5-3.358 7.5-7.5s-3.357-7.5-7.5-7.5h-62.503c-4.143 0-7.5 3.358-7.5 7.5s3.357 7.5 7.5 7.5z"/><path d="m402.922 148.161h62.503c4.143 0 7.5-3.358 7.5-7.5s-3.357-7.5-7.5-7.5h-62.503c-4.143 0-7.5 3.358-7.5 7.5s3.357 7.5 7.5 7.5z"/><path d="m499.176 225.684c-1.533-12.241-12.731-20.951-24.981-19.422-12.242 1.533-20.954 12.74-19.421 24.982 1.016 8.111 1.531 16.441 1.531 24.757 0 43.793-13.927 85.34-40.275 120.149-20.802 27.483-48.246 49.033-79.781 62.736l-.979-5.808c-.922-5.463-4.571-9.879-9.764-11.812-5.194-1.934-10.842-.98-15.111 2.549l-47.701 39.426c-4.27 3.529-6.27 8.897-5.348 14.36.921 5.462 4.57 9.878 9.762 11.812l57.989 21.604c1.771.661 3.598.984 5.403.984 3.484 0 6.896-1.206 9.708-3.53 4.271-3.529 6.271-8.897 5.351-14.362l-1.689-10.02c42.367-16.225 80.479-44.784 107.842-80.933 32.281-42.648 49.345-93.535 49.345-147.157-.003-10.156-.635-20.356-1.881-30.315zm-59.427 168.422c-26.88 35.512-64.811 63.221-106.805 78.021-3.44 1.213-5.509 4.724-4.902 8.321l2.725 16.156c.017.1.031.186-.113.305-.145.117-.226.09-.321.053l-57.989-21.604c-.095-.036-.176-.066-.207-.251s.036-.24.113-.304l47.701-39.425c.053-.044.101-.084.182-.084.038 0 .083.009.139.03.176.065.19.151.207.25l2.535 15.038c.373 2.216 1.721 4.147 3.67 5.263 1.951 1.116 4.298 1.299 6.397.499 37.739-14.388 70.559-38.998 94.91-71.169 28.336-37.436 43.314-82.113 43.314-129.202 0-8.938-.555-17.895-1.647-26.622-.506-4.035 2.366-7.729 6.4-8.234 4.029-.5 7.729 2.366 8.234 6.401 1.17 9.342 1.763 18.916 1.763 28.454-.001 50.327-16.012 98.082-46.306 138.104z"/><path d="m37.061 305.921c.929 0 1.877-.061 2.802-.178 5.93-.742 11.216-3.75 14.885-8.471 3.667-4.719 5.278-10.583 4.535-16.518-1.016-8.074-1.531-16.402-1.531-24.753 0-43.793 13.925-85.338 40.271-120.144 8.209-10.847 17.627-20.919 27.992-29.938 3.125-2.719 3.454-7.457.735-10.581-2.72-3.125-7.458-3.454-10.581-.735-11.146 9.697-21.274 20.532-30.107 32.202-28.333 37.433-43.31 82.108-43.31 129.196 0 8.976.555 17.934 1.648 26.622.244 1.955-.287 3.889-1.496 5.445s-2.951 2.547-4.919 2.793c-.314.04-.625.06-.924.06-3.7 0-6.837-2.777-7.298-6.463-1.169-9.325-1.762-18.9-1.762-28.457 0-50.33 16.011-98.085 46.3-138.104 26.885-35.516 64.814-63.225 106.804-78.023 3.439-1.212 5.508-4.723 4.902-8.319l-2.721-16.162c-.017-.096-.03-.179.113-.298.148-.122.231-.091.322-.058l57.992 21.611c.096.035.171.063.201.244.031.188-.037.244-.112.307l-47.696 39.427c-.073.061-.145.12-.326.053-.174-.065-.187-.144-.204-.248l-2.54-15.04c-.374-2.215-1.722-4.145-3.671-5.261s-4.297-1.298-6.396-.499c-12.315 4.693-24.29 10.59-35.592 17.526-3.53 2.167-4.636 6.785-2.47 10.315 2.167 3.53 6.785 4.635 10.315 2.469 7.887-4.84 16.123-9.135 24.581-12.82l.98 5.804c.919 5.459 4.564 9.873 9.753 11.808 5.19 1.936 10.844.987 15.121-2.542l47.704-39.433c4.269-3.533 6.266-8.903 5.342-14.365-.923-5.458-4.57-9.87-9.755-11.8l-57.994-21.613c-5.194-1.931-10.844-.975-15.113 2.557-4.267 3.529-6.265 8.894-5.345 14.349l1.688 10.023c-42.362 16.222-80.475 44.782-107.842 80.935-32.278 42.646-49.34 93.532-49.34 147.156 0 10.179.632 20.381 1.878 30.32 1.396 11.175 10.931 19.601 22.181 19.601z"/></g></svg>