<svg id="Layer_1" enable-background="new 0 0 68 68" height="512" viewBox="0 0 68 68" width="512" xmlns="http://www.w3.org/2000/svg"><g><g><path d="m61.69653 16.78027c-.55225 0-1 .44727-1 1v33.01074c0 .65137-.53027 1.18164-1.18164 1.18164h-10.68603c-.55225 0-1 .44727-1 1s.44775 1 1 1h10.68604c1.75439 0 3.18164-1.42773 3.18164-3.18164v-33.01074c-.00001-.55273-.44776-1-1.00001-1z"/><path d="m59.51489 2h-51.03027c-1.75391 0-3.18115 1.42676-3.18115 3.18066v45.81055c0 1.64355 1.3374 2.98145 2.98096 2.98145h10.31152c.55225 0 1-.44727 1-1s-.44775-1-1-1h-10.31153c-.54102 0-.98096-.44043-.98096-.98145v-37.44824h54.39307c.55225 0 1-.44727 1-1v-7.3623c0-1.75391-1.42724-3.18067-3.18164-3.18067zm-52.21142 9.54297v-6.3623c0-.65137.52978-1.18067 1.18115-1.18067h51.03027c.65137 0 1.18164.5293 1.18164 1.18066v6.3623h-53.39306z"/><path d="m24.2771 6.77148h-1.90674c-.55225 0-1 .44727-1 1s.44775 1 1 1h1.90674c.55225 0 1-.44727 1-1s-.44775-1-1-1z"/><path d="m18.59595 6.77148h-1.90674c-.55225 0-1 .44727-1 1s.44775 1 1 1h1.90674c.55225 0 1-.44727 1-1s-.44776-1-1-1z"/><path d="m12.91479 6.77148h-1.90674c-.55225 0-1 .44727-1 1s.44775 1 1 1h1.90674c.55225 0 1-.44727 1-1s-.44775-1-1-1z"/><path d="m56.99194 6.77148h-18.6123c-.55225 0-1 .44727-1 1s.44775 1 1 1h18.6123c.55225 0 1-.44727 1-1s-.44775-1-1-1z"/><path d="m11.00806 19.19336h45.98389c.55225 0 1-.44727 1-1s-.44775-1-1-1h-45.98389c-.55225 0-1 .44727-1 1s.44775 1 1 1z"/><path d="m11.00806 25.16406h45.98389c.55225 0 1-.44727 1-1s-.44775-1-1-1h-45.98389c-.55225 0-1 .44727-1 1s.44775 1 1 1z"/><path d="m48.82886 61.38184h-11.36627c-.34485-1.18359-1.27295-2.10913-2.45941-2.45264v-1.53833c6.0918-.27344 10.7868-3.01465 10.86182-6.44751.00049-.0127.00195-.08887.00195-.10156l.15118-16.00732.00018-.00928s-.00006-.00024-.00006-.00049l.00006-.0083c0-.00195-.0011-.00366-.0011-.00562.00055-.02808.0011-.05884.0011-.0686 0-3.71484-5.24463-6.625-11.93945-6.625-6.69531 0-11.93994 2.91016-11.93994 6.625v16.08984c0 3.50562 4.69818 6.28491 10.86426 6.55884v1.53857c-1.18616.34326-2.11407 1.2688-2.45892 2.45239h-11.3736c-.55225 0-1 .44727-1 1s.44775 1 1 1h11.37299c.43706 1.50684 1.81402 2.61817 3.45952 2.61817 1.64587 0 3.02295-1.11133 3.46002-2.61816h11.36566c.55225 0 1-.44727 1-1s-.44775-1-.99999-1zm-24.68994-22.9209c.1.03791 3.10632 2.90625 9.93994 2.90625 3.2731 0 7.34011-.80251 9.87146-2.854l-.08435 4.57178c-.04785 2.19434-4.02246 4.54492-9.86328 4.54492-5.81299 0-9.86377-2.41699-9.86377-4.58594zm9.93994-8.34375c5.85742 0 9.93945 2.4375 9.93945 4.625h.00812c-.00098.01514-.00873.02759-.00909.04297-.04736 2.21289-4.05273 4.58203-9.93848 4.58203-5.85791 0-9.93994-2.4375-9.93994-4.625s4.08203-4.625 9.93994-4.625zm-9.93994 20.71484v-4.08105c2.11145 1.74902 5.70618 2.87891 9.86377 2.87891 4.17383 0 7.79254-1.15405 9.90308-2.94531l-.03979 4.18945c-.04779 2.19263-4.01642 4.54004-9.84991 4.5437-.00458-.00024-.0083-.00269-.01288-.00269s-.00836.00244-.01294.00269c-5.80623-.00367-9.85133-2.41822-9.85133-4.5857zm9.86425 13.16797c-.89209 0-1.61768-.72559-1.61768-1.61816 0-.8877.72559-1.61035 1.61768-1.61035s1.61816.72266 1.61816 1.61035c.00001.89257-.72607 1.61816-1.61816 1.61816z"/></g></g></svg>